<?xml version="1.0" encoding="utf-8"?>
<!-- Generator: Adobe Illustrator 21.1.0, SVG Export Plug-In . SVG Version: 6.00 Build 0)  -->
<svg version="1.1" id="Layer_1" xmlns="http://www.w3.org/2000/svg" xmlns:xlink="http://www.w3.org/1999/xlink" x="0px" y="0px"
	 viewBox="0 0 4748.7 2954.6" style="enable-background:new 0 0 4748.7 2954.6;" xml:space="preserve">
<style type="text/css">
	.st0{fill:none;stroke:#FFFFFF;stroke-width:5;stroke-miterlimit:10;}
	.st1{fill:none;stroke:#FFFFFF;stroke-width:5;stroke-miterlimit:10;stroke-dasharray:59.681,19.8937;}
	.st2{fill:#E6E7E8;}
	.st3{fill:#F1F1F2;}
	.st4{fill:#DBDCDD;}
</style>
<g>
	<g>
		<path class="st0" d="M2159.6,1780.5c-9.2,4.2-18.3,8.4-27.3,12.4"/>
		<path class="st1" d="M2114.1,1801c-789.8,346.1-977.8-92-799.9-114.4c181.3-22.9-64.1,463.9-110.1,561.6
			c-52.2,110.7-291.2,756.2-125.3,703.5c165.2-52.4-310.7-505.1-1060.6-179.2"/>
		<path class="st0" d="M9.1,2776.5c-9.1,4-18.2,8.1-27.3,12.4"/>
	</g>
</g>
<g>
	<polygon class="st2" points="2143.8,1644.2 2610.7,1627.6 2151.4,1788 	"/>
	<polygon class="st3" points="2143.8,1644.2 2610.7,1627.6 2053.1,1544 	"/>
	<polygon class="st4" points="2185.3,1690.3 2610.7,1627.6 2151.4,1788 	"/>
	<polygon class="st3" points="2185.3,1690.3 2610.7,1627.6 2316.9,1835.2 	"/>
</g>
</svg>
