<?xml version="1.0" encoding="utf-8"?>
<!-- Generator: Adobe Illustrator 21.1.0, SVG Export Plug-In . SVG Version: 6.00 Build 0)  -->
<svg version="1.1" id="Layer_1" xmlns="http://www.w3.org/2000/svg" xmlns:xlink="http://www.w3.org/1999/xlink" x="0px" y="0px"
	 viewBox="0 0 1329 987" style="enable-background:new 0 0 1329 987;" xml:space="preserve">
<style type="text/css">
	.st0{fill:#FCF8CD;}
</style>
<g>
	<path class="st0" d="M121.9,599c0,3.2,0.3,78.8,42,120.5c17.5,17.5,39.8,26.4,66.3,26.4c1.1,0,2.3,0,3.4,0
		c44.1-1.3,77.6-27.2,96.9-74.9c14.4-35.7,15.9-70.4,15.9-71.8l0.1-3.2H121.9L121.9,599z M340.2,602.1c-0.7,9.4-3.8,38.1-15.4,66.7
		c-18.6,45.9-49.4,69.8-91.4,71c-1.1,0-2.2,0-3.3,0c-24.8,0-45.6-8.3-61.9-24.6c-35.3-35.3-39.6-98.5-40.1-113.1H340.2z"/>
	<path class="st0" d="M234.7,842.3c-6.6,0-11.7,7.8-11.7,17.8c0,10,5.1,17.8,11.7,17.8c6.6,0,11.7-7.8,11.7-17.8
		C246.4,850.1,241.2,842.3,234.7,842.3z M234.7,871.8c-2.6,0-5.5-5-5.5-11.7c0-6.7,2.9-11.7,5.5-11.7c2.6,0,5.5,5,5.5,11.7
		C240.2,866.8,237.3,871.8,234.7,871.8z"/>
	<path class="st0" d="M358.8,569.4H108l-0.1,3c-1.4,76.6,13.6,131.5,44.7,163.2c23.9,24.3,50,27.3,60.7,27.4
		c-2.9,18.3-13.7,96.5,6.7,120.6c4.2,5,9.5,7.6,15.8,7.6c6.2,0,11.3-2.5,15.3-7.5c19.3-24.2,3.8-103.7-0.1-121.8
		c47-3.5,80.5-37,97.1-97.1c12.6-46,10.9-92,10.9-92.5L358.8,569.4z M342.1,663.2c-16.4,59.7-48.4,90.9-95,92.8l-3.7,0.2l0.8,3.6
		c0.2,1,21.6,95.6,2.1,120.1c-2.8,3.5-6.2,5.2-10.5,5.2c-4.4,0-8-1.8-11.1-5.4C204,855,219.9,761.3,220,760.3l0.7-4l-4,0.4
		c0,0-1,0.1-2.8,0.1c-9.6,0-34.2-2.5-56.9-25.6c-29.5-30-43.9-82.4-43-155.7h238.8C353,586.3,352.7,624.7,342.1,663.2z"/>
</g>
<path class="st0" d="M721.8,876.6c0-5.7,0.1-14.1,0.2-23.9c0.6-52.4,0.8-96.3-2.7-103.1c-2.4-4.5-9.5-11.6-17-19
	c-6.9-6.8-14.7-14.6-16.1-18.1c-2.8-6.7,0.8-15.3,5.8-18.5c3.5-2.3,5.1-6.5,4.2-11.1c-1.3-5.9-6.5-10.4-13.2-11.5
	c-1.1-0.2-1.8-0.4-2.1-0.5c0.4-0.9,1.8-2.7,2.8-4c2.6-3.3,5.6-7,5.4-11.1c-0.4-6.6-9.3-10.6-15.6-12.5c2.7-2.4,4.3-5.9,4.3-9.8v-8.1
	c0-5.3-3.1-9.8-7.6-12c0.3-4.2,2.4-8,5.4-11.2c1.4,0.2,3.5,0.1,6.7,0c3-0.2,10.1-0.5,11.6,0.5c0.1,6.1,3.8,17,10.7,25.2
	c4.4,5.3,10.2,7.2,14.2,7.2c0.8,0,1.6-0.1,2.2-0.3c2-0.5,2.6-1.8,2.7-2.5c0.2-1.2-0.3-2.3-1.4-3.1c-2.2-1.6-13.1-12.1-14.5-20.6
	c-1.2-7.2,0.4-18.8,1.1-23c2.9-0.8,4.8-1.2,4.9-1.2l2-0.4v-4.6h1v4.2h11.6v-4.2h5.1V557h-5.1v-4.2h-11.6v4.2h-1v-4.3l-2.6,0.1
	c-2.6,0.1-63,1.6-75.6,7.7c-6.9,3.4-16.8,13.6-23.7,22c-4.3,5.3-14.3,18.1-13.3,23.3c0.6,2.9,1.9,4.9,3.8,6c3.4,1.9,8.6,1.4,18.6-2
	c9.7-3.3,15.5-1.8,17.8-0.8v4.4c-4.5,2.1-7.6,6.7-7.6,12v8.1c0,4.4,2.2,8.3,5.5,10.7c-4.7,3.6-12.8,12.5-18.9,33.1
	c-8.7,29.6-17.9,124.5-16.9,159.6c1,32.4,5.5,71,21.4,71h71.6C709,907.9,721.8,905.5,721.8,876.6z M702.9,609.4
	c1.2,7.3,7.7,15.3,12.3,20c-2.1-0.7-4.6-2.1-6.8-4.8c-6.6-7.9-9.5-17.7-9.5-22.2c0-1.3-0.5-2.4-1.4-3.3c-2.6-2.5-8-2.4-15.5-2
	c-0.2,0-0.3,0-0.5,0c6.9-4.7,15.5-8.1,22.2-10.1C702.8,592.6,701.8,602.5,702.9,609.4z M721.8,562v-4.2h1.6v4.2h5.1v12.4h-5.1v4.2
	h-1.6v-4.2h-6V562H721.8z M644.7,605.3c-0.3-0.2-8.2-5.4-23.3-0.3c-2.9,1-11.8,4-14.5,2.4c-0.5-0.3-1-0.8-1.4-2.6
	c-0.3-4.6,21.9-33.8,34.3-39.8c9.2-4.5,52.2-6.6,71-7.2v21.5v0.6c-8.9,2-43,11.2-45.5,32.2c-0.3,0-0.5,0-0.8,0h-18
	c-0.2,0-0.4,0-0.6,0v-6L644.7,605.3z M638.2,625.4c0-4.6,3.7-8.3,8.3-8.3h18c4.6,0,8.3,3.7,8.3,8.3v8.1c0,4.6-3.7,8.3-8.3,8.3h-18
	c-4.6,0-8.3-3.7-8.3-8.3V625.4z M607.9,836.7c-1-34.8,8.1-128.8,16.7-158c7.2-24.7,17.4-30.9,19.3-31.9h2.6h18h2.9
	c6.7,1.5,16.4,5.5,16.7,9.3c0.1,2.2-2.3,5.3-4.3,7.7c-2.5,3.1-4.9,6-3.7,9c1,2.5,3.9,3.3,6.1,3.6c5.7,0.9,8.5,4.5,9.1,7.6
	c0.5,2.5-0.2,4.7-2,5.8c-7.6,4.9-11.2,16.2-7.7,24.6c1.8,4.4,9.3,11.8,17.2,19.7c6.9,6.9,14.1,14,16.1,17.8
	c3.3,6.2,2.6,67.7,2.2,100.7c-0.1,9.8-0.2,18.2-0.2,24c0,26.3-10.6,26.3-20.9,26.3h-71.6C615.6,902.9,609.1,876.9,607.9,836.7z"/>
<path class="st0" d="M1190.2,128.5c-1-0.3-2.5-0.4-4.2,0.6c-4,2.3-8,10.8-11.2,19.7c0.6-14.2,0.3-30.4-4.1-35.9
	c-1.5-1.9-3.1-2.4-4.3-2.5c-6.4-0.7-11.7,8.4-17.1,29.3c-0.1,0.3-0.2,0.6-0.2,0.9c-0.2-14.5-1.5-30.1-6-35.2
	c-1.5-1.7-3.2-2.2-4.3-2.2c-0.1,0-0.2,0-0.3,0c-6.2,0-10.9,9.2-14.9,29.7c-0.3,1.5-0.6,3-0.8,4.5c-1.3-8.8-3.6-17.6-7.7-21.3
	c-1.7-1.6-3.8-2.3-5.9-2.1c-9,0.9-11.1,22.1-13.3,54.5c-0.6,9.2-1.4,20.4-2.4,24.5c-1.6-1.5-4-4.7-6-7.2
	c-5.6-7.3-11.9-15.5-18.2-15.2c-2.6,0.1-4.8,1.6-6.6,4.5c-6.2,10,2.5,26.7,10.2,41.5c4.1,7.9,7.9,15.3,8.7,20.1
	c1.7,10.2-3.8,44.3-6.8,61.6c-2-6.6-4.1-13.6-6.3-20.7c-7.9-26-16.1-52.8-17.9-62.2c-2.8-15.2,0.2-21.9,4-30.5
	c0.8-1.8,1.7-3.7,2.5-5.8c3.2-8,10.1-27.8,5.4-38.6c-1.4-3.2-3.7-5.4-6.8-6.6c-10.2-3.9-17.8,10.6-22.8,20.2
	c-0.4,0.7-0.8,1.5-1.2,2.3c-0.4-1.8-0.8-4-1.3-6.4c-10.5-52.6-16.7-69.8-24.6-68.2c-6.7,1.3-8.8,13.6-9.2,25.7
	c-4-13.4-9.7-28.4-15.4-31.4c-1.9-1-3.5-0.8-4.5-0.4c-3.6,1.3-7.5,6.2-6.4,32c0.1,1.7,0.2,3.3,0.3,5c-4.9-13.2-11.6-27.9-17.5-30.6
	c-2-0.9-3.6-0.5-4.6-0.1c-3.6,1.6-7.2,6.9-4.1,32.9c0.4,3.2,0.8,6.5,1.3,9.5c-5.1-9.6-10.9-19.2-14.7-20.5c-1.3-0.5-2.3-0.2-3,0.1
	c-4,2-7.7,8.1-1.3,38.1c2.2,10.2,10.1,31.9,19.2,57c9,24.6,19.1,52.5,27,78c14.6,46.9,14.4,79,14.2,84.2c-0.1,0.5-0.1,1,0,1.4
	c0.6,2.9,4.3,3.3,8.2,3.3c8.7,0,25.4-2.5,43.4-6.6c9.8-2.2,19-4.6,26.7-7c-2,8.2-5.5,20.1-6.4,23.2c-0.2,0.4-0.3,0.8-0.3,1.3
	c-0.3,2.9,2.2,5.1,15.7,8c9.1,2,21.3,3.7,34.3,5c11.5,1.1,22.7,1.7,31.5,1.7c18.1,0,19.8-2.3,20-4.8c0-0.1,0-0.3,0-0.4
	c0.1-3.6,1.5-48.6,3.8-71.9c1.2-12.7,7.9-37.5,14.4-61.3c5.8-21.5,11.8-43.7,13.8-57.2C1199,149.1,1198.5,130.8,1190.2,128.5z
	 M977.4,275.8c-8-25.6-18.1-53.6-27.1-78.3c-9.1-24.9-16.9-46.4-19-56.3c-5.3-24.8-3-30.8-1.8-32.2c3.5,2.6,12.5,19.1,19.3,33.8
	l4.7-1.6c0-0.1-2.8-13.3-4.5-26.8c-3-25.4,1.1-27.6,1.3-27.7c0,0,0.2-0.1,0.5,0.1c6.3,2.8,16.7,31.2,21.8,48.5l4.9-1
	c0-0.1-1.8-13.3-2.4-26.6c-1.1-25.1,3-27,3.2-27c0.1,0,0.3,0,0.4,0.1c5.9,3.2,14.5,31.8,18.5,49l4.9-0.8c0-0.1-0.9-10.7-0.5-21.3
	c0.6-18.5,4.3-20.5,5-20.7c0.6,0.2,4,2.5,9.9,24.3c3.6,13.6,6.8,29.5,8.9,40c1.3,6.7,2,9.9,2.4,11.1c0.7,2,2.2,2.2,2.7,2.3
	c2.5,0.2,3.7-2.2,6.8-8c3.7-7.1,10.6-20.2,16.6-17.9c1.8,0.7,3.1,2,4,4c3.3,7.4-0.7,22.8-5.4,34.7c-0.8,2-1.6,3.9-2.4,5.7
	c-4,9-7.4,16.8-4.3,33.5c1.8,9.7,9.7,35.4,18,62.7c7,23,14.2,46.6,17,58.1c-0.8-0.1-1.6-0.1-2.4-0.1c-8.7,0-25.4,2.5-43.4,6.6
	c-12.7,2.9-24.6,6.1-33.4,9.2c-4.3,1.5-7.4,2.8-9.6,3.9C991.7,345.2,989.9,316.1,977.4,275.8z M1037.3,354.7
	c-17.7,4-33.9,6.5-42.3,6.5c-0.2,0-0.4,0-0.5,0c6-2.9,20.7-7.8,41.5-12.5c17.7-4,33.9-6.5,42.3-6.5c0.2,0,0.4,0,0.5,0
	C1072.7,345.1,1058.1,350,1037.3,354.7z M1140,386.7c-8.7,0-19.7-0.6-31.1-1.7c-21.2-2.1-36.3-5.1-42.7-7.2
	c2.3-0.3,6.1-0.6,12.2-0.6c8.7,0,19.7,0.6,31.1,1.7c21.2,2.1,36.3,5.1,42.7,7.2C1150,386.4,1146.2,386.7,1140,386.7z M1191.7,153.5
	c-0.5,12.7-2.8,29-4.7,41.8c-2,13.2-7.9,35.3-13.7,56.6c-6.5,24.1-13.2,49-14.5,62.2c-1.9,19.9-3.2,55.2-3.6,67.9
	c-2.4-1-5.9-1.9-10.9-3c-9.1-2-21.3-3.7-34.3-5c-11.5-1.1-22.7-1.7-31.5-1.7c-6.4,0-10.7,0.3-13.7,0.8c1.7-6,4.5-16,5.9-22.2
	c0.4-0.1,0.8-0.3,1.1-0.4c12.9-4.5,15.2-7,14.6-9.8c-0.9-5.5-4.2-17.1-8.5-31.5c1.2-6.5,10.8-59,8.5-73c-0.9-5.6-5-13.4-9.2-21.6
	c-6.7-12.9-15.1-29-10.4-36.6c1.3-2,2.2-2.1,2.6-2.1c0,0,0.1,0,0.1,0c3.7,0,9.8,7.9,13.8,13.2c5.3,6.9,8,10.2,11.1,9.8
	c3.9-0.4,4.5-5.3,6.2-29.8c0.8-11.3,1.6-24.1,3.2-34.1c2.5-15.3,5.4-15.7,5.6-15.7c0.5,0,1.2,0,2.1,0.8c6.3,5.8,7.7,32,7.7,41.6
	l5,0.2c0-0.1,1.4-14.1,4.1-27.8c5.1-25.6,9.9-25.7,10.1-25.6c0.2,0,0.5,0.2,0.8,0.5c5.4,6.1,5.4,39.9,4,59.7l5,0.6
	c0-0.1,2.3-14.3,5.9-28.1c6.7-25.8,11.6-25.6,11.8-25.6c0.1,0,0.4,0,0.9,0.7c5,6.3,3.3,38,1.1,56.5l4.9,0.9c0-0.1,2.5-10.4,6-20.6
	c6.5-19.1,10-19.5,10-19.5C1189.2,133.4,1192.5,134.9,1191.7,153.5z"/>
<path class="st0" d="M808.7,150.8c-1.8-6.4-7.6-11.5-15-12.8c0.2-2.7,0.3-4.7,0.4-6.1c5.1-1.1,9-5.6,9.2-11l3.6-12.4v-0.4
	c0-6.4-5.2-11.6-11.6-11.6H521.8c-6.4,0-11.6,5.2-11.6,11.6v0.4l3.6,12.4c0.2,5.4,4.1,9.9,9.2,11c0.1,1.4,0.2,3.5,0.4,6.1
	c-7.4,1.3-13.2,6.3-15.1,12.8c-2.7,0.5-8,2-12.1,7.1c-4.9,6.1-6.2,15-4,26.6c2.9,15,12.6,44.6,22.5,69c10.4,25.5,17.9,38,23.2,44.2
	c0.6,4.6,1.2,9.1,1.9,13.5c11.4,78.1,22.4,87.1,29.6,87.1h178c7.2,0,18.2-9,29.6-87.1c0.6-4.4,1.3-8.9,1.9-13.5
	c5.3-6.1,12.8-18.6,23.2-44.2c9.9-24.4,19.6-54,22.5-69c2.2-11.5,0.9-20.5-4-26.6C816.8,152.8,811.4,151.2,808.7,150.8z
	 M804.3,155.1c0,6.4-5.5,11.6-12.6,12.4c0.1-1.1,0.2-2.2,0.2-3.3c0.1-0.7,0.1-1.5,0.2-2.2c0.1-2.1,0.3-4.3,0.4-6.4
	c0-0.5,0.1-1.1,0.1-1.6c0.1-1.9,0.2-3.7,0.4-5.6c0.1-0.9,0.1-1.8,0.2-2.6c0.1-0.9,0.1-1.8,0.2-2.7
	C799.7,144.3,804.3,149.3,804.3,155.1z M690.8,283.9h-64.5c-4.9,0-8.9,4-8.9,8.9v1.7h-69.3c-1.1-0.3-3.2-2.2-6.2-6.6
	c-5.2-41.1-9-85.7-11.3-118.1c-0.8-11-1.4-20.3-1.8-26.9c0-0.1,0-0.2,0-0.4c-0.1-0.9-0.1-1.7-0.2-2.5l0-0.1c-0.2-3.4-0.4-6-0.5-7.8
	h261c-0.1,1.8-0.3,4.5-0.5,7.9c-0.6,9.5-1.3,19.5-2,29.7c-2.4,32.4-6.1,77-11.3,118.1c-3,4.5-5.1,6.3-6.2,6.6h-69.3v-1.7
	C699.7,287.8,695.7,283.9,690.8,283.9z M694.7,292.7v12.4c0,2.1-1.7,3.9-3.9,3.9h-64.5c-2.1,0-3.9-1.7-3.9-3.9v-12.4
	c0-2.1,1.7-3.9,3.9-3.9h64.5C693,288.9,694.7,290.6,694.7,292.7z M518.8,120.6v-0.4l-3.6-12.4c0.2-3.5,3.1-6.3,6.6-6.3h273.5
	c3.5,0,6.4,2.8,6.6,6.3l-3.6,12.4v0.4c0,3.6-3,6.6-6.6,6.6H525.4C521.8,127.1,518.8,124.2,518.8,120.6z M523.7,143
	c0.1,0.9,0.1,1.9,0.2,2.9c0,0.5,0.1,1.1,0.1,1.7c0,0.3,0,0.5,0.1,0.8c0.1,1.6,0.2,3.4,0.3,5.2c0,0,0,0.1,0,0.1
	c0.3,4.1,0.6,8.7,0.9,13.6c-7.1-0.7-12.6-6-12.6-12.4C512.7,149.3,517.4,144.3,523.7,143z M522.6,248.5
	c-9.5-23.5-18.7-51.8-21.4-65.8c-1.7-8.6-1-15.3,2.1-19.2c1.7-2.2,3.8-3.1,5.3-3.6c2.2,6.9,9,12,17.2,12.5
	c2.1,29.2,5.4,67.7,9.8,104.6C531.9,270.1,527.6,260.9,522.6,248.5z M760.3,370.2c-6.1,20.8-11,23-12.8,23h-178
	c-1.8,0-6.7-2.2-12.8-23c-4.1-14-8.1-34.1-11.9-59.8c-0.4-2.6-0.8-5.2-1.1-7.9c1.9,1,3.3,1,4.2,1h69.4v1.7c0,4.9,4,8.9,8.9,8.9h64.5
	c4.9,0,8.9-4,8.9-8.9v-1.7h69.4c0.9,0,2.3,0,4.2-1c-0.4,2.7-0.7,5.3-1.1,7.9C768.4,336.1,764.4,356.2,760.3,370.2z M815.9,182.7
	c-2.7,14-11.9,42.3-21.4,65.8c-5,12.3-9.3,21.6-12.9,28.5c4.4-36.9,7.6-75.4,9.8-104.6c8.2-0.5,15-5.6,17.2-12.5
	c1.5,0.5,3.6,1.4,5.2,3.5C816.9,167.3,817.6,174,815.9,182.7z"/>
<path class="st0" d="M1011.5,571.3l-15.6,18.8c-1-0.7-2.1-1.3-3.2-1.9l10.5-22.2l-3-1.4c-4.9-2.3-10.1-4.1-15.5-5.1l-3.3-0.7
	l-4.9,24.4c-1.2-0.1-2.4-0.2-3.6-0.2l-1.2-24.9l-3.3,0.2c-5.4,0.3-10.8,1.2-16.1,2.7l-3.2,1l7.2,24.1c-1.1,0.4-2.1,0.9-3.2,1.5
	l-13-21.6l-2.9,1.7c-8.3,5-15.6,11.9-21,20l-1.9,2.8l20.9,14.1c-0.6,1-1.1,2.1-1.6,3.1l-23.7-8.5l-1.1,3.1c-1.8,5.1-3,10.5-3.6,15.9
	l-0.3,3.3l24.9,2.5c0,1.2,0,2.4,0,3.6l-24.7,3.6l0.5,3.3c0.8,5.4,2.2,10.7,4.3,15.8l1.3,3.1l22.7-9.4c0.5,1.1,1.1,2.2,1.7,3.2
	l-19.7,14.6l2,2.7c1.9,2.6,4.1,5.1,6.4,7.4l5.1,5.1l17-17l2.1,2.1l-17,17l11.5,11.5l17-17l2.1,2.1l-17,17l11.5,11.5l17-17l2.1,2.1
	l-17,17l5.6,5.6c3,3,6.4,5.5,10.1,7.6l2.9,1.6l11.6-21c7.9,3.3,17.1,1.6,23.3-4.6l1.9-1.9l168.8,168.8c7.2,7.2,18.8,7.2,26,0
	c7.2-7.2,7.2-18.8,0-26l-168.8-168.8l1.9-1.9c5.5-5.5,7.5-13.6,5.4-21l22.1-9.1l-1.3-3.1c-2.3-5.6-5.6-10.6-9.9-14.9l-4.1-4.1
	l-17,17l-2.1-2.1l17-17l-11.5-11.5l-17,17l-2.1-2.1l17-17l-11.5-11.5l-17,17l-2.1-2.1l17-17l-6.6-6.6c-1.5-1.5-3-2.9-4.5-4.1
	L1011.5,571.3z M991.6,595.2l-5.2,6.3l3.5-7.3C990.5,594.5,991,594.9,991.6,595.2z M994.3,569.2l-7.6,16l0,0l-6.4,13.5l6.5-32.1
	C989.3,567.4,991.8,568.2,994.3,569.2z M973.7,597.5l-0.4-7.8c0.6,0,1.3,0,1.9,0.1L973.7,597.5z M957.6,566.5
	c2.6-0.6,5.2-1.1,7.9-1.3l1.5,32.7l-4.2-14l0,0L957.6,566.5z M956.7,593.2c0.6-0.3,1.1-0.5,1.7-0.8l2.2,7.2l-2.1-3.5L956.7,593.2z
	 M938.1,575.1l21.4,35.8c-0.3,0.3-0.6,0.5-0.8,0.8c0,0-0.1,0.1-0.1,0.1l-34.6-23.3C927.9,583.3,932.7,578.7,938.1,575.1z M941,608.1
	l6.2,4.2l-7-2.5C940.5,609.2,940.7,608.6,941,608.1z M914.3,607.6l17.1,6.1l0,0l13.7,4.9l-32.6-3.3
	C912.9,612.7,913.5,610.1,914.3,607.6z M936.6,624.5l7.8,0.8l-0.7,0.1l-7.2,1C936.6,625.8,936.6,625.1,936.6,624.5z M913,636.6
	l17.7-2.6l0,0l14.6-2.1l-13.7,5.7l0,0l-16.4,6.8C914.2,641.8,913.5,639.2,913,636.6z M940.3,641.2l7.5-3.1l-1.2,0.9l-5.4,4
	C940.9,642.4,940.6,641.8,940.3,641.2z M929.7,667.3l-0.4-0.4c-1.3-1.3-2.5-2.6-3.7-4l32.7-24.3L942,655L929.7,667.3z M943.3,681
	l-2.1-2.1l12.3-12.3l17-17l2.1,2.1l-17,17L943.3,681z M956.9,694.6l-2.1-2.1l12.3-12.3l17-17l2.1,2.1l-17,17L956.9,694.6z
	 M969.4,707l-0.9-0.9l12.3-12.3l9.6-9.6l-6.9,12.5l0,0l-8.3,15C973.1,710.4,971.1,708.8,969.4,707z M1204.6,841.1
	c4.6,4.6,4.6,12,0,16.5c-4.6,4.6-12,4.6-16.5,0l-168.8-168.8l16.5-16.5L1204.6,841.1z M1054.6,622.9c2.6,2.7,4.8,5.7,6.5,9
	l-26.3,10.8l7.5-7.5L1054.6,622.9z M1041,609.3l2.1,2.1l-12.3,12.3l-17,17l-2.1-2.1l17-17L1041,609.3z M1027.3,595.7l2.1,2.1
	l-12.3,12.3l-17,17L998,625l17-17L1027.3,595.7z M1005.6,608l-17,17l11.5,11.5l17-17l2.1,2.1l-17,17l11.5,11.5l17-17l2.1,2.1
	l-13.2,13.2l6.4,5.1l15.5-6.4c1.1,4.9-0.3,10.1-3.9,13.7l-1.9,1.9l-26,26l-1.9,1.9c-4.1,4.1-10,5.3-15.3,3.4l8.1-14.6l-5.8-9.2
	l-14.1,14.1l-2.1-2.1l17-17l-11.5-11.5l-17,17l-2.1-2.1l17-17l-11.5-11.5l-17,17l-2.1-2.1l17-17l-5.1-5.1c-0.4-0.4-0.8-0.9-1.1-1.3
	l-0.9-1.2l-0.5-1.3c-0.4-0.9-0.6-1.8-0.8-2.7l-0.2-1.5l0.1-1.4c0.1-1,0.3-1.9,0.6-2.8l0.5-1.3l0.8-1.2c0.9-1.4,2.3-2.7,3.7-3.5
	l1.2-0.7l1.4-0.4c0.9-0.3,1.9-0.4,2.9-0.5l1.5-0.1l1.4,0.3c0.9,0.2,1.9,0.5,2.7,0.9l1.3,0.6l1.1,0.9c0.3,0.3,0.6,0.5,0.9,0.8
	l6.6,6.6l17-17L1005.6,608z M1015.8,584.1l-12.3,12.3l-17,17l-0.7-0.7l26.6-32c0.5,0.5,1.1,1,1.6,1.5L1015.8,584.1z"/>
<path class="st0" d="M283.6,123.7c0,0.1-4.9,10.9-9,22.2c-4.4,12.2-5.9,18.8-6,22.6l-4.6-4.6l-2.8,13.8l24,24l-10.3,27.8l2.8,2.8
	l-53.2,53.2c-1.7-0.8-3.8-0.5-5.3,0.9l-23.4,23.4c-1.4,1.4-1.7,3.6-0.9,5.3l-63.2,63.2c-1.7-0.8-3.8-0.5-5.3,0.9l-12.7,12.7
	c-1.4,1.4-1.7,3.6-0.9,5.3l-15,15c-2,2-2,5.3,0,7.4c2,2,5.3,2,7.4,0l15-15c1.7,0.8,3.8,0.5,5.3-0.9l12.7-12.7
	c1.4-1.4,1.7-3.6,0.9-5.3l63.2-63.2c1.7,0.8,3.8,0.5,5.3-0.9l23.4-23.4c1.4-1.4,1.7-3.6,0.9-5.3l53.2-53.2l2.8,2.8l27.8-10.3l24,24
	l13.8-2.8l-3.7-3.7c3.8-0.1,10.5-1.6,22.6-6c11.3-4.1,22.1-9,22.2-9l1.6-0.7l-8.9-8.9l-1.3-1.3l-7.7-7.7l-1.2-1.2l-7.8-7.8l-1.2-1.2
	l-7.4-7.4l-1.6-1.6l-7.7-7.7l-0.8-0.8l-9.2-9.2l-1.7-1.7l-8.6-8.6l-1.7-1.7l-8.7-8.7l-1.6-1.6l-7.4-7.4l-1.2-1.2l-7.8-7.8l-1.2-1.2
	l-7.7-7.7l-1.3-1.3l-8.9-8.9L283.6,123.7z M318.5,198.4c-9.2,7.9-11.5,8.1-11.9,8.1c-0.3-0.4-1.2-2.9,6.4-13.8
	c1.6-1.8,3.4-3.9,5.5-6.4c5.1-6.2,9.8-12.4,11.7-14.9l8.2,8.2C334.5,182.9,325.5,191,318.5,198.4z M311.2,207.1
	c-0.7,1-1.2,1.8-1.5,2.6l-1.2-1.2C309.3,208.2,310.2,207.7,311.2,207.1z M304,204l-1.6-1.6c0.7-0.4,1.7-1,3-2.1
	C304.7,201.8,304.3,203,304,204z M133.7,379.9l62.8-62.8l3.9,3.9l-62.8,62.8L133.7,379.9z M99.7,417.8c-1.1-1.1-1.1-2.8,0-3.9
	l14.8-14.8l3.9,3.9l-14.8,14.8C102.5,418.9,100.8,418.9,99.7,417.8z M136.5,389.2l-12.7,12.7c-0.8,0.8-2.2,0.8-3.1,0l-5.2-5.2
	c-0.8-0.8-0.8-2.2,0-3.1l12.7-12.7c0.8-0.8,2.2-0.8,3.1,0l5.2,5.2C137.4,387,137.4,388.4,136.5,389.2z M229.2,296.5l-23.4,23.4
	c-0.8,0.8-2.2,0.8-3.1,0l-5.2-5.2c-0.8-0.8-0.8-2.2,0-3.1l23.4-23.4c0.8-0.8,2.2-0.8,3.1,0l5.2,5.2
	C230.1,294.3,230.1,295.7,229.2,296.5z M230.3,291.1l-3.9-3.9l53-53l3.9,3.9L230.3,291.1z M340.5,253.6l-24.2-24.2l-27.8,10.3
	L277.7,229l10.3-27.8L263.9,177l1.6-8l83.1,83.1L340.5,253.6z M273.1,173.1c1.4-1.2,4-4.5,8.8-13.8c-3.2,9.4-4.3,14.9-4.5,18.2
	L273.1,173.1z M282,182c1-0.8,2.5-2.6,5-6.8c-1.4,4.4-2,7.4-2.1,9.6L282,182z M289.3,189.3c0.8-0.6,2-1.9,3.8-4.3
	c-1,2.8-1.4,4.9-1.6,6.5L289.3,189.3z M295.9,195.9c0.8-0.5,1.9-1.5,3.6-3.5c-0.9,2.3-1.4,4.1-1.6,5.5L295.9,195.9z M314.1,214.1
	c1.3-0.3,3-0.9,5.2-1.9c-1.8,1.8-2.8,3-3.3,3.8L314.1,214.1z M320.5,220.5c1.4-0.2,3.2-0.7,5.5-1.6c-1.9,1.6-2.9,2.8-3.5,3.6
	L320.5,220.5z M327,227c1.6-0.2,3.7-0.6,6.5-1.6c-2.5,1.8-3.7,3-4.3,3.8L327,227z M333.7,233.7c2.1-0.1,5.1-0.7,9.6-2.1
	c-4.1,2.4-5.9,4-6.7,5L333.7,233.7z M341,241c3.3-0.1,8.8-1.2,18.2-4.5c-9.4,4.8-12.6,7.4-13.8,8.8L341,241z M392.1,233.3
	c-3.4,1.5-11.8,5.1-20.4,8.2c-18.9,6.9-23.4,6.1-24.5,5.5c0.5-0.9,3.5-3.8,19.8-11.7c8.1-3.9,16.3-7.5,18.7-8.5L392.1,233.3z
	 M383.2,224.4c-3.4,1.5-11.8,5.1-20.4,8.2c-18.9,6.9-23.4,6.1-24.5,5.5c0.5-0.9,3.5-3.8,19.8-11.7c8.1-3.9,16.3-7.5,18.7-8.5
	L383.2,224.4z M367.9,209.1l6.5,6.5c-3.3,1.6-11.4,5.5-19.7,9c-18.4,7.7-22.7,6.9-23.7,6.3c0.4-0.8,3-3.9,18.9-12.5
	C357.7,214.2,365.5,210.3,367.9,209.1z M365.6,206.8c-3,1.8-10.7,6.1-18.7,10.1c-17.7,8.7-21.7,7.9-22.5,7.4
	c0.2-0.7,2.1-3.5,15.1-12c0.4-0.2,0.8-0.4,1.1-0.6c6.6-3.8,12.9-7.8,16.4-10.1c0.9-0.5,1.6-0.9,2.1-1.2L365.6,206.8z M350.7,191.9
	l6.5,6.5c-0.4,0.3-0.9,0.6-1.5,1c-3.4,2-9.1,5.4-14.9,9.1c-0.9,0.6-1.8,1.2-2.7,1.7c-15.9,9-19.5,8.2-20.2,7.7
	c0.1-0.6,1.6-3.8,16.5-14.7C341.4,198.1,348.3,193.5,350.7,191.9z M331.5,201.9c-16.1,11.2-19.4,10.1-19.9,9.7
	c0-0.4,0.4-2.7,8.5-11.3c7.8-6.7,16.4-15.3,20-18.9l8,8C345.6,191.4,338.7,196.9,331.5,201.9z M328.3,169.5
	c-2.1,2.4-8,9.1-13.4,16.3c-1.5,2-2.8,3.7-3.9,5.4c-7.6,8.6-9.9,9.4-10.4,9.4c-0.5-0.7-1.4-4.1,7.7-20.2c0.6-0.8,1.1-1.7,1.7-2.7
	c3.7-5.8,7.1-11.6,9.1-14.9c0.4-0.6,0.7-1.1,1-1.5L328.3,169.5z M318.1,159.3c-0.3,0.5-0.7,1.2-1.2,2.1c-2.3,3.5-6.4,9.9-10.1,16.4
	c-0.2,0.4-0.4,0.8-0.6,1.1c-8.5,13-11.3,14.8-12,15.1c-0.5-0.8-1.3-4.8,7.4-22.5c4-8,8.3-15.7,10.1-18.7L318.1,159.3z M309.3,150.5
	c-1.2,2.4-5,10.2-9.3,18c-8.7,15.9-11.7,18.5-12.5,18.9c-0.5-0.9-1.3-5.3,6.3-23.7c3.5-8.4,7.4-16.5,9-19.7L309.3,150.5z
	 M300.4,141.7c-1.1,2.5-4.6,10.6-8.5,18.7c-7.9,16.3-10.8,19.2-11.7,19.8c-0.6-1-1.4-5.6,5.5-24.5c3.2-8.6,6.7-17,8.2-20.4
	L300.4,141.7z M291.6,132.8c-1.1,2.5-4.6,10.6-8.5,18.7c-7.9,16.3-10.8,19.2-11.7,19.8c-0.6-1-1.4-5.6,5.5-24.5
	c3.2-8.6,6.7-17,8.2-20.4L291.6,132.8z"/>
</svg>
