<?xml version="1.0" encoding="utf-8"?>
<!-- Generator: Adobe Illustrator 21.1.0, SVG Export Plug-In . SVG Version: 6.00 Build 0)  -->
<svg version="1.1" id="Layer_1" xmlns="http://www.w3.org/2000/svg" xmlns:xlink="http://www.w3.org/1999/xlink" x="0px" y="0px"
	 viewBox="0 0 487.6 525.7" style="enable-background:new 0 0 487.6 525.7;" xml:space="preserve">
<style type="text/css">
	.st0{fill:#DBDBE5;}
	.st1{fill:#FFFFFF;}
	.st2{fill:#3E414A;}
	.st3{font-family:'ArialMT';}
	.st4{font-size:16.3146px;}
	.st5{fill:none;stroke:#DBDBE5;stroke-width:7;stroke-miterlimit:10;}
	.st6{fill:none;stroke:#000000;stroke-width:2;stroke-miterlimit:10;}
	.st7{fill:none;stroke:#000000;stroke-miterlimit:10;}
	.st8{fill:#CC6633;}
	.st9{font-family:'Verdana';}
	.st10{font-size:16.5794px;}
</style>
<rect x="161.7" y="13.2" transform="matrix(0.9659 -0.2589 0.2589 0.9659 -18.4451 61.4519)" class="st0" width="124.7" height="175.2"/>
<rect x="157.1" y="14.2" transform="matrix(0.9659 -0.2588 0.2588 0.9659 -18.8564 60.2718)" class="st0" width="124.7" height="175.2"/>
<g>
	<g id="papers_1_">
		
			<rect x="25.1" y="243" transform="matrix(0.9659 -0.2589 0.2589 0.9659 -82.6219 33.926)" class="st0" width="124.7" height="175.2"/>
		
			<rect x="20.5" y="244" transform="matrix(0.9659 -0.2588 0.2588 0.9659 -83.0065 32.7531)" class="st0" width="124.7" height="175.2"/>
		<rect x="25.3" y="244.4" class="st0" width="124.7" height="175.2"/>
		<rect x="20.7" y="244.4" class="st1" width="124.7" height="175.2"/>
	</g>
	<text transform="matrix(1 0 0 1 42.3099 283.4243)" class="st2 st3 st4">DEN Flight</text>
	<line class="st5" x1="44" y1="297.1" x2="116" y2="297.1"/>
	<line class="st5" x1="44" y1="308.3" x2="122.2" y2="308.3"/>
	<line class="st5" x1="44" y1="319.4" x2="111" y2="319.4"/>
	<line class="st5" x1="44" y1="330.6" x2="125" y2="330.6"/>
	<line class="st5" x1="44" y1="341.8" x2="119.4" y2="341.8"/>
	<line class="st5" x1="44" y1="352.9" x2="116" y2="352.9"/>
	<line class="st5" x1="44" y1="364.1" x2="119.4" y2="364.1"/>
	<line class="st5" x1="44" y1="375.2" x2="116" y2="375.2"/>
	<line class="st5" x1="44" y1="386.4" x2="119.4" y2="386.4"/>
	<line class="st5" x1="44" y1="397.6" x2="116" y2="397.6"/>
</g>
<g>
	<g id="papers_2_">
		
			<rect x="258.2" y="263.5" transform="matrix(0.181 -0.9835 0.9835 0.181 -37.2507 607.0015)" class="st0" width="175.2" height="124.7"/>
		
			<rect x="253.7" y="262.4" transform="matrix(0.1811 -0.9835 0.9835 0.1811 -39.9485 601.6003)" class="st0" width="175.2" height="124.7"/>
		<rect x="283.6" y="238.6" class="st0" width="124.7" height="175.2"/>
		<rect x="279.1" y="238.6" class="st1" width="124.7" height="175.2"/>
	</g>
	<text transform="matrix(1 0 0 1 300.6771 277.6263)" class="st2 st3 st4">LAX FLIGHT</text>
	<line class="st5" x1="302.4" y1="291.3" x2="374.4" y2="291.3"/>
	<line class="st5" x1="302.4" y1="302.5" x2="380.5" y2="302.5"/>
	<line class="st5" x1="302.4" y1="313.6" x2="369.4" y2="313.6"/>
	<line class="st5" x1="302.4" y1="324.8" x2="383.3" y2="324.8"/>
	<line class="st5" x1="302.4" y1="336" x2="377.7" y2="336"/>
	<line class="st5" x1="302.4" y1="347.1" x2="374.4" y2="347.1"/>
	<line class="st5" x1="302.4" y1="358.3" x2="377.7" y2="358.3"/>
	<line class="st5" x1="302.4" y1="369.4" x2="374.4" y2="369.4"/>
	<line class="st5" x1="302.4" y1="380.6" x2="377.7" y2="380.6"/>
	<line class="st5" x1="302.4" y1="391.8" x2="374.4" y2="391.8"/>
</g>
<g>
	<path class="st6" d="M321.7,304.9c0,0.6-0.4,1.1-0.4,1.5c0,0.5,0.1,2.3,0,2.6c-0.1,0.3-0.5,0.7-0.7,1.6c-0.1,1-0.1,1-0.1,1
		s-1,0.7-1.1,1s-0.2,0.7-0.2,0.7l-0.6,0.3l-0.5,1.4v0.6c0,0,1.9,3.1,1.8,4.6c-0.1,1.4-0.7,1.7-0.7,1.7s-0.1,2-0.2,2.6
		c-0.2,0.6,2.3,3.8,2.4,5c0.2,1.2,0,1.9,0,1.9l1.8,1.6c0,0-1,1.7-0.4,4.2l1.3,1.7c0,0,0.9,0,1,0.3c0,0.4,0.3,2.1-0.9,2.4
		c0,0-0.8,1.5,0,2.1s1,1.4,1,1.4s1.8,3.5,2.2,4.2c0.4,0.7,0.8,2,0.8,2s0.6-0.2,0.6,0.3c0,0.6-0.8,3.3-0.7,3.8c0,0.6,0.6,0.8,0.6,0.8
		s1.1-0.2,1.5,0c0.4,0.3,2.3,1.6,3,1c0,0,1.5,1.8,2,2.9c0,0,1.9,0.7,2.6,0.6c0,0,1.3,1.1,0.4,2l1.8,0.3l2,2.5l1.3,2.1l0.1,3.9
		l13.2,1.1c0,0,1.6-0.2,1.4-1.9l-1.1-0.3l0.1-2.3c0,0,0.9-0.4,1.2-1.6c0,0,0.2-2.3,0.7-2.4c0.6-0.1,1.9-0.7,1.8-1.7l-0.9-0.8
		c0,0-0.4-1.9-1.1-2.6v-1l-22-30.3l3.9-18.3L321.7,304.9z"/>
</g>
<path class="st1" d="M252.5,191.3l28.3,28.3H269c-2.1,0-3.7,1.7-3.7,3.7s1.7,3.7,3.7,3.7h20.8c2.1,0,3.7-1.7,3.7-3.7v-20.8
	c0-2.1-1.7-3.7-3.7-3.7s-3.7,1.7-3.7,3.7v11.8L257.8,186c-1.4-1.4-3.8-1.4-5.3,0C251,187.5,251,189.8,252.5,191.3z"/>
<path class="st1" d="M152.5,198.8c-2.1,0-3.7,1.7-3.7,3.7v20.8c0,2.1,1.7,3.7,3.7,3.7h20.8c2.1,0,3.7-1.7,3.7-3.7s-1.7-3.7-3.7-3.7
	h-11.8l28.3-28.3c1.4-1.4,1.4-3.8,0-5.3c-1.4-1.4-3.8-1.4-5.3,0l-28.3,28.3v-11.8C156.2,200.5,154.5,198.8,152.5,198.8z"/>
<g>
	<g id="papers">
		<rect x="161.9" y="14.5" class="st0" width="124.7" height="175.2"/>
		<rect x="157.3" y="14.5" class="st1" width="124.7" height="175.2"/>
	</g>
	<text transform="matrix(1 0 0 1 178.9315 53.5487)" class="st2 st3 st4">FLIGHT LIST</text>
	<line class="st5" x1="180.7" y1="67.2" x2="252.7" y2="67.2"/>
	<line class="st5" x1="180.7" y1="78.4" x2="258.8" y2="78.4"/>
	<line class="st5" x1="180.7" y1="89.6" x2="247.6" y2="89.6"/>
	<line class="st5" x1="180.7" y1="100.7" x2="261.6" y2="100.7"/>
	<line class="st5" x1="180.7" y1="111.9" x2="256" y2="111.9"/>
	<line class="st5" x1="180.7" y1="123" x2="252.7" y2="123"/>
	<line class="st5" x1="180.7" y1="134.2" x2="256" y2="134.2"/>
	<line class="st5" x1="180.7" y1="145.4" x2="252.7" y2="145.4"/>
	<line class="st5" x1="180.7" y1="156.5" x2="256" y2="156.5"/>
	<line class="st5" x1="180.7" y1="167.7" x2="252.7" y2="167.7"/>
</g>
<g>
	<g>
		<g>
			<g>
				<path class="st7" d="M253.9,112.8L253.9,112.8c0,0.6-0.1,1.1-0.3,1.7c-0.1,0.2-0.3,0.3-0.5,0.3l-11.1-2.6
					c-0.6,1.4-2,2.3-3.6,2.3c-2.2,0-4-1.7-4-3.9v-0.1l-10.4-2.4l-1,20.7l9.7,10.5c0.1,0.1,1.3,1.6,1.4,3.6c0,0.8-0.2,1.5-0.6,2.2
					c-0.1,0.2-0.4,0.3-0.6,0.2l-11.5-6.1c-0.3,0.9-1.2,2.7-2.6,3.5c-0.1,0.1-0.3,0.1-0.4,0c-1.5-0.8-2.4-2.6-2.7-3.4l-11.4,6.3
					c-0.2,0.1-0.5,0-0.6-0.2c-0.4-0.7-0.6-1.4-0.6-2.2c0-2,1.2-3.6,1.3-3.6l9.6-10.7l-1.4-20.7l-10.4,2.6v0.1c0,2.2-1.7,4-3.9,4
					c-1.5,0-2.9-0.9-3.6-2.2l-11.1,2.8c-0.2,0.1-0.4-0.1-0.5-0.3c-0.2-0.6-0.3-1.1-0.3-1.7c0-1.9,1.2-3.2,1.2-3.2l0.1-0.1l10.1-5.1
					v-1.9c0-2.2,1.7-4,3.9-4c1.5,0,2.9,0.8,3.5,2.1l10.5-5.3L212,82.7v-0.2c-0.1-9.3,5.8-9.7,5.9-9.7s6,0.3,6.1,9.6v0.2l0.1,13.3
					l10.6,5.1c0.7-1.3,2-2.2,3.5-2.2c2.2,0,4,1.8,4,3.9v1.9l10.2,4.9c0,0,0.1,0,0.1,0.1C252.7,109.7,253.9,110.9,253.9,112.8z
					 M252.9,113.9c0.1-0.4,0.1-0.7,0.1-1.1c0-1.4-0.8-2.3-1-2.5l-10.3-5c-0.1-0.1-0.2-0.2-0.2-0.4v-2.1c0-1.7-1.4-3.1-3.2-3.1
					c-1.3,0-2.5,0.8-2.9,2.1c0,0.1-0.1,0.2-0.2,0.2s-0.2,0-0.3,0l-11.2-5.4c-0.1-0.1-0.2-0.2-0.2-0.4l-0.1-13.5v-0.2
					c-0.1-8.5-5.2-8.8-5.3-8.8c-0.2,0-5.1,0.4-5.1,8.9v0.2l0.1,13.5c0,0.2-0.1,0.3-0.2,0.4l-11.1,5.6c-0.1,0.1-0.2,0.1-0.3,0
					c-0.1,0-0.2-0.1-0.2-0.2c-0.5-1.2-1.6-2-3-2c-1.7,0-3.1,1.4-3.1,3.2v2.1c0,0.2-0.1,0.3-0.2,0.4l-10.2,5.1c-0.2,0.2-1,1.2-1,2.6
					c0,0.4,0.1,0.7,0.2,1.1l11-2.8c0.2-0.1,0.4,0.1,0.5,0.3c0.5,1.2,1.7,2.1,3,2c1.7,0,3.1-1.4,3.1-3.2v-0.5c0-0.2,0.1-0.4,0.3-0.4
					l11.2-2.8c0.1,0,0.2,0,0.3,0.1c0.1,0.1,0.2,0.2,0.2,0.3l1.5,21.4c0,0.1,0,0.2-0.1,0.3l-9.7,10.8l0,0c0,0-1.1,1.4-1.1,3.1
					c0,0.5,0.1,1,0.3,1.5l11.4-6.3c0.1-0.1,0.2-0.1,0.4,0c0.1,0,0.2,0.1,0.2,0.3c0,0,0.7,2.3,2.3,3.3c1.5-1,2.2-3.3,2.2-3.4
					c0-0.1,0.1-0.2,0.2-0.3c0.1,0,0.2,0,0.4,0l11.5,6.1c0.2-0.5,0.3-1,0.3-1.5c0-1.7-1.1-3.1-1.1-3.1l-9.8-10.6
					c-0.1-0.1-0.1-0.2-0.1-0.3l1.1-21.4c0-0.1,0.1-0.2,0.2-0.3s0.2-0.1,0.3-0.1l11.2,2.6c0.2,0,0.3,0.2,0.3,0.4v0.5
					c0,1.7,1.4,3.1,3.2,3.1c1.3,0,2.5-0.9,2.9-2.1c0.1-0.2,0.3-0.3,0.5-0.3L252.9,113.9z"/>
			</g>
		</g>
		<g>
			<path class="st7" d="M218.9,134l0.1,10.5c0,0.2-0.2,0.4-0.4,0.4c-0.2,0-0.4-0.2-0.4-0.4l-0.1-10.5c0-0.2,0.2-0.4,0.4-0.4
				C218.8,133.6,218.9,133.8,218.9,134z"/>
		</g>
		<g>
			<path class="st7" d="M242.1,109.1v2.6c0,0.2-0.2,0.4-0.4,0.4c-0.2,0-0.4-0.2-0.4-0.4v-2.6c0-0.2,0.2-0.4,0.4-0.4
				C241.9,108.7,242.1,108.9,242.1,109.1z"/>
		</g>
		<g>
			<path class="st7" d="M201.9,101.8v2.6c0,0.2-0.2,0.4-0.4,0.4c-0.2,0-0.4-0.2-0.4-0.4v-2.6c0-0.2,0.2-0.4,0.4-0.4
				S201.9,101.5,201.9,101.8z"/>
		</g>
	</g>
	<g>
		<path class="st7" d="M190.4,120.1l0.1,11.2c0,0.2-0.2,0.4-0.4,0.4c-0.2,0-0.4-0.2-0.4-0.4l-0.1-11.2c0-0.2,0.2-0.4,0.4-0.4
			C190.2,119.7,190.4,119.9,190.4,120.1z"/>
	</g>
	<g>
		<path class="st7" d="M198.4,120l0.1,15.6c0,0.2-0.2,0.4-0.4,0.4c-0.2,0-0.4-0.2-0.4-0.4l-0.1-15.6c0-0.2,0.2-0.4,0.4-0.4
			S198.4,119.8,198.4,120z"/>
	</g>
	<g>
		<path class="st7" d="M247.3,119.6l0.1,11.2c0,0.2-0.2,0.4-0.4,0.4c-0.2,0-0.4-0.2-0.4-0.4l-0.1-11.2c0-0.2,0.2-0.4,0.4-0.4
			C247.1,119.1,247.3,119.3,247.3,119.6z"/>
	</g>
	<g>
		<path class="st7" d="M239.2,119.6l0.1,15.6c0,0.2-0.2,0.4-0.4,0.4c-0.2,0-0.4-0.2-0.4-0.4l-0.1-15.6c0-0.2,0.2-0.4,0.4-0.4
			C239,119.2,239.2,119.4,239.2,119.6z"/>
	</g>
</g>
<g>
	<text transform="matrix(1 0 0 1 326.3802 92.084)" class="st8 st9 st10">• Pack Luggage</text>
	<text transform="matrix(1 0 0 1 326.3802 111.984)" class="st8 st9 st10">• Pack Laptop</text>
	<text transform="matrix(1 0 0 1 326.3802 131.884)" class="st8 st9 st10">• Pack Headphones</text>
</g>
<text transform="matrix(1 0 0 1 281.9622 461.0094)" class="st8 st9 st10">• Pack Luggage</text>
<text transform="matrix(1 0 0 1 281.9622 480.9094)" class="st8 st9 st10">• Pack Laptop</text>
<text transform="matrix(1 0 0 1 281.9622 500.8094)" class="st8 st9 st10">• Pack Headphones</text>
<text transform="matrix(1 0 0 1 281.9622 520.7094)" class="st1 st9 st10">• Pack Beach Towel</text>
<text transform="matrix(1 0 0 1 14.3392 459.7979)" class="st8 st9 st10">• Pack Luggage</text>
<text transform="matrix(1 0 0 1 14.3392 479.6978)" class="st8 st9 st10">• Pack Laptop</text>
<text transform="matrix(1 0 0 1 14.3392 499.5979)" class="st8 st9 st10">• Pack Headphones</text>
<text transform="matrix(1 0 0 1 14.3392 519.4979)" class="st1 st9 st10">• Pack Coat</text>
<path id="Colorado" class="st6" d="M101.3,364l-1-0.1h-1l-1.5-0.1l-1.5-0.1l-1.5-0.1l-1.5-0.1l-1.5-0.1l-1.5-0.2l-1.5-0.1l-1.5-0.1
	l-1.5-0.2l-1.5-0.1l-1.5-0.2l-1.5-0.2l-1.5-0.1l-1.5-0.2l-1.5-0.2l-1.5-0.2l-1.5-0.2l-1.5-0.2l-1.5-0.2l-1.5-0.2l-1.5-0.2l-1.5-0.2
	l-1.5-0.2l-1.5-0.2l-1.5-0.2l-1.5-0.2l-1.5-0.2l-1.5-0.2l-1.5-0.2l-1.5-0.2l-1.5-0.2l-1.5-0.2l0.2-1.2l0.2-1.2l0.2-1.2l0.2-1.2
	l0.2-1.2l0.2-1.2l0.2-1.2l0.2-1.2l0.2-1.2l0.2-1.2l0.2-1.2l0.2-1.2l0.2-1.2l0.2-1.2l0.2-1.2l0.2-1.2l0.2-1.2l0.2-1.2l0.2-1.2
	l0.2-1.2l0.2-1.2l0.2-1.2l0.2-1.2l0.2-1.2l0.2-1.2l0.2-1.2l0.2-1.2l0.2-1.2l0.2-1.2l0.2-1.2l0.2-1.2l0.2-1.2l1.2,0.2l1.2,0.2
	l1.2,0.2l1.2,0.2l1.2,0.1l1.2,0.2l1.2,0.2l1.2,0.2l1.2,0.2l1.2,0.1l1.2,0.2l1.2,0.1l1.2,0.2l1.2,0.1l1.2,0.2l1.2,0.1l1.2,0.2
	l1.2,0.1l1.2,0.1l1.2,0.1l1.2,0.1l1.2,0.1l1.2,0.1l1.2,0.1l1.2,0.1l1.2,0.1l1.2,0.1l1.2,0.1l1.2,0.1l1.2,0.1l1.2,0.1l1.2,0.1
	l0.9,0.1l0.9,0.1l0.9,0.1l0.9,0.1l0.9,0.1h0.9l0.9,0.1l0.9,0.1h0.9l0.9,0.1l0.9,0.1h0.9l0.9,0.1h0.9l0.9,0.1h0.9l0.7,0.1v0.6v0.6
	v0.6v0.6v0.6v0.6v0.6v0.6v0.6v0.6v0.6v0.6v0.6v0.6v0.6v0.6l-0.1,0.9v0.9v0.9l-0.1,0.9v0.9l-0.1,0.9v0.9l-0.1,0.9v0.9l-0.1,0.9v0.9
	v0.9l-0.1,0.9v0.9l-0.1,0.9v0.9l-0.1,0.9v0.9v0.9l-0.1,0.9v0.9l-0.1,0.9v0.9l-0.1,0.9v0.9l-0.1,0.9v0.9v0.9l-0.1,0.9v0.9l-0.1,0.9
	v0.9h-1l-1-0.1l-1-0.1h-1l-1-0.1L101.3,364L101.3,364L101.3,364z"/>
</svg>
