<?xml version="1.0" encoding="utf-8"?>
<!-- Generator: Adobe Illustrator 21.1.0, SVG Export Plug-In . SVG Version: 6.00 Build 0)  -->
<svg version="1.1" id="Layer_1" xmlns="http://www.w3.org/2000/svg" xmlns:xlink="http://www.w3.org/1999/xlink" x="0px" y="0px"
	 viewBox="0 0 800 600" style="enable-background:new 0 0 800 600;" xml:space="preserve">
<style type="text/css">
	.st0{fill:#DBDBE5;}
	.st1{fill:#FFFFFF;}
	.st2{fill:#3E414A;}
	.st3{font-family:'LemonMilklight';}
	.st4{font-size:16.3146px;}
	.st5{fill:none;stroke:#DBDBE5;stroke-width:7;stroke-miterlimit:10;}
	.st6{fill:none;stroke:#000000;stroke-width:2;stroke-miterlimit:10;}
	.st7{fill:none;stroke:#000000;stroke-miterlimit:10;}
	.st8{fill:#CC6633;}
	.st9{font-family:'Verdana';}
	.st10{font-size:16.5794px;}
</style>
<rect x="339.4" y="50.9" transform="matrix(0.9659 -0.2589 0.2589 0.9659 -22.1711 108.7349)" class="st0" width="124.7" height="175.2"/>
<rect x="334.8" y="51.9" transform="matrix(0.9659 -0.2588 0.2588 0.9659 -22.5736 107.5367)" class="st0" width="124.7" height="175.2"/>
<g>
	<g id="papers_1_">
		
			<rect x="202.8" y="280.8" transform="matrix(0.9659 -0.2589 0.2589 0.9659 -86.3443 81.2013)" class="st0" width="124.7" height="175.2"/>
		
			<rect x="198.2" y="281.8" transform="matrix(0.9659 -0.2588 0.2588 0.9659 -86.7219 80.0101)" class="st0" width="124.7" height="175.2"/>
		<rect x="202.9" y="282.1" class="st0" width="124.7" height="175.2"/>
		<rect x="198.3" y="282.1" class="st1" width="124.7" height="175.2"/>
	</g>
	<text transform="matrix(1 0 0 1 219.9592 321.168)" class="st2 st3 st4">DEN Flight</text>
	<line class="st5" x1="221.6" y1="334.8" x2="293.6" y2="334.8"/>
	<line class="st5" x1="221.6" y1="346" x2="299.8" y2="346"/>
	<line class="st5" x1="221.6" y1="357.1" x2="288.6" y2="357.1"/>
	<line class="st5" x1="221.6" y1="368.3" x2="302.6" y2="368.3"/>
	<line class="st5" x1="221.6" y1="379.5" x2="297" y2="379.5"/>
	<line class="st5" x1="221.6" y1="390.6" x2="293.6" y2="390.6"/>
	<line class="st5" x1="221.6" y1="401.8" x2="297" y2="401.8"/>
	<line class="st5" x1="221.6" y1="412.9" x2="293.6" y2="412.9"/>
	<line class="st5" x1="221.6" y1="424.1" x2="297" y2="424.1"/>
	<line class="st5" x1="221.6" y1="435.3" x2="293.6" y2="435.3"/>
</g>
<g>
	<g id="papers_2_">
		
			<rect x="435.9" y="301.3" transform="matrix(0.181 -0.9835 0.9835 0.181 71.0736 812.652)" class="st0" width="175.2" height="124.7"/>
		
			<rect x="431.3" y="300.2" transform="matrix(0.1811 -0.9835 0.9835 0.1811 68.3804 807.2123)" class="st0" width="175.2" height="124.7"/>
		<rect x="461.2" y="276.3" class="st0" width="124.7" height="175.2"/>
		<rect x="456.7" y="276.3" class="st1" width="124.7" height="175.2"/>
	</g>
	<text transform="matrix(1 0 0 1 478.3264 315.3701)" class="st2 st3 st4">LAX FLIGHT</text>
	<line class="st5" x1="480" y1="329" x2="552" y2="329"/>
	<line class="st5" x1="480" y1="340.2" x2="558.1" y2="340.2"/>
	<line class="st5" x1="480" y1="351.3" x2="547" y2="351.3"/>
	<line class="st5" x1="480" y1="362.5" x2="560.9" y2="362.5"/>
	<line class="st5" x1="480" y1="373.7" x2="555.3" y2="373.7"/>
	<line class="st5" x1="480" y1="384.8" x2="552" y2="384.8"/>
	<line class="st5" x1="480" y1="396" x2="555.3" y2="396"/>
	<line class="st5" x1="480" y1="407.1" x2="552" y2="407.1"/>
	<line class="st5" x1="480" y1="418.3" x2="555.3" y2="418.3"/>
	<line class="st5" x1="480" y1="429.5" x2="552" y2="429.5"/>
</g>
<g>
	<path class="st6" d="M499.3,342.6c0,0.6-0.4,1.1-0.4,1.5c0,0.5,0.1,2.3,0,2.6c-0.1,0.3-0.5,0.7-0.7,1.6c-0.1,1-0.1,1-0.1,1
		s-1,0.7-1.1,1c-0.1,0.3-0.2,0.7-0.2,0.7l-0.6,0.3l-0.5,1.4l0,0.6c0,0,1.9,3.1,1.8,4.6c-0.1,1.4-0.7,1.7-0.7,1.7s-0.1,2-0.2,2.6
		c-0.2,0.6,2.3,3.8,2.4,5c0.2,1.2,0,1.9,0,1.9l1.8,1.6c0,0-1,1.7-0.4,4.2l1.3,1.7c0,0,0.9,0,1,0.3c0,0.4,0.3,2.1-0.9,2.4
		c0,0-0.8,1.5,0,2.1c0.8,0.6,1,1.4,1,1.4s1.8,3.5,2.2,4.2c0.4,0.7,0.8,2,0.8,2s0.6-0.2,0.6,0.3c0,0.6-0.8,3.3-0.7,3.8
		c0,0.6,0.6,0.8,0.6,0.8s1.1-0.2,1.5,0c0.4,0.3,2.3,1.6,3,1c0,0,1.5,1.8,2,2.9c0,0,1.9,0.7,2.6,0.6c0,0,1.3,1.1,0.4,2l1.8,0.3l2,2.5
		l1.3,2.1l0.1,3.9l13.2,1.1c0,0,1.6-0.2,1.4-1.9l-1.1-0.3l0.1-2.3c0,0,0.9-0.4,1.2-1.6c0,0,0.2-2.3,0.7-2.4c0.6-0.1,1.9-0.7,1.8-1.7
		l-0.9-0.8c0,0-0.4-1.9-1.1-2.6l0-1l-22-30.3l3.9-18.3L499.3,342.6z"/>
</g>
<path class="st1" d="M430.1,229l28.3,28.3h-11.8c-2.1,0-3.7,1.7-3.7,3.7s1.7,3.7,3.7,3.7h20.8c2.1,0,3.7-1.7,3.7-3.7v-20.8
	c0-2.1-1.7-3.7-3.7-3.7s-3.7,1.7-3.7,3.7v11.8l-28.3-28.3c-1.4-1.4-3.8-1.4-5.3,0C428.6,225.2,428.6,227.5,430.1,229z"/>
<path class="st1" d="M330.1,236.5c-2.1,0-3.7,1.7-3.7,3.7v20.8c0,2.1,1.7,3.7,3.7,3.7h20.8c2.1,0,3.7-1.7,3.7-3.7s-1.7-3.7-3.7-3.7
	h-11.8l28.3-28.3c1.4-1.4,1.4-3.8,0-5.3c-1.4-1.4-3.8-1.4-5.3,0l-28.3,28.3v-11.8C333.8,238.2,332.1,236.5,330.1,236.5z"/>
<g>
	<g id="papers">
		<rect x="339.5" y="52.2" class="st0" width="124.7" height="175.2"/>
		<rect x="334.9" y="52.2" class="st1" width="124.7" height="175.2"/>
	</g>
	<text transform="matrix(1 0 0 1 356.5808 91.2925)" class="st2 st3 st4">FLIGHT LIST</text>
	<line class="st5" x1="358.3" y1="104.9" x2="430.3" y2="104.9"/>
	<line class="st5" x1="358.3" y1="116.1" x2="436.4" y2="116.1"/>
	<line class="st5" x1="358.3" y1="127.3" x2="425.2" y2="127.3"/>
	<line class="st5" x1="358.3" y1="138.4" x2="439.2" y2="138.4"/>
	<line class="st5" x1="358.3" y1="149.6" x2="433.6" y2="149.6"/>
	<line class="st5" x1="358.3" y1="160.7" x2="430.3" y2="160.7"/>
	<line class="st5" x1="358.3" y1="171.9" x2="433.6" y2="171.9"/>
	<line class="st5" x1="358.3" y1="183.1" x2="430.3" y2="183.1"/>
	<line class="st5" x1="358.3" y1="194.2" x2="433.6" y2="194.2"/>
	<line class="st5" x1="358.3" y1="205.4" x2="430.3" y2="205.4"/>
</g>
<g>
	<g>
		<g>
			<g>
				<path class="st7" d="M431.5,150.5L431.5,150.5c0,0.6-0.1,1.1-0.3,1.7c-0.1,0.2-0.3,0.3-0.5,0.3l-11.1-2.6
					c-0.6,1.4-2,2.3-3.6,2.3c-2.2,0-4-1.7-4-3.9l0-0.1l-10.4-2.4l-1,20.7l9.7,10.5c0.1,0.1,1.3,1.6,1.4,3.6c0,0.8-0.2,1.5-0.6,2.2
					c-0.1,0.2-0.4,0.3-0.6,0.2l-11.5-6.1c-0.3,0.9-1.2,2.7-2.6,3.5c-0.1,0.1-0.3,0.1-0.4,0c-1.5-0.8-2.4-2.6-2.7-3.4l-11.4,6.3
					c-0.2,0.1-0.5,0-0.6-0.2c-0.4-0.7-0.6-1.4-0.6-2.2c0-2,1.2-3.6,1.3-3.6l9.6-10.7l-1.4-20.7l-10.4,2.6l0,0.1c0,2.2-1.7,4-3.9,4
					c-1.5,0-2.9-0.9-3.6-2.2l-11.1,2.8c-0.2,0.1-0.4-0.1-0.5-0.3c-0.2-0.6-0.3-1.1-0.3-1.7c0-1.9,1.2-3.2,1.2-3.2
					c0,0,0.1-0.1,0.1-0.1l10.1-5.1l0-1.9c0-2.2,1.7-4,3.9-4c1.5,0,2.9,0.8,3.5,2.1l10.5-5.3l-0.1-13.3l0-0.2
					c-0.1-9.3,5.8-9.7,5.9-9.7c0.1,0,6,0.3,6.1,9.6l0,0.2l0.1,13.3l10.6,5.1c0.7-1.3,2-2.2,3.5-2.2c2.2,0,4,1.8,4,3.9l0,1.9
					l10.2,4.9c0,0,0.1,0,0.1,0.1C430.3,147.4,431.5,148.6,431.5,150.5z M430.5,151.6c0.1-0.4,0.1-0.7,0.1-1.1c0-1.4-0.8-2.3-1-2.5
					l-10.3-5c-0.1-0.1-0.2-0.2-0.2-0.4l0-2.1c0-1.7-1.4-3.1-3.2-3.1c-1.3,0-2.5,0.8-2.9,2.1c0,0.1-0.1,0.2-0.2,0.2
					c-0.1,0-0.2,0-0.3,0l-11.2-5.4c-0.1-0.1-0.2-0.2-0.2-0.4l-0.1-13.5l0-0.2c-0.1-8.5-5.2-8.8-5.3-8.8c-0.2,0-5.1,0.4-5.1,8.9
					l0,0.2l0.1,13.5c0,0.2-0.1,0.3-0.2,0.4l-11.1,5.6c-0.1,0.1-0.2,0.1-0.3,0c-0.1,0-0.2-0.1-0.2-0.2c-0.5-1.2-1.6-2-3-2
					c-1.7,0-3.1,1.4-3.1,3.2l0,2.1c0,0.2-0.1,0.3-0.2,0.4l-10.2,5.1c-0.2,0.2-1,1.2-1,2.6c0,0.4,0.1,0.7,0.2,1.1l11-2.8
					c0.2-0.1,0.4,0.1,0.5,0.3c0.5,1.2,1.7,2.1,3,2c1.7,0,3.1-1.4,3.1-3.2l0-0.5c0-0.2,0.1-0.4,0.3-0.4l11.2-2.8c0.1,0,0.2,0,0.3,0.1
					c0.1,0.1,0.2,0.2,0.2,0.3l1.5,21.4c0,0.1,0,0.2-0.1,0.3l-9.7,10.8l0,0c0,0-1.1,1.4-1.1,3.1c0,0.5,0.1,1,0.3,1.5l11.4-6.3
					c0.1-0.1,0.2-0.1,0.4,0c0.1,0,0.2,0.1,0.2,0.3c0,0,0.7,2.3,2.3,3.3c1.5-1,2.2-3.3,2.2-3.4c0-0.1,0.1-0.2,0.2-0.3
					c0.1,0,0.2,0,0.4,0l11.5,6.1c0.2-0.5,0.3-1,0.3-1.5c0-1.7-1.1-3.1-1.1-3.1l-9.8-10.6c-0.1-0.1-0.1-0.2-0.1-0.3l1.1-21.4
					c0-0.1,0.1-0.2,0.2-0.3c0.1-0.1,0.2-0.1,0.3-0.1l11.2,2.6c0.2,0,0.3,0.2,0.3,0.4l0,0.5c0,1.7,1.4,3.1,3.2,3.1
					c1.3,0,2.5-0.9,2.9-2.1c0.1-0.2,0.3-0.3,0.5-0.3L430.5,151.6z"/>
			</g>
		</g>
		<g>
			<path class="st7" d="M396.5,171.7l0.1,10.5c0,0.2-0.2,0.4-0.4,0.4c-0.2,0-0.4-0.2-0.4-0.4l-0.1-10.5c0-0.2,0.2-0.4,0.4-0.4
				C396.4,171.3,396.5,171.5,396.5,171.7z"/>
		</g>
		<g>
			<path class="st7" d="M419.7,146.8l0,2.6c0,0.2-0.2,0.4-0.4,0.4c-0.2,0-0.4-0.2-0.4-0.4l0-2.6c0-0.2,0.2-0.4,0.4-0.4
				C419.5,146.4,419.7,146.6,419.7,146.8z"/>
		</g>
		<g>
			<path class="st7" d="M379.5,139.5l0,2.6c0,0.2-0.2,0.4-0.4,0.4c-0.2,0-0.4-0.2-0.4-0.4l0-2.6c0-0.2,0.2-0.4,0.4-0.4
				C379.3,139.1,379.5,139.2,379.5,139.5z"/>
		</g>
	</g>
	<g>
		<path class="st7" d="M368,157.8l0.1,11.2c0,0.2-0.2,0.4-0.4,0.4c-0.2,0-0.4-0.2-0.4-0.4l-0.1-11.2c0-0.2,0.2-0.4,0.4-0.4
			C367.8,157.4,368,157.6,368,157.8z"/>
	</g>
	<g>
		<path class="st7" d="M376,157.7l0.1,15.6c0,0.2-0.2,0.4-0.4,0.4c-0.2,0-0.4-0.2-0.4-0.4l-0.1-15.6c0-0.2,0.2-0.4,0.4-0.4
			S376,157.5,376,157.7z"/>
	</g>
	<g>
		<path class="st7" d="M424.9,157.3l0.1,11.2c0,0.2-0.2,0.4-0.4,0.4c-0.2,0-0.4-0.2-0.4-0.4l-0.1-11.2c0-0.2,0.2-0.4,0.4-0.4
			C424.7,156.8,424.9,157,424.9,157.3z"/>
	</g>
	<g>
		<path class="st7" d="M416.8,157.3l0.1,15.6c0,0.2-0.2,0.4-0.4,0.4c-0.2,0-0.4-0.2-0.4-0.4l-0.1-15.6c0-0.2,0.2-0.4,0.4-0.4
			C416.6,156.9,416.8,157.1,416.8,157.3z"/>
	</g>
</g>
<g>
	<text transform="matrix(1 0 0 1 504.0295 129.8277)"><tspan x="0" y="0" class="st8 st9 st10">• Pack Luggage</tspan><tspan x="0" y="19.9" class="st8 st9 st10">• Pack Laptop</tspan><tspan x="0" y="39.8" class="st8 st9 st10">• Pack Headphones</tspan></text>
</g>
<text transform="matrix(1 0 0 1 459.6115 498.7531)"><tspan x="0" y="0" class="st8 st9 st10">• Pack Luggage</tspan><tspan x="0" y="19.9" class="st8 st9 st10">• Pack Laptop</tspan><tspan x="0" y="39.8" class="st8 st9 st10">• Pack Headphones</tspan><tspan x="0" y="59.7" class="st1 st9 st10">• Pack Beach Towel</tspan></text>
<text transform="matrix(1 0 0 1 191.9885 497.5416)"><tspan x="0" y="0" class="st8 st9 st10">• Pack Luggage</tspan><tspan x="0" y="19.9" class="st8 st9 st10">• Pack Laptop</tspan><tspan x="0" y="39.8" class="st8 st9 st10">• Pack Headphones</tspan><tspan x="0" y="59.7" class="st1 st9 st10">• Pack Coat</tspan></text>
<path id="Colorado" class="st6" d="M278.9,401.7l-1-0.1l-1,0l-1.5-0.1l-1.5-0.1l-1.5-0.1l-1.5-0.1l-1.5-0.1l-1.5-0.2l-1.5-0.1
	l-1.5-0.1l-1.5-0.2l-1.5-0.1l-1.5-0.2l-1.5-0.2l-1.5-0.1l-1.5-0.2l-1.5-0.2l-1.5-0.2l-1.5-0.2l-1.5-0.2l-1.5-0.2l-1.5-0.2l-1.5-0.2
	l-1.5-0.2l-1.5-0.2l-1.5-0.2l-1.5-0.2l-1.5-0.2l-1.5-0.2l-1.5-0.2l-1.5-0.2l-1.5-0.2l-1.5-0.2l-1.5-0.2l0.2-1.2l0.2-1.2l0.2-1.2
	l0.2-1.2l0.2-1.2l0.2-1.2l0.2-1.2l0.2-1.2l0.2-1.2l0.2-1.2l0.2-1.2l0.2-1.2l0.2-1.2l0.2-1.2l0.2-1.2l0.2-1.2l0.2-1.2l0.2-1.2
	l0.2-1.2l0.2-1.2l0.2-1.2l0.2-1.2l0.2-1.2l0.2-1.2l0.2-1.2l0.2-1.2l0.2-1.2l0.2-1.2l0.2-1.2l0.2-1.2l0.2-1.2l0.2-1.2l1.2,0.2
	l1.2,0.2l1.2,0.2l1.2,0.2l1.2,0.1l1.2,0.2l1.2,0.2l1.2,0.2l1.2,0.2l1.2,0.1l1.2,0.2l1.2,0.1l1.2,0.2l1.2,0.1l1.2,0.2l1.2,0.1
	l1.2,0.2l1.2,0.1l1.2,0.1l1.2,0.1l1.2,0.1l1.2,0.1l1.2,0.1l1.2,0.1l1.2,0.1l1.2,0.1l1.2,0.1l1.2,0.1l1.2,0.1l1.2,0.1l1.2,0.1
	l1.2,0.1l0.9,0.1l0.9,0.1l0.9,0.1l0.9,0.1l0.9,0.1l0.9,0l0.9,0.1l0.9,0.1l0.9,0l0.9,0.1l0.9,0.1l0.9,0l0.9,0.1l0.9,0l0.9,0.1l0.9,0
	l0.7,0.1l0,0.6l0,0.6l0,0.6l0,0.6l0,0.6l0,0.6l0,0.6l0,0.6l0,0.6l0,0.6l0,0.6l0,0.6l0,0.6l0,0.6l0,0.6l0,0.6l-0.1,0.9l0,0.9l0,0.9
	l-0.1,0.9l0,0.9l-0.1,0.9l0,0.9l-0.1,0.9l0,0.9l-0.1,0.9l0,0.9l0,0.9l-0.1,0.9l0,0.9l-0.1,0.9l0,0.9l-0.1,0.9l0,0.9l0,0.9l-0.1,0.9
	l0,0.9l-0.1,0.9l0,0.9l-0.1,0.9l0,0.9l-0.1,0.9l0,0.9l0,0.9l-0.1,0.9l0,0.9l-0.1,0.9l0,0.9l-1,0l-1-0.1l-1-0.1l-1,0l-1-0.1
	L278.9,401.7L278.9,401.7L278.9,401.7z"/>
</svg>
