<?xml version="1.0" encoding="utf-8"?>
<!-- Generator: Adobe Illustrator 21.1.0, SVG Export Plug-In . SVG Version: 6.00 Build 0)  -->
<svg version="1.1" xmlns="http://www.w3.org/2000/svg" xmlns:xlink="http://www.w3.org/1999/xlink" x="0px" y="0px"
	 viewBox="0 0 1045.4 733.4" style="enable-background:new 0 0 1045.4 733.4;" xml:space="preserve">
<style type="text/css">
	.st0{fill:#D1E8C5;}
	.st1{opacity:0.26;}
</style>
<g id="_x31_">
	<g>
		<circle class="st0" cx="105.7" cy="534.8" r="8.8"/>
		<circle class="st0" cx="202.7" cy="537.5" r="10.8"/>
		<circle class="st0" cx="192.1" cy="218.8" r="9.2"/>
		<circle class="st0" cx="295.5" cy="207.5" r="8.6"/>
		<circle class="st0" cx="828.7" cy="481.5" r="9"/>
		<circle class="st0" cx="894.7" cy="481.5" r="9"/>
		<path class="st0" d="M275,516.2c2.6-7.3,4.1-15.9,4.3-23.6c0.4-14.7-3.5-25.6-11.1-30.8c-17.9-12.4-42.5,9.2-46.7,13.2
			c-5.3-3.4-10.9-6.4-16.9-9c-6-10.3-16.9-23.7-35.3-30.8c-0.9-0.3-1.8-0.2-2.6,0.3c-0.8,0.5-1.2,1.4-1.2,2.3c0,0.1,0,2.1,0.5,5.2
			c-7.5-4.5-21.2-11.3-36.3-11.3c-2.6,0-5.2,0.2-7.7,0.6c-1.2,0.2-2.1,1.1-2.3,2.3c-0.2,1.2,0.4,2.4,1.4,2.9
			c2.4,1.3,7.8,4.8,11.7,8.7c-2.2-0.3-4.6-0.6-7.3-0.6c-9,0-16,3-20.1,8.7c-0.6,0.8-0.7,1.9-0.3,2.9c0.4,0.9,1.3,1.5,2.4,1.6
			c0.1,0,10,0.6,16.4,4.8c-10.2,5.3-16.3,13.1-20.7,21.6c-4-4-13.8-12.1-26.9-10.4c-3.3,0.4-7.6,2.5-9.8,9.8
			c-4.4,14.4,2.1,42.5,11.7,51c0.1,0.1,0.2,0.1,0.3,0.2c-6.6,13.4-10.9,32.2-4.1,49.3c5.8,14.7,18.5,25.5,37.8,32.3
			c0,0.1,0,0.1,0,0.2c-0.4,13.4,7,26.6,15.6,33.1c-2,2-4.3,5.1-4.6,8.6c-0.2,2.5,0.6,4.8,2.4,6.8c2.1,2.3,4.9,3.5,8.1,3.5
			c0.6,0,1.1,0,1.7-0.1c6.2-0.8,12.6-5.6,16-12c0.1-0.3,0.2-0.6,0.3-0.9c2.1,0,3.4-0.2,3.6-0.2c1.1-0.1,1.9-0.8,2.3-1.8
			c6.6,3,14.6,4.6,23.9,4.7c0.5,0,0.8,0,1.1,0c0.1,0.5,0.2,1,0.3,1.5c0,0.1,0,0.1,0.1,0.2c-2,1.5-6,4.9-6.6,8.9
			c-0.3,1.9,0.2,3.6,1.3,5.1c2.3,2.9,6.9,4.8,11.8,4.8c0.4,0,0.8,0,1.1,0c3.8-0.2,10.9-1.9,16.1-10c0.9-0.3,1.8-0.6,2.7-1
			c3.7-1.7,7.5-4.8,11-8.2c0.3,0.3,0.8,0.6,1.3,0.7c0.4,0.1,6.3,1.5,16.3,1.5c7,0,16.1-0.7,26.9-3c8-1.7,13.7-4.4,17.7-7.3
			c-1.8,2.5-3.6,6-2.9,9.2c0.4,1.6,1.5,3.8,4.8,5.1c1.2,0.4,2.4,0.7,3.7,0.7c3,0,6.3-1.2,9.6-3.4c4.4-3.1,9.1-8.5,10-13.3
			c3-1.2,5.8-2.9,8.4-4.9c14.3-11.4,21.5-34.3,20.1-64.6C333.7,530.8,285.6,518.3,275,516.2z M273.8,492.4
			c-0.5,16.3-6.6,31.2-11.8,34.5c-3.4-11.1-9-21.4-16.4-30.6c0,0,0,0,0-0.1c7.1-14.3,19.8-21.7,24.4-24.1
			C272.7,477.1,274,484.1,273.8,492.4z M265.1,466.3c0.5,0.4,1,0.8,1.5,1.3c-5.5,2.9-17.4,10.4-25,24.2c-4.6-5-9.7-9.5-15.3-13.6
			C231.9,473.3,251.9,457.2,265.1,466.3z M100.8,490.6c-1.7,4.1-3.2,8.2-4.6,12.2c0,0.1-0.1,0.2-0.1,0.3
			c-6.3-11.7-14.3-19.3-18.7-22.9C90.2,478.8,99.7,489.4,100.8,490.6z M72,486.1c0.3-0.9,0.6-1.7,0.9-2.3c3.9,3,13.6,11.7,20.2,25.9
			c0.1,0.2,0.3,0.4,0.4,0.6c-1.9,4.9-3.9,9.3-6.7,12.5c-1.8,2.1-3.7,4.7-5.5,7.8C73.6,522.7,68.3,498.1,72,486.1z M79.6,583
			c-2.3-5.8-3.1-11.9-2.9-18c14.1-13.8,46.6-8.2,46.9-8.1c1.1,0.2,2.2-0.6,2.4-1.7c0.2-1.1-0.5-2.2-1.7-2.4
			c-1.3-0.2-30.5-5.4-47.2,6.4c1.8-13.3,7.9-25.6,13.8-32.6c4.9-5.7,7.6-13.5,10.5-21.8c5.1-14.9,10.5-30.2,28.7-37.8
			c0.8-0.3,1.4-1.1,1.7-1.9c0.2-0.9,0-1.8-0.6-2.5c-4.4-5.1-11.9-7.4-17.2-8.4c3-1.8,6.9-2.8,11.6-2.8c6.8,0,12.8,2,12.9,2
			c1,0.3,2.2,0.1,2.9-0.8c0.7-0.8,1-2,0.5-3c-2-4.7-6.7-9.1-10.9-12.2c19.7,0.6,37.4,14,37.6,14.1c1,0.7,2.3,0.8,3.3,0.1
			c1-0.7,1.4-1.9,1.1-3.1c-0.7-2.4-1.2-4.5-1.4-6.2c14.8,7,23.6,18.6,28.6,27.3c0.3,0.5,0.8,1,1.4,1.2c31.4,13,52.9,38.9,57.6,69.1
			c2.4,15.5,2.1,37.6-12.8,55.1c-14.5,16.9-39.3,25.5-73.6,25.5c-8.4,0-17.5-0.5-27-1.6C109.7,614.9,87.5,602.8,79.6,583z
			 M134.6,663.8c-2.1,0.3-3.7-0.3-4.9-1.6c-0.7-0.8-1-1.5-0.9-2.4c0.2-2.2,2.5-4.8,4.1-6.2c0.5,0.2,1,0.4,1.5,0.6
			c3.8,1.2,7.7,1.8,11.1,2.1C142.8,660.2,138.5,663.3,134.6,663.8z M190.1,674.1c-3.8,0.2-7.1-1.2-8.2-2.6c-0.2-0.3-0.3-0.5-0.2-0.8
			c0.2-1.5,2.4-3.7,4.2-5.1c0.1,0.1,0.3,0.1,0.5,0.2c0.4,0.1,1.1,0.5,1.9,0.9c2.4,1.3,5.9,3.2,10.4,3.7
			C195.4,673.2,192.1,673.9,190.1,674.1z M294.4,659.3c-3.1,2.1-6.1,2.9-8.1,2.1c-0.8-0.3-1.2-0.6-1.3-1c-0.3-1.5,2-5.2,4.3-7.5
			c0,0,0,0,0,0c1.6,0.2,3.3,0.3,4.9,0.3c2.2,0,4.4-0.2,6.6-0.6C299.4,654.9,297.1,657.4,294.4,659.3z M312.5,641.3
			c-6.9,5.5-15.3,7.5-24.4,5.8c4.4-5.7,4.5-10.9,4.5-11.3c0-1.5-1.2-2.8-2.8-2.8c-1.5,0-2.8,1.2-2.8,2.8c0,0.6-0.6,13.5-23.6,18.5
			c-20.3,4.4-34.6,2.6-39.1,1.8c4.6-5.1,7.9-9.7,8.1-10.1c0.9-1.3,0.6-3-0.7-3.9c-1.3-0.9-3-0.6-3.9,0.7
			c-0.1,0.2-11.8,16.6-21.1,20.8c-6.8,3.1-12.3,0.1-15.9-1.8c-0.9-0.5-1.7-0.9-2.4-1.2c-1.1-2-1.3-11.2,2.7-15.2
			c1.1-1.1,1.1-2.9,0-4c-1.1-1.1-2.9-1.1-4,0c-3.1,3.1-4.6,7.9-4.9,12.2c-0.3,0-0.6,0-0.9,0c-6.8-0.1-27.3-0.3-36.7-18.6
			c-0.7-1.4-2.4-1.9-3.8-1.2c-1.4,0.7-1.9,2.4-1.2,3.8c2.8,5.4,6.6,9.9,11.3,13.2c-3.6,0-9.5-0.3-15-2c-8.5-2.7-18-16-18.2-29.6
			c8.1,2.4,17.2,4.1,27.3,5.3c9.7,1.1,19,1.6,27.7,1.6c0,0,0,0,0,0c36,0,62.2-9.2,77.9-27.4c12.9-15.1,17.8-35.7,14.1-59.6
			c-0.4-2.3-0.8-4.6-1.4-6.9c0.5,0,1-0.1,1.4-0.4c3.1-1.9,5.8-5.6,8-10.3c6.4,1,55.3,10.7,57.6,59.9
			C331.8,609.8,325.4,631.1,312.5,641.3z"/>
		<path class="st0" d="M151.1,573.6c6.3,1.5,6.6-3.7,6.6-3.7c-6.5,3.1-8.4-1.6-9-4.4c6-0.6,9.8-5.6,9.2-8.4
			c-0.6-3-15.2-7.3-22.5-1.8c-4.7,3.5,2.9,8.7,9.4,10c-1,3-3.8,8.4-9.9,4.3c0,0,1,3.8,6.6,3.3c2.3-0.2,3.8-1.8,4.8-3.5
			C147.1,571.2,148.5,573,151.1,573.6z"/>
		<path class="st0" d="M574.4,417.7c-29.1,17.5-44.1,51-48.1,61.2c-7.8-4.7-17.2-8.1-28.1-10c2.9-14,18.7-96-11-118.6
			c-3.5-2.7-6.7-2.5-8.7-1.9c-7.2,2.2-11.4,13-15.2,23.9c-0.3,0.8-0.5,1.4-0.7,2.1c-0.3,1-1.2,2.6-2.2,4.5
			c-7.1,13.9-23.7,46.2,2.1,91.8c-25.9,8.8-41.6,33.4-51.8,52.8c-4.5,8.7-4.8,19.1-0.6,30c4.7,12.4,14.6,24.3,27.4,33.7
			c-0.2,0.3-0.3,0.6-0.3,1c-0.1,1.2-2.3,28.2,13.9,55.4c-2.1,2.6-3.8,7.2-1.6,13.5c0.8,2.3,2.9,5.4,8.5,7.3
			c3.2,1.1,7.1,1.5,10.7,1.5c3.9,0,7.5-0.5,9.5-1.5c0.1,0.1,0.2,0.2,0.3,0.4c4,3.6,11,6.1,19.9,6.1c6.3,0,13.6-1.3,21.3-4.4
			c0.1,0.6,0.2,1.2,0.3,1.9c0.5,2.2,2.1,3.9,4.7,5.1c3.4,1.6,8.9,2.4,15.2,2.4c12.2,0,27.6-2.8,37.6-7.7c12-5.8,20.3-17.7,24.3-33.9
			c2.3,0.5,4.5,0.8,6.6,0.8c5,0,9.2-1.5,12.3-4.5c4.7-4.6,6.3-11.9,4.3-20.5c-1.2-5.2-3.7-8.9-7.6-10.8c-4.8-2.4-10.3-1.5-13.4-0.6
			c-0.2-2-0.4-4-0.6-6c-4.8-38.9-42.3-52.2-48.6-54.1c0.4-15.9-2.6-29.4-9.1-40.2c47.8-0.9,79-40.6,82.9-56.2
			c1.5-5.9,5.2-11.3,8.4-16.1c4.3-6.2,8.3-12.2,4.1-16.8C634.9,402.2,608.1,397.5,574.4,417.7z M465.4,381.3c1.1-2.2,2-3.9,2.5-5.2
			c0.2-0.6,0.5-1.4,0.7-2.1c2.1-6.1,6.5-18.8,11.5-20.4c0.7-0.2,1.8-0.3,3.6,1c26.9,20.5,11.4,101.1,8.9,113.3
			c-0.3,0-0.5-0.1-0.8-0.1c-3-0.4-6.1-0.6-9-0.6c-5.3,0-10.2,0.6-14.8,1.7C442.8,425.4,458.7,394.5,465.4,381.3z M615,604.1
			c2.3,1.2,3.9,3.5,4.7,7c1.5,6.7,0.5,12.1-2.7,15.3c-3,2.9-8,3.7-13.9,2.3c1.3-7.4,1.8-15.6,1.4-24.4
			C606.2,603.7,611.2,602.2,615,604.1z M597.9,593.2c4.3,34.8-4.2,60.9-22.7,69.9c-13.4,6.5-39.4,9.3-48,5.2c-1.1-0.5-1.6-1-1.6-1.3
			c-0.8-3.5-0.1-6.9,1.9-9.2c2.3-2.6,6.1-3.9,10.8-3.5c1.5,0.1,2.9-1,3-2.6c0.1-1.5-1-2.9-2.6-3c-0.5,0-1,0-1.5-0.1
			c-0.1-0.6-0.3-1.2-0.8-1.7c-0.1-0.1-5.9-6.1-5.6-14.7c0.3-6.5,4-12.9,11-19.1c1.2-1,1.3-2.8,0.3-4c-1-1.2-2.8-1.3-4-0.3
			c-8.3,7.2-12.7,15-12.9,23.2c-0.3,8.2,3.7,14.4,5.9,17.2c-3.1,0.9-5.8,2.5-7.8,4.8c-1.7,1.9-2.8,4.3-3.3,6.8
			c-0.6-0.1-1.2-0.1-1.7,0.1c-17.8,7.3-31.3,3.7-36-0.5c-0.3-0.3-0.5-0.6-0.7-1c0.5-2.1,0.6-4.6,0.5-6.9c0.5-1.5,1.1-2.9,1.6-4
			c2.5,0.3,5.1,0.5,7.8,0.5c3.3,0,6.7-0.3,10.1-1c1.5-0.3,2.5-1.8,2.2-3.3c-0.3-1.5-1.8-2.5-3.3-2.2c-17,3.3-32.9-4.2-33.1-4.3
			c-1.4-0.7-3.1-0.1-3.7,1.3c-0.7,1.4-0.1,3.1,1.3,3.7c0.4,0.2,4.7,2.2,11.3,3.8c-0.2,0.5-0.3,1-0.3,1.6c0.1,1,0.2,2.1,0.3,3.1
			c-0.6,2.3-1,4.9-0.7,7.4c-1.8,0.8-10.5,1.7-16.5-0.6c-2.4-0.9-3.9-2.1-4.4-3.6c-2.2-6.1,1.1-8.6,1.4-8.8c1.3-0.8,1.7-2.6,0.9-3.9
			c-13.8-22-14.5-44.9-14.3-51.8c5.8,3.7,12,6.9,18.5,9.4c10.7,4.1,22.1,6.2,32.9,6.2c0,0,0,0,0,0c30.7,0,52.2-16.1,57.7-43.1
			c1.3-6.6,2.2-12.9,2.6-18.9C562.8,547,593.7,559.8,597.9,593.2z M546.4,562c-4.9,24.2-24.4,38.6-52.2,38.6
			c-10.2,0-20.9-2-30.9-5.9c-22.3-8.5-41-25.5-47.9-43.4c-3.6-9.3-3.4-18.1,0.3-25.4c11.9-22.8,31.7-53.1,67.2-53.1
			c2.7,0,5.5,0.2,8.3,0.5c22,2.8,37.9,10.8,47.4,24C549.4,512.5,552,534.2,546.4,562z M632.4,422.8c-3.3,4.9-7.5,10.9-9.2,17.9
			c-2.7,11-31.1,53.3-81.3,51.9c-3.1-3.9-6.6-7.5-10.8-10.5c3-7.7,17.6-42.4,46.2-59.5c33.2-19.9,56.4-13.2,59.6-9.6
			C638.2,414.3,635.3,418.6,632.4,422.8z"/>
		<path class="st0" d="M612.2,420.8c-1.7,0-40.7,0.6-63.2,53.7c-0.4,0.9-0.3,1.9,0.3,2.7c0.5,0.7,1.4,1.2,2.3,1.2c0.1,0,0.1,0,0.2,0
			c0.6,0,55.9-4.8,63.2-54.4c0.1-0.8-0.1-1.6-0.7-2.2C613.8,421.2,613,420.8,612.2,420.8z M556.2,472.2
			c17.6-37.5,43.4-44.3,52.6-45.5C601.8,461.2,568.8,470.1,556.2,472.2z"/>
		<path class="st0" d="M481.8,379.8c-0.5-0.8-1.4-1.4-2.4-1.4c-1,0-1.9,0.5-2.4,1.3c-27,42.5-1.7,78.6-1.4,78.9
			c0.5,0.7,1.4,1.2,2.2,1.2c0,0,0,0,0,0c0.9,0,1.7-0.4,2.2-1.1C506.7,423.7,482.1,380.2,481.8,379.8z M478.1,451.8
			c-4.9-9.1-15.5-34.7,1.1-64.8C484.1,398,494.3,426.9,478.1,451.8z"/>
		<path class="st0" d="M433,523.5c6.5,4.9,13.8-2.4,8.9-8.9C435.4,509.7,428.1,517.1,433,523.5z"/>
		<path class="st0" d="M494.2,541.7c8.7,6.6,18.4-3.2,11.8-11.8C497.4,523.3,487.6,533,494.2,541.7z"/>
		<path class="st0" d="M457.3,543.5c-1.7-1.4-1.9-3.4-1.8-4.8c2.3,0.8,4.7,0.7,6.2-0.9c4-4.5-6.6-12.1-11.1-7.6
			c-2.3,2.3-0.5,5.3,2.4,7.2c-0.1,1.4-0.6,3-2.1,3.6c-2.7,1.2-7.2-2.5-7.2-2.5s1.7,4.2,5.9,4.9c1.5,0.2,2.7-0.3,3.6-1.2
			c0.3,1.6,0.9,3.1,2.3,3.6c4.4,1.8,7.6-1.3,7.6-1.3S460.2,545.9,457.3,543.5z"/>
		<path class="st0" d="M81.4,225.4c-6.2,20.4-5.4,39.1,2.3,53.2c6.1,11.1,16.2,18.6,28.4,21.2c11.4,2.4,17.7,3,21.9,3.5
			c5.1,0.5,6.5,0.7,10.6,3.3c1.5,1,3.2,1.4,4.9,1.4c1.8,0,3.6-0.5,5.3-1.5c0.9-0.5,1.6-1.1,2.4-1.8c1.7,0.3,5.9,0.8,11.1,0.8
			c4.2,0,9.1-0.4,13.8-1.6c0.6-0.2,1.1-0.5,1.5-1c0.4,0.1,0.7,0.3,1.1,0.4c8.8,2.7,19.2,4.4,29,4.4c10.6,0,20.5-1.9,27-6.5
			c4.8-3.3,7.6-8,7.9-13.5c7-1.1,14-2.5,20.8-4.4c2.1,2,10.7,9.2,22.5,9.2c4.4,0,9.3-1,14.4-3.8c13.7-7.3,21.6-14.9,24-23.3
			c1.7-5.7,0.8-11.6-2.6-17.6c-0.3-0.6-0.8-1-1.4-1.2c7.3-16,9.4-39.5,1-62.3c-0.2-0.5-0.4-1.1-0.6-1.6c9.1-22,1.7-56.9-10.8-72.3
			c-5.8-7.2-11.1-8-14.5-7.4c-17.2,3.2-32.9,28.9-33.6,30c-0.1,0.1-0.2,0.3-0.2,0.4c-9.4-2.3-20.2-3.6-32.5-3.6c-1.2,0-2.5,0-3.8,0
			c-20.3,0.4-38.7,6.7-53.5,17.7c-2.2-1.4-30.1-19.6-47-15.2c-3.1,0.8-7.3,3.6-9.6,12.5c-2.3,9-2.1,21.6,0.1,34.4
			c-4.7-0.4-16.6,0.7-28.3,19.3c-1-0.2-3.7-0.9-4.8-3.1c-1.6-3.1,0-8.8,4.4-15.9c9.1-14.7,11.3-32,5.6-45.1
			c-3.3-7.6-10.7-17.3-27.7-20.7c-23.1-4.6-29.2,8.3-30.6,12.4c-3.1,9.5,1.5,20.5,10.3,24.6c2.9,1.4,5.9,2.4,8.5,3.3
			c5.8,2,10.3,3.7,11.5,7c1.3,3.6-0.8,9.9-6.3,19.2c-10.8,18.1-6.2,29.8-2.5,35.1c4.3,6.2,11.7,10,18.8,10
			C80.8,225.5,81.1,225.4,81.4,225.4z M237.6,296.6c-10.7,7.4-34.4,6.5-51.2,1.3c-16-4.9-20-19-21-25.8
			c17.5,14.3,41.1,17.5,58.8,17.5c0,0,0,0,0,0c6.1,0,12.4-0.4,18.8-1.2C242.4,291.8,240.7,294.5,237.6,296.6z M325,264
			c-2,6.8-9.1,13.5-21.3,19.9c-12.4,6.6-22.9,1.2-27.7-2.3c16.2-5,30.6-12,39.8-19.9c2.9-2.4,5.5-5.7,7.8-9.5
			C325.6,256.2,326.1,260.2,325,264z M302.6,108.7c3.6-0.7,7.2,3.1,9.1,5.4c10.3,12.8,17,41.3,11.7,61.3c-2.1-4.1-4.7-8.3-8.1-12.6
			c0.1-0.1,0.1-0.2,0.2-0.4c3.7-11.1,1.4-23.2-2.5-30.2c-2.3-4.1-5.2-6.7-8.5-7.4c-8.8-2-16.6,10.8-18.8,15
			c-3.8-1.7-7.8-3.3-12.3-4.6C276.3,130.6,289.5,111.1,302.6,108.7z M310.9,157.7c-5.3-5.6-11.9-11-20.3-15.5
			c3.1-5.6,8.9-12.9,12.6-12.1c1.6,0.4,3.3,2.1,4.8,4.7C310.9,140,312.9,149.1,310.9,157.7z M231.6,135.6c1.2,0,2.4,0,3.6,0
			c59.3,0,79.9,31.8,86.9,50.8c5.6,15.2,6.2,31.2,3.4,44.5c-16.1-14-48.1-8.4-49.5-8.2c-1.1,0.2-1.9,1.3-1.7,2.4
			c0.2,1.1,1.3,1.9,2.4,1.7c0.3-0.1,33.7-5.9,47.5,8.7c0,0,0.1,0,0.1,0.1c-2.6,9.5-6.9,17.2-12.2,21.7c-15.2,13-51.2,26.8-88,26.8
			c-18.8,0-44.6-3.8-61-21.8c-16.6-18.3-19.9-48.9-8.2-76.2C168.2,155.2,196.8,136.4,231.6,135.6z M149.7,183.9
			c-0.4,0.9-0.8,1.9-1.1,2.8c-3.4-4.6-6.3-14.4-5.1-20.6c0.4-2.3,1.3-3.8,2.7-4.5c5.2-2.6,12,1.1,14.8,3
			C156.6,170.4,152.8,176.9,149.7,183.9z M126.9,146.4c1.2-4.8,3.2-7.9,5.6-8.5c12.7-3.3,34.8,9.7,40.9,13.5
			c-3.1,2.7-6.1,5.6-8.8,8.8c-3.3-2.2-12.8-7.7-20.9-3.6c-2.1,1-4.7,3.3-5.7,8.5c-1.6,8.7,2.5,21.1,7.3,26.4
			c0.4,0.4,0.9,0.7,1.4,0.8c-2.6,8.1-4,16.4-4.2,24.6C128,199.2,122.6,163,126.9,146.4z M122.1,185.1c0.2,0.1,0.5,0.1,0.7,0.1
			c3.5,15.6,10.1,30.8,19,39.3c0.2,0.2,0.5,0.4,0.8,0.5c1.1,15.8,6.6,30.4,16.4,41.2c0.3,0.3,0.6,0.6,0.8,0.9
			c-0.2,0.4-0.4,0.9-0.4,1.4c0,0.2,0.2,20.6,16.7,31c-5.9,0.8-11.9,0.5-15.4,0.1c0.6-1.6,0.9-3.4,0.8-5.2c-0.2-3.5-2-10-12.5-14.8
			c-7.9-3.6-14.3-5.6-19.4-7.2c-8.9-2.8-12-4-13.1-8.2c-0.4-1.5-1.9-2.4-3.4-2c-1.5,0.4-2.4,1.9-2,3.4c1.9,7.6,7.8,9.4,16.8,12.2
			c5,1.6,11.2,3.5,18.8,7c5.7,2.6,9,6.2,9.2,10c0.2,3.2-1.8,5.8-3.9,7c-0.9,0.5-2.7,1.3-4.4,0.2c-5.3-3.4-7.7-3.6-13.1-4.2
			c-4.1-0.4-10.2-1-21.3-3.4c-10.6-2.2-19.3-8.7-24.6-18.4c-7.8-14.3-7.7-34,0.4-55.5C103.8,181,121.7,185,122.1,185.1z M66.3,212.2
			c-5-7.3-4.1-17.6,2.7-29c6.6-11.1,8.7-18.5,6.8-23.9c-2.1-5.8-8.3-8-14.9-10.4c-2.6-0.9-5.4-1.9-8.1-3.1
			c-6.3-2.9-9.6-10.9-7.3-17.7c2.6-7.9,11.6-11.1,24.1-8.6c11.6,2.3,19.8,8.3,23.7,17.4c4.9,11.3,2.8,27-5.2,39.9
			c-5.7,9.1-7.2,16.3-4.6,21.4c1.7,3.3,4.6,4.8,6.8,5.5c-2.3,4.2-4.5,9.1-6.6,14.8c-0.1,0.4-0.3,0.8-0.4,1.2c-0.1,0-0.3,0-0.4,0
			C77.9,220.6,70.5,218.3,66.3,212.2z"/>
		<path class="st0" d="M256.5,235.6c6.6,0,18-14.2,10.4-19c-7.6-4.7-21.8-6.6-25.6,4.7C238.2,230.7,249.9,235.6,256.5,235.6z"/>
		<path class="st0" d="M1007.1,255.2c-0.7-1.1-2.4-2.7-6.5-1.7c-7.2,1.9-13.9-3.5-16-5.4c0.7-0.8,1.2-1.6,1.6-2.3
			c2-3.7,2.1-7.3,0.3-10.3c-2.3-4-7.3-5.7-11.2-5.7c-0.2,0-0.5,0-0.7,0c-1.3-11-15.1-47.1-38.1-66.2c-12.4-10.3-25.6-14.3-39.2-11.7
			c-42.3,7.9-61.5,59.5-65.5,72c-0.4-0.1-0.8-0.1-1.2-0.1c-0.5,0-1.1,0.1-1.6,0.1c-0.8-4.8-2.8-22,5.9-40.1
			c8.7-18.1,17.4-57,3.7-84.3c-8.2-16.4-23-26.9-44.1-31.2c-29.1-5.8-52.7-2.2-70.2,10.9c-22,16.4-27.3,42.2-28.5,56.1
			c-1.8,21.1,8.1,43.4,24.7,55.4c6.7,4.8,13.8,7.5,20.8,8c0.1,0.2,0.3,0.4,0.5,0.6c0.7,0.7,13.3,13.3,33.5,13.9
			c0,0.4,0.1,0.7,0.2,1.1c0.6,1.3,12.9,28.2,44,47.9c-0.2,0.4-0.4,0.8-0.5,1.3c-0.1,0.1-0.2,0.3-0.3,0.5c-1.6,2.6-4.6,7.4-4.2,12.2
			c0.2,2.6,1.7,5.1,4.5,7.2c3.8,3,9.6,5,14,5c0.1,0,0.1,0,0.2,0c0.2,1.3,0.6,2.6,1.3,3.6c4.5,6.7,18.2,10.3,24.9,9.3
			c4.1-0.6,7.8-3.8,11-6.7c1.6-1.4,4.1-3.7,5-3.7c0.4,0,1,0.1,1.8,0.3c16.7,2.4,31.3,2.9,43.5,1.6c-0.2,1.6-0.2,3.6,0.6,5.3
			c0.7,1.5,2,2.6,3.6,3.1c1.4,0.5,3.2,0.6,5,0.6c3.2,0,6.5-0.5,8.1-0.8c0.3,0.4,0.6,0.8,0.9,1.1c1.4,1.2,6.3,2,12.3,2
			c9.4,0,21.6-2,28.7-7.9c2.8-2.3,3.8-13.9,3.5-25c1.7,0.5,3.4,0.7,5,0.7c6.7,0,12.7-3.5,16.4-8
			C1007.7,260.6,1008.5,257.4,1007.1,255.2z M969.2,231.9c-0.6,0.5-1.2,1.2-2.1,2.2c-4.7,5-15.5,16.4-33.7,21.4
			c-2.5-3-6.8-9.2-7.4-14c-0.5-4.5,6.3-17.2,11.4-25.5c2.8,0.9,6.4,1.3,10.1,1.3c6.7,0,13.8-1.1,17.2-1.7c2.9,7.5,4.4,13.4,4.4,15.9
			C969.2,231.6,969.2,231.7,969.2,231.9z M845,206.7c6.3,2.6,18.4,8.2,21.7,12.7c3.1,4.2,4.8,19.1,5.3,28.8c-19-8-31.3-18.4-35-21.8
			C838,223.3,840.6,215.8,845,206.7z M897.8,192.5c2.5,0.3,6.1,0.6,10.1,0.6c5.5,0,11.6-0.5,16.2-2.3c0.5,3.3,2.6,16.1,8.5,22.2
			c-3.4,5.5-10.8,18.1-12.1,26c-6.6,0.1-18.9-0.3-24.6-3c-6.1-2.9-16.1-13.6-20.3-18.6c4.1-2.3,9.7-5.5,13.2-8.2
			C895.2,204.3,896.9,198.3,897.8,192.5z M941.1,175.7c9.4,10.5,16.7,23.5,21.4,34.5c-8.5,1.4-20.7,2.4-24.7-0.2
			c-4.4-2.8-7.4-14.1-8.2-20.5c-0.1-0.5-0.3-0.9-0.5-1.3C934.6,184.4,938.9,178.9,941.1,175.7z M874.7,224.9
			c4.8,5.3,12.8,13.4,18.9,16.2c6.4,3.1,18.2,3.5,24.9,3.5c0.9,0,1.8,0,2.5,0c1.2,4.6,4.1,9.1,6.4,12.2c-3.7,0.6-7.8,1-12.1,1
			c-3.6,0-7.3-0.3-11.1-0.8c-9.8-1.3-18.6-3.7-26.5-6.6c0-0.2,0.1-0.4,0.1-0.7C877.6,247.8,877.1,234.7,874.7,224.9z M898.4,157.4
			c11.9-2.2,23.5,1.3,34.6,10.5c1.4,1.2,2.8,2.4,4.1,3.7c-2,2.9-7.3,10.2-13.8,13.5c-7.5,3.8-23.4,2.3-26.5,1.7
			c-3.5-6.8-13.4-15.9-19-20.8C883.9,161.9,890.8,158.8,898.4,157.4z M873.1,169.4c10.3,8.8,19.4,18.8,19.3,21.3
			c-0.8,5.3-1.9,10-7.1,14c-4.2,3.3-12.1,7.6-15.7,9.6c-5.5-5.4-16.9-10.5-22-12.6C853.5,190.7,861.9,178.4,873.1,169.4z
			 M832.2,229.7c3.7,3.6,29.5,27.3,71.2,32.9c4,0.5,8,0.8,11.8,0.8c32,0,49.4-18.5,55.9-25.5c0.9-0.9,1.7-1.8,2.1-2.1
			c0.3-0.2,1-0.5,2.1-0.5c2.2,0,5.2,1,6.4,3c0.3,0.5,1.1,1.9-0.4,4.8c-4.1,7.5-34,30.9-74,30.9c-2.7,0-5.5-0.1-8.2-0.3
			c-40.7-3.3-66.2-28.5-73.1-36.1c-0.8-0.9-0.8-2.8,0-4.5c0.8-1.7,2.4-3.7,4.7-3.7C831.2,229.4,831.7,229.5,832.2,229.7z
			 M822.7,279.1c-1.4-1.1-2.3-2.3-2.3-3.2c-0.2-3,2.1-6.8,3.4-8.8c0.4-0.6,0.7-1.1,1-1.7c3.9,2.2,8.1,4.3,12.5,6.3
			c-1.3,2.8-2.9,7.1-3.7,11.2C830.8,283,825.8,281.5,822.7,279.1z M926.8,296c-0.2-0.1-0.3-0.1-0.3-0.3c-0.4-0.8-0.1-2.6,0.2-3.7
			c3.2-0.6,6.3-1.3,9.1-2.1c0.1,2.2,0.3,4.2,0.6,5.8C933.3,296.3,928.9,296.7,926.8,296z M976.3,292.1c-9.3,7.5-29.9,6.9-33.7,5.6
			c-0.7-1.5-1.3-6.8-1.3-11.8c0-0.9-0.5-1.8-1.2-2.3c-0.8-0.5-1.7-0.6-2.6-0.3c-13.9,5.3-33.9,6.1-59.4,2.4c-0.9-0.1-1.6-0.2-2-0.3
			c-3.2-0.4-6,2.2-9.4,5.1c-2.6,2.3-5.6,5-8.1,5.3c-5.6,0.8-16.6-2.6-19.4-6.9c-1.7-2.5,0.9-11,4.2-17.5c0.4-0.7,0.4-1.5,0.1-2.3
			c-0.3-0.7-0.8-1.3-1.6-1.6c-39.8-16.1-57.6-48.2-60.7-54.4c4.4-0.4,9.1-1.4,14.1-3.1c1.5-0.5,2.2-2.1,1.7-3.6
			c-0.5-1.5-2.1-2.2-3.6-1.7c-21.5,7.7-37.6-1.4-44.2-6.4c2.2-0.4,4.4-1,6.5-1.9c1.4-0.6,2.1-2.3,1.5-3.7c-0.6-1.4-2.2-2.1-3.7-1.5
			c-9.3,3.9-19.8,2.2-29.7-5c-15.1-10.9-24-31.2-22.4-50.4c1.1-13,6-37,26.2-52.1c16.2-12.1,38.3-15.5,65.7-9.9
			c19.3,3.9,32.8,13.4,40.2,28.2c12.7,25.6,4.5,62.3-3.8,79.4c-11,23-6.4,43.9-6.1,45.2c-1.2,1.1-2.3,2.5-3,4.2
			c-1.7,3.9-1.4,8,1,10.6c7.2,8,34.1,34.5,76.8,37.9c2.9,0.2,5.8,0.4,8.7,0.4c30.3,0,55.4-12.9,68.9-23.5
			C979.3,267,977.9,288.9,976.3,292.1z M996.9,263.7c-2.5,1.6-7.6,4-13.5,1.7c-0.1,0-0.1,0-0.2-0.1c-0.4-5.2-1.2-9.9-2.3-12.8
			c0-0.1-0.1-0.2-0.1-0.3c2.7,2.5,11,9.1,20.8,6.8C1000.9,260.3,999.4,262.1,996.9,263.7z"/>
		<circle class="st0" cx="768.3" cy="153.2" r="10.8"/>
		<path class="st0" d="M921,509.1c-0.6-0.3-1.3-0.3-1.9-0.1c-2.3-7.5-3.9-16.4-3.9-28.2c0-26.5-17.8-36.6-24.6-39.5
			c2.6-12.5-5.1-18.5-5.4-18.7c-0.8-0.6-1.7-0.7-2.6-0.4c-0.9,0.3-1.6,1.1-1.8,2c-0.6,2.5-2,4.3-3.3,5.4c-0.4-6.9-2.6-12.4-6.4-16.4
			c-6-6.3-14.3-6.8-16.7-6.8c-0.4,0-0.6,0-0.6,0c-1,0.1-2,0.7-2.4,1.7c-0.4,1-0.3,2.1,0.4,2.9c4.4,5.5,4.9,10,4.5,12.9
			c-3-2.6-6.3-3.3-8.9-3.3c-5,0-9.2,2.5-9.3,2.6c-0.9,0.6-1.4,1.6-1.3,2.7c0.1,1.1,0.9,2,1.9,2.3c4.9,1.6,6.3,5.3,6.7,7.7
			c-35.1,7.9-41.6,41.9-46,64.6c-0.6,3.3-1.2,6.4-1.9,9.2c-0.5-0.2-1.2-0.2-1.7,0c-1.4,0.5-34.6,12.6-36.5,71.8
			c-1.9,59.1,33,96.1,40.7,99.5c1.1,0.5,2.2,0.7,3.3,0.7c1,0,2-0.2,3-0.6c0.9-0.4,1.8-0.9,2.6-1.6c0.8,3.4,2.4,5.9,4.9,7.5
			c1.9,1.2,4.1,1.6,6,1.6c3.4,0,6.2-1.2,6.4-1.3c0.2-0.1,0.4-0.2,0.6-0.4c1.3,1.2,2.8,1.9,4.5,1.9c1.9,0,3.8-0.9,5.3-2.4
			c0.2,0.1,0.4,0.3,0.7,0.4c1.2,0.4,2.4,0.6,3.7,0.6c3.3,0,6.9-1.2,9.7-3.5c1.9-1.5,3.3-3.4,4.2-5.5c1,0.6,2.6,1.2,5,1.2
			c1.5,0,3.3-0.2,5.5-0.7c0.7,3.8,2.4,6.5,5,8.2c1.9,1.2,4.1,1.6,6,1.6c3.4,0,6.2-1.2,6.4-1.3c0.2-0.1,0.4-0.2,0.6-0.4
			c1.3,1.2,2.8,1.9,4.5,1.9c1.9,0,3.8-0.9,5.3-2.4c0.2,0.1,0.4,0.3,0.7,0.4c1.2,0.4,2.4,0.6,3.7,0.6c3.3,0,6.9-1.2,9.7-3.5
			c2.2-1.8,3.7-4,4.6-6.6c0.3,0.1,0.7,0.2,1.1,0.2c0.4,0,0.8-0.1,1.3-0.3c12.3-6.2,42.4-49.1,42.4-100.7
			C956.7,524.3,922.4,509.7,921,509.1z M848.7,440.8c1.3-0.2,2.2-1.3,2.3-2.6c0.2-3-0.8-8.3-4.9-12.1c0.4,0,0.8-0.1,1.2-0.1
			c3.1,0,5.5,1.5,7.3,4.6c0.5,0.8,1.3,1.3,2.2,1.4c0.9,0.1,1.8-0.4,2.4-1.1c0.3-0.4,5.7-7.6,0.3-18.3c2.4,0.7,5.2,1.9,7.4,4.3
			c3.6,3.8,5.3,9.6,4.9,17.1c0,0.9,0.3,1.8,1,2.3c0.7,0.6,1.6,0.8,2.5,0.5c0.3-0.1,5.5-1.6,8.8-6.7c1.2,2.5,2.1,6.4,0.4,12
			c-0.2,0.7-0.1,1.5,0.2,2.2c0.4,0.7,1,1.1,1.7,1.3c0.2,0.1,23.1,6.7,23.1,35c0,22.9,5.9,36,11.1,47.5c2,4.4,3.9,8.6,5.4,13.1
			c3.6,10.8,1.7,20.9,0.2,26.2l-10.7-10.2c-0.7-0.6-1.6-0.9-2.5-0.7c-0.9,0.2-1.6,0.8-2,1.6l-7.3,15.6l-6.7-5.3
			c-0.6-0.5-1.4-0.7-2.2-0.6c-0.8,0.1-1.5,0.6-1.9,1.2l-10.6,16.2l-7.8-14.7c-0.5-1-1.5-1.5-2.6-1.5c-1.1,0.1-2,0.7-2.5,1.7
			L859,596.2L843,570c-0.5-0.8-1.4-1.3-2.3-1.3c0,0-0.1,0-0.1,0c-0.9,0-1.8,0.5-2.3,1.2l-9.5,13.7l-8.9-25c-0.3-0.9-1.1-1.6-2-1.8
			c-0.9-0.2-1.9,0-2.6,0.7L804,568.4l-1.5-22.3c-0.1-0.9-0.5-1.6-1.2-2.1c-0.7-0.5-1.6-0.6-2.4-0.4l-14.4,4.3
			c1.4-5.4,4.7-14.8,12.2-22.3c4.3-4.3,6-13,8.1-24.1C809.2,478.5,815.3,447,848.7,440.8z M816.6,682.2c-1.7-1.1-2.6-3.4-2.8-7
			c0-0.8,0-1.5,0-2.2c1-1.8,1.5-3.2,1.7-3.6c0.2-0.6,0.2-1.2,0.1-1.7c0.2-0.3,0.5-0.7,0.8-0.9c1.5-1.5,3.5-2.1,5.1-2.3
			c-0.5,1.9-0.6,3.8-0.6,5.3c0,3.9,0.8,8.7,2.6,12.5C822,682.8,818.7,683.5,816.6,682.2z M831.2,683.2c-1.6,0-4.7-6.1-4.7-13.4
			c0-2.3,0.3-4.2,0.9-5.5c0.6-1.3,1.2-1.3,1.5-1.3l0.2,0c6.6,0.5,7.8,5.2,7.7,9.1C836.5,678.1,832.9,683.2,831.2,683.2z
			 M847.1,679.5c-2.3,1.9-5.2,2.5-7.2,2.2c1.4-2.8,2.3-6.2,2.4-9.4c0.1-2.9-0.4-5.5-1.5-7.7c2-0.2,5.1-0.1,7.1,1.3
			c1.4,1,2.2,2.5,2.4,4.7C850.9,675.3,848.9,678,847.1,679.5z M873.2,682.2c-1.7-1.1-2.6-3.4-2.8-7c-0.2-3.8,0.7-6.7,2.6-8.5
			c1.5-1.5,3.5-2.1,5.1-2.3c-0.5,1.9-0.6,3.8-0.6,5.3c0,3.9,0.8,8.7,2.6,12.5C878.7,682.8,875.4,683.5,873.2,682.2z M887.8,683.2
			c-1.6,0-4.7-6.1-4.7-13.4c0-2.3,0.3-4.2,0.9-5.5c0.6-1.3,1.2-1.3,1.5-1.3l0.2,0c6.6,0.5,7.8,5.2,7.7,9.1
			C893.1,678.1,889.5,683.2,887.8,683.2z M903.8,679.5c-2.3,1.9-5.2,2.5-7.2,2.2c1.4-2.8,2.3-6.2,2.4-9.4c0.1-2.9-0.4-5.5-1.5-7.7
			c2-0.2,5.1-0.1,7.1,1.3c1.4,1,2.2,2.5,2.4,4.7C907.6,675.3,905.5,678,903.8,679.5z M912.7,671.6c0-0.5,0-1.1-0.1-1.6
			c-0.2-2.1-0.9-4-1.8-5.5c2.1-2.4,24-28.4,28.9-79.5c0.1-1.5-1-2.9-2.5-3.1c-1.6-0.1-2.9,1-3.1,2.5c-4.6,47.9-25.1,73.4-27.4,76.1
			c-5.2-2.8-11.7-1.3-12-1.2c-0.4,0.1-0.8,0.3-1.1,0.6c-2-1.4-4.5-2.3-7.5-2.5c-1.8-0.1-3.3,0.3-4.6,1.3c-0.1,0-0.2-0.1-0.3-0.1
			c-0.3,0-7.1-0.6-11.9,4c-2.7,2.5-4.1,6.1-4.3,10.5c-4.7,1.2-6.5,0.7-6.9,0.5c-0.5-0.6-1.1-1-1.9-1.1c0-0.8,0-1.7-0.1-2.6
			c-0.4-3.8-2.1-6.8-4.8-8.7c-5.3-3.7-12.8-2-13.1-1.9c-0.4,0.1-0.8,0.3-1.1,0.6c-2-1.4-4.5-2.3-7.5-2.5c-1.8-0.1-3.3,0.3-4.6,1.3
			c-0.1,0-0.2-0.1-0.3-0.1c-0.3,0-7.1-0.6-11.9,4c0,0,0,0-0.1,0.1c-6-6.6-34.6-40.4-30.8-83.4c0.1-1.5-1-2.9-2.5-3
			c-1.6-0.1-2.9,1-3,2.5c-4.3,48.6,29.4,84.8,33.2,88.7c-0.4,1.1-0.7,2.3-0.9,3.6c-1.2,2.1-2.8,4.1-4.4,4.8c-0.7,0.3-1.2,0.3-1.9,0
			c-6.8-3.1-39.2-38.8-37.4-94.2c1.6-48.1,24.4-62.7,31-65.9c-0.9,2.7-1.9,4.7-3.1,5.9c-12.5,12.5-14.6,29.3-14.6,30
			c-0.1,0.9,0.3,1.9,1,2.5c0.7,0.6,1.7,0.8,2.6,0.5l15.5-4.7l1.7,24.8c0.1,1.1,0.8,2,1.8,2.4c1,0.4,2.2,0.2,3-0.6l12.6-12.1
			l9.2,26.1c0.4,1,1.2,1.7,2.3,1.8c1,0.1,2.1-0.3,2.7-1.2l10.1-14.7l16.6,27.1c0.5,0.8,1.4,1.3,2.4,1.3c0.1,0,0.1,0,0.2,0
			c1.1-0.1,2-0.7,2.4-1.7l10.3-24.7l7.3,13.6c0.5,0.9,1.4,1.4,2.3,1.5c1,0,1.9-0.4,2.5-1.3L896,575l7,5.6c0.7,0.5,1.6,0.7,2.4,0.5
			c0.8-0.2,1.5-0.8,1.9-1.5l7.2-15.3l11,10.5c0.7,0.6,1.6,0.9,2.5,0.7c0.9-0.2,1.6-0.8,2-1.6c0.3-0.7,7.3-16.3,1.4-34.1
			c-1.6-4.8-3.5-9.1-5.6-13.7c-1.5-3.4-3.1-6.9-4.5-10.6c7.5,4.2,29.8,20,29.8,61C951.1,624.8,923.6,664.6,912.7,671.6z"/>
		<path class="st0" d="M860.5,521.4c0.2,0,0.4,0,0.6,0h0c4.3,0,8.1-3.9,10.5-7.2c4.5-6.1,8.1-15.5,6.2-21.6
			c-2-6.4-10.9-9.8-18.3-9.8c-7.3,0-12.5,3.2-14.1,8.6c-2.4,8.2,0.6,16.8,4.2,22.1C852.9,518.2,856.8,521.1,860.5,521.4z M850.9,493
			c1.2-4.1,6.5-4.6,8.7-4.6c5.8,0,12,2.8,12.9,5.9c1.1,3.6-1.3,11.1-5.4,16.7c-2.5,3.4-4.8,4.9-6,4.9l-0.1,0
			c-1.5-0.1-4.1-1.6-6.7-5.4C851.4,506.1,849,499.3,850.9,493z"/>
		<path class="st0" d="M634.4,87.1c1.2-5.2,0.7-11.3-1.6-16.3c-1.3-2.9-4-4.5-7.7-4.5c-2.2,0-4.7,0.6-7.3,1.6c-0.2,0-0.4,0-0.7,0
			c-0.5,0-48.8,5-65.4,2c-7-1.2-12.6-1.5-16.9-1.3c3.3-2.2,7.6-4.3,12.6-4.7c1.4-0.1,2.4-1.2,2.6-2.5c0.1-1.4-0.7-2.6-2.1-3
			c-0.8-0.2-17.5-4.5-31.1,5.3c0.8-4.9,2.7-11.2,6.9-14.6c1.2-1,1.4-2.7,0.5-3.9c-0.9-1.2-2.6-1.5-3.8-0.6
			c-0.8,0.6-20.2,13.9-22.9,27.5c-0.7,3.7-4.6,7.1-9.1,11c-8.3,7.3-18.7,16.4-14.1,33.7c0.2,0.7,0.6,1.2,1.2,1.6
			c-0.4,0.6-0.7,1.2-1.1,1.8c-12.5,21.3-19.7,75.3-9.4,93.8c1.5,2.7,3.2,5.2,4.9,7.4c-2.2,2.6-10.6,13.1-11.7,27.8
			c-0.6,0-1.2,0.3-1.7,0.7c-1.2,1-4,2.7-5.4,2c-0.6-0.3-3.5-2.6-2.1-16.7c1-9.6,3.1-19.4,5.1-29c4.6-21.1,8.5-39.3-2.3-46.9
			c-4.6-3.2-10.1-3.5-15.6-0.9c-13.7,6.6-24.5,29.4-26.2,55.6c-1.5,23.7,6.1,44,19.9,52.9c4.8,3.1,10.1,4.7,15.6,4.7
			c4.9,0,10-1.2,15.1-3.7c0,0.1,0.1,0.2,0.1,0.3c6.8,18.9,18.6,28,36.6,28c4.2,0,8.7-0.5,13.6-1.5c15.7-3.1,26-1.2,33.6,0.1
			c1.9,0.4,3.7,0.7,5.4,0.9c5.6,0.7,13.8-4.3,14.7-10.7c0.1-0.9,0.2-1.8,0-2.8c1.9-1,7.6-3.4,13.7,1.3c2.5,1.9,5.3,2.9,8,2.9
			c2.7,0,5.3-1,7.3-2.9c4-3.9,5.2-11.8-1.2-20.5c-9.1-12.3-15-48-15.6-51.5c2.2-0.3,3.5-0.6,3.8-0.7c0.7-0.2,1.4-0.6,1.8-1.2
			c5.3-8.3,0.5-17.1-2.8-20.6c-0.8-0.8-2-1.1-3.1-0.7c-0.6,0.2-1.1,0.4-1.7,0.6c0.6-4.5,9.7-15.2,28.7-20.5
			c12.3-3.5,19.4-10.9,23.3-16.6c-0.1,1.1-0.4,1.7-0.4,1.8c-0.5,1.2-0.1,2.5,0.9,3.2c1,0.8,2.3,0.8,3.4,0.1
			c8.9-6.3,11.6-18.3,12.5-25.8c2.4,2.5,3.3,3.8,3.3,3.8c0.6,1,1.8,1.4,2.9,1.2c1.1-0.2,2-1.1,2.2-2.3c3.7-21.7-13.9-44.7-14.7-45.6
			C636.3,87.4,635.3,87,634.4,87.1z M627.7,73.1c2.1,4.8,2.3,11.2,0.4,15.6c-1.1,2.4-2.7,4-4.7,4.7c-1,0.3-2,0.5-3.1,0.5
			c0,0,0,0,0,0c-6.1,0-12.7-5.1-14.3-9.4c0-0.3,0.3-1.4,2-3.3c3.9-4.4,12.1-9.3,17.2-9.3C627.2,71.9,627.6,72.7,627.7,73.1z
			 M479.3,123.1c2.9-5,6-7.7,8.7-7.7c0.1,0,0.3,0,0.5,0c2.9,0.3,6.1,2.6,9,6.4c8.4,10.9,16.1,36.6,10.3,73.3
			c-3.3,20.6-10,32.5-18.5,32.5h0c-6.3,0-13.7-6.2-19.3-16.2C461.2,195.7,466.7,144.6,479.3,123.1z M433,262.2
			c-12.1-7.8-18.7-26.2-17.3-47.9c1.8-27,12.9-46,23-50.9c3.7-1.8,7-1.6,9.9,0.4c7.7,5.4,4,22.8,0,41.1c-2.1,9.7-4.3,19.7-5.2,29.6
			c-1.3,12.8,0.3,19.8,5.1,22.3c3.5,1.8,7.3,0.2,9.6-1.2c0.1,2.2,0.5,4.4,1,6.8C449.7,267.3,440.7,267.2,433,262.2z M588,266.4
			c4.4,6,4.1,10.9,1.8,13.2c-2,2-5.1,1.8-7.9-0.4c-7.6-5.9-15.7-4.1-19.8-1.8c-2.5-2.7-7-5.2-14.7-7.3c5.4-3.9,12.2-11.1,11.8-22.1
			c-0.6-17.8-23-27.4-23.9-27.8c-1.4-0.6-3.1,0.1-3.7,1.5c-0.6,1.4,0.1,3.1,1.5,3.7c0.2,0.1,20.1,8.6,20.5,22.8
			c0.4,14-14.3,20.3-14.9,20.6c-1.2,0.5-1.9,1.7-1.7,2.9c0.1,1.2,1.1,2.2,2.3,2.5c15.4,2.7,20.4,7.1,19.9,10.2
			c-0.5,3.1-5.6,6.3-8.5,5.9c-1.5-0.2-3.2-0.5-5.1-0.8c-8-1.5-19-3.5-35.7-0.1c-22.9,4.6-36.4-2.5-43.8-23
			c-7.4-20.5,4.3-36.6,7.7-40.6c4.9,4.8,10.3,7.5,15.5,7.5c0,0,0,0,0,0c7.3,0,16.6-5,22-27.3c14.6,5.8,30.2,7.4,42.9,7.4
			c6.7,0,12.7-0.5,17.2-1C571.8,215.4,577.8,252.6,588,266.4z M576.7,194.3c1.6,2.2,3.9,6.7,1.7,11.3c-6.6,1.1-38.4,5.8-65.4-5.1
			c-0.2-0.1-0.4-0.1-0.6-0.2c0.3-1.4,0.5-2.9,0.8-4.4c0.5-2.9,0.8-5.8,1.1-8.6C520.4,189.9,552.4,202.5,576.7,194.3z M642.6,122.7
			c-0.8-0.8-2-0.9-3.1-0.5c-1,0.5-1.7,1.5-1.6,2.6c0,0.2,0.2,13.4-5.6,22.4c-0.3-1.6-0.8-3.2-1.7-5c-0.5-1-1.6-1.6-2.7-1.5
			c-1.1,0.1-2.1,0.8-2.5,1.9c-0.2,0.6-5.4,15.4-23.4,20.4c-19.4,5.5-32.2,17.6-32.8,25.7c-0.1,0.6,0.1,1.2,0.4,1.7
			c-23.7,4.8-53.7-8.4-54-8.5c-0.2-0.1-0.5-0.2-0.8-0.2c2.2-30.9-5.2-53-13-63.2c-3.9-5.1-8.3-8-12.8-8.5c-3.4-0.4-6.6,0.9-9.6,3.9
			c-2.6-12.8,5.2-19.7,12.8-26.3c5-4.4,9.7-8.5,10.9-14.1c1-4.9,5-10.1,9.2-14.4c-1.6,6.1-1.6,11.4-1.6,11.8c0,1.2,0.7,2.2,1.8,2.6
			c1.1,0.4,2.3,0.1,3.1-0.8c5.2-6,11.6-8.4,17.3-9.3c-5.4,3.4-8.7,7.4-8.9,7.7c-0.8,1-0.8,2.4-0.1,3.4c0.7,1,2.1,1.4,3.2,1
			c0.1,0,7.8-2.7,23.8,0.1c12.5,2.2,40.5,0.3,56.1-1c-1.9,1.6-3.5,3.2-4.6,4.8c-1.8,2.6-2.4,5-1.6,7c2.3,6.3,10.7,13.1,19.6,13.1h0
			c1.7,0,3.3-0.3,4.9-0.8c3.2-1.1,5.8-3.4,7.6-6.7c1.8,2.4,13.2,18.4,13.8,34.4C645.4,125.3,644.1,124.1,642.6,122.7z"/>
		<circle class="st0" cx="557.9" cy="99" r="7.6"/>
		<path class="st0" d="M186.1,250.1c-0.7,1-0.4,2.3,0.5,2.9c0.4,0.3,0.8,0.4,1.2,0.4c0.7,0,1.3-0.3,1.7-0.9
			c11.5-16.4,45.4-15.5,45.7-15.5c1.2,0.1,2.1-0.9,2.2-2c0-1.2-0.9-2.1-2-2.2C234,232.8,199,231.8,186.1,250.1z"/>
		<path class="st0" d="M205.4,261.4c-0.6,1-0.2,2.3,0.8,2.9c0.3,0.2,0.7,0.3,1,0.3c0.7,0,1.4-0.4,1.8-1.1
			c9.2-16.3,27.9-17.7,28.2-17.7c1.2-0.1,2-1.1,2-2.2c-0.1-1.2-1-2.1-2.2-2C236.2,241.7,215.8,243.1,205.4,261.4z"/>
		<path class="st0" d="M222.3,266.5c-0.4,1.1,0.2,2.3,1.3,2.7c0.2,0.1,0.5,0.1,0.7,0.1c0.9,0,1.7-0.5,2-1.4
			c3.2-9,15.7-14.6,15.9-14.6c1.1-0.5,1.6-1.7,1.1-2.8c-0.5-1.1-1.7-1.6-2.8-1.1C239.8,249.7,226,255.8,222.3,266.5z"/>
		<path class="st0" d="M276.2,235.9c0.2,0,18.9-1.4,30.5,13.4c0.4,0.5,1,0.8,1.7,0.8c0.5,0,0.9-0.1,1.3-0.4c0.9-0.7,1.1-2,0.4-3
			c-13-16.7-33.3-15.1-34.2-15c-1.2,0.1-2,1.1-1.9,2.3C274,235.1,275,236,276.2,235.9z"/>
		<path class="st0" d="M272.5,243.9c0.1,0,13.4,3.7,17.8,12.1c0.4,0.7,1.1,1.1,1.9,1.1c0.3,0,0.7-0.1,1-0.2c1-0.5,1.4-1.8,0.9-2.8
			c-5.3-10-19.8-14.1-20.5-14.2c-1.1-0.3-2.3,0.4-2.6,1.5C270.7,242.5,271.4,243.6,272.5,243.9z"/>
		<path class="st0" d="M172.3,561.7c0.3-0.1,33.7-5.9,47.5,8.7c0.4,0.4,1,0.7,1.5,0.7c0.5,0,1-0.2,1.4-0.6c0.8-0.8,0.9-2.1,0.1-3
			c-15.4-16.2-49.9-10.2-51.3-9.9c-1.1,0.2-1.9,1.3-1.7,2.4C170.1,561.2,171.2,561.9,172.3,561.7z"/>
		<path class="st0" d="M171.7,570.7c0.2,0,18.9-1.4,30.5,13.4c0.4,0.5,1,0.8,1.7,0.8c0.5,0,0.9-0.1,1.3-0.4c0.9-0.7,1.1-2,0.4-3
			c-13-16.7-33.3-15.1-34.2-15c-1.2,0.1-2,1.1-1.9,2.3C169.5,570,170.5,570.8,171.7,570.7z"/>
		<path class="st0" d="M168,578.8c0.1,0,13.4,3.7,17.8,12.1c0.4,0.7,1.1,1.1,1.9,1.1c0.3,0,0.7-0.1,1-0.2c1-0.5,1.4-1.8,0.9-2.8
			c-5.3-10-19.8-14.1-20.5-14.2c-1.1-0.3-2.3,0.4-2.6,1.5C166.2,577.3,166.9,578.5,168,578.8z"/>
		<path class="st0" d="M124.3,565.8c1.1,0.1,2.2-0.8,2.3-1.9c0.1-1.2-0.8-2.2-1.9-2.3c-0.9-0.1-21.2-1.7-34.2,15
			c-0.7,0.9-0.6,2.2,0.4,3c0.4,0.3,0.8,0.4,1.3,0.4c0.6,0,1.2-0.3,1.7-0.8C105.3,564.4,124.1,565.8,124.3,565.8z"/>
		<path class="st0" d="M126.9,569.8c-0.6,0.2-15.1,4.2-20.5,14.2c-0.5,1-0.2,2.3,0.9,2.8c0.3,0.2,0.7,0.2,1,0.2
			c0.8,0,1.5-0.4,1.9-1.1c4.4-8.4,17.7-12.1,17.8-12.1c1.1-0.3,1.8-1.5,1.5-2.6C129.1,570.2,128,569.5,126.9,569.8z"/>
	</g>
	<g>
		<circle class="st0" cx="103.2" cy="538.1" r="8.8"/>
		<circle class="st0" cx="200.2" cy="540.8" r="10.8"/>
		<circle class="st0" cx="189.6" cy="222.2" r="9.2"/>
		<circle class="st0" cx="293" cy="210.8" r="8.6"/>
		<circle class="st0" cx="826.2" cy="484.8" r="9"/>
		<circle class="st0" cx="892.2" cy="484.8" r="9"/>
		<path class="st0" d="M272.5,519.5c2.6-7.3,4.1-15.9,4.3-23.6c0.4-14.7-3.5-25.6-11.1-30.8c-17.9-12.4-42.5,9.2-46.7,13.2
			c-5.3-3.4-10.9-6.4-16.9-9c-6-10.3-16.9-23.7-35.3-30.8c-0.9-0.3-1.8-0.2-2.6,0.3c-0.8,0.5-1.2,1.4-1.2,2.3c0,0.1,0,2.1,0.5,5.2
			c-7.5-4.5-21.2-11.3-36.3-11.3c-2.6,0-5.2,0.2-7.7,0.6c-1.2,0.2-2.1,1.1-2.3,2.3c-0.2,1.2,0.4,2.4,1.4,2.9
			c2.4,1.3,7.8,4.8,11.7,8.7c-2.2-0.3-4.6-0.6-7.3-0.6c-9,0-16,3-20.1,8.7c-0.6,0.8-0.7,1.9-0.3,2.9c0.4,0.9,1.3,1.5,2.4,1.6
			c0.1,0,10,0.6,16.4,4.8c-10.2,5.3-16.3,13.1-20.7,21.6c-4-4-13.8-12.1-26.9-10.4c-3.3,0.4-7.6,2.5-9.8,9.8
			c-4.4,14.4,2.1,42.5,11.7,51c0.1,0.1,0.2,0.1,0.3,0.2c-6.6,13.4-10.9,32.2-4.1,49.3c5.8,14.7,18.5,25.5,37.8,32.3
			c0,0.1,0,0.1,0,0.2c-0.4,13.4,7,26.6,15.6,33.1c-2,2-4.3,5.1-4.6,8.6c-0.2,2.5,0.6,4.8,2.4,6.8c2.1,2.3,4.9,3.5,8.1,3.5
			c0.6,0,1.1,0,1.7-0.1c6.2-0.8,12.6-5.6,16-12c0.1-0.3,0.2-0.6,0.3-0.9c2.1,0,3.4-0.2,3.6-0.2c1.1-0.1,1.9-0.8,2.3-1.8
			c6.6,3,14.6,4.6,23.9,4.7c0.5,0,0.8,0,1.1,0c0.1,0.5,0.2,1,0.3,1.5c0,0.1,0,0.1,0.1,0.2c-2,1.5-6,4.9-6.6,8.9
			c-0.3,1.9,0.2,3.6,1.3,5.1c2.3,2.9,6.9,4.8,11.8,4.8c0.4,0,0.8,0,1.1,0c3.8-0.2,10.9-1.9,16.1-10c0.9-0.3,1.8-0.6,2.7-1
			c3.7-1.7,7.5-4.8,11-8.2c0.3,0.4,0.8,0.6,1.3,0.7c0.4,0.1,6.3,1.5,16.3,1.5c7,0,16.1-0.7,26.9-3c8-1.7,13.7-4.4,17.7-7.3
			c-1.8,2.5-3.6,6-2.9,9.2c0.4,1.6,1.5,3.8,4.8,5.1c1.2,0.4,2.4,0.7,3.7,0.7c3,0,6.3-1.2,9.6-3.4c4.4-3.1,9.1-8.5,10-13.3
			c3-1.2,5.8-2.9,8.4-4.9c14.3-11.4,21.5-34.3,20.1-64.6C331.2,534.1,283.1,521.7,272.5,519.5z M271.3,495.8
			c-0.5,16.3-6.6,31.2-11.8,34.5c-3.4-11.1-9-21.4-16.4-30.6c0,0,0,0,0-0.1c7.1-14.3,19.8-21.7,24.4-24.1
			C270.2,480.5,271.5,487.4,271.3,495.8z M262.6,469.7c0.5,0.4,1,0.8,1.5,1.3c-5.5,2.9-17.4,10.4-25,24.2c-4.6-5-9.7-9.5-15.3-13.6
			C229.4,476.7,249.4,460.5,262.6,469.7z M98.3,493.9c-1.7,4.1-3.2,8.2-4.6,12.2c0,0.1-0.1,0.2-0.1,0.3
			c-6.3-11.7-14.3-19.3-18.7-22.9C87.7,482.1,97.2,492.7,98.3,493.9z M69.5,489.5c0.3-0.9,0.6-1.7,0.9-2.3
			c3.9,3,13.6,11.7,20.2,25.9c0.1,0.2,0.3,0.4,0.4,0.6c-1.9,4.9-3.9,9.3-6.7,12.5c-1.8,2.1-3.7,4.7-5.5,7.8
			C71.1,526,65.8,501.4,69.5,489.5z M77.1,586.3c-2.3-5.8-3.1-11.9-2.9-18c14.1-13.8,46.6-8.2,46.9-8.1c1.1,0.2,2.2-0.6,2.4-1.7
			c0.2-1.1-0.5-2.2-1.7-2.4c-1.3-0.2-30.5-5.4-47.2,6.4c1.8-13.3,7.9-25.6,13.8-32.6c4.9-5.7,7.6-13.5,10.5-21.8
			c5.1-14.9,10.5-30.2,28.7-37.8c0.8-0.3,1.4-1.1,1.7-1.9c0.2-0.9,0-1.8-0.6-2.5c-4.4-5.1-11.9-7.4-17.2-8.4c3-1.8,6.9-2.8,11.6-2.8
			c6.8,0,12.8,2,12.9,2c1,0.3,2.2,0.1,2.9-0.8c0.7-0.8,1-2,0.5-3c-2-4.7-6.7-9.1-10.9-12.2c19.7,0.6,37.4,14,37.6,14.1
			c1,0.7,2.3,0.8,3.3,0.1c1-0.7,1.4-1.9,1.1-3.1c-0.7-2.4-1.2-4.5-1.4-6.2c14.8,7,23.6,18.6,28.6,27.3c0.3,0.5,0.8,1,1.4,1.2
			c31.4,13,52.9,38.9,57.6,69.1c2.4,15.5,2.1,37.6-12.8,55.1c-14.5,16.9-39.3,25.5-73.6,25.5c-8.4,0-17.5-0.5-27-1.6
			C107.2,618.2,85,606.1,77.1,586.3z M132.1,667.1c-2.1,0.3-3.7-0.3-4.9-1.6c-0.7-0.8-1-1.5-0.9-2.4c0.2-2.2,2.5-4.8,4.1-6.2
			c0.5,0.2,1,0.4,1.5,0.6c3.8,1.2,7.7,1.8,11.1,2.1C140.3,663.5,136,666.6,132.1,667.1z M187.6,677.4c-3.8,0.2-7.1-1.2-8.2-2.6
			c-0.2-0.3-0.3-0.5-0.2-0.8c0.2-1.5,2.4-3.7,4.2-5.1c0.1,0.1,0.3,0.1,0.5,0.2c0.4,0.1,1.1,0.5,1.9,0.9c2.4,1.3,5.9,3.2,10.4,3.7
			C192.9,676.6,189.6,677.3,187.6,677.4z M291.9,662.6c-3.1,2.1-6.1,2.9-8.1,2.1c-0.8-0.3-1.2-0.6-1.3-1c-0.3-1.5,2-5.2,4.3-7.5
			c0,0,0,0,0,0c1.6,0.2,3.3,0.3,4.9,0.3c2.2,0,4.4-0.2,6.6-0.6C296.9,658.2,294.6,660.8,291.9,662.6z M310,644.6
			c-6.9,5.5-15.3,7.5-24.4,5.8c4.4-5.7,4.5-10.9,4.5-11.3c0-1.5-1.2-2.8-2.8-2.8c-1.5,0-2.8,1.2-2.8,2.8c0,0.6-0.6,13.5-23.6,18.5
			c-20.3,4.4-34.6,2.6-39.1,1.8c4.6-5.1,7.9-9.7,8.1-10.1c0.9-1.3,0.6-3-0.7-3.9c-1.3-0.9-3-0.6-3.9,0.7
			c-0.1,0.2-11.8,16.6-21.1,20.8c-6.8,3.1-12.3,0.1-15.9-1.8c-0.9-0.5-1.7-0.9-2.4-1.2c-1.1-2-1.3-11.2,2.7-15.2
			c1.1-1.1,1.1-2.9,0-4c-1.1-1.1-2.9-1.1-4,0c-3.1,3.1-4.6,7.9-4.9,12.2c-0.3,0-0.6,0-0.9,0c-6.8-0.1-27.3-0.3-36.7-18.6
			c-0.7-1.4-2.4-1.9-3.8-1.2c-1.4,0.7-1.9,2.4-1.2,3.8c2.8,5.4,6.6,9.9,11.3,13.2c-3.6,0-9.5-0.3-15-2c-8.5-2.7-18-16-18.2-29.6
			c8.1,2.4,17.2,4.1,27.3,5.3c9.7,1.1,19,1.6,27.7,1.6c0,0,0,0,0,0c36,0,62.2-9.2,77.9-27.4c12.9-15.1,17.8-35.7,14.1-59.6
			c-0.4-2.3-0.8-4.6-1.4-6.9c0.5,0,1-0.1,1.4-0.4c3.1-1.9,5.8-5.6,8-10.3c6.4,1,55.3,10.7,57.6,59.9
			C329.3,613.1,322.9,634.4,310,644.6z"/>
		<path class="st0" d="M148.6,576.9c6.3,1.5,6.6-3.7,6.6-3.7c-6.5,3.1-8.4-1.6-9-4.4c6-0.6,9.8-5.6,9.2-8.4
			c-0.6-3-15.2-7.3-22.5-1.8c-4.7,3.5,2.9,8.7,9.4,10c-1,3-3.8,8.4-9.9,4.3c0,0,1,3.8,6.6,3.3c2.3-0.2,3.8-1.8,4.8-3.5
			C144.6,574.6,146,576.3,148.6,576.9z"/>
		<path class="st0" d="M571.9,421c-29.1,17.5-44.1,51-48.1,61.2c-7.8-4.7-17.2-8.1-28.1-10c2.9-14,18.7-96-11-118.6
			c-3.5-2.7-6.7-2.5-8.7-1.9c-7.2,2.2-11.4,13-15.2,23.9c-0.3,0.8-0.5,1.4-0.7,2.1c-0.3,1-1.2,2.6-2.2,4.5
			c-7.1,13.9-23.7,46.2,2.1,91.8c-25.9,8.8-41.6,33.4-51.8,52.8c-4.5,8.7-4.8,19.1-0.6,30c4.7,12.4,14.6,24.3,27.4,33.7
			c-0.2,0.3-0.3,0.6-0.3,1c-0.1,1.2-2.3,28.2,13.9,55.4c-2.1,2.6-3.8,7.2-1.6,13.5c0.8,2.3,2.9,5.4,8.5,7.3
			c3.2,1.1,7.1,1.5,10.7,1.5c3.9,0,7.5-0.5,9.5-1.5c0.1,0.1,0.2,0.2,0.3,0.4c4,3.6,11,6.1,19.9,6.1c6.3,0,13.6-1.3,21.3-4.4
			c0.1,0.6,0.2,1.2,0.3,1.9c0.5,2.2,2.1,3.9,4.7,5.1c3.4,1.6,8.9,2.4,15.2,2.4c12.2,0,27.6-2.8,37.6-7.7c12-5.8,20.3-17.7,24.3-33.9
			c2.3,0.5,4.5,0.8,6.6,0.8c5,0,9.2-1.5,12.3-4.5c4.7-4.6,6.3-11.9,4.3-20.5c-1.2-5.2-3.7-8.9-7.6-10.8c-4.8-2.4-10.3-1.5-13.4-0.6
			c-0.2-2-0.4-4-0.6-6c-4.8-38.9-42.3-52.2-48.6-54.1c0.4-15.9-2.6-29.4-9.1-40.2c47.8-0.9,79-40.6,82.9-56.2
			c1.5-5.9,5.2-11.3,8.4-16.1c4.3-6.2,8.3-12.2,4.1-16.8C632.4,405.6,605.6,400.8,571.9,421z M462.9,384.6c1.1-2.2,2-3.9,2.5-5.2
			c0.2-0.6,0.5-1.4,0.7-2.1c2.1-6.1,6.5-18.8,11.5-20.4c0.7-0.2,1.8-0.3,3.6,1c26.9,20.5,11.4,101.1,8.9,113.3
			c-0.3,0-0.5-0.1-0.8-0.1c-3-0.4-6.1-0.6-9-0.6c-5.3,0-10.2,0.6-14.8,1.7C440.3,428.7,456.2,397.8,462.9,384.6z M612.5,607.4
			c2.3,1.2,3.9,3.5,4.7,7c1.5,6.7,0.5,12.1-2.7,15.3c-3,2.9-8,3.7-13.9,2.3c1.3-7.4,1.8-15.6,1.4-24.4
			C603.7,607,608.7,605.5,612.5,607.4z M595.4,596.5c4.3,34.8-4.2,60.9-22.7,69.9c-13.4,6.5-39.4,9.3-48,5.2c-1.1-0.5-1.6-1-1.6-1.3
			c-0.8-3.5-0.1-6.9,1.9-9.2c2.3-2.6,6.1-3.9,10.8-3.5c1.5,0.1,2.9-1,3-2.6c0.1-1.5-1-2.9-2.6-3c-0.5,0-1,0-1.5-0.1
			c-0.1-0.6-0.3-1.2-0.8-1.7c-0.1-0.1-5.9-6.1-5.6-14.7c0.3-6.5,4-12.9,11-19.1c1.2-1,1.3-2.8,0.3-4c-1-1.2-2.8-1.3-4-0.3
			c-8.3,7.2-12.7,15-12.9,23.2c-0.3,8.2,3.7,14.4,5.9,17.2c-3.1,0.9-5.8,2.5-7.8,4.8c-1.7,1.9-2.8,4.3-3.3,6.8
			c-0.6-0.1-1.2-0.1-1.7,0.1c-17.8,7.3-31.3,3.7-36-0.5c-0.3-0.3-0.5-0.6-0.7-1c0.5-2.1,0.6-4.6,0.5-6.9c0.5-1.5,1.1-2.9,1.6-4
			c2.5,0.3,5.1,0.5,7.8,0.5c3.3,0,6.7-0.3,10.1-1c1.5-0.3,2.5-1.8,2.2-3.3c-0.3-1.5-1.8-2.5-3.3-2.2c-17,3.3-32.9-4.2-33.1-4.3
			c-1.4-0.7-3.1-0.1-3.7,1.3c-0.7,1.4-0.1,3.1,1.3,3.7c0.4,0.2,4.7,2.2,11.3,3.8c-0.2,0.5-0.3,1-0.3,1.6c0.1,1,0.2,2.1,0.3,3.1
			c-0.6,2.3-1,4.9-0.7,7.4c-1.8,0.8-10.5,1.7-16.5-0.6c-2.4-0.9-3.9-2.1-4.4-3.6c-2.2-6.1,1.1-8.6,1.4-8.8c1.3-0.8,1.7-2.6,0.9-3.9
			c-13.8-22-14.5-44.9-14.3-51.8c5.8,3.7,12,6.9,18.5,9.4c10.7,4.1,22.1,6.2,32.9,6.2c0,0,0,0,0,0c30.7,0,52.2-16.1,57.7-43.1
			c1.3-6.6,2.2-12.9,2.6-18.9C560.3,550.4,591.2,563.1,595.4,596.5z M543.9,565.3c-4.9,24.2-24.4,38.6-52.2,38.6
			c-10.2,0-20.9-2-30.9-5.9c-22.3-8.5-41-25.5-47.9-43.4c-3.6-9.3-3.4-18.1,0.3-25.4c11.9-22.8,31.7-53.1,67.2-53.1
			c2.7,0,5.5,0.2,8.3,0.5c22,2.8,37.9,10.8,47.4,24C546.9,515.8,549.5,537.5,543.9,565.3z M629.9,426.1c-3.3,4.9-7.5,10.9-9.2,17.9
			c-2.7,11-31.1,53.3-81.3,51.9c-3.1-3.9-6.6-7.5-10.8-10.5c3-7.7,17.6-42.4,46.2-59.5c33.2-19.9,56.4-13.2,59.6-9.6
			C635.7,417.6,632.8,421.9,629.9,426.1z"/>
		<path class="st0" d="M609.7,424.2c-1.7,0-40.7,0.6-63.2,53.7c-0.4,0.9-0.3,1.9,0.3,2.7c0.5,0.7,1.4,1.2,2.3,1.2c0.1,0,0.1,0,0.2,0
			c0.6,0,55.9-4.8,63.2-54.4c0.1-0.8-0.1-1.6-0.7-2.2C611.3,424.5,610.5,424.2,609.7,424.2z M553.7,475.6
			c17.6-37.5,43.4-44.3,52.6-45.5C599.3,464.5,566.3,473.4,553.7,475.6z"/>
		<path class="st0" d="M479.3,383.1c-0.5-0.8-1.4-1.4-2.4-1.4c-1,0-1.9,0.5-2.4,1.3c-27,42.5-1.7,78.6-1.4,78.9
			c0.5,0.7,1.4,1.2,2.2,1.2c0,0,0,0,0,0c0.9,0,1.7-0.4,2.2-1.1C504.2,427.1,479.6,383.6,479.3,383.1z M475.6,455.2
			c-4.9-9.1-15.5-34.7,1.1-64.8C481.6,401.3,491.8,430.2,475.6,455.2z"/>
		<path class="st0" d="M430.5,526.9c6.5,4.9,13.8-2.4,8.9-8.9C432.9,513.1,425.6,520.4,430.5,526.9z"/>
		<path class="st0" d="M491.7,545c8.7,6.6,18.4-3.2,11.8-11.8C494.9,526.6,485.1,536.4,491.7,545z"/>
		<path class="st0" d="M454.8,546.9c-1.7-1.4-1.9-3.4-1.8-4.8c2.3,0.8,4.7,0.7,6.2-0.9c4-4.5-6.6-12.1-11.1-7.6
			c-2.3,2.3-0.5,5.3,2.4,7.2c-0.1,1.4-0.6,3-2.1,3.6c-2.7,1.2-7.2-2.5-7.2-2.5s1.7,4.2,5.9,4.9c1.5,0.2,2.7-0.3,3.6-1.2
			c0.3,1.6,0.9,3.1,2.3,3.6c4.4,1.8,7.6-1.3,7.6-1.3S457.7,549.2,454.8,546.9z"/>
		<path class="st0" d="M78.9,228.8c-6.2,20.4-5.4,39.1,2.3,53.2c6.1,11.1,16.2,18.6,28.4,21.2c11.4,2.4,17.7,3,21.9,3.5
			c5.1,0.5,6.5,0.7,10.6,3.3c1.5,1,3.2,1.4,4.9,1.4c1.8,0,3.6-0.5,5.3-1.5c0.9-0.5,1.6-1.1,2.4-1.8c1.7,0.3,5.9,0.8,11.1,0.8
			c4.2,0,9.1-0.4,13.8-1.6c0.6-0.2,1.1-0.5,1.5-1c0.4,0.1,0.7,0.3,1.1,0.4c8.8,2.7,19.2,4.4,29,4.4c10.6,0,20.5-1.9,27-6.5
			c4.8-3.3,7.6-8,7.9-13.5c7-1.1,14-2.5,20.8-4.4c2.1,2,10.7,9.2,22.5,9.2c4.4,0,9.3-1,14.4-3.8c13.7-7.3,21.6-14.9,24-23.3
			c1.7-5.7,0.8-11.6-2.6-17.6c-0.3-0.6-0.8-1-1.4-1.2c7.3-16,9.4-39.5,1-62.3c-0.2-0.5-0.4-1.1-0.6-1.6c9.1-22,1.7-56.9-10.8-72.3
			c-5.8-7.2-11.1-8-14.5-7.4c-17.2,3.2-32.9,28.9-33.6,30c-0.1,0.1-0.2,0.3-0.2,0.4c-9.4-2.3-20.2-3.6-32.5-3.6c-1.2,0-2.5,0-3.8,0
			c-20.3,0.4-38.7,6.7-53.5,17.7c-2.2-1.4-30.1-19.6-47-15.2c-3.1,0.8-7.3,3.6-9.6,12.5c-2.3,9-2.1,21.6,0.1,34.4
			c-4.7-0.4-16.6,0.7-28.3,19.3c-1-0.2-3.7-0.9-4.8-3.1c-1.6-3.1,0-8.8,4.4-15.9c9.1-14.7,11.3-32,5.6-45.1
			c-3.3-7.6-10.7-17.3-27.7-20.7c-23.1-4.6-29.2,8.3-30.6,12.4c-3.1,9.5,1.5,20.5,10.3,24.6c2.9,1.4,5.9,2.4,8.5,3.3
			c5.8,2,10.3,3.7,11.5,7c1.3,3.6-0.8,9.9-6.3,19.2c-10.8,18.1-6.2,29.8-2.5,35.1c4.3,6.2,11.7,10,18.8,10
			C78.3,228.8,78.6,228.8,78.9,228.8z M235.1,300c-10.7,7.4-34.4,6.5-51.2,1.3c-16-4.9-20-19-21-25.8c17.5,14.3,41.1,17.5,58.8,17.5
			c0,0,0,0,0,0c6.1,0,12.4-0.4,18.8-1.2C239.9,295.2,238.2,297.8,235.1,300z M322.5,267.3c-2,6.8-9.1,13.5-21.3,19.9
			c-12.4,6.6-22.9,1.2-27.7-2.3c16.2-5,30.6-12,39.8-19.9c2.9-2.4,5.5-5.7,7.8-9.5C323.1,259.6,323.6,263.5,322.5,267.3z M300.1,112
			c3.6-0.7,7.2,3.1,9.1,5.4c10.3,12.8,17,41.3,11.7,61.3c-2.1-4.1-4.7-8.3-8.1-12.6c0.1-0.1,0.1-0.2,0.2-0.4
			c3.7-11.1,1.4-23.2-2.5-30.2c-2.3-4.1-5.2-6.7-8.5-7.4c-8.8-2-16.6,10.8-18.8,15c-3.8-1.7-7.8-3.3-12.3-4.6
			C273.8,133.9,287,114.4,300.1,112z M308.4,161c-5.3-5.6-11.9-11-20.3-15.5c3.1-5.6,8.9-12.9,12.6-12.1c1.6,0.4,3.3,2.1,4.8,4.7
			C308.4,143.4,310.4,152.4,308.4,161z M229.1,138.9c1.2,0,2.4,0,3.6,0c59.3,0,79.9,31.8,86.9,50.8c5.6,15.2,6.2,31.2,3.4,44.5
			c-16.1-14-48.1-8.4-49.5-8.2c-1.1,0.2-1.9,1.3-1.7,2.4c0.2,1.1,1.3,1.9,2.4,1.7c0.3-0.1,33.7-5.9,47.5,8.7c0,0,0.1,0,0.1,0.1
			c-2.6,9.5-6.9,17.2-12.2,21.7c-15.2,13-51.2,26.8-88,26.8c-18.8,0-44.6-3.8-61-21.8c-16.6-18.3-19.9-48.9-8.2-76.2
			C165.7,158.6,194.3,139.7,229.1,138.9z M147.2,187.2c-0.4,0.9-0.8,1.9-1.1,2.8c-3.4-4.6-6.3-14.4-5.1-20.6
			c0.4-2.3,1.3-3.8,2.7-4.5c5.2-2.6,12,1.1,14.8,3C154.1,173.7,150.3,180.2,147.2,187.2z M124.4,149.7c1.2-4.8,3.2-7.9,5.6-8.5
			c12.7-3.3,34.8,9.7,40.9,13.5c-3.1,2.7-6.1,5.6-8.8,8.8c-3.3-2.2-12.8-7.7-20.9-3.6c-2.1,1-4.7,3.3-5.7,8.5
			c-1.6,8.7,2.5,21.1,7.3,26.4c0.4,0.4,0.9,0.7,1.4,0.8c-2.6,8.1-4,16.4-4.2,24.6C125.5,202.5,120.1,166.4,124.4,149.7z
			 M119.6,188.4c0.2,0.1,0.5,0.1,0.7,0.1c3.5,15.6,10.1,30.8,19,39.3c0.2,0.2,0.5,0.4,0.8,0.5c1.1,15.8,6.6,30.4,16.4,41.2
			c0.3,0.3,0.6,0.6,0.8,0.9c-0.2,0.4-0.4,0.9-0.4,1.4c0,0.2,0.2,20.6,16.7,31c-5.9,0.8-11.9,0.5-15.4,0.1c0.6-1.6,0.9-3.4,0.8-5.2
			c-0.2-3.5-2-10-12.5-14.8c-7.9-3.6-14.3-5.6-19.4-7.2c-8.9-2.8-12-4-13.1-8.2c-0.4-1.5-1.9-2.4-3.4-2c-1.5,0.4-2.4,1.9-2,3.4
			c1.9,7.6,7.8,9.4,16.8,12.2c5,1.6,11.2,3.5,18.8,7c5.7,2.6,9,6.2,9.2,10c0.2,3.2-1.8,5.8-3.9,7c-0.9,0.5-2.7,1.3-4.4,0.2
			c-5.3-3.4-7.7-3.6-13.1-4.2c-4.1-0.4-10.2-1-21.3-3.4c-10.6-2.2-19.3-8.7-24.6-18.4c-7.8-14.3-7.7-34,0.4-55.5
			C101.3,184.3,119.2,188.3,119.6,188.4z M63.8,215.6c-5-7.3-4.1-17.6,2.7-29c6.6-11.1,8.7-18.5,6.8-23.9c-2.1-5.8-8.3-8-14.9-10.4
			c-2.6-0.9-5.4-1.9-8.1-3.1c-6.3-2.9-9.6-10.9-7.3-17.7c2.6-7.9,11.6-11.1,24.1-8.6c11.6,2.3,19.8,8.3,23.7,17.4
			c4.9,11.3,2.8,27-5.2,39.9c-5.7,9.1-7.2,16.3-4.6,21.4c1.7,3.3,4.6,4.8,6.8,5.5c-2.3,4.2-4.5,9.1-6.6,14.8
			c-0.1,0.4-0.3,0.8-0.4,1.2c-0.1,0-0.3,0-0.4,0C75.4,223.9,68,221.6,63.8,215.6z"/>
		<path class="st0" d="M254,238.9c6.6,0,18-14.2,10.4-19c-7.6-4.7-21.8-6.6-25.6,4.7C235.7,234.1,247.4,238.9,254,238.9z"/>
		<path class="st0" d="M1004.6,258.5c-0.7-1.1-2.4-2.7-6.5-1.7c-7.2,1.9-13.9-3.5-16-5.4c0.7-0.8,1.2-1.6,1.6-2.3
			c2-3.7,2.1-7.3,0.3-10.3c-2.3-4-7.3-5.7-11.2-5.7c-0.2,0-0.5,0-0.7,0c-1.3-11-15.1-47.1-38.1-66.2c-12.4-10.3-25.6-14.3-39.2-11.7
			c-42.3,7.9-61.5,59.5-65.5,72c-0.4-0.1-0.8-0.1-1.2-0.1c-0.5,0-1.1,0.1-1.6,0.1c-0.8-4.8-2.8-22,5.9-40.1
			c8.7-18.1,17.4-57,3.7-84.3c-8.2-16.4-23-26.9-44.1-31.2c-29.1-5.8-52.7-2.2-70.2,10.9c-22,16.4-27.3,42.2-28.5,56.1
			c-1.8,21.1,8.1,43.4,24.7,55.4c6.7,4.8,13.8,7.5,20.8,8c0.1,0.2,0.3,0.4,0.5,0.6c0.7,0.7,13.3,13.3,33.5,13.9
			c0,0.4,0.1,0.7,0.2,1.1c0.6,1.3,12.9,28.2,44,47.9c-0.2,0.4-0.4,0.8-0.5,1.3c-0.1,0.1-0.2,0.3-0.3,0.5c-1.6,2.6-4.6,7.4-4.2,12.2
			c0.2,2.6,1.7,5.1,4.5,7.2c3.8,3,9.6,5,14,5c0.1,0,0.1,0,0.2,0c0.2,1.3,0.6,2.6,1.3,3.6c4.5,6.7,18.2,10.3,24.9,9.3
			c4.1-0.6,7.8-3.8,11-6.7c1.6-1.4,4.1-3.7,5-3.7c0.4,0,1,0.1,1.8,0.3c16.7,2.4,31.3,2.9,43.5,1.6c-0.2,1.6-0.2,3.6,0.6,5.3
			c0.7,1.5,2,2.6,3.6,3.1c1.4,0.5,3.2,0.6,5,0.6c3.2,0,6.5-0.5,8.1-0.8c0.3,0.4,0.6,0.8,0.9,1.1c1.4,1.2,6.3,2,12.3,2
			c9.4,0,21.6-2,28.7-7.9c2.8-2.3,3.8-13.9,3.5-25c1.7,0.5,3.4,0.7,5,0.7c6.7,0,12.7-3.5,16.4-8C1005.2,264,1006,260.8,1004.6,258.5
			z M966.7,235.2c-0.6,0.5-1.2,1.2-2.1,2.2c-4.7,5-15.5,16.4-33.7,21.4c-2.5-3-6.8-9.2-7.4-14c-0.5-4.5,6.3-17.2,11.4-25.5
			c2.8,0.9,6.4,1.3,10.1,1.3c6.7,0,13.8-1.1,17.2-1.7c2.9,7.5,4.4,13.4,4.4,15.9C966.7,234.9,966.7,235.1,966.7,235.2z M842.5,210.1
			c6.3,2.6,18.4,8.2,21.7,12.7c3.1,4.2,4.8,19.1,5.3,28.8c-19-8-31.3-18.4-35-21.8C835.5,226.6,838.1,219.1,842.5,210.1z
			 M895.3,195.9c2.5,0.3,6.1,0.6,10.1,0.6c5.5,0,11.6-0.5,16.2-2.3c0.5,3.3,2.6,16.1,8.5,22.2c-3.4,5.5-10.8,18.1-12.1,26
			c-6.6,0.1-18.9-0.3-24.6-3c-6.1-2.9-16.1-13.6-20.3-18.6c4.1-2.3,9.7-5.5,13.2-8.2C892.7,207.6,894.4,201.6,895.3,195.9z
			 M938.6,179.1c9.4,10.5,16.7,23.5,21.4,34.5c-8.5,1.4-20.7,2.4-24.7-0.2c-4.4-2.8-7.4-14.1-8.2-20.5c-0.1-0.5-0.3-0.9-0.5-1.3
			C932.1,187.7,936.4,182.3,938.6,179.1z M872.2,228.2c4.8,5.3,12.8,13.4,18.9,16.2c6.4,3.1,18.2,3.5,24.9,3.5c0.9,0,1.8,0,2.5,0
			c1.2,4.6,4.1,9.1,6.4,12.2c-3.7,0.6-7.8,1-12.1,1c-3.6,0-7.3-0.3-11.1-0.8c-9.8-1.3-18.6-3.7-26.5-6.6c0-0.2,0.1-0.4,0.1-0.7
			C875.1,251.2,874.6,238,872.2,228.2z M895.9,160.7c11.9-2.2,23.5,1.3,34.6,10.5c1.4,1.2,2.8,2.4,4.1,3.7
			c-2,2.9-7.3,10.2-13.8,13.5c-7.5,3.8-23.4,2.3-26.5,1.7c-3.5-6.8-13.4-15.9-19-20.8C881.4,165.2,888.3,162.1,895.9,160.7z
			 M870.6,172.7c10.3,8.8,19.4,18.8,19.3,21.3c-0.8,5.3-1.9,10-7.1,14c-4.2,3.3-12.1,7.6-15.7,9.6c-5.5-5.4-16.9-10.5-22-12.6
			C851,194,859.4,181.7,870.6,172.7z M829.7,233c3.7,3.6,29.5,27.3,71.2,32.9c4,0.5,8,0.8,11.8,0.8c32,0,49.4-18.5,55.9-25.5
			c0.9-0.9,1.7-1.8,2.1-2.1c0.3-0.2,1-0.5,2.1-0.5c2.2,0,5.2,1,6.4,3c0.3,0.5,1.1,1.9-0.4,4.8c-4.1,7.5-34,30.9-74,30.9
			c-2.7,0-5.5-0.1-8.2-0.3c-40.7-3.3-66.2-28.5-73.1-36.1c-0.8-0.9-0.8-2.8,0-4.5c0.8-1.7,2.4-3.7,4.7-3.7
			C828.7,232.7,829.2,232.8,829.7,233z M820.2,282.4c-1.4-1.1-2.3-2.3-2.3-3.2c-0.2-3,2.1-6.8,3.4-8.8c0.4-0.6,0.7-1.1,1-1.7
			c3.9,2.2,8.1,4.3,12.5,6.3c-1.3,2.8-2.9,7.1-3.7,11.2C828.3,286.3,823.3,284.9,820.2,282.4z M924.3,299.3
			c-0.2-0.1-0.3-0.1-0.3-0.3c-0.4-0.8-0.1-2.6,0.2-3.7c3.2-0.6,6.3-1.3,9.1-2.1c0.1,2.2,0.3,4.2,0.6,5.8
			C930.8,299.6,926.4,300,924.3,299.3z M973.8,295.5c-9.3,7.5-29.9,6.9-33.7,5.6c-0.7-1.5-1.3-6.8-1.3-11.8c0-0.9-0.5-1.8-1.2-2.3
			c-0.8-0.5-1.7-0.6-2.6-0.3c-13.9,5.3-33.9,6.1-59.4,2.4c-0.9-0.1-1.6-0.2-2-0.3c-3.2-0.4-6,2.2-9.4,5.1c-2.6,2.3-5.6,5-8.1,5.3
			c-5.6,0.8-16.6-2.6-19.4-6.9c-1.7-2.5,0.9-11,4.2-17.5c0.4-0.7,0.4-1.5,0.1-2.3c-0.3-0.7-0.8-1.3-1.6-1.6
			c-39.8-16.1-57.6-48.2-60.7-54.4c4.4-0.4,9.1-1.4,14.1-3.1c1.5-0.5,2.2-2.1,1.7-3.6c-0.5-1.5-2.1-2.2-3.6-1.7
			c-21.5,7.7-37.6-1.4-44.2-6.4c2.2-0.4,4.4-1,6.5-1.9c1.4-0.6,2.1-2.3,1.5-3.7c-0.6-1.4-2.2-2.1-3.7-1.5c-9.3,3.9-19.8,2.2-29.7-5
			c-15.1-10.9-24-31.2-22.4-50.4c1.1-13,6-37,26.2-52.1c16.2-12.1,38.3-15.5,65.7-9.9c19.3,3.9,32.8,13.4,40.2,28.2
			c12.7,25.6,4.5,62.3-3.8,79.4c-11,23-6.4,43.9-6.1,45.2c-1.2,1.1-2.3,2.5-3,4.2c-1.7,3.9-1.4,8,1,10.6c7.2,8,34.1,34.5,76.8,37.9
			c2.9,0.2,5.8,0.4,8.7,0.4c30.3,0,55.4-12.9,68.9-23.5C976.8,270.3,975.4,292.2,973.8,295.5z M994.4,267c-2.5,1.6-7.6,4-13.5,1.7
			c-0.1,0-0.1,0-0.2-0.1c-0.4-5.2-1.2-9.9-2.3-12.8c0-0.1-0.1-0.2-0.1-0.3c2.7,2.5,11,9.1,20.8,6.8
			C998.4,263.6,996.9,265.4,994.4,267z"/>
		<circle class="st0" cx="765.8" cy="156.6" r="10.8"/>
		<path class="st0" d="M918.5,512.4c-0.6-0.3-1.3-0.3-1.9-0.1c-2.3-7.5-3.9-16.4-3.9-28.2c0-26.5-17.8-36.6-24.6-39.5
			c2.6-12.5-5.1-18.5-5.4-18.7c-0.8-0.6-1.7-0.7-2.6-0.4c-0.9,0.3-1.6,1.1-1.8,2c-0.6,2.5-2,4.3-3.3,5.4c-0.4-6.9-2.6-12.4-6.4-16.4
			c-6-6.3-14.3-6.8-16.7-6.8c-0.4,0-0.6,0-0.6,0c-1,0.1-2,0.7-2.4,1.7c-0.4,1-0.3,2.1,0.4,2.9c4.4,5.5,4.9,10,4.5,12.9
			c-3-2.6-6.3-3.3-8.9-3.3c-5,0-9.2,2.5-9.3,2.6c-0.9,0.6-1.4,1.6-1.3,2.7c0.1,1.1,0.9,2,1.9,2.3c4.9,1.6,6.3,5.3,6.7,7.7
			c-35.1,7.9-41.6,41.9-46,64.6c-0.6,3.3-1.2,6.4-1.9,9.2c-0.5-0.2-1.2-0.2-1.7,0c-1.4,0.5-34.6,12.6-36.5,71.8
			c-1.9,59.1,33,96.1,40.7,99.5c1.1,0.5,2.2,0.7,3.3,0.7c1,0,2-0.2,3-0.6c0.9-0.4,1.8-0.9,2.6-1.6c0.8,3.4,2.4,5.9,4.9,7.5
			c1.9,1.2,4.1,1.6,6,1.6c3.4,0,6.2-1.2,6.4-1.3c0.2-0.1,0.4-0.2,0.6-0.4c1.3,1.2,2.8,1.9,4.5,1.9c1.9,0,3.8-0.9,5.3-2.4
			c0.2,0.1,0.4,0.3,0.7,0.4c1.2,0.4,2.4,0.6,3.7,0.6c3.3,0,6.9-1.2,9.7-3.5c1.9-1.5,3.3-3.4,4.2-5.5c1,0.6,2.6,1.2,5,1.2
			c1.5,0,3.3-0.2,5.5-0.7c0.7,3.8,2.4,6.5,5,8.2c1.9,1.2,4.1,1.6,6,1.6c3.4,0,6.2-1.2,6.4-1.3c0.2-0.1,0.4-0.2,0.6-0.4
			c1.3,1.2,2.8,1.9,4.5,1.9c1.9,0,3.8-0.9,5.3-2.4c0.2,0.1,0.4,0.3,0.7,0.4c1.2,0.4,2.4,0.6,3.7,0.6c3.3,0,6.9-1.2,9.7-3.5
			c2.2-1.8,3.7-4,4.6-6.6c0.3,0.1,0.7,0.2,1.1,0.2c0.4,0,0.8-0.1,1.3-0.3c12.3-6.2,42.4-49.1,42.4-100.7
			C954.2,527.6,919.9,513,918.5,512.4z M846.2,444.2c1.3-0.2,2.2-1.3,2.3-2.6c0.2-3-0.8-8.3-4.9-12.1c0.4,0,0.8-0.1,1.2-0.1
			c3.1,0,5.5,1.5,7.3,4.6c0.5,0.8,1.3,1.3,2.2,1.4c0.9,0.1,1.8-0.4,2.4-1.1c0.3-0.4,5.7-7.6,0.3-18.3c2.4,0.7,5.2,1.9,7.4,4.3
			c3.6,3.8,5.3,9.6,4.9,17.1c0,0.9,0.3,1.8,1,2.3c0.7,0.6,1.6,0.8,2.5,0.5c0.3-0.1,5.5-1.6,8.8-6.7c1.2,2.5,2.1,6.4,0.4,12
			c-0.2,0.7-0.1,1.5,0.2,2.2c0.4,0.7,1,1.1,1.7,1.3c0.2,0.1,23.1,6.7,23.1,35c0,22.9,5.9,36,11.1,47.5c2,4.4,3.9,8.6,5.4,13.1
			c3.6,10.8,1.7,20.9,0.2,26.2L913,560.8c-0.7-0.6-1.6-0.9-2.5-0.7c-0.9,0.2-1.6,0.8-2,1.6l-7.3,15.6l-6.7-5.3
			c-0.6-0.5-1.4-0.7-2.2-0.6c-0.8,0.1-1.5,0.6-1.9,1.2l-10.6,16.2l-7.8-14.7c-0.5-1-1.5-1.5-2.6-1.5c-1.1,0.1-2,0.7-2.5,1.7
			l-10.5,25.1l-16-26.1c-0.5-0.8-1.4-1.3-2.3-1.3c0,0-0.1,0-0.1,0c-0.9,0-1.8,0.5-2.3,1.2l-9.5,13.7l-8.9-25c-0.3-0.9-1.1-1.6-2-1.8
			c-0.9-0.2-1.9,0-2.6,0.7l-11.4,10.9l-1.5-22.3c-0.1-0.9-0.5-1.6-1.2-2.1c-0.7-0.5-1.6-0.6-2.4-0.4l-14.4,4.3
			c1.4-5.4,4.7-14.8,12.2-22.3c4.3-4.3,6-13,8.1-24.1C806.7,481.8,812.8,450.4,846.2,444.2z M814.1,685.5c-1.7-1.1-2.6-3.4-2.8-7
			c0-0.8,0-1.5,0-2.2c1-1.8,1.5-3.2,1.7-3.6c0.2-0.6,0.2-1.2,0.1-1.7c0.2-0.3,0.5-0.7,0.8-0.9c1.5-1.5,3.5-2.1,5.1-2.3
			c-0.5,1.9-0.6,3.8-0.6,5.3c0,3.9,0.8,8.7,2.6,12.5C819.5,686.1,816.2,686.9,814.1,685.5z M828.7,686.5c-1.6,0-4.7-6.1-4.7-13.4
			c0-2.3,0.3-4.2,0.9-5.5c0.6-1.3,1.2-1.3,1.5-1.3l0.2,0c6.6,0.5,7.8,5.2,7.7,9.1C834,681.5,830.4,686.5,828.7,686.5z M844.6,682.8
			c-2.3,1.9-5.2,2.5-7.2,2.2c1.4-2.8,2.3-6.2,2.4-9.4c0.1-2.9-0.4-5.5-1.5-7.7c2-0.2,5.1-0.1,7.1,1.3c1.4,1,2.2,2.5,2.4,4.7
			C848.4,678.6,846.4,681.3,844.6,682.8z M870.7,685.5c-1.7-1.1-2.6-3.4-2.8-7c-0.2-3.8,0.7-6.7,2.6-8.5c1.5-1.5,3.5-2.1,5.1-2.3
			c-0.5,1.9-0.6,3.8-0.6,5.3c0,3.9,0.8,8.7,2.6,12.5C876.2,686.1,872.9,686.9,870.7,685.5z M885.3,686.5c-1.6,0-4.7-6.1-4.7-13.4
			c0-2.3,0.3-4.2,0.9-5.5c0.6-1.3,1.2-1.3,1.5-1.3l0.2,0c6.6,0.5,7.8,5.2,7.7,9.1C890.6,681.5,887,686.5,885.3,686.5z M901.3,682.8
			c-2.3,1.9-5.2,2.5-7.2,2.2c1.4-2.8,2.3-6.2,2.4-9.4c0.1-2.9-0.4-5.5-1.5-7.7c2-0.2,5.1-0.1,7.1,1.3c1.4,1,2.2,2.5,2.4,4.7
			C905.1,678.6,903,681.3,901.3,682.8z M910.2,674.9c0-0.5,0-1.1-0.1-1.6c-0.2-2.1-0.9-4-1.8-5.5c2.1-2.4,24-28.4,28.9-79.5
			c0.1-1.5-1-2.9-2.5-3.1c-1.6-0.1-2.9,1-3.1,2.5c-4.6,47.9-25.1,73.4-27.4,76.1c-5.2-2.8-11.7-1.3-12-1.2c-0.4,0.1-0.8,0.3-1.1,0.6
			c-2-1.4-4.5-2.3-7.5-2.5c-1.8-0.1-3.3,0.3-4.6,1.3c-0.1,0-0.2-0.1-0.3-0.1c-0.3,0-7.1-0.6-11.9,4c-2.7,2.5-4.1,6.1-4.3,10.5
			c-4.7,1.2-6.5,0.7-6.9,0.5c-0.5-0.6-1.1-1-1.9-1.1c0-0.8,0-1.7-0.1-2.6c-0.4-3.8-2.1-6.8-4.8-8.7c-5.3-3.7-12.8-2-13.1-1.9
			c-0.4,0.1-0.8,0.3-1.1,0.6c-2-1.4-4.5-2.3-7.5-2.5c-1.8-0.1-3.3,0.3-4.6,1.3c-0.1,0-0.2-0.1-0.3-0.1c-0.3,0-7.1-0.6-11.9,4
			c0,0,0,0-0.1,0.1c-6-6.6-34.6-40.4-30.8-83.4c0.1-1.5-1-2.9-2.5-3c-1.6-0.1-2.9,1-3,2.5c-4.3,48.6,29.4,84.8,33.2,88.7
			c-0.4,1.1-0.7,2.3-0.9,3.6c-1.2,2.1-2.8,4.1-4.4,4.8c-0.7,0.3-1.2,0.3-1.9,0c-6.8-3.1-39.2-38.8-37.4-94.2
			c1.6-48.1,24.4-62.7,31-65.9c-0.9,2.7-1.9,4.7-3.1,5.9c-12.5,12.5-14.6,29.3-14.6,30c-0.1,0.9,0.3,1.9,1,2.5
			c0.7,0.6,1.7,0.8,2.6,0.5l15.5-4.7l1.7,24.8c0.1,1.1,0.8,2,1.8,2.4c1,0.4,2.2,0.2,3-0.6l12.6-12.1l9.2,26.1c0.4,1,1.2,1.7,2.3,1.8
			c1,0.1,2.1-0.3,2.7-1.2l10.1-14.7l16.6,27.1c0.5,0.8,1.4,1.3,2.4,1.3c0.1,0,0.1,0,0.2,0c1.1-0.1,2-0.7,2.4-1.7l10.3-24.7l7.3,13.6
			c0.5,0.9,1.4,1.4,2.3,1.5c1,0,1.9-0.4,2.5-1.3l11.5-17.6l7,5.6c0.7,0.5,1.6,0.7,2.4,0.5c0.8-0.2,1.5-0.8,1.9-1.5l7.2-15.3l11,10.5
			c0.7,0.6,1.6,0.9,2.5,0.7c0.9-0.2,1.6-0.8,2-1.6c0.3-0.7,7.3-16.3,1.4-34.1c-1.6-4.8-3.5-9.1-5.6-13.7c-1.5-3.4-3.1-6.9-4.5-10.6
			c7.5,4.2,29.8,20,29.8,61C948.6,628.2,921.1,667.9,910.2,674.9z"/>
		<path class="st0" d="M858,524.8c0.2,0,0.4,0,0.6,0h0c4.3,0,8.1-3.9,10.5-7.2c4.5-6.1,8.1-15.5,6.2-21.6c-2-6.4-10.9-9.8-18.3-9.8
			c-7.3,0-12.5,3.2-14.1,8.6c-2.4,8.2,0.6,16.8,4.2,22.1C850.4,521.5,854.3,524.4,858,524.8z M848.4,496.3c1.2-4.1,6.5-4.6,8.7-4.6
			c5.8,0,12,2.8,12.9,5.9c1.1,3.6-1.3,11.1-5.4,16.7c-2.5,3.4-4.8,4.9-6,4.9l-0.1,0c-1.5-0.1-4.1-1.6-6.7-5.4
			C848.9,509.5,846.5,502.6,848.4,496.3z"/>
		<path class="st0" d="M631.9,90.4c1.2-5.2,0.7-11.3-1.6-16.3c-1.3-2.9-4-4.5-7.7-4.5c-2.2,0-4.7,0.6-7.3,1.6c-0.2,0-0.4,0-0.7,0
			c-0.5,0-48.8,5-65.4,2c-7-1.2-12.6-1.5-16.9-1.3c3.3-2.2,7.6-4.3,12.6-4.7c1.4-0.1,2.4-1.2,2.6-2.5c0.1-1.4-0.7-2.6-2.1-3
			c-0.8-0.2-17.5-4.5-31.1,5.3c0.8-4.9,2.7-11.2,6.9-14.6c1.2-1,1.4-2.7,0.5-3.9c-0.9-1.2-2.6-1.5-3.8-0.6
			c-0.8,0.6-20.2,13.9-22.9,27.5c-0.7,3.7-4.6,7.1-9.1,11c-8.3,7.3-18.7,16.4-14.1,33.7c0.2,0.7,0.6,1.2,1.2,1.6
			c-0.4,0.6-0.7,1.2-1.1,1.8c-12.5,21.3-19.7,75.3-9.4,93.7c1.5,2.7,3.2,5.2,4.9,7.4c-2.2,2.6-10.6,13.1-11.7,27.8
			c-0.6,0-1.2,0.3-1.7,0.7c-1.2,1-4,2.7-5.4,2c-0.6-0.3-3.5-2.6-2.1-16.7c1-9.6,3.1-19.4,5.1-29c4.6-21.1,8.5-39.3-2.3-46.9
			c-4.6-3.2-10.1-3.5-15.6-0.9c-13.7,6.6-24.5,29.4-26.2,55.6c-1.5,23.7,6.1,44,19.9,52.9c4.8,3.1,10.1,4.7,15.6,4.7
			c4.9,0,10-1.2,15.1-3.7c0,0.1,0.1,0.2,0.1,0.3c6.8,18.9,18.6,28,36.6,28c4.2,0,8.7-0.5,13.6-1.5c15.7-3.1,26-1.2,33.6,0.1
			c1.9,0.4,3.7,0.7,5.4,0.9c5.6,0.7,13.8-4.3,14.7-10.7c0.1-0.9,0.2-1.8,0-2.8c1.9-1,7.6-3.4,13.7,1.3c2.5,1.9,5.3,2.9,8,2.9
			c2.7,0,5.3-1,7.3-2.9c4-3.9,5.2-11.8-1.2-20.5c-9.1-12.3-15-48-15.6-51.5c2.2-0.3,3.5-0.6,3.8-0.7c0.7-0.2,1.4-0.6,1.8-1.2
			c5.3-8.3,0.5-17.1-2.8-20.6c-0.8-0.8-2-1.1-3.1-0.7c-0.6,0.2-1.1,0.4-1.7,0.6c0.6-4.5,9.7-15.2,28.7-20.5
			c12.3-3.5,19.4-10.9,23.3-16.6c-0.1,1.1-0.4,1.7-0.4,1.8c-0.5,1.2-0.1,2.5,0.9,3.2c1,0.8,2.3,0.8,3.4,0.1
			c8.9-6.3,11.6-18.3,12.5-25.8c2.4,2.5,3.3,3.8,3.3,3.8c0.6,1,1.8,1.4,2.9,1.2c1.1-0.2,2-1.1,2.2-2.3c3.7-21.7-13.9-44.7-14.7-45.6
			C633.8,90.7,632.8,90.4,631.9,90.4z M625.2,76.4c2.1,4.8,2.3,11.2,0.4,15.6c-1.1,2.4-2.7,4-4.7,4.7c-1,0.3-2,0.5-3.1,0.5
			c0,0,0,0,0,0c-6.1,0-12.7-5.1-14.3-9.4c0-0.3,0.3-1.4,2-3.3c3.9-4.4,12.1-9.3,17.2-9.3C624.7,75.3,625.1,76,625.2,76.4z
			 M476.8,126.4c2.9-5,6-7.7,8.7-7.7c0.1,0,0.3,0,0.5,0c2.9,0.3,6.1,2.6,9,6.4c8.4,10.9,16.1,36.6,10.3,73.3
			c-3.3,20.6-10,32.5-18.5,32.5h0c-6.3,0-13.7-6.2-19.3-16.2C458.7,199,464.2,148,476.8,126.4z M430.5,265.6
			c-12.1-7.8-18.7-26.2-17.3-47.9c1.8-27,12.9-46,23-50.9c3.7-1.8,7-1.6,9.9,0.4c7.7,5.4,4,22.8,0,41.1c-2.1,9.7-4.3,19.7-5.2,29.6
			c-1.3,12.8,0.3,19.8,5.1,22.3c3.5,1.8,7.3,0.2,9.6-1.2c0.1,2.2,0.5,4.4,1,6.8C447.2,270.6,438.2,270.5,430.5,265.6z M585.5,269.7
			c4.4,6,4.1,10.9,1.8,13.2c-2,2-5.1,1.8-7.9-0.4c-7.6-5.9-15.7-4.1-19.8-1.8c-2.5-2.7-7-5.2-14.7-7.3c5.4-3.9,12.2-11.1,11.8-22.1
			c-0.6-17.8-23-27.4-23.9-27.8c-1.4-0.6-3.1,0.1-3.7,1.5c-0.6,1.4,0.1,3.1,1.5,3.7c0.2,0.1,20.1,8.6,20.5,22.8
			c0.4,14-14.3,20.3-14.9,20.6c-1.2,0.5-1.9,1.7-1.7,2.9c0.1,1.2,1.1,2.2,2.3,2.5c15.4,2.7,20.4,7.1,19.9,10.2
			c-0.5,3.1-5.6,6.3-8.5,5.9c-1.5-0.2-3.2-0.5-5.1-0.8c-8-1.5-19-3.5-35.7-0.1c-22.9,4.6-36.4-2.5-43.8-23
			c-7.4-20.5,4.3-36.6,7.7-40.6c4.9,4.8,10.3,7.5,15.5,7.5c0,0,0,0,0,0c7.3,0,16.6-5,22-27.3c14.6,5.8,30.2,7.4,42.9,7.4
			c6.7,0,12.7-0.5,17.2-1C569.3,218.7,575.3,256,585.5,269.7z M574.2,197.6c1.6,2.2,3.9,6.7,1.7,11.3c-6.6,1.1-38.4,5.8-65.4-5.1
			c-0.2-0.1-0.4-0.1-0.6-0.2c0.3-1.4,0.5-2.9,0.8-4.4c0.5-2.9,0.8-5.8,1.1-8.6C517.9,193.3,549.9,205.8,574.2,197.6z M640.1,126
			c-0.8-0.8-2-0.9-3.1-0.5c-1,0.5-1.7,1.5-1.6,2.6c0,0.2,0.2,13.4-5.6,22.4c-0.3-1.6-0.8-3.2-1.7-5c-0.5-1-1.6-1.6-2.7-1.5
			c-1.1,0.1-2.1,0.8-2.5,1.9c-0.2,0.6-5.4,15.4-23.4,20.4c-19.4,5.5-32.2,17.6-32.8,25.7c-0.1,0.6,0.1,1.2,0.4,1.7
			c-23.7,4.8-53.7-8.4-54-8.5c-0.2-0.1-0.5-0.2-0.8-0.2c2.2-30.9-5.2-53-13-63.2c-3.9-5.1-8.3-8-12.8-8.5c-3.4-0.4-6.6,0.9-9.6,3.9
			c-2.6-12.8,5.2-19.7,12.8-26.3c5-4.4,9.7-8.5,10.9-14.1c1-4.9,5-10.1,9.2-14.4c-1.6,6.1-1.6,11.4-1.6,11.8c0,1.2,0.7,2.2,1.8,2.6
			c1.1,0.4,2.3,0.1,3.1-0.8c5.2-6,11.6-8.4,17.3-9.3c-5.4,3.4-8.7,7.4-8.9,7.7c-0.8,1-0.8,2.4-0.1,3.4c0.7,1,2.1,1.4,3.2,1
			c0.1,0,7.8-2.7,23.8,0.1c12.5,2.2,40.5,0.3,56.1-1c-1.9,1.6-3.5,3.2-4.6,4.8c-1.8,2.6-2.4,5-1.6,7c2.3,6.3,10.7,13.1,19.6,13.1h0
			c1.7,0,3.3-0.3,4.9-0.8c3.2-1.1,5.8-3.4,7.6-6.7c1.8,2.4,13.2,18.4,13.8,34.4C642.9,128.6,641.6,127.4,640.1,126z"/>
		<circle class="st0" cx="555.4" cy="102.3" r="7.6"/>
		<path class="st0" d="M183.6,253.5c-0.7,1-0.4,2.3,0.5,2.9c0.4,0.3,0.8,0.4,1.2,0.4c0.7,0,1.3-0.3,1.7-0.9
			c11.5-16.4,45.4-15.5,45.7-15.5c1.2,0.1,2.1-0.9,2.2-2c0-1.2-0.9-2.1-2-2.2C231.5,236.1,196.5,235.1,183.6,253.5z"/>
		<path class="st0" d="M202.9,264.8c-0.6,1-0.2,2.3,0.8,2.9c0.3,0.2,0.7,0.3,1,0.3c0.7,0,1.4-0.4,1.8-1.1
			c9.2-16.3,27.9-17.7,28.2-17.7c1.2-0.1,2-1.1,2-2.2s-1-2.1-2.2-2C233.7,245,213.3,246.4,202.9,264.8z"/>
		<path class="st0" d="M219.8,269.8c-0.4,1.1,0.2,2.3,1.3,2.7c0.2,0.1,0.5,0.1,0.7,0.1c0.9,0,1.7-0.5,2-1.4
			c3.2-9,15.7-14.6,15.9-14.6c1.1-0.5,1.6-1.7,1.1-2.8c-0.5-1.1-1.7-1.6-2.8-1.1C237.3,253,223.5,259.1,219.8,269.8z"/>
		<path class="st0" d="M273.7,239.2c0.2,0,18.9-1.4,30.5,13.4c0.4,0.5,1,0.8,1.7,0.8c0.5,0,0.9-0.1,1.3-0.4c0.9-0.7,1.1-2,0.4-3
			c-13-16.7-33.3-15.1-34.2-15c-1.2,0.1-2,1.1-1.9,2.3C271.5,238.4,272.5,239.3,273.7,239.2z"/>
		<path class="st0" d="M270,247.3c0.1,0,13.4,3.7,17.8,12.1c0.4,0.7,1.1,1.1,1.9,1.1c0.3,0,0.7-0.1,1-0.2c1-0.5,1.4-1.8,0.9-2.8
			c-5.3-10-19.8-14.1-20.5-14.2c-1.1-0.3-2.3,0.4-2.6,1.5C268.2,245.8,268.9,247,270,247.3z"/>
		<path class="st0" d="M169.8,565.1c0.3-0.1,33.7-5.9,47.5,8.7c0.4,0.4,1,0.7,1.5,0.7c0.5,0,1-0.2,1.4-0.6c0.8-0.8,0.9-2.1,0.1-3
			c-15.4-16.2-49.9-10.2-51.3-9.9c-1.1,0.2-1.9,1.3-1.7,2.4C167.6,564.5,168.7,565.3,169.8,565.1z"/>
		<path class="st0" d="M169.2,574c0.2,0,18.9-1.4,30.5,13.4c0.4,0.5,1,0.8,1.7,0.8c0.5,0,0.9-0.1,1.3-0.4c0.9-0.7,1.1-2,0.4-3
			c-13-16.7-33.3-15.1-34.2-15c-1.2,0.1-2,1.1-1.9,2.3C167,573.3,168,574.1,169.2,574z"/>
		<path class="st0" d="M165.5,582.1c0.1,0,13.4,3.7,17.8,12.1c0.4,0.7,1.1,1.1,1.9,1.1c0.3,0,0.7-0.1,1-0.2c1-0.5,1.4-1.8,0.9-2.8
			c-5.3-10-19.8-14.1-20.5-14.2c-1.1-0.3-2.3,0.4-2.6,1.5C163.7,580.7,164.4,581.8,165.5,582.1z"/>
		<path class="st0" d="M121.8,569.1c1.1,0.1,2.2-0.8,2.3-1.9c0.1-1.2-0.8-2.2-1.9-2.3c-0.9-0.1-21.2-1.7-34.2,15
			c-0.7,0.9-0.6,2.2,0.4,3c0.4,0.3,0.8,0.4,1.3,0.4c0.6,0,1.2-0.3,1.7-0.8C102.8,567.7,121.6,569.1,121.8,569.1z"/>
		<path class="st0" d="M124.4,573.2c-0.6,0.2-15.1,4.2-20.5,14.2c-0.5,1-0.2,2.3,0.9,2.8c0.3,0.2,0.7,0.2,1,0.2
			c0.8,0,1.5-0.4,1.9-1.1c4.4-8.4,17.7-12.1,17.8-12.1c1.1-0.3,1.8-1.5,1.5-2.6C126.6,573.5,125.5,572.9,124.4,573.2z"/>
	</g>
</g>
<g id="Designed_by_Vecteezy">
	<g class="st1">
		<g>
			<g>
				<path class="st0" d="M537.9,737.1c0.5,0,1,0.5,1,0.5l-8.9,19c-1,0-3.3,0.1-3.9,0.1c-0.5,0-1-0.5-1-0.5l-3-19
					c1.8,0,4.2-0.1,4.8-0.1c0.5,0,1,0.5,1,0.5l0.9,9.3c0.1,0.8,0.1,1.9,0.1,3.1c0.3-1.3,0.6-2.5,1-3.3l3.7-9.4
					C535.3,737.2,537.3,737.1,537.9,737.1L537.9,737.1z"/>
			</g>
			<g>
				<path class="st0" d="M547.1,746.5c0,2.1-1.2,3.4-4,4l-3,0.6c0.2,1.3,1.1,1.9,2.4,1.9c1.7,0,2.8-1.3,2.8-1.3s0.8,0.5,0.8,1.4
					c0,1.7-2.6,3.6-5.7,3.6c-3.1,0-5.2-2-5.2-5.3c0-3.8,2.7-9.1,7.6-9.1C545.4,742.5,547.1,744,547.1,746.5L547.1,746.5z M542,748.5
					c0.6-0.2,0.8-0.7,0.8-1.3c0-0.6-0.2-1.4-0.9-1.4c-1.2,0-1.7,1.9-1.9,3.4L542,748.5z"/>
			</g>
			<g>
				<path class="st0" d="M555.2,742.5c2.4,0,4.3,1.3,4.3,3c0,2.1-2.6,2.9-2.6,2.9s-0.7-2.3-2.5-2.3c-1.2,0-1.8,1.2-1.8,3.7
					c0,2.3,0.6,3.3,2.1,3.3c1.5,0,2.5-1,2.5-1s0.9,0.5,0.9,1.4c0,1.7-2.5,3.4-5.5,3.4c-3.2,0-5.1-2-5.1-5.3
					C547.5,747.7,550.3,742.5,555.2,742.5L555.2,742.5z"/>
			</g>
			<g>
				<path class="st0" d="M567,739.4c0.6,0,1,0.5,1,0.5l-0.5,2.9h3.1l-0.7,2.2c-0.2,0.7-0.6,1.1-1.3,1.1H567l-0.9,5.7
					c-0.1,0.9,0.1,1.3,0.7,1.3c0.6,0,1.1-0.3,1.1-0.3s0.9,0.5,0.9,1.4c0,1.4-2,2.8-4.5,2.8c-2.6,0-3.7-1.6-3.3-4.5l1-6.3h-1.7
					l0.7-2.3c0.2-0.6,0.7-1,1.3-1h0.8l1-2.7C565.3,739.8,566.5,739.4,567,739.4L567,739.4z"/>
			</g>
			<g>
				<path class="st0" d="M581.9,746.5c0,2.1-1.2,3.4-4,4l-3,0.6c0.2,1.3,1.1,1.9,2.4,1.9c1.7,0,2.8-1.3,2.8-1.3s0.9,0.5,0.9,1.4
					c0,1.7-2.6,3.6-5.7,3.6c-3.1,0-5.2-2-5.2-5.3c0-3.8,2.7-9.1,7.6-9.1C580.3,742.5,581.9,744,581.9,746.5L581.9,746.5z
					 M576.8,748.5c0.6-0.2,0.8-0.7,0.8-1.3c0-0.6-0.2-1.4-0.9-1.4c-1.2,0-1.7,1.9-1.9,3.4L576.8,748.5z"/>
			</g>
			<g>
				<path class="st0" d="M594.3,746.5c0,2.1-1.2,3.4-4,4l-3,0.6c0.2,1.3,1.1,1.9,2.4,1.9c1.7,0,2.8-1.3,2.8-1.3s0.9,0.5,0.9,1.4
					c0,1.7-2.6,3.6-5.7,3.6c-3.1,0-5.2-2-5.2-5.3c0-3.8,2.7-9.1,7.6-9.1C592.6,742.5,594.3,744,594.3,746.5L594.3,746.5z
					 M589.2,748.5c0.6-0.2,0.8-0.7,0.8-1.3c0-0.6-0.2-1.4-0.9-1.4c-1.2,0-1.7,1.9-1.9,3.4L589.2,748.5z"/>
			</g>
			<g>
				<path class="st0" d="M604.3,751.6c0,0,1,1,1,2.5c0,2.1-1.8,2.7-3.3,2.7c-2,0-3.4-0.9-4.9-1.4c-0.4,0.5-0.8,1-1.2,1.4
					c0,0-2.2-0.1-2.2-1.6c0-1.8,3.1-5,6.4-8.5c-0.4-0.1-0.7-0.1-1.1-0.1c-1.9,0-2.6,0.9-2.6,0.9s-1-1.1-0.9-2.5c0.1-2,2-2.5,3.5-2.5
					c1.6,0,2.7,0.6,3.9,1.1l0.9-1.1c0,0,2.2,0.1,2.2,1.6c0,1.8-3,4.9-6.2,8.3c0.7,0.2,1.3,0.3,1.9,0.3
					C603.6,752.7,604.3,751.6,604.3,751.6L604.3,751.6z"/>
			</g>
			<g>
				<path class="st0" d="M618.7,755.6c-0.8,4.8-4.1,7.3-8.3,7.3c-2.7,0-4.7-1.4-4.7-3c0-1.1,0.9-1.6,0.9-1.6s0.9,0.8,2.7,0.8
					c1.7,0,4-0.7,4.4-3.3l0.3-2c-1.1,1.6-2.6,3-4.5,3c-2.1,0-3.1-1.7-2.5-5.3l0.6-3.8c0.4-2.3,0.5-4.3,0.5-4.3c1.5-0.3,3.5-1,4.2-1
					c0.5,0,1,0.5,1,0.5l-0.8,4.8l-0.7,4.4c-0.1,0.4,0,0.6,0.4,0.6c1.8,0,2.8-5.1,2.8-5.1c0.4-2.3,0.5-4.3,0.5-4.3
					c1.5-0.3,3.5-1,4.2-1c0.5,0,1,0.5,1,0.5l-0.8,4.8L618.7,755.6z"/>
			</g>
		</g>
		<g>
			<path class="st0" d="M413.9,743.2h4.8c1.1,0,1.9,0.1,2.5,0.2c0.8,0.2,1.4,0.6,1.9,1.2c0.5,0.6,0.9,1.3,1.2,2.1
				c0.3,0.8,0.4,1.8,0.4,3c0,1.1-0.1,2-0.4,2.7c-0.3,0.9-0.8,1.7-1.4,2.3c-0.5,0.4-1.1,0.8-1.8,1c-0.6,0.2-1.3,0.3-2.3,0.3h-4.9
				V743.2z M416.5,745.4v8.5h1.9c0.7,0,1.3,0,1.6-0.1c0.4-0.1,0.8-0.3,1.1-0.5c0.3-0.3,0.5-0.7,0.7-1.2c0.2-0.6,0.3-1.4,0.3-2.4
				s-0.1-1.8-0.3-2.3c-0.2-0.5-0.4-0.9-0.7-1.2s-0.7-0.5-1.2-0.6c-0.4-0.1-1.1-0.1-2.1-0.1H416.5z"/>
			<path class="st0" d="M432,753.2l2.5,0.4c-0.3,0.9-0.8,1.6-1.5,2.1c-0.7,0.5-1.5,0.7-2.6,0.7c-1.6,0-2.8-0.5-3.6-1.6
				c-0.6-0.8-0.9-1.9-0.9-3.2c0-1.5,0.4-2.8,1.2-3.6c0.8-0.9,1.8-1.3,3.1-1.3c1.4,0,2.5,0.5,3.3,1.4c0.8,0.9,1.2,2.3,1.2,4.2h-6.2
				c0,0.7,0.2,1.3,0.6,1.7c0.4,0.4,0.9,0.6,1.4,0.6c0.4,0,0.7-0.1,1-0.3C431.6,754,431.8,753.6,432,753.2z M432.1,750.7
				c0-0.7-0.2-1.3-0.6-1.6c-0.4-0.4-0.8-0.6-1.3-0.6c-0.5,0-1,0.2-1.3,0.6c-0.4,0.4-0.5,0.9-0.5,1.6H432.1z"/>
			<path class="st0" d="M435.3,753.5l2.5-0.4c0.1,0.5,0.3,0.8,0.6,1.1c0.3,0.2,0.8,0.4,1.4,0.4c0.6,0,1.1-0.1,1.4-0.4
				c0.2-0.2,0.3-0.4,0.3-0.7c0-0.2-0.1-0.3-0.2-0.5c-0.1-0.1-0.4-0.2-0.8-0.3c-2-0.4-3.3-0.8-3.8-1.2c-0.7-0.5-1.1-1.2-1.1-2.1
				c0-0.8,0.3-1.5,1-2c0.6-0.6,1.6-0.8,3-0.8c1.3,0,2.2,0.2,2.8,0.6s1,1,1.3,1.8l-2.3,0.4c-0.1-0.4-0.3-0.6-0.6-0.8
				c-0.3-0.2-0.7-0.3-1.2-0.3c-0.7,0-1.1,0.1-1.4,0.3c-0.2,0.1-0.3,0.3-0.3,0.5c0,0.2,0.1,0.3,0.2,0.4c0.2,0.2,1,0.4,2.3,0.7
				c1.3,0.3,2.2,0.7,2.8,1.1c0.5,0.4,0.8,1.1,0.8,1.8c0,0.9-0.4,1.6-1.1,2.2c-0.7,0.6-1.8,0.9-3.2,0.9c-1.3,0-2.3-0.3-3-0.8
				C436.1,755.1,435.6,754.4,435.3,753.5z"/>
			<path class="st0" d="M445.9,745.5v-2.3h2.5v2.3H445.9z M445.9,756.1v-9.3h2.5v9.3H445.9z"/>
			<path class="st0" d="M450.3,756.7l2.8,0.3c0,0.3,0.2,0.6,0.3,0.7c0.2,0.2,0.6,0.3,1.1,0.3c0.6,0,1.1-0.1,1.5-0.3
				c0.2-0.1,0.4-0.3,0.5-0.6c0.1-0.2,0.1-0.6,0.1-1.1v-1.4c-0.7,1-1.7,1.5-2.8,1.5c-1.3,0-2.2-0.5-3-1.6c-0.6-0.8-0.9-1.9-0.9-3.1
				c0-1.6,0.4-2.8,1.1-3.6c0.8-0.8,1.7-1.2,2.8-1.2c1.2,0,2.1,0.5,2.9,1.5v-1.3h2.3v8.4c0,1.1-0.1,1.9-0.3,2.5s-0.4,1-0.8,1.3
				c-0.3,0.3-0.8,0.6-1.3,0.7c-0.5,0.2-1.2,0.3-2.1,0.3c-1.6,0-2.7-0.3-3.4-0.8c-0.7-0.5-1-1.2-1-2.1
				C450.3,757,450.3,756.9,450.3,756.7z M452.5,751.3c0,1,0.2,1.7,0.6,2.2c0.4,0.5,0.9,0.7,1.4,0.7c0.6,0,1.1-0.2,1.5-0.7
				c0.4-0.5,0.6-1.2,0.6-2.1c0-1-0.2-1.7-0.6-2.2c-0.4-0.5-0.9-0.7-1.5-0.7c-0.6,0-1.1,0.2-1.5,0.7
				C452.7,749.6,452.5,750.3,452.5,751.3z"/>
			<path class="st0" d="M469.6,756.1h-2.5v-4.8c0-1-0.1-1.7-0.2-2c-0.1-0.3-0.3-0.5-0.5-0.7c-0.2-0.2-0.5-0.2-0.9-0.2
				c-0.4,0-0.8,0.1-1.2,0.4c-0.3,0.2-0.6,0.5-0.7,0.9c-0.1,0.4-0.2,1.1-0.2,2.1v4.2h-2.5v-9.3h2.3v1.4c0.8-1.1,1.8-1.6,3.1-1.6
				c0.5,0,1,0.1,1.5,0.3c0.5,0.2,0.8,0.4,1,0.8c0.2,0.3,0.4,0.7,0.5,1c0.1,0.4,0.1,0.9,0.1,1.7V756.1z"/>
			<path class="st0" d="M477.2,753.2l2.5,0.4c-0.3,0.9-0.8,1.6-1.5,2.1s-1.5,0.7-2.6,0.7c-1.6,0-2.8-0.5-3.6-1.6
				c-0.6-0.8-0.9-1.9-0.9-3.2c0-1.5,0.4-2.8,1.2-3.6c0.8-0.9,1.8-1.3,3.1-1.3c1.4,0,2.5,0.5,3.3,1.4c0.8,0.9,1.2,2.3,1.2,4.2h-6.2
				c0,0.7,0.2,1.3,0.6,1.7c0.4,0.4,0.9,0.6,1.4,0.6c0.4,0,0.7-0.1,1-0.3C476.8,754,477,753.6,477.2,753.2z M477.3,750.7
				c0-0.7-0.2-1.3-0.6-1.6c-0.4-0.4-0.8-0.6-1.3-0.6c-0.5,0-1,0.2-1.3,0.6c-0.4,0.4-0.5,0.9-0.5,1.6H477.3z"/>
			<path class="st0" d="M490,756.1h-2.3v-1.4c-0.4,0.5-0.8,0.9-1.3,1.2c-0.5,0.3-1,0.4-1.6,0.4c-1.1,0-2-0.4-2.8-1.3
				c-0.8-0.9-1.1-2.1-1.1-3.6c0-1.6,0.4-2.8,1.1-3.6c0.7-0.8,1.7-1.2,2.8-1.2c1,0,1.9,0.4,2.7,1.3v-4.6h2.5V756.1z M483.4,751.3
				c0,1,0.1,1.7,0.4,2.2c0.4,0.6,1,1,1.7,1c0.6,0,1.1-0.2,1.5-0.7c0.4-0.5,0.6-1.2,0.6-2.2c0-1.1-0.2-1.8-0.6-2.3
				c-0.4-0.5-0.9-0.7-1.5-0.7c-0.6,0-1.1,0.2-1.5,0.7C483.6,749.6,483.4,750.3,483.4,751.3z"/>
			<path class="st0" d="M496.6,756.1v-12.9h2.5v4.6c0.8-0.9,1.7-1.3,2.7-1.3c1.1,0,2.1,0.4,2.8,1.2c0.7,0.8,1.1,2,1.1,3.5
				c0,1.6-0.4,2.8-1.1,3.7c-0.8,0.9-1.7,1.3-2.8,1.3c-0.5,0-1.1-0.1-1.6-0.4c-0.5-0.3-1-0.7-1.3-1.2v1.4H496.6z M499.1,751.3
				c0,1,0.2,1.7,0.5,2.1c0.4,0.7,1,1,1.7,1c0.5,0,1-0.2,1.4-0.7c0.4-0.5,0.6-1.2,0.6-2.2c0-1.1-0.2-1.8-0.6-2.3
				c-0.4-0.5-0.9-0.7-1.5-0.7c-0.6,0-1.1,0.2-1.5,0.7C499.2,749.6,499.1,750.3,499.1,751.3z"/>
			<path class="st0" d="M506.2,746.8h2.6l2.2,6.6l2.2-6.6h2.6l-3.3,9l-0.6,1.6c-0.2,0.5-0.4,1-0.6,1.2c-0.2,0.3-0.4,0.5-0.7,0.7
				c-0.3,0.2-0.6,0.3-0.9,0.4c-0.4,0.1-0.8,0.1-1.3,0.1c-0.5,0-0.9,0-1.4-0.1l-0.2-1.9c0.4,0.1,0.7,0.1,1,0.1c0.6,0,1-0.2,1.3-0.5
				c0.3-0.3,0.5-0.8,0.6-1.3L506.2,746.8z"/>
		</g>
	</g>
</g>
</svg>
