<?xml version="1.0" encoding="utf-8"?>
<!-- Generator: Adobe Illustrator 21.1.0, SVG Export Plug-In . SVG Version: 6.00 Build 0)  -->
<svg version="1.1" id="Layer_1" xmlns="http://www.w3.org/2000/svg" xmlns:xlink="http://www.w3.org/1999/xlink" xmlns:sketch="http://www.bohemiancoding.com/sketch/ns" x="0px" y="0px"
	 viewBox="0 0 800 600" style="enable-background:new 0 0 800 600;" xml:space="preserve">
<style type="text/css">
	.st0{fill:#0079BF;}
	.st1{fill:#FFFFFF;}
	.st2{fill:#81929C;}
	.st3{fill:#576D7A;}
	.st4{fill:#E1E4E6;}
	.st5{fill:#333333;}
	.st6{fill:#FFD2D5;}
	.st7{fill:#E8AFB4;}
	.st8{fill:#D1868F;}
	.st9{fill:#BEC7CC;}
	.st10{fill:#D5DBDE;}
	.st11{fill:#F0F2F3;}
</style>
<g id="Page-1_4_">
	<g id="Logos_3_" transform="translate(-1579.000000, -521.000000)">
		<g id="Group_4_" transform="translate(-9.000000, 1.000000)">
			<g id="Trello-Logo_3_" transform="translate(468.000000, 0.000000)">
				<g id="Trello-Mark---Blue---Flat_3_" transform="translate(1020.000000, 420.000000)">
					<g id="Mark_3_" transform="translate(100.000000, 100.000000)">
						<path id="Board_3_" class="st0" d="M453.5,177.5l176.8,48.1c16.3,4.4,25.9,21.2,21.5,37.5l-48.1,176.8
							c-4.4,16.3-21.2,25.9-37.5,21.5l-176.8-48.1c-16.3-4.4-25.9-21.2-21.5-37.5L416,198.9C420.4,182.7,437.2,173.1,453.5,177.5z"
							/>
						<path id="Right-List_3_" class="st1" d="M563.1,240.2l43.6,11.9c7.8,2.1,12.4,10.2,10.3,18l-20.4,74.9
							c-2.1,7.8-10.2,12.4-18,10.3L535,343.4c-7.8-2.1-12.4-10.2-10.3-18l20.4-74.9C547.2,242.7,555.2,238.1,563.1,240.2z"/>
						<path id="Left-List_3_" class="st1" d="M460.5,212.3l43.6,11.9c7.8,2.1,12.4,10.2,10.3,18L478,376c-2.1,7.8-10.2,12.4-18,10.3
							l-43.6-11.9c-7.8-2.1-12.4-10.2-10.3-18l36.4-133.8C444.6,214.8,452.7,210.2,460.5,212.3z"/>
					</g>
				</g>
			</g>
		</g>
	</g>
</g>
<g id="Page-1" sketch:type="MSPage">
	<g id="Original-Assets" transform="translate(-1039.000000, -1878.000000)" sketch:type="MSArtboardGroup">
		<g id="Group" transform="translate(229.000000, 198.000000)" sketch:type="MSLayerGroup">
			<g id="Mascots" transform="translate(810.000000, 1680.000000)" sketch:type="MSShapeGroup">
				<g id="Taco">
					<g>
						<g transform="translate(69.000000, 43.000000)">
							<g id="Head" transform="translate(0.000000, 78.393665)">
								<path id="Shape" class="st0" d="M260.8,318.3c40.4-5.1,62.1-15.6,74.7-23.5c1.9-5.1-2.4-19.1-2.4-19.1l-156.5,15.6
									c0,0-3.4,6.4-1.6,20.6C187.3,318.3,222.4,323.2,260.8,318.3"/>
								<path id="Shape_1_" class="st2" d="M253.6,253.7c98.7-12.6,142.3-4.1,142.3-4.1c0.2,0.1-1.1-1.8-4.3-26.8
									c-4.6-35.9-14.1-50.4-18.6-63.5c-19-54.9-77.4-91.5-144.8-82.9c-56.8,7.2-101.4,44.3-115.1,90.2l-0.2-0.1
									c0,0-16.4,50.4-7.6,120C123.7,267.4,154.8,266.2,253.6,253.7"/>
								<path id="Shape_2_" class="st3" d="M218,116.5c-12.4-5.1-22.9-4.3-22.9-4.3l19.5-12c0,0-11.5-2.8-21.6,6.1
									c14.6-23.9,34.5-29.7,35-29.8c-56.8,7.3-101.3,44.3-114.9,90.2l-0.2-0.1c0,0-16.4,50.4-7.6,120c8-8.3,18.4-13.2,35.8-17.1
									l96.4-113.6C237.6,155.7,216.4,127.8,218,116.5"/>
								<path id="Shape_3_" class="st1" d="M121,282.6l-3.6,13.8c0,0,21.9-9.2,38.3-4.9c13.3,3.5,34.8,19,100.5,10
									c65.6-8.9,101.1-34.8,110.9-36.9c9.8-2.1,17.9-2.3,17.9-2.3l-6.8-10.6l17.7-2.2c0,0-3.8-11.9-14-34.4
									c-9.7-21.3-31.7-23-42.5-18.9c16-55.5-31.5-80-59.6-76.5c-19.9,2.5-36.6,14.9-42.1,36c-13.3-20.9-30-26.5-49.9-23.9
									c-28.1,3.6-68.2,39-38.6,88.8c-13,0.6-27.5,7.4-35.7,28.7c-6.1,24.6-8,37.1-8,37.1L121,282.6L121,282.6z"/>
								<path id="Shape_4_" class="st4" d="M395.7,249.5c-14.7-14.7-42.2-14.4-74.3-1.4c-26.8,10.8-18.1,26.8-66.7,33.1
									c-48.5,6.3-51.1-25.3-102.2-18.8c-15.9,2-34.9,6.9-47.3,22.9c0,0.7,0,1.1,0,1.1l15.6-3.9l-3.6,13.8c0,0,21.9-9.2,38.3-4.9
									c13.3,3.5,34.8,19,100.5,10c65.6-8.9,101.1-34.8,110.9-36.9c9.8-2.1,17.9-2.3,17.9-2.3l-6.8-10.6L395.7,249.5L395.7,249.5z"
									/>
							</g>
							<g id="Nose" transform="translate(108.217391, 215.226244)">
								<path id="Shape_5_" class="st5" d="M165.9,101.7c0.9,7.2-0.1,18.2-23.7,21.2c-23,2.9-27.3-7.3-28.2-14.6
									c-0.9-7.2,2.5-13.6,24.3-16.4C161.3,88.9,165,94.4,165.9,101.7"/>
							</g>
							<g id="Left-Eye" transform="translate(74.043478, 149.660633)">
								<path id="Shape_6_" class="st0" d="M133,110.5c-1.5-11.8-9.5-20.5-17.9-19.4c-8.4,1.1-14,11.5-12.5,23.3
									c1.5,11.8,8.6,13.4,17,12.3C128,125.6,134.5,122.3,133,110.5"/>
								<path id="Shape_7_" d="M127.3,108.3c-0.7-5.4-5.7-9.2-11.1-8.5s-9.4,5.6-8.7,11c0.7,5.4,5.7,9.2,11.2,8.5
									C124.1,118.6,128,113.7,127.3,108.3"/>
								<path id="Shape_8_" class="st1" d="M120.1,101.7c0.5,3.7-1.8,7-5.1,7.4c-3.3,0.4-6.3-2.2-6.8-5.9c-0.5-3.7,1.8-7,5.1-7.4
									C116.6,95.4,119.6,98,120.1,101.7"/>
							</g>
							<g id="Right-Eye" transform="translate(160.902174, 149.660633)">
								<path id="Shape_9_" class="st0" d="M142.7,98.2c-1.5-11.8-9.5-20.5-17.9-19.4c-8.4,1.1-14,11.5-12.5,23.3s8.6,13.4,17,12.3
									C137.7,113.3,144.2,110,142.7,98.2"/>
								<path id="Shape_10_" d="M137,96c-0.7-5.4-5.7-9.2-11.1-8.5c-5.5,0.7-9.4,5.6-8.7,11c0.7,5.4,5.7,9.2,11.2,8.5
									C133.8,106.4,137.7,101.4,137,96"/>
								<path id="Shape_11_" class="st1" d="M129.8,89.4c0.5,3.7-1.8,7-5.1,7.4c-3.3,0.4-6.3-2.2-6.8-5.9c-0.5-3.7,1.8-7,5.1-7.4
									C126.3,83.1,129.3,85.8,129.8,89.4"/>
							</g>
							<g id="Mouth" transform="translate(85.434783, 226.628959)">
								<path id="Shape_12_" class="st5" d="M119.1,111.5c0,0,13.5,57.2,51,56.6c48.4-0.8,44-69.4,44-69.4s-13.8,32.5-44.8,34.2
									C138.3,134.6,119.1,111.5,119.1,111.5"/>
								<path id="Shape_13_" class="st6" d="M135.9,126.4l3.5,37.6c2.7,15.7,19.2,29.7,37,27.5c17.8-2.3,30.2-19.9,28.9-35.8
									l-3.5-38.4c-7.4,4.8-20.4,8.8-33.2,10.5C156.7,129.2,146.9,128.3,135.9,126.4"/>
								<path id="Shape_14_" class="st7" d="M166.3,182.9c-19.7-3.5-20.8-40.7-20.5-55.1c-3.3-0.4-6.6-0.8-10-1.4l3.5,37.6
									c2.7,15.7,19.2,29.7,37,27.5c10.7-1.4,19.4-8.3,24.4-17C194.1,180.4,183.2,185.9,166.3,182.9"/>
								<path id="Shape_15_" class="st7" d="M168.6,127.7c-11.9,1.5-21.7,0.7-32.7-1.3l1.4,15.2c5.8,3.3,16.7,10.1,33.1,11.8
									c-4.9-13.3-10.4-21.5-10.4-21.5l17.2-2.2c0,0,3.4,8.8,2.7,21.1c11.9-4.2,19.1-11.1,23.4-17.6l-1.4-16
									C194.4,122,181.4,126,168.6,127.7"/>
								<path id="Shape_16_" class="st7" d="M170.4,153.3c1.8,5,3.6,10.6,4.9,16.8c3-6.9,4.2-13.5,4.6-19.4c-2.8,1-5.9,1.9-9.2,2.5
									C170.6,153.3,170.5,153.3,170.4,153.3"/>
								<path id="Shape_17_" class="st8" d="M177.2,129.7l-17.2,2.2c0,0,5.5,8.2,10.4,21.5c0.1,0,0.2,0,0.2,0
									c3.4-0.7,6.4-1.5,9.2-2.5C180.6,138.5,177.2,129.7,177.2,129.7"/>
								<path id="Shape_18_" class="st5" d="M217.6,89c-1.4,15.6-14.6,37.4-48.3,43.9c-32.9,6.4-56.7-19-58.5-33
									c0,0,18.9,32.7,57.8,27.8C207.5,122.7,217.6,89,217.6,89"/>
							</g>
							<g id="Left-Ear" transform="translate(18.510870, 0.000000)">
								<path id="Shape_19_" class="st3" d="M192.7,162.4c-32.5-57.9-76.4-84.5-83.9-82.8c-7.5,1.7-20.7,43.1-23.8,90.9
									c-2.7,41,13.8,81.4,13.8,81.4"/>
								<path id="Shape_20_" class="st9" d="M156.6,160.1c3-16.1-32.1-69.9-44.3-70.7c-8.2-0.5-15.8,33-19.6,77.7
									c-3.8,44.8,8.8,68.8,8.8,68.8s0.2-31.9,21.6-50.6C144.4,166.8,153.5,176.2,156.6,160.1"/>
								<path id="Shape_21_" class="st10" d="M152.5,156.2c0.9,8.2-20.2,10.5-36.3,25.3c2.9-16.9,14.1-20.7,14.1-20.7
									s-14.6-4.3-21-11.2c5.2-2.7,18.5-0.5,18.5-0.5s-11.1-5.4-15.1-22.8c10.3,0,15.8,11,15.8,11s-10.2-17.5-3.3-29
									C129.1,112.5,151.1,143,152.5,156.2"/>
							</g>
							<g id="Right-Ear" transform="translate(148.086957, 0.000000)">
								<path id="Shape_22_" class="st2" d="M98.6,157.9c17-64.2,52.9-100.9,60.6-101.1c7.7-0.2,30.8,36.5,45.8,82.1
									c12.8,39,7,82.2,7,82.2"/>
								<path id="Shape_23_" class="st10" d="M133,146.7c-7-14.8,13.6-75.7,25.2-79.5c7.8-2.6,23.6,28,38.4,70.4
									c14.9,42.4,6.3,61.1,6.3,61.1s-5.8-23.1-31.1-35.9C146.5,150.1,140,161.4,133,146.7"/>
								<path id="Shape_24_" class="st11" d="M136,141.8c1.2,8.1,22.2,5.1,41.4,15.4c-7-15.6-18.8-16.5-18.8-16.5
									s13.1-7.8,17.5-16.1c-5.7-1.3-18.1,4.2-18.1,4.2s9.4-8,9-25.8c-10,2.6-12.5,14.6-12.5,14.6s5.5-19.4-4-28.9
									C147.7,93.6,134,128.7,136,141.8"/>
							</g>
						</g>
					</g>
				</g>
			</g>
		</g>
	</g>
</g>
</svg>
