<?xml version="1.0" encoding="utf-8"?>
<!-- Generator: Adobe Illustrator 21.1.0, SVG Export Plug-In . SVG Version: 6.00 Build 0)  -->
<svg version="1.1" id="Layer_1" xmlns="http://www.w3.org/2000/svg" xmlns:xlink="http://www.w3.org/1999/xlink" x="0px" y="0px"
	 viewBox="0 0 800 600" style="enable-background:new 0 0 800 600;" xml:space="preserve">
<style type="text/css">
	.st0{fill:#DBDBE5;}
	.st1{fill:#FFFFFF;}
	.st2{fill:#3E414A;}
	.st3{font-family:'LemonMilklight';}
	.st4{font-size:17.2472px;}
	.st5{fill:none;stroke:#DBDBE5;stroke-width:7;stroke-miterlimit:10;}
	.st6{font-size:17.8515px;}
	.st7{fill:#231F20;}
	.st8{fill:#010002;}
</style>
<g>
	<g id="papers">
		
			<rect x="105.2" y="82.5" transform="matrix(0.9659 -0.2589 0.2589 0.9659 -39.4883 50.2771)" class="st0" width="131.8" height="185.2"/>
		
			<rect x="100.4" y="83.5" transform="matrix(0.9659 -0.2588 0.2588 0.9659 -39.9048 49.0333)" class="st0" width="131.8" height="185.2"/>
		<rect x="105.3" y="83.8" class="st0" width="131.8" height="185.2"/>
		<rect x="100.5" y="83.8" class="st1" width="131.8" height="185.2"/>
	</g>
	<text transform="matrix(1 0 0 1 123.3972 125.1092)" class="st2 st3 st4">FLIGHT LIST</text>
	<line class="st5" x1="125.2" y1="139.5" x2="201.3" y2="139.5"/>
	<line class="st5" x1="125.2" y1="151.3" x2="207.8" y2="151.3"/>
	<line class="st5" x1="125.2" y1="163.1" x2="196" y2="163.1"/>
	<line class="st5" x1="125.2" y1="174.9" x2="210.7" y2="174.9"/>
	<line class="st5" x1="125.2" y1="186.7" x2="204.8" y2="186.7"/>
	<line class="st5" x1="125.2" y1="198.5" x2="201.3" y2="198.5"/>
	<line class="st5" x1="125.2" y1="210.3" x2="204.8" y2="210.3"/>
	<line class="st5" x1="125.2" y1="222.1" x2="201.3" y2="222.1"/>
	<line class="st5" x1="125.2" y1="233.9" x2="204.8" y2="233.9"/>
	<line class="st5" x1="125.2" y1="245.7" x2="201.3" y2="245.7"/>
</g>
<g>
	<g id="papers_1_">
		
			<rect x="310.1" y="109.9" transform="matrix(0.1796 -0.9837 0.9837 0.1796 157.4431 540.3695)" class="st0" width="185.2" height="131.8"/>
		
			<rect x="305.3" y="108.7" transform="matrix(0.1797 -0.9837 0.9837 0.1797 154.5915 534.6424)" class="st0" width="185.2" height="131.8"/>
		<rect x="336.9" y="83.5" class="st0" width="131.8" height="185.2"/>
		<rect x="332.1" y="83.5" class="st1" width="131.8" height="185.2"/>
	</g>
	<text transform="matrix(1 0 0 1 360.4397 125.285)" class="st2 st3 st6">PET CARE</text>
	<line class="st5" x1="356.7" y1="139.2" x2="432.8" y2="139.2"/>
	<line class="st5" x1="356.7" y1="151" x2="439.3" y2="151"/>
	<line class="st5" x1="356.7" y1="162.8" x2="427.5" y2="162.8"/>
	<line class="st5" x1="356.7" y1="174.6" x2="442.3" y2="174.6"/>
	<line class="st5" x1="356.7" y1="186.4" x2="436.4" y2="186.4"/>
	<line class="st5" x1="356.7" y1="198.2" x2="432.8" y2="198.2"/>
	<line class="st5" x1="356.7" y1="210" x2="436.4" y2="210"/>
	<line class="st5" x1="356.7" y1="221.8" x2="432.8" y2="221.8"/>
	<line class="st5" x1="356.7" y1="233.6" x2="436.4" y2="233.6"/>
	<line class="st5" x1="356.7" y1="245.4" x2="432.8" y2="245.4"/>
</g>
<g>
	<g id="papers_2_">
		
			<rect x="546.6" y="86.5" transform="matrix(0.9855 -0.1696 0.1696 0.9855 -21.5027 106.4418)" class="st0" width="131.8" height="185.2"/>
		
			<rect x="541.7" y="87.1" transform="matrix(0.9855 -0.1695 0.1695 0.9855 -21.6631 105.5528)" class="st0" width="131.8" height="185.2"/>
		<rect x="546.7" y="87.7" class="st0" width="131.8" height="185.2"/>
		<rect x="541.8" y="87.7" class="st1" width="131.8" height="185.2"/>
	</g>
	<text transform="matrix(1 0 0 1 566.5403 129.4798)" class="st2 st3 st6">ROAD TRIP</text>
	<line class="st5" x1="566.5" y1="143.4" x2="642.6" y2="143.4"/>
	<line class="st5" x1="566.5" y1="155.2" x2="649.1" y2="155.2"/>
	<line class="st5" x1="566.5" y1="167" x2="637.3" y2="167"/>
	<line class="st5" x1="566.5" y1="178.8" x2="652" y2="178.8"/>
	<line class="st5" x1="566.5" y1="190.6" x2="646.1" y2="190.6"/>
	<line class="st5" x1="566.5" y1="202.4" x2="642.6" y2="202.4"/>
	<line class="st5" x1="566.5" y1="214.2" x2="646.1" y2="214.2"/>
	<line class="st5" x1="566.5" y1="226" x2="642.6" y2="226"/>
	<line class="st5" x1="566.5" y1="237.8" x2="646.1" y2="237.8"/>
	<line class="st5" x1="566.5" y1="249.6" x2="642.6" y2="249.6"/>
</g>
<g>
	<g id="papers_5_">
		
			<rect x="84" y="354" transform="matrix(0.1914 -0.9815 0.9815 0.1914 -269.3033 512.8256)" class="st0" width="185.2" height="131.8"/>
		
			<rect x="79.2" y="352.7" transform="matrix(0.1915 -0.9815 0.9815 0.1915 -272.0056 507.0708)" class="st0" width="185.2" height="131.8"/>
		<rect x="110.8" y="327.5" class="st0" width="131.8" height="185.2"/>
		<rect x="106" y="327.5" class="st1" width="131.8" height="185.2"/>
	</g>
	<text transform="matrix(1 0 0 1 138.9123 369.3196)" class="st2 st3 st6">GARDEN</text>
	<line class="st5" x1="130.6" y1="383.2" x2="206.8" y2="383.2"/>
	<line class="st5" x1="130.6" y1="395" x2="213.2" y2="395"/>
	<line class="st5" x1="130.6" y1="406.8" x2="201.4" y2="406.8"/>
	<line class="st5" x1="130.6" y1="418.6" x2="216.2" y2="418.6"/>
	<line class="st5" x1="130.6" y1="430.4" x2="210.3" y2="430.4"/>
	<line class="st5" x1="130.6" y1="442.2" x2="206.8" y2="442.2"/>
	<line class="st5" x1="130.6" y1="454" x2="210.3" y2="454"/>
	<line class="st5" x1="130.6" y1="465.8" x2="206.8" y2="465.8"/>
	<line class="st5" x1="130.6" y1="477.6" x2="210.3" y2="477.6"/>
	<line class="st5" x1="130.6" y1="489.4" x2="206.8" y2="489.4"/>
</g>
<g>
	<g id="papers_4_">
		
			<rect x="333" y="321.2" transform="matrix(0.9849 -0.1734 0.1734 0.9849 -65.7083 75.4403)" class="st0" width="131.8" height="185.2"/>
		
			<rect x="328.1" y="321.8" transform="matrix(0.9849 -0.1733 0.1733 0.9849 -65.8519 74.5497)" class="st0" width="131.8" height="185.2"/>
		<rect x="333.1" y="322.4" class="st0" width="131.8" height="185.2"/>
		<rect x="328.3" y="322.4" class="st1" width="131.8" height="185.2"/>
	</g>
	<text transform="matrix(1 0 0 1 347.5017 364.1673)" class="st2 st3 st6">HOME CARE</text>
	<line class="st5" x1="352.9" y1="378.1" x2="429" y2="378.1"/>
	<line class="st5" x1="352.9" y1="389.9" x2="435.5" y2="389.9"/>
	<line class="st5" x1="352.9" y1="401.7" x2="423.7" y2="401.7"/>
	<line class="st5" x1="352.9" y1="413.5" x2="438.5" y2="413.5"/>
	<line class="st5" x1="352.9" y1="425.3" x2="432.6" y2="425.3"/>
	<line class="st5" x1="352.9" y1="437.1" x2="429" y2="437.1"/>
	<line class="st5" x1="352.9" y1="448.9" x2="432.6" y2="448.9"/>
	<line class="st5" x1="352.9" y1="460.7" x2="429" y2="460.7"/>
	<line class="st5" x1="352.9" y1="472.5" x2="432.6" y2="472.5"/>
	<line class="st5" x1="352.9" y1="484.3" x2="429" y2="484.3"/>
</g>
<g>
	<g id="papers_3_">
		
			<rect x="525.2" y="358" transform="matrix(0.2844 -0.9587 0.9587 0.2844 35.6946 895.6704)" class="st0" width="185.2" height="131.8"/>
		
			<rect x="520.6" y="356.3" transform="matrix(0.2845 -0.9587 0.9587 0.2845 33.9112 889.9336)" class="st0" width="185.2" height="131.8"/>
		<rect x="552.1" y="331.4" class="st0" width="131.8" height="185.2"/>
		<rect x="547.3" y="331.4" class="st1" width="131.8" height="185.2"/>
	</g>
	<text transform="matrix(1 0 0 1 573.8411 373.1595)" class="st2 st3 st6">CAR CARE</text>
	<line class="st5" x1="572" y1="387" x2="648.1" y2="387"/>
	<line class="st5" x1="572" y1="398.9" x2="654.6" y2="398.9"/>
	<line class="st5" x1="572" y1="410.7" x2="642.8" y2="410.7"/>
	<line class="st5" x1="572" y1="422.5" x2="657.5" y2="422.5"/>
	<line class="st5" x1="572" y1="434.3" x2="651.6" y2="434.3"/>
	<line class="st5" x1="572" y1="446.1" x2="648.1" y2="446.1"/>
	<line class="st5" x1="572" y1="457.9" x2="651.6" y2="457.9"/>
	<line class="st5" x1="572" y1="469.7" x2="648.1" y2="469.7"/>
	<line class="st5" x1="572" y1="481.5" x2="651.6" y2="481.5"/>
	<line class="st5" x1="572" y1="493.3" x2="648.1" y2="493.3"/>
</g>
<path class="st2" d="M424.2,405.3c-0.2-0.1-0.6-0.1-1,0.1c-0.9,0.5-1.8,2.5-2.5,4.5c0.1-3.2,0.1-6.9-0.9-8.2c-0.3-0.4-0.7-0.5-1-0.6
	c-1.5-0.2-2.7,1.9-3.9,6.7c0,0.1,0,0.1-0.1,0.2c0-3.3-0.3-6.8-1.4-8c-0.3-0.4-0.7-0.5-1-0.5c0,0-0.1,0-0.1,0c-1.4,0-2.5,2.1-3.4,6.7
	c-0.1,0.3-0.1,0.7-0.2,1c-0.3-2-0.8-4-1.7-4.8c-0.4-0.4-0.9-0.5-1.3-0.5c-2.1,0.2-2.5,5-3,12.4c-0.1,2.1-0.3,4.6-0.5,5.6
	c-0.4-0.3-0.9-1.1-1.4-1.6c-1.3-1.7-2.7-3.5-4.1-3.4c-0.6,0-1.1,0.4-1.5,1c-1.4,2.3,0.6,6.1,2.3,9.4c0.9,1.8,1.8,3.5,2,4.6
	c0.4,2.3-0.9,10.1-1.5,14c-0.5-1.5-0.9-3.1-1.4-4.7c-1.8-5.9-3.7-12-4.1-14.1c-0.6-3.4,0-5,0.9-6.9c0.2-0.4,0.4-0.9,0.6-1.3
	c0.7-1.8,2.3-6.3,1.2-8.8c-0.3-0.7-0.8-1.2-1.5-1.5c-2.3-0.9-4,2.4-5.2,4.6c-0.1,0.2-0.2,0.3-0.3,0.5c-0.1-0.4-0.2-0.9-0.3-1.4
	c-2.4-12-3.8-15.9-5.6-15.5c-1.5,0.3-2,3.1-2.1,5.9c-0.9-3-2.2-6.4-3.5-7.1c-0.4-0.2-0.8-0.2-1-0.1c-0.8,0.3-1.7,1.4-1.5,7.3
	c0,0.4,0,0.8,0.1,1.1c-1.1-3-2.6-6.3-4-7c-0.5-0.2-0.8-0.1-1.1,0c-0.8,0.4-1.6,1.6-0.9,7.5c0.1,0.7,0.2,1.5,0.3,2.2
	c-1.2-2.2-2.5-4.4-3.3-4.7c-0.3-0.1-0.5,0-0.7,0c-0.9,0.5-1.7,1.8-0.3,8.7c0.5,2.3,2.3,7.3,4.4,13c2,5.6,4.3,11.9,6.1,17.8
	c3.3,10.7,3.3,18,3.2,19.1c0,0.1,0,0.2,0,0.3c0.1,0.7,1,0.7,1.9,0.7c2,0,5.8-0.6,9.9-1.5c2.2-0.5,4.3-1.1,6.1-1.6
	c-0.4,1.9-1.2,4.6-1.5,5.3c0,0.1-0.1,0.2-0.1,0.3c-0.1,0.7,0.5,1.2,3.6,1.8c2.1,0.4,4.8,0.8,7.8,1.1c2.6,0.3,5.2,0.4,7.2,0.4
	c4.1,0,4.5-0.5,4.6-1.1c0,0,0-0.1,0-0.1c0-0.8,0.3-11.1,0.9-16.4c0.3-2.9,1.8-8.5,3.3-14c1.3-4.9,2.7-9.9,3.1-13
	C426.1,410,426,405.8,424.2,405.3z M375.7,438.8c-1.8-5.8-4.1-12.2-6.2-17.8c-2.1-5.7-3.8-10.6-4.3-12.8c-1.2-5.6-0.7-7-0.4-7.3
	c0.8,0.6,2.8,4.3,4.4,7.7l1.1-0.4c0,0-0.6-3-1-6.1c-0.7-5.8,0.2-6.3,0.3-6.3c0,0,0,0,0.1,0c1.4,0.6,3.8,7.1,5,11l1.1-0.2
	c0,0-0.4-3-0.5-6.1c-0.3-5.7,0.7-6.1,0.7-6.1c0,0,0.1,0,0.1,0c1.3,0.7,3.3,7.2,4.2,11.2l1.1-0.2c0,0-0.2-2.4-0.1-4.8
	c0.1-4.2,1-4.7,1.1-4.7c0.1,0.1,0.9,0.6,2.2,5.5c0.8,3.1,1.6,6.7,2,9.1c0.3,1.5,0.5,2.3,0.5,2.5c0.1,0.4,0.5,0.5,0.6,0.5
	c0.6,0.1,0.9-0.5,1.5-1.8c0.8-1.6,2.4-4.6,3.8-4.1c0.4,0.2,0.7,0.5,0.9,0.9c0.7,1.7-0.2,5.2-1.2,7.9c-0.2,0.5-0.4,0.9-0.5,1.3
	c-0.9,2.1-1.7,3.8-1,7.6c0.4,2.2,2.2,8.1,4.1,14.3c1.6,5.2,3.2,10.6,3.9,13.2c-0.2,0-0.4,0-0.5,0c-2,0-5.8,0.6-9.9,1.5
	c-2.9,0.7-5.6,1.4-7.6,2.1c-1,0.3-1.7,0.6-2.2,0.9C379,454.6,378.6,448,375.7,438.8z M389.4,456.7c-4,0.9-7.7,1.5-9.6,1.5
	c0,0-0.1,0-0.1,0c1.4-0.7,4.7-1.8,9.4-2.8c4-0.9,7.7-1.5,9.6-1.5c0,0,0.1,0,0.1,0C397.4,454.5,394.1,455.6,389.4,456.7z M412.7,464
	c-2,0-4.5-0.1-7.1-0.4c-4.8-0.5-8.3-1.2-9.7-1.6c0.5-0.1,1.4-0.1,2.8-0.1c2,0,4.5,0.1,7.1,0.4c4.8,0.5,8.3,1.2,9.7,1.6
	C415,463.9,414.1,464,412.7,464z M424.5,411c-0.1,2.9-0.6,6.6-1.1,9.5c-0.4,3-1.8,8-3.1,12.9c-1.5,5.5-3,11.1-3.3,14.1
	c-0.4,4.5-0.7,12.6-0.8,15.4c-0.5-0.2-1.3-0.4-2.5-0.7c-2.1-0.4-4.8-0.8-7.8-1.1c-2.6-0.3-5.2-0.4-7.2-0.4c-1.5,0-2.4,0.1-3.1,0.2
	c0.4-1.4,1-3.6,1.3-5.1c0.1,0,0.2-0.1,0.3-0.1c2.9-1,3.5-1.6,3.3-2.2c-0.2-1.2-1-3.9-1.9-7.2c0.3-1.5,2.5-13.4,1.9-16.6
	c-0.2-1.3-1.1-3-2.1-4.9c-1.5-2.9-3.4-6.6-2.4-8.3c0.3-0.5,0.5-0.5,0.6-0.5c0,0,0,0,0,0c0.8,0,2.2,1.8,3.1,3
	c1.2,1.6,1.8,2.3,2.5,2.2c0.9-0.1,1-1.2,1.4-6.8c0.2-2.6,0.4-5.5,0.7-7.8c0.6-3.5,1.2-3.6,1.3-3.6c0.1,0,0.3,0,0.5,0.2
	c1.4,1.3,1.8,7.3,1.8,9.5l1.1,0.1c0,0,0.3-3.2,0.9-6.3c1.2-5.8,2.3-5.8,2.3-5.8c0.1,0,0.1,0,0.2,0.1c1.2,1.4,1.2,9.1,0.9,13.6
	l1.1,0.1c0,0,0.5-3.2,1.3-6.4c1.5-5.9,2.6-5.8,2.7-5.8c0,0,0.1,0,0.2,0.1c1.1,1.4,0.8,8.6,0.2,12.8l1.1,0.2c0,0,0.6-2.4,1.4-4.7
	c1.5-4.3,2.3-4.4,2.3-4.4C423.9,406.4,424.7,406.7,424.5,411z"/>
<g>
	<circle class="st7" cx="397.5" cy="190.6" r="1.9"/>
	<circle class="st7" cx="419.4" cy="188.2" r="1.8"/>
	<path class="st7" d="M374,192c-1.3,4.3-1.2,8.3,0.5,11.3c1.3,2.4,3.4,4,6,4.5c2.4,0.5,3.8,0.6,4.6,0.7c1.1,0.1,1.4,0.1,2.3,0.7
		c0.3,0.2,0.7,0.3,1,0.3c0.4,0,0.8-0.1,1.1-0.3c0.2-0.1,0.3-0.2,0.5-0.4c0.4,0.1,1.3,0.2,2.4,0.2c0.9,0,1.9-0.1,2.9-0.3
		c0.1,0,0.2-0.1,0.3-0.2c0.1,0,0.2,0.1,0.2,0.1c1.9,0.6,4.1,0.9,6.2,0.9c2.2,0,4.3-0.4,5.7-1.4c1-0.7,1.6-1.7,1.7-2.9
		c1.5-0.2,3-0.5,4.4-0.9c0.5,0.4,2.3,1.9,4.8,1.9c0.9,0,2-0.2,3.1-0.8c2.9-1.5,4.6-3.2,5.1-4.9c0.4-1.2,0.2-2.5-0.5-3.7
		c-0.1-0.1-0.2-0.2-0.3-0.3c1.5-3.4,2-8.4,0.2-13.2c0-0.1-0.1-0.2-0.1-0.3c1.9-4.7,0.4-12.1-2.3-15.4c-1.2-1.5-2.4-1.7-3.1-1.6
		c-3.6,0.7-7,6.1-7.1,6.4c0,0,0,0.1,0,0.1c-2-0.5-4.3-0.8-6.9-0.8c-0.3,0-0.5,0-0.8,0c-4.3,0.1-8.2,1.4-11.4,3.8
		c-0.5-0.3-6.4-4.2-10-3.2c-0.7,0.2-1.6,0.8-2,2.7c-0.5,1.9-0.5,4.6,0,7.3c-1-0.1-3.5,0.2-6,4.1c-0.2,0-0.8-0.2-1-0.7
		c-0.3-0.7,0-1.9,0.9-3.4c1.9-3.1,2.4-6.8,1.2-9.6c-0.7-1.6-2.3-3.7-5.9-4.4c-4.9-1-6.2,1.8-6.5,2.6c-0.7,2,0.3,4.4,2.2,5.2
		c0.6,0.3,1.3,0.5,1.8,0.7c1.2,0.4,2.2,0.8,2.4,1.5c0.3,0.8-0.2,2.1-1.3,4.1c-2.3,3.9-1.3,6.3-0.5,7.5c0.9,1.3,2.5,2.1,4,2.1
		C373.8,192,373.9,192,374,192z M407.1,207.2c-2.3,1.6-7.3,1.4-10.9,0.3c-3.4-1-4.2-4-4.5-5.5c3.7,3,8.7,3.7,12.5,3.7c0,0,0,0,0,0
		c1.3,0,2.6-0.1,4-0.2C408.2,206.1,407.8,206.7,407.1,207.2z M425.7,200.2c-0.4,1.4-1.9,2.9-4.5,4.2c-2.6,1.4-4.9,0.3-5.9-0.5
		c3.4-1.1,6.5-2.5,8.5-4.2c0.6-0.5,1.2-1.2,1.7-2C425.9,198.6,426,199.4,425.7,200.2z M420.9,167.2c0.8-0.1,1.5,0.7,1.9,1.1
		c2.2,2.7,3.6,8.8,2.5,13c-0.4-0.9-1-1.8-1.7-2.7c0,0,0,0,0-0.1c0.8-2.4,0.3-4.9-0.5-6.4c-0.5-0.9-1.1-1.4-1.8-1.6
		c-1.9-0.4-3.5,2.3-4,3.2c-0.8-0.4-1.7-0.7-2.6-1C415.4,171.9,418.2,167.7,420.9,167.2z M422.7,177.6c-1.1-1.2-2.5-2.3-4.3-3.3
		c0.7-1.2,1.9-2.7,2.7-2.6c0.3,0.1,0.7,0.4,1,1C422.7,173.9,423.1,175.8,422.7,177.6z M405.9,172.9c0.3,0,0.5,0,0.8,0
		c12.6,0,17,6.8,18.5,10.8c1.2,3.2,1.3,6.6,0.7,9.5c-3.4-3-10.2-1.8-10.5-1.7c-0.2,0-0.4,0.3-0.4,0.5c0,0.2,0.3,0.4,0.5,0.4
		c0.1,0,7.2-1.3,10.1,1.8c0,0,0,0,0,0c-0.6,2-1.5,3.7-2.6,4.6c-3.2,2.8-10.9,5.7-18.7,5.7c-4,0-9.5-0.8-13-4.6
		c-3.5-3.9-4.2-10.4-1.7-16.2C392.4,177.1,398.5,173.1,405.9,172.9z M388.5,183.2c-0.1,0.2-0.2,0.4-0.2,0.6c-0.7-1-1.3-3-1.1-4.4
		c0.1-0.5,0.3-0.8,0.6-1c1.1-0.6,2.5,0.2,3.1,0.6C389.9,180.3,389.1,181.7,388.5,183.2z M383.6,175.2c0.3-1,0.7-1.7,1.2-1.8
		c2.7-0.7,7.4,2.1,8.7,2.9c-0.7,0.6-1.3,1.2-1.9,1.9c-0.7-0.5-2.7-1.6-4.4-0.8c-0.4,0.2-1,0.7-1.2,1.8c-0.3,1.9,0.5,4.5,1.5,5.6
		c0.1,0.1,0.2,0.1,0.3,0.2c-0.6,1.7-0.8,3.5-0.9,5.2C383.9,186.4,382.7,178.8,383.6,175.2z M382.6,183.5c0,0,0.1,0,0.1,0
		c0.8,3.3,2.1,6.5,4,8.3c0,0,0.1,0.1,0.2,0.1c0.2,3.4,1.4,6.5,3.5,8.7c0.1,0.1,0.1,0.1,0.2,0.2c-0.1,0.1-0.1,0.2-0.1,0.3
		c0,0.1,0,4.4,3.5,6.6c-1.3,0.2-2.5,0.1-3.3,0c0.1-0.3,0.2-0.7,0.2-1.1c0-0.7-0.4-2.1-2.6-3.1c-1.7-0.8-3-1.2-4.1-1.5
		c-1.9-0.6-2.6-0.8-2.8-1.8c-0.1-0.3-0.4-0.5-0.7-0.4c-0.3,0.1-0.5,0.4-0.4,0.7c0.4,1.6,1.7,2,3.6,2.6c1.1,0.3,2.4,0.7,4,1.5
		c1.2,0.6,1.9,1.3,2,2.1c0,0.7-0.4,1.2-0.8,1.5c-0.2,0.1-0.6,0.3-0.9,0c-1.1-0.7-1.6-0.8-2.8-0.9c-0.9-0.1-2.2-0.2-4.5-0.7
		c-2.2-0.5-4.1-1.9-5.2-3.9c-1.7-3-1.6-7.2,0.1-11.8C378.7,182.6,382.5,183.4,382.6,183.5z M370.8,189.2c-1.1-1.5-0.9-3.7,0.6-6.2
		c1.4-2.4,1.9-3.9,1.4-5.1c-0.4-1.2-1.8-1.7-3.2-2.2c-0.6-0.2-1.1-0.4-1.7-0.7c-1.3-0.6-2-2.3-1.6-3.8c0.5-1.7,2.5-2.4,5.1-1.8
		c2.5,0.5,4.2,1.8,5,3.7c1,2.4,0.6,5.7-1.1,8.5c-1.2,1.9-1.5,3.5-1,4.5c0.4,0.7,1,1,1.4,1.2c-0.5,0.9-1,1.9-1.4,3.1
		c0,0.1-0.1,0.2-0.1,0.3c0,0-0.1,0-0.1,0C373.2,191,371.7,190.5,370.8,189.2z"/>
	<path class="st7" d="M411.2,194.2c1.4,0,3.8-3,2.2-4c-1.6-1-4.6-1.4-5.4,1C407.3,193.2,409.8,194.2,411.2,194.2z"/>
	<path class="st7" d="M396.2,197.3c-0.1,0.2-0.1,0.5,0.1,0.6c0.1,0.1,0.2,0.1,0.3,0.1c0.1,0,0.3-0.1,0.4-0.2
		c2.4-3.5,9.6-3.3,9.7-3.3c0.3,0,0.5-0.2,0.5-0.4c0-0.2-0.2-0.5-0.4-0.5C406.4,193.6,398.9,193.4,396.2,197.3z"/>
	<path class="st7" d="M400.3,199.7c-0.1,0.2,0,0.5,0.2,0.6c0.1,0,0.1,0.1,0.2,0.1c0.2,0,0.3-0.1,0.4-0.2c2-3.5,5.9-3.8,6-3.8
		c0.2,0,0.4-0.2,0.4-0.5s-0.2-0.4-0.5-0.4C406.8,195.5,402.5,195.8,400.3,199.7z"/>
	<path class="st7" d="M403.9,200.8c-0.1,0.2,0,0.5,0.3,0.6c0,0,0.1,0,0.1,0c0.2,0,0.4-0.1,0.4-0.3c0.7-1.9,3.3-3.1,3.4-3.1
		c0.2-0.1,0.3-0.4,0.2-0.6c-0.1-0.2-0.4-0.3-0.6-0.2C407.6,197.2,404.7,198.5,403.9,200.8z"/>
	<path class="st7" d="M415.3,194.2c0,0,4-0.3,6.5,2.8c0.1,0.1,0.2,0.2,0.4,0.2c0.1,0,0.2,0,0.3-0.1c0.2-0.2,0.2-0.4,0.1-0.6
		c-2.8-3.5-7.1-3.2-7.3-3.2c-0.2,0-0.4,0.2-0.4,0.5C414.9,194.1,415.1,194.3,415.3,194.2z"/>
	<path class="st7" d="M414.6,196c0,0,2.8,0.8,3.8,2.6c0.1,0.2,0.2,0.2,0.4,0.2c0.1,0,0.1,0,0.2-0.1c0.2-0.1,0.3-0.4,0.2-0.6
		c-1.1-2.1-4.2-3-4.3-3c-0.2-0.1-0.5,0.1-0.5,0.3C414.2,195.7,414.3,195.9,414.6,196z"/>
</g>
<g transform="translate(1 1)">
	<g>
		<g>
			<path d="M628.5,191.6c0-0.1,0-0.2,0-0.2c0-0.1,0-0.2,0-0.3c0,0,0-0.1,0-0.1c-0.2-6.5-2.1-12.3-5.2-16.4
				c-2.7-3.7-6.4-6.1-10.4-6.4c-0.1,0-0.1,0-0.2,0c-0.1,0-0.1,0-0.2,0c-0.2,0-0.4,0-0.6,0h-11c-4.1,0-7.9,2.1-10.7,5.7
				c-0.1,0.1-0.2,0.2-0.2,0.3c-3.4,4.3-5.6,10.7-5.6,17.7c0,13,7.4,23.7,16.6,23.7h11c0.2,0,0.4,0,0.7,0c0.1,0,0.1,0,0.2,0
				c7.6-0.6,13.9-8.4,15.4-19c0-0.1,0-0.2,0-0.2c0.2-1.4,0.3-2.9,0.3-4.4V191.6L628.5,191.6z M602.4,204.1c0-0.1-0.1-0.2-0.1-0.3
				c-1.4-3.5-2.2-7.7-2.2-12.2c0-11.6,5.5-21.2,12.5-22.1c8,0.5,14.3,10.2,14.3,22.1c0,11.8-6.3,21.5-14.3,22.1
				C608.3,213.3,604.7,209.6,602.4,204.1z M586.9,199.6c0.2-0.1,0.3-0.2,0.5-0.3l1-1.6l1.7,1.7c0.3,0.3,0.8,0.3,1.1,0l1.8-1.8
				l1.9,1.9c0.3,0.3,0.8,0.3,1.1,0l1.9-1.9l1.3,1.2c0.3,1.4,0.6,2.8,1.1,4l-1.4-0.7c-0.4-0.2-0.8-0.1-1,0.2l-1,1.6l-1.7-1.7
				c-0.3-0.3-0.8-0.3-1.1,0l-1.8,1.8l-1.8-1.8c-0.3-0.3-0.8-0.3-1.1,0l-1.1,1.1C587.7,202.2,587.3,200.9,586.9,199.6z M585.9,192.1
				l2,1.1c0.3,0.2,0.7,0.1,0.9-0.2l1.8-1.8l1.9,1.8c0.3,0.3,0.8,0.3,1.1,0l1.9-1.9l3,1.8c0,1.1,0.1,2.2,0.3,3.3l-0.6-0.5
				c-0.3-0.2-0.8-0.2-1,0.1l-1.8,1.8l-1.8-1.8c-0.3-0.3-0.8-0.3-1.1,0l-1.8,1.8l-1.8-1.8c-0.2-0.2-0.4-0.2-0.6-0.2s-0.5,0.2-0.6,0.3
				l-1.1,1.7C586.2,195.9,586,194,585.9,192.1z M588.5,179.4l1.8,1.2c0.2,0.2,0.6,0.2,0.9,0l1.9-1.3l2,1.3c0.2,0.2,0.6,0.2,0.9,0
				l2-1.3l2.5,1.2c-0.4,1.2-0.8,2.5-1,3.8l-1-1c-0.3-0.3-0.8-0.3-1.1,0l-1.8,1.8l-1.8-1.8c-0.3-0.3-0.8-0.3-1.1,0l-1.8,1.8l-1.8-1.8
				c-0.2-0.2-0.3-0.2-0.6-0.2c-0.2,0-0.4,0.1-0.6,0.2l-0.9,1C587.3,182.5,587.8,180.9,588.5,179.4z M591.1,175.1l5-1.5l2,1.3
				c0.2,0.2,0.6,0.2,0.9,0l2-1.3l2.2,1.1c-0.8,1.3-1.6,2.7-2.2,4.3l-2.9-1.4c-0.2-0.1-0.6-0.1-0.8,0.1l-1.9,1.3l-1.9-1.3
				c-0.2-0.2-0.6-0.2-0.9,0l-1.9,1.3l-1.4-1C589.8,176.9,590.4,176,591.1,175.1z M595.8,189.5c-0.3-0.2-0.7-0.1-0.9,0.2l-1.8,1.8
				l-1.8-1.8c-0.3-0.3-0.8-0.3-1.1,0l-2,2l-2.2-1.3c0-1.2,0.2-2.3,0.3-3.5c0.1,0,0.2-0.1,0.3-0.2l1.7-1.8l1.8,1.8
				c0.3,0.3,0.8,0.3,1.1,0l1.8-1.8l1.8,1.8c0.3,0.3,0.8,0.3,1.1,0l1.8-1.8l1,1c0.1,0.1,0.1,0.1,0.2,0.1c-0.3,1.6-0.4,3.3-0.4,5.1
				L595.8,189.5z M608.1,169.7c-1.5,0.9-2.9,2.2-4.1,3.8l-2.8-1.4c-0.2-0.1-0.6-0.1-0.8,0.1l-1.9,1.3l-1.9-1.3
				c-0.2-0.2-0.5-0.2-0.7-0.2l-2.7,0.8c2.2-2,4.9-3.1,7.7-3.1L608.1,169.7L608.1,169.7z M588.9,204.9l1-1l1.8,1.8
				c0.3,0.3,0.8,0.3,1.1,0l1.8-1.8l1.8,1.8c0.2,0.2,0.3,0.2,0.6,0.2c0.3,0,0.6-0.2,0.6-0.4l1.2-1.8l2.3,1.1c0.6,1.4,1.3,2.7,2,3.9
				l-1.5,1l-1.9-1.3c-0.2-0.2-0.6-0.2-0.9,0l-1.9,1.3l-1.9-1.3c-0.2-0.2-0.6-0.2-0.9,0l-1.9,1.3C591,208.4,589.8,206.7,588.9,204.9z
				 M600.9,213.8c-2.7,0-5.3-1.1-7.5-3l1.2-0.8l2,1.3c0.2,0.2,0.6,0.2,0.9,0l1.9-1.3l1.8,1.3c0.2,0.2,0.6,0.2,0.9,0l2-1.3
				c1.2,1.6,2.6,2.9,4.1,3.8L600.9,213.8L600.9,213.8z"/>
			<path d="M613.5,174.4c-4.1,0-7.5,4.6-8.8,11.1c0,0,0,0.1,0,0.1c0,0.2-0.1,0.4-0.1,0.5c0,0.1,0,0.1,0,0.2c0,0.1,0,0.3-0.1,0.4
				c0,0.1,0,0.2,0,0.3c0,0.1,0,0.3-0.1,0.4c0,0.1,0,0.2,0,0.3c0,0.1,0,0.3,0,0.4c0,0.1,0,0.2,0,0.3c0,0.1,0,0.2,0,0.4
				c0,0.1,0,0.2,0,0.2c0,0.2,0,0.4,0,0.5c0,0.1,0,0.1,0,0.2c0,0.2,0,0.3,0,0.5c0,0,0,0.1,0,0.1c0,0.2,0,0.4,0,0.6c0,0.1,0,0.1,0,0.2
				c0,0.2,0,0.4,0,0.6c0,0.2,0,0.4,0,0.6c0,0.1,0,0.1,0,0.2c0,0.2,0,0.4,0,0.6c0,0,0,0.1,0,0.1c0,0.2,0,0.3,0,0.5c0,0.1,0,0.1,0,0.2
				c0,0.2,0,0.4,0,0.5c0,0.1,0,0.2,0,0.2c0,0.1,0,0.2,0,0.4c0,0.1,0,0.2,0,0.3c0,0.1,0,0.3,0,0.4c0,0.1,0,0.2,0,0.3
				c0,0.1,0,0.3,0.1,0.4c0,0.1,0,0.2,0,0.3c0,0.1,0,0.3,0.1,0.4c0,0.1,0,0.1,0,0.2c0,0.2,0.1,0.4,0.1,0.5c0,0,0,0.1,0,0.1
				c1.3,6.5,4.8,11.1,8.8,11.1c5.3,0,9.5-7.6,9.5-17.3C623,182,618.8,174.4,613.5,174.4z M605.8,194.2c0,0,0-0.1,0-0.1
				c0-0.1,0-0.1,0-0.2c0-0.1,0-0.2,0-0.3c0-0.1,0-0.1,0-0.2c0-0.2,0-0.3,0-0.5c0,0,0-0.1,0-0.1c0-0.1,0-0.3,0-0.4c0,0,0-0.1,0-0.1
				c0-0.2,0-0.3,0-0.5c0-0.1,0-0.3,0-0.4c0-2.9,0.5-5.7,1.3-8.1c1.2,2,1.9,5.1,1.9,8.5s-0.7,6.5-1.9,8.5
				C606.4,198.4,605.9,196.4,605.8,194.2z M613.5,207.5c-2.3,0-4.5-2.2-5.9-5.5c1.7-2.1,2.8-6,2.8-10.3c0-4.3-1.1-8.2-2.8-10.3
				c1.5-3.3,3.6-5.5,5.9-5.5c4.3,0,7.9,7.3,7.9,15.8S617.8,207.5,613.5,207.5z"/>
		</g>
	</g>
</g>
<g>
	<g>
		<g>
			<path d="M640.5,415.7c-1.5,0-2.8-1.2-2.8-2.8c0-0.5-0.4-0.8-0.8-0.8c-0.5,0-0.8,0.4-0.8,0.8c0,1.5-1.2,2.8-2.8,2.8
				c-0.5,0-0.8,0.4-0.8,0.8c0,0.5,0.4,0.8,0.8,0.8c1.5,0,2.8,1.2,2.8,2.8c0,0.5,0.4,0.8,0.8,0.8c0.5,0,0.8-0.4,0.8-0.8
				c0-1.5,1.2-2.8,2.8-2.8c0.5,0,0.8-0.4,0.8-0.8C641.3,416.1,640.9,415.7,640.5,415.7z M636.8,417.5c-0.3-0.4-0.6-0.7-1-1
				c0.4-0.3,0.7-0.6,1-1c0.3,0.4,0.6,0.7,1,1C637.5,416.8,637.1,417.2,636.8,417.5z"/>
		</g>
	</g>
	<g>
		<g>
			<path d="M591.7,415.7c-1.5,0-2.8-1.2-2.8-2.8c0-0.5-0.4-0.8-0.8-0.8s-0.8,0.4-0.8,0.8c0,1.5-1.2,2.8-2.8,2.8
				c-0.5,0-0.8,0.4-0.8,0.8c0,0.5,0.4,0.8,0.8,0.8c1.5,0,2.8,1.2,2.8,2.8c0,0.5,0.4,0.8,0.8,0.8s0.8-0.4,0.8-0.8
				c0-1.5,1.2-2.8,2.8-2.8c0.5,0,0.8-0.4,0.8-0.8C592.6,416.1,592.2,415.7,591.7,415.7z M588.1,417.5c-0.3-0.4-0.6-0.7-1-1
				c0.4-0.3,0.7-0.6,1-1c0.3,0.4,0.6,0.7,1,1C588.8,416.8,588.4,417.2,588.1,417.5z"/>
		</g>
	</g>
	<g>
		<g>
			<path d="M617,404.9c-2,0-3.7-1.6-3.7-3.7c0-0.5-0.4-0.8-0.8-0.8c-0.5,0-0.8,0.4-0.8,0.8c0,2-1.6,3.7-3.7,3.7
				c-0.5,0-0.8,0.4-0.8,0.8s0.4,0.8,0.8,0.8c2,0,3.7,1.6,3.7,3.7c0,0.5,0.4,0.8,0.8,0.8c0.5,0,0.8-0.4,0.8-0.8c0-2,1.6-3.7,3.7-3.7
				c0.5,0,0.8-0.4,0.8-0.8S617.5,404.9,617,404.9z M612.5,407.4c-0.4-0.7-1-1.2-1.6-1.6c0.7-0.4,1.2-1,1.6-1.6
				c0.4,0.7,1,1.2,1.6,1.6C613.5,406.1,612.9,406.7,612.5,407.4z"/>
		</g>
	</g>
	<g>
		<g>
			<path d="M630.1,428.9l-3.3-9.3c-0.2-0.7-0.9-1.2-1.6-1.2h-25.6c-0.7,0-1.4,0.5-1.6,1.2l-3.3,9.3c-0.2,0.5,0.2,1.1,0.8,1.1h33.8
				c0.3,0,0.5-0.1,0.7-0.4C630.1,429.4,630.2,429.2,630.1,428.9z M596.7,428.3l2.9-8.2c0,0,0,0,0.1,0h25.6c0,0,0,0,0.1,0l2.9,8.2
				H596.7z"/>
		</g>
	</g>
	<g>
		<g>
			<path d="M628.6,440.1c-3,0-5.4,1.6-5.4,3.6s2.4,3.6,5.4,3.6c3,0,5.4-1.6,5.4-3.6S631.6,440.1,628.6,440.1z M628.6,445.5
				c-2.1,0-3.7-1-3.7-1.9s1.6-1.9,3.7-1.9c2.1,0,3.7,1,3.7,1.9S630.7,445.5,628.6,445.5z"/>
		</g>
	</g>
	<g>
		<g>
			<path d="M596.1,440.1c-3,0-5.4,1.6-5.4,3.6s2.4,3.6,5.4,3.6c3,0,5.4-1.6,5.4-3.6S599.1,440.1,596.1,440.1z M596.1,445.5
				c-2.1,0-3.7-1-3.7-1.9s1.6-1.9,3.7-1.9s3.7,1,3.7,1.9S598.2,445.5,596.1,445.5z"/>
		</g>
	</g>
	<g>
		<g>
			<path d="M639.4,427.4h-4.5c-0.4,0-0.7,0.3-0.8,0.6l-0.6,2.4l-4.2-11.8c-0.6-1.8-2.3-3-4.2-3h-25.6c-1.9,0-3.6,1.2-4.2,3
				l-4.2,11.8l-0.6-2.4c-0.1-0.4-0.4-0.6-0.8-0.6h-4.5c-0.5,0-0.8,0.4-0.8,0.8v3.6c0,0.5,0.4,0.8,0.8,0.8h4.7l-2.9,4
				c-0.5,0.8-0.8,1.7-0.8,2.6v10.6c0,1.5,0.7,2.8,1.8,3.6c0,0,0,0,0,0v2.7c0,1,0.8,1.7,1.7,1.7h5.4c1,0,1.7-0.8,1.7-1.7v-1.9h30.8
				v1.9c0,1,0.8,1.7,1.7,1.7h5.4c1,0,1.7-0.8,1.7-1.7v-2.7c0,0,0,0,0,0c1.1-0.8,1.8-2.1,1.8-3.6v-10.6c0-0.9-0.3-1.8-0.8-2.6l-2.9-4
				h4.7c0.5,0,0.8-0.4,0.8-0.8v-3.6C640.3,427.8,639.9,427.4,639.4,427.4z M586.2,431v-1.9h3l0.5,1.9H586.2z M595.3,456.2
				C595.3,456.3,595.3,456.3,595.3,456.2l-5.5,0.1c0,0-0.1,0-0.1-0.1v-1.9h1h4.6C595.3,454.4,595.3,456.2,595.3,456.2z M635,456.2
				C635,456.3,635,456.3,635,456.2l-5.5,0.1c0,0-0.1,0-0.1-0.1v-1.9h4.6h1V456.2z M634,452.7h-43.3c-1.2,0-2.3-0.8-2.6-1.9h48.6
				C636.3,451.9,635.3,452.7,634,452.7z M619.7,443.6v1.9h-14.5v-1.9H619.7z M605.2,441.9c0.4-1.1,1.4-1.9,2.6-1.9h9
				c1.2,0,2.3,0.8,2.6,1.9H605.2z M619.7,447.2v1.9h-14.5v-1.9H619.7z M636.3,437.7c0.3,0.5,0.5,1,0.5,1.6v9.7h-15.4v-6.4
				c0-2.5-2-4.5-4.5-4.5h-9c-2.5,0-4.5,2-4.5,4.5v6.4H588v-9.7c0-0.6,0.2-1.1,0.5-1.6l3.6-5h31.1c0.5,0,0.8-0.4,0.8-0.8
				s-0.4-0.8-0.8-0.8h-30.4l4.2-11.8c0.4-1.1,1.4-1.8,2.6-1.8h25.6c1.2,0,2.2,0.7,2.6,1.8l4.2,11.8h-5.1c-0.5,0-0.8,0.4-0.8,0.8
				s0.4,0.8,0.8,0.8h5.9L636.3,437.7z M638.6,431h-3.5l0.5-1.9h3V431z"/>
		</g>
	</g>
	<g>
		<g>
			<path d="M598.9,437.3h-5.4c-0.5,0-0.8,0.4-0.8,0.8c0,0.5,0.4,0.8,0.8,0.8h5.4c0.5,0,0.8-0.4,0.8-0.8
				C599.7,437.7,599.3,437.3,598.9,437.3z"/>
		</g>
	</g>
	<g>
		<g>
			<path d="M631.3,437.3h-5.4c-0.5,0-0.8,0.4-0.8,0.8c0,0.5,0.4,0.8,0.8,0.8h5.4c0.5,0,0.8-0.4,0.8-0.8
				C632.2,437.7,631.8,437.3,631.3,437.3z"/>
		</g>
	</g>
</g>
<g>
	<path class="st8" d="M175.4,198.3h-21.2c-0.4,0-0.7,0.3-0.7,0.7c0,0.4,0.3,0.7,0.7,0.7h21.2c0.4,0,0.7-0.3,0.7-0.7
		C176.1,198.6,175.8,198.3,175.4,198.3z"/>
	<path class="st8" d="M156.5,187.2c1.5,3.1,4.6,5.3,8.3,5.3c3.7,0,6.8-2.2,8.3-5.3c0,0,0-0.1,0-0.1c0.5-1.2,0.8-2.4,0.8-3.8
		c0-1.6-0.4-3.1-1.1-4.4c0,0,0-0.1-0.1-0.1c-1.6-2.8-4.6-4.7-8-4.7c-3.4,0-6.4,1.9-8,4.7c0,0,0,0.1-0.1,0.1c-0.6,1.2-1,2.5-1.1,3.9
		c0,0,0,0,0,0c0,0.1,0,0.3,0,0.4C155.6,184.6,155.9,185.9,156.5,187.2C156.5,187.1,156.5,187.1,156.5,187.2z M168.8,190.5
		c0.4-1.1,0.7-2.1,0.9-3.1h2.2C171.2,188.7,170.1,189.7,168.8,190.5z M172.4,186.4h-2.5c0.2-1,0.3-2,0.3-3h2.8
		C173,184.5,172.8,185.5,172.4,186.4z M173,182.4h-2.8c0-0.9-0.2-1.9-0.4-2.8h2.3C172.6,180.5,172.9,181.4,173,182.4z M171.6,178.6
		h-2c-0.2-0.8-0.5-1.6-0.8-2.5C169.9,176.8,170.8,177.6,171.6,178.6z M165.3,175.1c0.8,0,1.6,0.2,2.3,0.5c0,0,0,0.1,0,0.1
		c0.4,1,0.7,2,1,2.9h-3.3V175.1L165.3,175.1z M165.3,179.6h3.6c0.2,1,0.3,1.9,0.4,2.8h-4V179.6L165.3,179.6z M165.3,183.4h4
		c0,1-0.1,2-0.3,3h-3.7L165.3,183.4L165.3,183.4z M165.3,187.4h3.4c-0.3,1.1-0.6,2.3-1.1,3.5c0,0,0,0.1,0,0.1
		c-0.7,0.3-1.5,0.4-2.3,0.5V187.4z M157.7,187.4h2.2c0.2,1,0.5,2,0.9,3.1C159.5,189.7,158.4,188.7,157.7,187.4z M164.3,191.5
		c-0.8,0-1.6-0.2-2.3-0.5c0,0,0-0.1,0-0.1c-0.5-1.2-0.8-2.4-1.1-3.5h3.4L164.3,191.5L164.3,191.5z M164.3,186.4h-3.7
		c-0.2-1-0.3-2-0.3-3h4L164.3,186.4L164.3,186.4z M164.3,182.4h-4c0-0.9,0.2-1.9,0.4-2.8h3.6L164.3,182.4L164.3,182.4z M164.3,178.6
		H161c0.3-0.9,0.6-1.9,1-2.9c0,0,0-0.1,0-0.1c0.7-0.3,1.5-0.4,2.3-0.5L164.3,178.6L164.3,178.6z M160.8,176.1
		c-0.3,0.9-0.6,1.7-0.8,2.5h-2C158.8,177.6,159.7,176.8,160.8,176.1z M157.5,179.6h2.3c-0.2,1-0.3,1.9-0.4,2.8h-2.8
		C156.7,181.4,157,180.5,157.5,179.6z M159.4,183.4c0,1,0.1,2,0.3,3h-2.5c-0.4-0.9-0.6-2-0.6-3H159.4L159.4,183.4z"/>
	<path class="st8" d="M180.7,164.1C180.6,164.1,180.6,164.1,180.7,164.1c-2.6,0.2-5.6,0.4-8.8,0.6c-6.7,0.4-14.2,0.9-19.9,1.6
		c-1.8,0.1-3.2,1.6-3.2,3.4v35.7c0,1.9,1.5,3.4,3.4,3.4h25.3c1.6,0,3-1.1,3.3-2.6c1.7-0.1,3-1.4,3-3.1v-35.7
		C183.8,165.5,182.4,164.1,180.7,164.1z M179.4,205.3c0,1.1-0.9,2-2,2h-25.3c-1.1,0-2-0.9-2-2v-35.7c0-1.1,0.9-2,2-2h25.3
		c1.1,0,2,0.9,2,2L179.4,205.3L179.4,205.3z M182.9,202.9c0,1.1-0.9,2.1-2,2.2v-35.5c0-1.9-1.5-3.4-3.4-3.4H163c3-0.2,6-0.4,8.9-0.6
		c3.2-0.2,6.2-0.4,8.8-0.6c1.2,0,2.2,1,2.2,2.2V202.9z"/>
</g>
<g>
	<path class="st8" d="M181,454.7c-0.2,0-0.4,0.1-0.5,0.3l-0.3,1.6c0,0.2,0.1,0.4,0.3,0.5c0,0,0,0,0.1,0c0.2,0,0.4-0.1,0.4-0.3
		l0.3-1.6C181.4,455,181.2,454.8,181,454.7z"/>
	<path class="st8" d="M180.3,458.6c-0.2,0-0.4,0.1-0.5,0.3l-1.4,8.3c0,0.2,0.1,0.4,0.3,0.5c0,0,0,0,0.1,0c0.2,0,0.4-0.1,0.4-0.3
		l1.4-8.3C180.7,458.9,180.6,458.7,180.3,458.6z"/>
	<path class="st8" d="M156.2,424.4c0.9,0,1.6-0.1,1.6-0.1c0.2,0,0.3-0.2,0.3-0.3c0-0.2,0.7-5.3-2.1-8.1c-2.8-2.8-9.1-3.4-9.3-3.4
		c-0.1,0-0.2,0-0.3,0.1c-0.1,0.1-0.1,0.2-0.1,0.3c0,0.3,0.6,6.6,3.4,9.3C150.7,423.2,152.6,424.4,156.2,424.4z M155.5,416.4
		c1.9,1.9,2,5.1,1.9,6.6l-1-1l-0.6-3.3c0-0.2-0.3-0.4-0.5-0.3c-0.2,0-0.4,0.3-0.3,0.5l0.4,2.1l-1.4-1.4l-0.6-3.3
		c0-0.2-0.2-0.4-0.5-0.3c-0.2,0-0.4,0.3-0.3,0.5l0.4,2.1l-1.4-1.4l-0.4-2.1c0-0.2-0.2-0.4-0.5-0.3c-0.2,0-0.4,0.3-0.3,0.5l0.3,1.6
		l-1.6-0.3c-0.2,0-0.4,0.1-0.5,0.3c0,0.2,0.1,0.4,0.3,0.5l2.1,0.4l1.4,1.4l-2.1-0.4c-0.2,0-0.4,0.1-0.5,0.3c0,0.2,0.1,0.4,0.3,0.5
		l3.3,0.6l1.4,1.4l-2.1-0.4c-0.2,0-0.4,0.1-0.5,0.3c0,0.2,0.1,0.4,0.3,0.5l3.3,0.6l1,1c-0.2,0-0.4,0-0.7,0c-1.5,0-4.3-0.3-6-1.9
		c-2.1-2.1-2.9-6.8-3.1-8.3C148.7,413.5,153.4,414.3,155.5,416.4z"/>
	<path class="st8" d="M185.4,424c0,0.2,0.2,0.3,0.3,0.3c0,0,0.7,0.1,1.6,0.1c0,0,0,0,0,0c3.6,0,5.5-1.2,6.5-2.2
		c2.8-2.8,3.4-9.1,3.4-9.3c0-0.1,0-0.2-0.1-0.3c-0.1-0.1-0.2-0.1-0.3-0.1c-0.3,0-6.6,0.6-9.3,3.4C184.7,418.6,185.4,423.7,185.4,424
		z M196.4,413.3c-0.2,1.5-1,6.2-3.1,8.3c-1.7,1.7-4.5,1.9-6,1.9c-0.2,0-0.5,0-0.7,0l1-1l3.3-0.6c0.2,0,0.4-0.3,0.3-0.5
		c0-0.2-0.2-0.4-0.5-0.3l-2.1,0.4l1.4-1.4l3.3-0.6c0.2,0,0.4-0.3,0.3-0.5c0-0.2-0.2-0.4-0.5-0.3l-2.1,0.4l1.4-1.4l2.1-0.4
		c0.2,0,0.4-0.3,0.3-0.5c0-0.2-0.3-0.4-0.5-0.3l-1.6,0.3l0.3-1.6c0-0.2-0.1-0.4-0.3-0.5c-0.2,0-0.4,0.1-0.5,0.3l-0.4,2.1l-1.4,1.4
		l0.4-2.1c0-0.2-0.1-0.4-0.3-0.5c-0.2,0-0.4,0.1-0.5,0.3l-0.6,3.3l-1.4,1.4l0.4-2.1c0-0.2-0.1-0.4-0.3-0.5c-0.2,0-0.4,0.1-0.5,0.3
		l-0.6,3.3l-1,1c-0.1-1.5,0-4.7,1.9-6.6C190.2,414.3,194.9,413.5,196.4,413.3z"/>
	<path class="st8" d="M196.7,428.8c-0.1,0-1.3-0.9-2.9-1.8c-2.5-1.3-4.6-1.9-6.3-1.8c-1.7,0.1-3.4,1-5,2.5c-1,0.9-1.6,1.8-1.9,2.1
		l-1.9,0.1l0.1-0.5c0.4-0.2,1.3-0.7,2.3-1.5c1.7-1.4,2.8-3,3.2-4.6c0.3-1.6,0.1-3.7-0.8-6.3c-0.7-1.9-1.4-3.3-1.4-3.4
		c-0.1-0.1-0.2-0.2-0.3-0.2c-0.1,0-0.2,0-0.3,0.1c-0.1,0-1.3,1-2.7,2.5c-1.9,2-3,3.8-3.3,5.4c-0.3,1.6,0,3.5,1,5.5
		c0.6,1.1,1.2,2,1.5,2.3l-0.2,0.9l-5.5,5.5v-13.7c0.4-0.3,1.7-1.4,2.9-2.9c2-2.5,3.1-5,3.1-7.4c0-2.4-1-5.3-3.1-8.7
		c-1.5-2.5-3-4.3-3-4.3c-0.1-0.1-0.2-0.1-0.3-0.1c-0.1,0-0.2,0.1-0.3,0.1c-0.1,0.1-1.5,1.8-3,4.3c-2,3.4-3.1,6.3-3.1,8.7
		c0,2.4,1.1,4.9,3.1,7.4c1.2,1.5,2.5,2.6,2.9,2.9v14l-5.7-5.7l-0.2-0.9c0.3-0.3,0.9-1.2,1.5-2.3c1-2,1.4-3.9,1-5.5
		c-0.3-1.6-1.5-3.4-3.3-5.4c-1.4-1.5-2.6-2.4-2.7-2.5c-0.1-0.1-0.2-0.1-0.3-0.1c-0.1,0-0.2,0.1-0.3,0.2c0,0.1-0.8,1.5-1.4,3.4
		c-0.9,2.6-1.2,4.7-0.8,6.3c0.3,1.6,1.4,3.2,3.2,4.6c1,0.8,2,1.3,2.3,1.5l0.1,0.5l-1.9-0.1c-0.2-0.3-0.9-1.2-1.9-2.1
		c-1.6-1.5-3.3-2.4-5-2.5c-0.1,0-0.2,0-0.4,0c-3.9,0-8.7,3.5-8.9,3.7c-0.1,0.1-0.2,0.2-0.2,0.3c0,0.1,0,0.2,0.1,0.3
		c0,0,1.2,1.1,2.8,2.3c2.2,1.5,4.2,2.4,5.9,2.5c0.1,0,0.2,0,0.4,0c0.6,0,1.1-0.1,1.6-0.2c0.2,1.5,0.9,6.5,3.3,8.9
		c1,1,2.9,2.2,6.5,2.2c0.6,0,1.1,0,1.4-0.1l2.7,2.7v2.9h-11.8c-0.1,0-0.2,0.1-0.3,0.1c-0.1,0.1-0.1,0.2-0.1,0.3l2.5,16.8
		c0.2,1.2,1.3,2.2,2.5,2.2h15.2c1.3,0,2.3-0.9,2.5-2.2l2.5-16.8c0-0.1,0-0.2-0.1-0.3c-0.1-0.1-0.2-0.1-0.3-0.1h-11.8v-2.9l2.7-2.7
		c0.3,0,0.8,0.1,1.4,0.1c0,0,0,0,0,0c3.6,0,5.5-1.2,6.5-2.2c2.4-2.4,3.1-7.3,3.3-8.9c0.4,0.1,0.9,0.2,1.4,0.2c0,0,0,0,0,0
		c0.1,0,0.2,0,0.4,0c1.7-0.1,3.6-0.9,5.9-2.5c1.6-1.1,2.8-2.2,2.8-2.3c0.1-0.1,0.1-0.2,0.1-0.3C196.9,429,196.8,428.8,196.7,428.8z
		 M181.2,467.8c-0.1,0.9-0.9,1.5-1.7,1.5h-15.2c-0.9,0-1.6-0.6-1.7-1.5l-2-13.7h22.8c0,0,0,0,0,0L181.2,467.8z M183.4,453.3
		c0,0-0.1,0-0.1,0h-22.9l-0.3-1.8h23.5L183.4,453.3z M176.3,421.5c0.6-3,4.1-6.1,5.3-7.1c0.7,1.4,2.6,5.7,1.9,8.7
		c-0.4,1.8-1.8,3.2-2.9,4.1c-0.6,0.5-1.2,0.9-1.6,1.1l0.3-1.4l2.4-2.3c0.2-0.2,0.2-0.4,0-0.6c-0.2-0.2-0.4-0.2-0.6,0l-1.6,1.5l0.4-2
		l2.4-2.3c0.2-0.2,0.2-0.4,0-0.6c-0.2-0.2-0.4-0.2-0.6,0l-1.6,1.5l0.4-2l1.6-1.5c0.2-0.2,0.2-0.4,0-0.6c-0.2-0.2-0.4-0.2-0.6,0l-1,1
		c0,0-0.1-0.1-0.2-0.1c0,0-0.1,0-0.1,0l-0.5-1.2c-0.1-0.2-0.3-0.3-0.5-0.2c-0.2,0.1-0.3,0.3-0.2,0.5l0.8,1.9l-0.4,2l-0.8-1.9
		c-0.1-0.2-0.3-0.3-0.5-0.2c-0.2,0.1-0.3,0.3-0.2,0.5l1.2,3l-0.4,2l-0.8-2c-0.1-0.2-0.3-0.3-0.5-0.2c-0.2,0.1-0.3,0.3-0.2,0.5l1.3,3
		l-0.3,1.4C177.3,426.9,175.7,424.1,176.3,421.5z M166.3,411.6c0-4.6,4.4-10.6,5.6-12.1c1.2,1.5,5.6,7.5,5.6,12.1
		c0,4.2-3.7,7.9-5.2,9.2v-2.6l2.8-4c0.1-0.2,0.1-0.4-0.1-0.6c-0.2-0.1-0.4-0.1-0.6,0.1l-2.1,3.1v-3.6l2.8-4c0.1-0.2,0.1-0.4-0.1-0.6
		c-0.2-0.1-0.4-0.1-0.6,0.1l-2.1,3.1v-3.6l1.8-2.6c0.1-0.2,0.1-0.4-0.1-0.6c-0.2-0.1-0.4-0.1-0.6,0.1l-1.3,1.9
		c-0.1,0-0.1-0.1-0.2-0.1c-0.1,0-0.1,0-0.2,0.1l-1.3-1.9c-0.1-0.2-0.4-0.2-0.6-0.1c-0.2,0.1-0.2,0.4-0.1,0.6l1.8,2.6v3.6l-2.1-3.1
		c-0.1-0.2-0.4-0.2-0.6-0.1c-0.2,0.1-0.2,0.4-0.1,0.6l2.8,4v3.6l-2.1-3.1c-0.1-0.2-0.4-0.2-0.6-0.1c-0.2,0.1-0.2,0.4-0.1,0.6l2.8,4
		v2.6C170,419.5,166.3,415.8,166.3,411.6z M160,423.1c-0.6-3,1.3-7.3,1.9-8.7c1.2,1,4.7,4.2,5.3,7.1c0.4,1.8-0.3,3.7-0.9,4.9
		c-0.4,0.7-0.7,1.3-1,1.7l-0.3-1.4l1.3-3c0.1-0.2,0-0.4-0.2-0.5c-0.2-0.1-0.4,0-0.5,0.2l-0.8,2l-0.4-2l1.2-3c0.1-0.2,0-0.4-0.2-0.5
		c-0.2-0.1-0.4,0-0.5,0.2l-0.8,1.9l-0.4-2l0.8-1.9c0.1-0.2,0-0.4-0.2-0.5c-0.2-0.1-0.4,0-0.5,0.2l-0.5,1.2c0,0-0.1,0-0.1,0
		c-0.1,0-0.1,0-0.2,0.1l-1-1c-0.2-0.2-0.4-0.1-0.6,0c-0.2,0.2-0.1,0.4,0,0.6l1.6,1.5l0.4,2l-1.6-1.5c-0.2-0.2-0.4-0.1-0.6,0
		c-0.2,0.2-0.1,0.4,0,0.6l2.4,2.3l0.4,2l-1.6-1.5c-0.2-0.2-0.4-0.1-0.6,0c-0.2,0.2-0.1,0.4,0,0.6l2.4,2.3l0.3,1.4
		C163.2,427.5,160.6,425.7,160,423.1z M155.6,433.3c-3-0.2-6.7-3.2-7.8-4.2c1.2-0.8,5-3.2,8-3.2c0.1,0,0.2,0,0.3,0
		c1.8,0.1,3.5,1.3,4.5,2.2c0.6,0.5,1.1,1.1,1.4,1.5l-1.4-0.1l-2.7-2.1c-0.2-0.1-0.4-0.1-0.6,0.1c-0.1,0.2-0.1,0.4,0.1,0.6l1.7,1.3
		l-2.1-0.1l-2.6-2.1c-0.2-0.1-0.4-0.1-0.6,0.1c-0.1,0.2-0.1,0.4,0.1,0.6l1.7,1.3l-2.1-0.1l-1.7-1.3c-0.2-0.1-0.4-0.1-0.6,0.1
		c-0.1,0.2-0.1,0.4,0.1,0.6l1.3,1l-1.4,0.8c-0.2,0.1-0.3,0.4-0.1,0.6c0.1,0.1,0.2,0.2,0.3,0.2c0.1,0,0.1,0,0.2-0.1l1.8-1.1l2,0.1
		l-1.8,1.1c-0.2,0.1-0.3,0.4-0.1,0.6c0.1,0.1,0.2,0.2,0.3,0.2c0.1,0,0.1,0,0.2-0.1l2.8-1.7l2,0.1l-1.8,1.1c-0.2,0.1-0.3,0.4-0.1,0.6
		c0.1,0.1,0.2,0.2,0.3,0.2c0.1,0,0.1,0,0.2-0.1l2.8-1.7l1.4,0.1c-1.1,1-3.4,2.9-5.9,2.9C155.8,433.4,155.7,433.4,155.6,433.3z
		 M167.4,444.3c-1.5,0-4.3-0.3-6-1.9c-2.1-2.1-2.9-6.8-3.1-8.3c1.5,0.2,6.2,1,8.3,3.1c1.9,1.9,2,5.1,1.9,6.6l-1-1l-0.6-3.3
		c0-0.2-0.2-0.4-0.5-0.3c-0.2,0-0.4,0.3-0.3,0.5l0.4,2.1l-1.4-1.4l-0.6-3.3c0-0.2-0.2-0.4-0.5-0.3c-0.2,0-0.4,0.3-0.3,0.5l0.4,2.1
		l-1.4-1.4l-0.4-2.1c0-0.2-0.3-0.4-0.5-0.3c-0.2,0-0.4,0.3-0.3,0.5l0.3,1.6l-1.6-0.3c-0.2,0-0.4,0.1-0.5,0.3c0,0.2,0.1,0.4,0.3,0.5
		l2.1,0.4l1.4,1.4l-2.1-0.4c-0.2,0-0.4,0.1-0.5,0.3c0,0.2,0.1,0.4,0.3,0.5l3.3,0.6l1.4,1.4l-2.1-0.4c-0.2,0-0.4,0.1-0.5,0.3
		c0,0.2,0.1,0.4,0.3,0.5l3.3,0.6l1,1C167.8,444.2,167.6,444.3,167.4,444.3z M169.3,444.4c0.1-1,0.4-5.4-2.1-7.9c-2-2-5.9-2.9-8-3.2
		c1.8-0.9,3.1-2.3,3.6-2.8l2.4,0.2l6.3,6.3v9.6L169.3,444.4z M182.4,442.3c-1.7,1.7-4.5,1.9-6,1.9c-0.2,0-0.5,0-0.7,0l1-1l3.3-0.6
		c0.2,0,0.4-0.3,0.3-0.5c0-0.2-0.2-0.4-0.5-0.3l-2.1,0.4l1.4-1.4l3.3-0.6c0.2,0,0.4-0.3,0.3-0.5c0-0.2-0.2-0.4-0.5-0.3l-2.1,0.4
		l1.4-1.4l2.1-0.4c0.2,0,0.4-0.3,0.3-0.5c0-0.2-0.3-0.4-0.5-0.3l-1.6,0.3l0.3-1.6c0-0.2-0.1-0.4-0.3-0.5c-0.2,0-0.4,0.1-0.5,0.3
		l-0.4,2.1l-1.4,1.4l0.4-2.1c0-0.2-0.1-0.4-0.3-0.5c-0.2,0-0.4,0.1-0.5,0.3l-0.6,3.3l-1.4,1.4l0.4-2.1c0-0.2-0.1-0.4-0.3-0.5
		c-0.2,0-0.4,0.1-0.5,0.3l-0.6,3.3l-1,1c-0.1-1.5,0-4.7,1.9-6.6c2.1-2.1,6.8-2.9,8.3-3.1C185.3,435.5,184.5,440.2,182.4,442.3z
		 M176.6,436.5c-2.5,2.5-2.2,6.9-2.1,7.9l-2.2,2.2v-9.8l6.1-6.1l2.4-0.2c0.5,0.5,1.8,1.9,3.7,2.8
		C182.3,433.7,178.5,434.5,176.6,436.5z M188,433.3c-0.1,0-0.2,0-0.3,0h0c-2.5,0-4.8-1.9-5.9-2.9l1.4-0.1l2.8,1.7
		c0.1,0,0.1,0.1,0.2,0.1c0.1,0,0.3-0.1,0.3-0.2c0.1-0.2,0.1-0.4-0.1-0.6l-1.8-1.1l2-0.1l2.8,1.7c0.1,0,0.1,0.1,0.2,0.1
		c0.1,0,0.3-0.1,0.3-0.2c0.1-0.2,0.1-0.4-0.1-0.6l-1.8-1.1l2-0.1l1.8,1.1c0.1,0,0.1,0.1,0.2,0.1c0.1,0,0.3-0.1,0.3-0.2
		c0.1-0.2,0.1-0.4-0.1-0.6l-1.4-0.8l1.3-1c0.2-0.1,0.2-0.4,0.1-0.6c-0.1-0.2-0.4-0.2-0.6-0.1l-1.7,1.3l-2.1,0.1l1.7-1.3
		c0.2-0.1,0.2-0.4,0.1-0.6c-0.1-0.2-0.4-0.2-0.6-0.1l-2.6,2.1l-2.1,0.1l1.7-1.3c0.2-0.1,0.2-0.4,0.1-0.6c-0.1-0.2-0.4-0.2-0.6-0.1
		l-2.7,2.1l-1.4,0.1c0.9-1.2,3.2-3.6,5.9-3.7c0.1,0,0.2,0,0.3,0c3,0,6.7,2.4,8,3.2C194.7,430.2,191,433.2,188,433.3z"/>
	<path class="st8" d="M163.3,412.9c0.7,0,1.1-0.1,1.1-0.1c0.2,0,0.3-0.2,0.3-0.3c0-0.2,0.5-3.8-1.5-5.8c-2-2-6.4-2.4-6.6-2.4
		c-0.1,0-0.2,0-0.3,0.1c-0.1,0.1-0.1,0.2-0.1,0.3c0,0.2,0.4,4.6,2.4,6.6C159.9,412.6,161.9,412.9,163.3,412.9z M162.7,407.2
		c1.2,1.2,1.3,3.1,1.3,4.3l-0.5-0.5l-0.4-2.2c0-0.2-0.2-0.4-0.5-0.3c-0.2,0-0.4,0.3-0.3,0.5l0.2,1.1l-0.7-0.7l-0.4-2.2
		c0-0.2-0.2-0.4-0.5-0.3c-0.2,0-0.4,0.3-0.3,0.5l0.2,1.1l-0.7-0.7l-0.3-1.4c0-0.2-0.3-0.4-0.5-0.3c-0.2,0-0.4,0.3-0.3,0.5l0.2,1
		l-1-0.2c-0.2,0-0.4,0.1-0.5,0.3c0,0.2,0.1,0.4,0.3,0.5l1.4,0.3l0.7,0.7l-1.1-0.2c-0.2,0-0.4,0.1-0.5,0.3c0,0.2,0.1,0.4,0.3,0.5
		l2.2,0.4l0.7,0.7l-1.1-0.2c-0.2,0-0.4,0.1-0.5,0.3c0,0.2,0.1,0.4,0.3,0.5l2.2,0.4l0.5,0.5c-0.1,0-0.1,0-0.2,0c-1,0-2.9-0.2-4.1-1.3
		c-1.4-1.4-1.9-4.4-2.1-5.6C158.3,405.3,161.3,405.8,162.7,407.2z"/>
	<path class="st8" d="M179.3,412.8c0,0,0.5,0.1,1.1,0.1c1.4,0,3.4-0.3,4.7-1.6c2-2,2.4-6.4,2.4-6.6c0-0.1,0-0.2-0.1-0.3
		c-0.1-0.1-0.2-0.1-0.3-0.1c-0.2,0-4.6,0.4-6.6,2.4c-2,2-1.5,5.6-1.5,5.8C179,412.6,179.1,412.8,179.3,412.8z M181,407.2
		c1.4-1.4,4.4-1.9,5.6-2.1c-0.2,1.2-0.7,4.2-2.1,5.6c-1.2,1.2-3.1,1.3-4.1,1.3c-0.1,0-0.1,0-0.2,0l0.5-0.5l2.2-0.4
		c0.2,0,0.4-0.3,0.3-0.5c0-0.2-0.3-0.4-0.5-0.3l-1.1,0.2l0.7-0.7l2.2-0.4c0.2,0,0.4-0.3,0.3-0.5c0-0.2-0.3-0.4-0.5-0.3l-1.1,0.2
		l0.7-0.7l1.4-0.3c0.2,0,0.4-0.3,0.3-0.5c0-0.2-0.2-0.4-0.5-0.3l-1,0.2l0.2-1c0-0.2-0.1-0.4-0.3-0.5c-0.2,0-0.4,0.1-0.5,0.3
		l-0.3,1.4l-0.7,0.7l0.2-1.1c0-0.2-0.1-0.4-0.3-0.5c-0.2,0-0.4,0.1-0.5,0.3l-0.4,2.2l-0.7,0.7l0.2-1.1c0-0.2-0.1-0.4-0.3-0.5
		c-0.2,0-0.4,0.1-0.5,0.3l-0.4,2.2l-0.5,0.5C179.7,410.4,179.9,408.4,181,407.2z"/>
</g>
</svg>
