<?xml version="1.0" encoding="utf-8"?>
<!-- Generator: Adobe Illustrator 21.1.0, SVG Export Plug-In . SVG Version: 6.00 Build 0)  -->
<svg version="1.1" id="Layer_1" xmlns="http://www.w3.org/2000/svg" xmlns:xlink="http://www.w3.org/1999/xlink" x="0px" y="0px"
	 viewBox="0 0 628.6 462.8" style="enable-background:new 0 0 628.6 462.8;" xml:space="preserve">
<style type="text/css">
	.st0{fill:#DBDBE5;}
	.st1{fill:#FFFFFF;}
	.st2{fill:#3E414A;}
	.st3{font-family:'ArialMT';}
	.st4{font-size:17.2472px;}
	.st5{fill:none;stroke:#DBDBE5;stroke-width:7;stroke-miterlimit:10;}
	.st6{font-size:17.8515px;}
	.st7{fill:#231F20;}
	.st8{fill:#010002;}
</style>
<g>
	<g id="papers">
		
			<rect x="26.5" y="13.9" transform="matrix(0.9659 -0.2589 0.2589 0.9659 -24.4229 27.5584)" class="st0" width="131.8" height="185.2"/>
		
			<rect x="21.7" y="14.9" transform="matrix(0.9659 -0.2588 0.2588 0.9659 -24.8362 26.3387)" class="st0" width="131.8" height="185.2"/>
		<rect x="26.6" y="15.2" class="st0" width="131.8" height="185.2"/>
		<rect x="21.8" y="15.2" class="st1" width="131.8" height="185.2"/>
	</g>
	<text transform="matrix(1 0 0 1 44.7164 56.5058)" class="st2 st3 st4">FLIGHT LIST</text>
	<line class="st5" x1="46.5" y1="70.9" x2="122.6" y2="70.9"/>
	<line class="st5" x1="46.5" y1="82.7" x2="129.1" y2="82.7"/>
	<line class="st5" x1="46.5" y1="94.5" x2="117.3" y2="94.5"/>
	<line class="st5" x1="46.5" y1="106.3" x2="132" y2="106.3"/>
	<line class="st5" x1="46.5" y1="118.1" x2="126.1" y2="118.1"/>
	<line class="st5" x1="46.5" y1="129.9" x2="122.6" y2="129.9"/>
	<line class="st5" x1="46.5" y1="141.7" x2="126.1" y2="141.7"/>
	<line class="st5" x1="46.5" y1="153.5" x2="122.6" y2="153.5"/>
	<line class="st5" x1="46.5" y1="165.3" x2="126.1" y2="165.3"/>
	<line class="st5" x1="46.5" y1="177.1" x2="122.6" y2="177.1"/>
</g>
<g>
	<g id="papers_1_">
		
			<rect x="231.4" y="41.3" transform="matrix(0.1796 -0.9837 0.9837 0.1796 160.3404 406.7055)" class="st0" width="185.2" height="131.8"/>
		
			<rect x="226.6" y="40.1" transform="matrix(0.1797 -0.9837 0.9837 0.1797 157.5847 400.8941)" class="st0" width="185.2" height="131.8"/>
		<rect x="258.2" y="14.9" class="st0" width="131.8" height="185.2"/>
		<rect x="253.4" y="14.9" class="st1" width="131.8" height="185.2"/>
	</g>
	<text transform="matrix(1 0 0 1 281.7589 56.6817)" class="st2 st3 st6">PET CARE</text>
	<line class="st5" x1="278" y1="70.6" x2="354.1" y2="70.6"/>
	<line class="st5" x1="278" y1="82.4" x2="360.6" y2="82.4"/>
	<line class="st5" x1="278" y1="94.2" x2="348.8" y2="94.2"/>
	<line class="st5" x1="278" y1="106" x2="363.6" y2="106"/>
	<line class="st5" x1="278" y1="117.8" x2="357.7" y2="117.8"/>
	<line class="st5" x1="278" y1="129.6" x2="354.1" y2="129.6"/>
	<line class="st5" x1="278" y1="141.4" x2="357.7" y2="141.4"/>
	<line class="st5" x1="278" y1="153.2" x2="354.1" y2="153.2"/>
	<line class="st5" x1="278" y1="165" x2="357.7" y2="165"/>
	<line class="st5" x1="278" y1="176.8" x2="354.1" y2="176.8"/>
</g>
<g>
	<g id="papers_2_">
		
			<rect x="467.9" y="17.9" transform="matrix(0.9855 -0.1696 0.1696 0.9855 -11.0072 92.1375)" class="st0" width="131.8" height="185.2"/>
		
			<rect x="463" y="18.5" transform="matrix(0.9855 -0.1695 0.1695 0.9855 -11.178 91.2604)" class="st0" width="131.8" height="185.2"/>
		<rect x="468" y="19.1" class="st0" width="131.8" height="185.2"/>
		<rect x="463.1" y="19.1" class="st1" width="131.8" height="185.2"/>
	</g>
	<text transform="matrix(1 0 0 1 487.8595 60.8764)" class="st2 st3 st6">ROAD TRIP</text>
	<line class="st5" x1="487.8" y1="74.8" x2="563.9" y2="74.8"/>
	<line class="st5" x1="487.8" y1="86.6" x2="570.4" y2="86.6"/>
	<line class="st5" x1="487.8" y1="98.4" x2="558.6" y2="98.4"/>
	<line class="st5" x1="487.8" y1="110.2" x2="573.3" y2="110.2"/>
	<line class="st5" x1="487.8" y1="122" x2="567.4" y2="122"/>
	<line class="st5" x1="487.8" y1="133.8" x2="563.9" y2="133.8"/>
	<line class="st5" x1="487.8" y1="145.6" x2="567.4" y2="145.6"/>
	<line class="st5" x1="487.8" y1="157.4" x2="563.9" y2="157.4"/>
	<line class="st5" x1="487.8" y1="169.2" x2="567.4" y2="169.2"/>
	<line class="st5" x1="487.8" y1="181" x2="563.9" y2="181"/>
</g>
<g>
	<g id="papers_5_">
		
			<rect x="5.4" y="285.4" transform="matrix(0.1914 -0.9815 0.9815 0.1914 -265.5747 380.2273)" class="st0" width="185.2" height="131.8"/>
		
			<rect x="0.5" y="284.2" transform="matrix(0.1915 -0.9815 0.9815 0.1915 -268.3404 374.3537)" class="st0" width="185.2" height="131.8"/>
		<rect x="32.1" y="258.9" class="st0" width="131.8" height="185.2"/>
		<rect x="27.3" y="258.9" class="st1" width="131.8" height="185.2"/>
	</g>
	<text transform="matrix(1 0 0 1 60.2315 300.7163)" class="st2 st3 st6">GARDEN</text>
	<line class="st5" x1="51.9" y1="314.6" x2="128.1" y2="314.6"/>
	<line class="st5" x1="51.9" y1="326.4" x2="134.5" y2="326.4"/>
	<line class="st5" x1="51.9" y1="338.2" x2="122.7" y2="338.2"/>
	<line class="st5" x1="51.9" y1="350" x2="137.5" y2="350"/>
	<line class="st5" x1="51.9" y1="361.8" x2="131.6" y2="361.8"/>
	<line class="st5" x1="51.9" y1="373.6" x2="128.1" y2="373.6"/>
	<line class="st5" x1="51.9" y1="385.4" x2="131.6" y2="385.4"/>
	<line class="st5" x1="51.9" y1="397.2" x2="128.1" y2="397.2"/>
	<line class="st5" x1="51.9" y1="409" x2="131.6" y2="409"/>
	<line class="st5" x1="51.9" y1="420.8" x2="128.1" y2="420.8"/>
</g>
<g>
	<g id="papers_4_">
		
			<rect x="254.3" y="252.6" transform="matrix(0.9849 -0.1734 0.1734 0.9849 -55.0073 60.7556)" class="st0" width="131.8" height="185.2"/>
		
			<rect x="249.4" y="253.2" transform="matrix(0.9849 -0.1733 0.1733 0.9849 -55.1564 59.8774)" class="st0" width="131.8" height="185.2"/>
		<rect x="254.4" y="253.8" class="st0" width="131.8" height="185.2"/>
		<rect x="249.6" y="253.8" class="st1" width="131.8" height="185.2"/>
	</g>
	<text transform="matrix(1 0 0 1 268.8209 295.5639)" class="st2 st3 st6">HOME CARE</text>
	<line class="st5" x1="274.2" y1="309.5" x2="350.3" y2="309.5"/>
	<line class="st5" x1="274.2" y1="321.3" x2="356.8" y2="321.3"/>
	<line class="st5" x1="274.2" y1="333.1" x2="345" y2="333.1"/>
	<line class="st5" x1="274.2" y1="344.9" x2="359.8" y2="344.9"/>
	<line class="st5" x1="274.2" y1="356.7" x2="353.9" y2="356.7"/>
	<line class="st5" x1="274.2" y1="368.5" x2="350.3" y2="368.5"/>
	<line class="st5" x1="274.2" y1="380.3" x2="353.9" y2="380.3"/>
	<line class="st5" x1="274.2" y1="392.1" x2="350.3" y2="392.1"/>
	<line class="st5" x1="274.2" y1="403.9" x2="353.9" y2="403.9"/>
	<line class="st5" x1="274.2" y1="415.7" x2="350.3" y2="415.7"/>
</g>
<g>
	<g id="papers_3_">
		
			<rect x="446.5" y="289.4" transform="matrix(0.2844 -0.9587 0.9587 0.2844 45.1111 771.079)" class="st0" width="185.2" height="131.8"/>
		
			<rect x="441.9" y="287.7" transform="matrix(0.2845 -0.9587 0.9587 0.2845 43.4386 765.3962)" class="st0" width="185.2" height="131.8"/>
		<rect x="473.4" y="262.8" class="st0" width="131.8" height="185.2"/>
		<rect x="468.6" y="262.8" class="st1" width="131.8" height="185.2"/>
	</g>
	<text transform="matrix(1 0 0 1 495.1603 304.5561)" class="st2 st3 st6">CAR CARE</text>
	<line class="st5" x1="493.3" y1="318.4" x2="569.4" y2="318.4"/>
	<line class="st5" x1="493.3" y1="330.3" x2="575.9" y2="330.3"/>
	<line class="st5" x1="493.3" y1="342.1" x2="564.1" y2="342.1"/>
	<line class="st5" x1="493.3" y1="353.9" x2="578.8" y2="353.9"/>
	<line class="st5" x1="493.3" y1="365.7" x2="572.9" y2="365.7"/>
	<line class="st5" x1="493.3" y1="377.5" x2="569.4" y2="377.5"/>
	<line class="st5" x1="493.3" y1="389.3" x2="572.9" y2="389.3"/>
	<line class="st5" x1="493.3" y1="401.1" x2="569.4" y2="401.1"/>
	<line class="st5" x1="493.3" y1="412.9" x2="572.9" y2="412.9"/>
	<line class="st5" x1="493.3" y1="424.7" x2="569.4" y2="424.7"/>
</g>
<path class="st2" d="M345.5,336.7c-0.2-0.1-0.6-0.1-1,0.1c-0.9,0.5-1.8,2.5-2.5,4.5c0.1-3.2,0.1-6.9-0.9-8.2c-0.3-0.4-0.7-0.5-1-0.6
	c-1.5-0.2-2.7,1.9-3.9,6.7c0,0.1,0,0.1-0.1,0.2c0-3.3-0.3-6.8-1.4-8c-0.3-0.4-0.7-0.5-1-0.5h-0.1c-1.4,0-2.5,2.1-3.4,6.7
	c-0.1,0.3-0.1,0.7-0.2,1c-0.3-2-0.8-4-1.7-4.8c-0.4-0.4-0.9-0.5-1.3-0.5c-2.1,0.2-2.5,5-3,12.4c-0.1,2.1-0.3,4.6-0.5,5.6
	c-0.4-0.3-0.9-1.1-1.4-1.6c-1.3-1.7-2.7-3.5-4.1-3.4c-0.6,0-1.1,0.4-1.5,1c-1.4,2.3,0.6,6.1,2.3,9.4c0.9,1.8,1.8,3.5,2,4.6
	c0.4,2.3-0.9,10.1-1.5,14c-0.5-1.5-0.9-3.1-1.4-4.7c-1.8-5.9-3.7-12-4.1-14.1c-0.6-3.4,0-5,0.9-6.9c0.2-0.4,0.4-0.9,0.6-1.3
	c0.7-1.8,2.3-6.3,1.2-8.8c-0.3-0.7-0.8-1.2-1.5-1.5c-2.3-0.9-4,2.4-5.2,4.6c-0.1,0.2-0.2,0.3-0.3,0.5c-0.1-0.4-0.2-0.9-0.3-1.4
	c-2.4-12-3.8-15.9-5.6-15.5c-1.5,0.3-2,3.1-2.1,5.9c-0.9-3-2.2-6.4-3.5-7.1c-0.4-0.2-0.8-0.2-1-0.1c-0.8,0.3-1.7,1.4-1.5,7.3
	c0,0.4,0,0.8,0.1,1.1c-1.1-3-2.6-6.3-4-7c-0.5-0.2-0.8-0.1-1.1,0c-0.8,0.4-1.6,1.6-0.9,7.5c0.1,0.7,0.2,1.5,0.3,2.2
	c-1.2-2.2-2.5-4.4-3.3-4.7c-0.3-0.1-0.5,0-0.7,0c-0.9,0.5-1.7,1.8-0.3,8.7c0.5,2.3,2.3,7.3,4.4,13c2,5.6,4.3,11.9,6.1,17.8
	c3.3,10.7,3.3,18,3.2,19.1c0,0.1,0,0.2,0,0.3c0.1,0.7,1,0.7,1.9,0.7c2,0,5.8-0.6,9.9-1.5c2.2-0.5,4.3-1.1,6.1-1.6
	c-0.4,1.9-1.2,4.6-1.5,5.3c0,0.1-0.1,0.2-0.1,0.3c-0.1,0.7,0.5,1.2,3.6,1.8c2.1,0.4,4.8,0.8,7.8,1.1c2.6,0.3,5.2,0.4,7.2,0.4
	c4.1,0,4.5-0.5,4.6-1.1v-0.1c0-0.8,0.3-11.1,0.9-16.4c0.3-2.9,1.8-8.5,3.3-14c1.3-4.9,2.7-9.9,3.1-13
	C347.4,341.4,347.3,337.2,345.5,336.7z M297,370.2c-1.8-5.8-4.1-12.2-6.2-17.8c-2.1-5.7-3.8-10.6-4.3-12.8c-1.2-5.6-0.7-7-0.4-7.3
	c0.8,0.6,2.8,4.3,4.4,7.7l1.1-0.4c0,0-0.6-3-1-6.1c-0.7-5.8,0.2-6.3,0.3-6.3c0,0,0,0,0.1,0c1.4,0.6,3.8,7.1,5,11l1.1-0.2
	c0,0-0.4-3-0.5-6.1c-0.3-5.7,0.7-6.1,0.7-6.1h0.1c1.3,0.7,3.3,7.2,4.2,11.2l1.1-0.2c0,0-0.2-2.4-0.1-4.8c0.1-4.2,1-4.7,1.1-4.7
	c0.1,0.1,0.9,0.6,2.2,5.5c0.8,3.1,1.6,6.7,2,9.1c0.3,1.5,0.5,2.3,0.5,2.5c0.1,0.4,0.5,0.5,0.6,0.5c0.6,0.1,0.9-0.5,1.5-1.8
	c0.8-1.6,2.4-4.6,3.8-4.1c0.4,0.2,0.7,0.5,0.9,0.9c0.7,1.7-0.2,5.2-1.2,7.9c-0.2,0.5-0.4,0.9-0.5,1.3c-0.9,2.1-1.7,3.8-1,7.6
	c0.4,2.2,2.2,8.1,4.1,14.3c1.6,5.2,3.2,10.6,3.9,13.2c-0.2,0-0.4,0-0.5,0c-2,0-5.8,0.6-9.9,1.5c-2.9,0.7-5.6,1.4-7.6,2.1
	c-1,0.3-1.7,0.6-2.2,0.9C300.3,386,299.9,379.4,297,370.2z M310.7,388.1c-4,0.9-7.7,1.5-9.6,1.5H301c1.4-0.7,4.7-1.8,9.4-2.8
	c4-0.9,7.7-1.5,9.6-1.5h0.1C318.7,385.9,315.4,387,310.7,388.1z M334,395.4c-2,0-4.5-0.1-7.1-0.4c-4.8-0.5-8.3-1.2-9.7-1.6
	c0.5-0.1,1.4-0.1,2.8-0.1c2,0,4.5,0.1,7.1,0.4c4.8,0.5,8.3,1.2,9.7,1.6C336.3,395.3,335.4,395.4,334,395.4z M345.8,342.4
	c-0.1,2.9-0.6,6.6-1.1,9.5c-0.4,3-1.8,8-3.1,12.9c-1.5,5.5-3,11.1-3.3,14.1c-0.4,4.5-0.7,12.6-0.8,15.4c-0.5-0.2-1.3-0.4-2.5-0.7
	c-2.1-0.4-4.8-0.8-7.8-1.1c-2.6-0.3-5.2-0.4-7.2-0.4c-1.5,0-2.4,0.1-3.1,0.2c0.4-1.4,1-3.6,1.3-5.1c0.1,0,0.2-0.1,0.3-0.1
	c2.9-1,3.5-1.6,3.3-2.2c-0.2-1.2-1-3.9-1.9-7.2c0.3-1.5,2.5-13.4,1.9-16.6c-0.2-1.3-1.1-3-2.1-4.9c-1.5-2.9-3.4-6.6-2.4-8.3
	c0.3-0.5,0.5-0.5,0.6-0.5l0,0c0.8,0,2.2,1.8,3.1,3c1.2,1.6,1.8,2.3,2.5,2.2c0.9-0.1,1-1.2,1.4-6.8c0.2-2.6,0.4-5.5,0.7-7.8
	c0.6-3.5,1.2-3.6,1.3-3.6c0.1,0,0.3,0,0.5,0.2c1.4,1.3,1.8,7.3,1.8,9.5l1.1,0.1c0,0,0.3-3.2,0.9-6.3c1.2-5.8,2.3-5.8,2.3-5.8
	c0.1,0,0.1,0,0.2,0.1c1.2,1.4,1.2,9.1,0.9,13.6l1.1,0.1c0,0,0.5-3.2,1.3-6.4c1.5-5.9,2.6-5.8,2.7-5.8c0,0,0.1,0,0.2,0.1
	c1.1,1.4,0.8,8.6,0.2,12.8l1.1,0.2c0,0,0.6-2.4,1.4-4.7c1.5-4.3,2.3-4.4,2.3-4.4C345.2,337.8,346,338.1,345.8,342.4z"/>
<g>
	<circle class="st7" cx="318.8" cy="122" r="1.9"/>
	<circle class="st7" cx="340.7" cy="119.6" r="1.8"/>
	<path class="st7" d="M295.3,123.4c-1.3,4.3-1.2,8.3,0.5,11.3c1.3,2.4,3.4,4,6,4.5c2.4,0.5,3.8,0.6,4.6,0.7c1.1,0.1,1.4,0.1,2.3,0.7
		c0.3,0.2,0.7,0.3,1,0.3c0.4,0,0.8-0.1,1.1-0.3c0.2-0.1,0.3-0.2,0.5-0.4c0.4,0.1,1.3,0.2,2.4,0.2c0.9,0,1.9-0.1,2.9-0.3
		c0.1,0,0.2-0.1,0.3-0.2c0.1,0,0.2,0.1,0.2,0.1c1.9,0.6,4.1,0.9,6.2,0.9c2.2,0,4.3-0.4,5.7-1.4c1-0.7,1.6-1.7,1.7-2.9
		c1.5-0.2,3-0.5,4.4-0.9c0.5,0.4,2.3,1.9,4.8,1.9c0.9,0,2-0.2,3.1-0.8c2.9-1.5,4.6-3.2,5.1-4.9c0.4-1.2,0.2-2.5-0.5-3.7
		c-0.1-0.1-0.2-0.2-0.3-0.3c1.5-3.4,2-8.4,0.2-13.2c0-0.1-0.1-0.2-0.1-0.3c1.9-4.7,0.4-12.1-2.3-15.4c-1.2-1.5-2.4-1.7-3.1-1.6
		c-3.6,0.7-7,6.1-7.1,6.4v0.1c-2-0.5-4.3-0.8-6.9-0.8c-0.3,0-0.5,0-0.8,0c-4.3,0.1-8.2,1.4-11.4,3.8c-0.5-0.3-6.4-4.2-10-3.2
		c-0.7,0.2-1.6,0.8-2,2.7c-0.5,1.9-0.5,4.6,0,7.3c-1-0.1-3.5,0.2-6,4.1c-0.2,0-0.8-0.2-1-0.7c-0.3-0.7,0-1.9,0.9-3.4
		c1.9-3.1,2.4-6.8,1.2-9.6c-0.7-1.6-2.3-3.7-5.9-4.4c-4.9-1-6.2,1.8-6.5,2.6c-0.7,2,0.3,4.4,2.2,5.2c0.6,0.3,1.3,0.5,1.8,0.7
		c1.2,0.4,2.2,0.8,2.4,1.5c0.3,0.8-0.2,2.1-1.3,4.1c-2.3,3.9-1.3,6.3-0.5,7.5c0.9,1.3,2.5,2.1,4,2.1
		C295.1,123.4,295.2,123.4,295.3,123.4z M328.4,138.6c-2.3,1.6-7.3,1.4-10.9,0.3c-3.4-1-4.2-4-4.5-5.5c3.7,3,8.7,3.7,12.5,3.7l0,0
		c1.3,0,2.6-0.1,4-0.2C329.5,137.5,329.1,138.1,328.4,138.6z M347,131.6c-0.4,1.4-1.9,2.9-4.5,4.2c-2.6,1.4-4.9,0.3-5.9-0.5
		c3.4-1.1,6.5-2.5,8.5-4.2c0.6-0.5,1.2-1.2,1.7-2C347.2,130,347.3,130.8,347,131.6z M342.2,98.6c0.8-0.1,1.5,0.7,1.9,1.1
		c2.2,2.7,3.6,8.8,2.5,13c-0.4-0.9-1-1.8-1.7-2.7c0,0,0,0,0-0.1c0.8-2.4,0.3-4.9-0.5-6.4c-0.5-0.9-1.1-1.4-1.8-1.6
		c-1.9-0.4-3.5,2.3-4,3.2c-0.8-0.4-1.7-0.7-2.6-1C336.7,103.3,339.5,99.1,342.2,98.6z M344,109c-1.1-1.2-2.5-2.3-4.3-3.3
		c0.7-1.2,1.9-2.7,2.7-2.6c0.3,0.1,0.7,0.4,1,1C344,105.3,344.4,107.2,344,109z M327.2,104.3c0.3,0,0.5,0,0.8,0
		c12.6,0,17,6.8,18.5,10.8c1.2,3.2,1.3,6.6,0.7,9.5c-3.4-3-10.2-1.8-10.5-1.7c-0.2,0-0.4,0.3-0.4,0.5s0.3,0.4,0.5,0.4
		c0.1,0,7.2-1.3,10.1,1.8l0,0c-0.6,2-1.5,3.7-2.6,4.6c-3.2,2.8-10.9,5.7-18.7,5.7c-4,0-9.5-0.8-13-4.6c-3.5-3.9-4.2-10.4-1.7-16.2
		C313.7,108.5,319.8,104.5,327.2,104.3z M309.8,114.6c-0.1,0.2-0.2,0.4-0.2,0.6c-0.7-1-1.3-3-1.1-4.4c0.1-0.5,0.3-0.8,0.6-1
		c1.1-0.6,2.5,0.2,3.1,0.6C311.2,111.7,310.4,113.1,309.8,114.6z M304.9,106.6c0.3-1,0.7-1.7,1.2-1.8c2.7-0.7,7.4,2.1,8.7,2.9
		c-0.7,0.6-1.3,1.2-1.9,1.9c-0.7-0.5-2.7-1.6-4.4-0.8c-0.4,0.2-1,0.7-1.2,1.8c-0.3,1.9,0.5,4.5,1.5,5.6c0.1,0.1,0.2,0.1,0.3,0.2
		c-0.6,1.7-0.8,3.5-0.9,5.2C305.2,117.8,304,110.2,304.9,106.6z M303.9,114.9h0.1c0.8,3.3,2.1,6.5,4,8.3c0,0,0.1,0.1,0.2,0.1
		c0.2,3.4,1.4,6.5,3.5,8.7c0.1,0.1,0.1,0.1,0.2,0.2c-0.1,0.1-0.1,0.2-0.1,0.3s0,4.4,3.5,6.6c-1.3,0.2-2.5,0.1-3.3,0
		c0.1-0.3,0.2-0.7,0.2-1.1c0-0.7-0.4-2.1-2.6-3.1c-1.7-0.8-3-1.2-4.1-1.5c-1.9-0.6-2.6-0.8-2.8-1.8c-0.1-0.3-0.4-0.5-0.7-0.4
		c-0.3,0.1-0.5,0.4-0.4,0.7c0.4,1.6,1.7,2,3.6,2.6c1.1,0.3,2.4,0.7,4,1.5c1.2,0.6,1.9,1.3,2,2.1c0,0.7-0.4,1.2-0.8,1.5
		c-0.2,0.1-0.6,0.3-0.9,0c-1.1-0.7-1.6-0.8-2.8-0.9c-0.9-0.1-2.2-0.2-4.5-0.7c-2.2-0.5-4.1-1.9-5.2-3.9c-1.7-3-1.6-7.2,0.1-11.8
		C300,114,303.8,114.8,303.9,114.9z M292.1,120.6c-1.1-1.5-0.9-3.7,0.6-6.2c1.4-2.4,1.9-3.9,1.4-5.1c-0.4-1.2-1.8-1.7-3.2-2.2
		c-0.6-0.2-1.1-0.4-1.7-0.7c-1.3-0.6-2-2.3-1.6-3.8c0.5-1.7,2.5-2.4,5.1-1.8c2.5,0.5,4.2,1.8,5,3.7c1,2.4,0.6,5.7-1.1,8.5
		c-1.2,1.9-1.5,3.5-1,4.5c0.4,0.7,1,1,1.4,1.2c-0.5,0.9-1,1.9-1.4,3.1c0,0.1-0.1,0.2-0.1,0.3h-0.1
		C294.5,122.4,293,121.9,292.1,120.6z"/>
	<path class="st7" d="M332.5,125.6c1.4,0,3.8-3,2.2-4c-1.6-1-4.6-1.4-5.4,1C328.6,124.6,331.1,125.6,332.5,125.6z"/>
	<path class="st7" d="M317.5,128.7c-0.1,0.2-0.1,0.5,0.1,0.6c0.1,0.1,0.2,0.1,0.3,0.1c0.1,0,0.3-0.1,0.4-0.2
		c2.4-3.5,9.6-3.3,9.7-3.3c0.3,0,0.5-0.2,0.5-0.4s-0.2-0.5-0.4-0.5C327.7,125,320.2,124.8,317.5,128.7z"/>
	<path class="st7" d="M321.6,131.1c-0.1,0.2,0,0.5,0.2,0.6c0.1,0,0.1,0.1,0.2,0.1c0.2,0,0.3-0.1,0.4-0.2c2-3.5,5.9-3.8,6-3.8
		c0.2,0,0.4-0.2,0.4-0.5s-0.2-0.4-0.5-0.4C328.1,126.9,323.8,127.2,321.6,131.1z"/>
	<path class="st7" d="M325.2,132.2c-0.1,0.2,0,0.5,0.3,0.6h0.1c0.2,0,0.4-0.1,0.4-0.3c0.7-1.9,3.3-3.1,3.4-3.1
		c0.2-0.1,0.3-0.4,0.2-0.6c-0.1-0.2-0.4-0.3-0.6-0.2C328.9,128.6,326,129.9,325.2,132.2z"/>
	<path class="st7" d="M336.6,125.6c0,0,4-0.3,6.5,2.8c0.1,0.1,0.2,0.2,0.4,0.2c0.1,0,0.2,0,0.3-0.1c0.2-0.2,0.2-0.4,0.1-0.6
		c-2.8-3.5-7.1-3.2-7.3-3.2c-0.2,0-0.4,0.2-0.4,0.5C336.2,125.5,336.4,125.7,336.6,125.6z"/>
	<path class="st7" d="M335.9,127.4c0,0,2.8,0.8,3.8,2.6c0.1,0.2,0.2,0.2,0.4,0.2c0.1,0,0.1,0,0.2-0.1c0.2-0.1,0.3-0.4,0.2-0.6
		c-1.1-2.1-4.2-3-4.3-3c-0.2-0.1-0.5,0.1-0.5,0.3C335.5,127.1,335.6,127.3,335.9,127.4z"/>
</g>
<g transform="translate(1 1)">
	<g>
		<g>
			<path d="M549.8,123c0-0.1,0-0.2,0-0.2c0-0.1,0-0.2,0-0.3v-0.1c-0.2-6.5-2.1-12.3-5.2-16.4c-2.7-3.7-6.4-6.1-10.4-6.4
				c-0.1,0-0.1,0-0.2,0c-0.1,0-0.1,0-0.2,0c-0.2,0-0.4,0-0.6,0h-11c-4.1,0-7.9,2.1-10.7,5.7c-0.1,0.1-0.2,0.2-0.2,0.3
				c-3.4,4.3-5.6,10.7-5.6,17.7c0,13,7.4,23.7,16.6,23.7h11c0.2,0,0.4,0,0.7,0c0.1,0,0.1,0,0.2,0c7.6-0.6,13.9-8.4,15.4-19
				c0-0.1,0-0.2,0-0.2c0.2-1.4,0.3-2.9,0.3-4.4L549.8,123L549.8,123z M523.7,135.5c0-0.1-0.1-0.2-0.1-0.3c-1.4-3.5-2.2-7.7-2.2-12.2
				c0-11.6,5.5-21.2,12.5-22.1c8,0.5,14.3,10.2,14.3,22.1c0,11.8-6.3,21.5-14.3,22.1C529.6,144.7,526,141,523.7,135.5z M508.2,131
				c0.2-0.1,0.3-0.2,0.5-0.3l1-1.6l1.7,1.7c0.3,0.3,0.8,0.3,1.1,0l1.8-1.8l1.9,1.9c0.3,0.3,0.8,0.3,1.1,0l1.9-1.9l1.3,1.2
				c0.3,1.4,0.6,2.8,1.1,4l-1.4-0.7c-0.4-0.2-0.8-0.1-1,0.2l-1,1.6l-1.7-1.7c-0.3-0.3-0.8-0.3-1.1,0l-1.8,1.8l-1.8-1.8
				c-0.3-0.3-0.8-0.3-1.1,0l-1.1,1.1C509,133.6,508.6,132.3,508.2,131z M507.2,123.5l2,1.1c0.3,0.2,0.7,0.1,0.9-0.2l1.8-1.8l1.9,1.8
				c0.3,0.3,0.8,0.3,1.1,0l1.9-1.9l3,1.8c0,1.1,0.1,2.2,0.3,3.3l-0.6-0.5c-0.3-0.2-0.8-0.2-1,0.1l-1.8,1.8l-1.8-1.8
				c-0.3-0.3-0.8-0.3-1.1,0L512,129l-1.8-1.8c-0.2-0.2-0.4-0.2-0.6-0.2s-0.5,0.2-0.6,0.3l-1.1,1.7
				C507.5,127.3,507.3,125.4,507.2,123.5z M509.8,110.8l1.8,1.2c0.2,0.2,0.6,0.2,0.9,0l1.9-1.3l2,1.3c0.2,0.2,0.6,0.2,0.9,0l2-1.3
				l2.5,1.2c-0.4,1.2-0.8,2.5-1,3.8l-1-1c-0.3-0.3-0.8-0.3-1.1,0l-1.8,1.8l-1.8-1.8c-0.3-0.3-0.8-0.3-1.1,0l-1.8,1.8l-1.8-1.8
				c-0.2-0.2-0.3-0.2-0.6-0.2c-0.2,0-0.4,0.1-0.6,0.2l-0.9,1C508.6,113.9,509.1,112.3,509.8,110.8z M512.4,106.5l5-1.5l2,1.3
				c0.2,0.2,0.6,0.2,0.9,0l2-1.3l2.2,1.1c-0.8,1.3-1.6,2.7-2.2,4.3l-2.9-1.4c-0.2-0.1-0.6-0.1-0.8,0.1l-1.9,1.3l-1.9-1.3
				c-0.2-0.2-0.6-0.2-0.9,0l-1.9,1.3l-1.4-1C511.1,108.3,511.7,107.4,512.4,106.5z M517.1,120.9c-0.3-0.2-0.7-0.1-0.9,0.2l-1.8,1.8
				l-1.8-1.8c-0.3-0.3-0.8-0.3-1.1,0l-2,2l-2.2-1.3c0-1.2,0.2-2.3,0.3-3.5c0.1,0,0.2-0.1,0.3-0.2l1.7-1.8l1.8,1.8
				c0.3,0.3,0.8,0.3,1.1,0l1.8-1.8l1.8,1.8c0.3,0.3,0.8,0.3,1.1,0l1.8-1.8l1,1c0.1,0.1,0.1,0.1,0.2,0.1c-0.3,1.6-0.4,3.3-0.4,5.1
				L517.1,120.9z M529.4,101.1c-1.5,0.9-2.9,2.2-4.1,3.8l-2.8-1.4c-0.2-0.1-0.6-0.1-0.8,0.1l-1.9,1.3l-1.9-1.3
				c-0.2-0.2-0.5-0.2-0.7-0.2l-2.7,0.8c2.2-2,4.9-3.1,7.7-3.1L529.4,101.1L529.4,101.1z M510.2,136.3l1-1l1.8,1.8
				c0.3,0.3,0.8,0.3,1.1,0l1.8-1.8l1.8,1.8c0.2,0.2,0.3,0.2,0.6,0.2s0.6-0.2,0.6-0.4l1.2-1.8l2.3,1.1c0.6,1.4,1.3,2.7,2,3.9l-1.5,1
				l-1.9-1.3c-0.2-0.2-0.6-0.2-0.9,0l-1.9,1.3l-1.9-1.3c-0.2-0.2-0.6-0.2-0.9,0l-1.9,1.3C512.3,139.8,511.1,138.1,510.2,136.3z
				 M522.2,145.2c-2.7,0-5.3-1.1-7.5-3l1.2-0.8l2,1.3c0.2,0.2,0.6,0.2,0.9,0l1.9-1.3l1.8,1.3c0.2,0.2,0.6,0.2,0.9,0l2-1.3
				c1.2,1.6,2.6,2.9,4.1,3.8H522.2L522.2,145.2z"/>
			<path d="M534.8,105.8c-4.1,0-7.5,4.6-8.8,11.1v0.1c0,0.2-0.1,0.4-0.1,0.5s0,0.1,0,0.2s0,0.3-0.1,0.4c0,0.1,0,0.2,0,0.3
				s0,0.3-0.1,0.4c0,0.1,0,0.2,0,0.3s0,0.3,0,0.4s0,0.2,0,0.3s0,0.2,0,0.4c0,0.1,0,0.2,0,0.2c0,0.2,0,0.4,0,0.5s0,0.1,0,0.2
				c0,0.2,0,0.3,0,0.5v0.1c0,0.2,0,0.4,0,0.6c0,0.1,0,0.1,0,0.2c0,0.2,0,0.4,0,0.6s0,0.4,0,0.6c0,0.1,0,0.1,0,0.2c0,0.2,0,0.4,0,0.6
				v0.1c0,0.2,0,0.3,0,0.5c0,0.1,0,0.1,0,0.2c0,0.2,0,0.4,0,0.5s0,0.2,0,0.2c0,0.1,0,0.2,0,0.4c0,0.1,0,0.2,0,0.3s0,0.3,0,0.4
				s0,0.2,0,0.3s0,0.3,0.1,0.4c0,0.1,0,0.2,0,0.3c0,0.1,0,0.3,0.1,0.4c0,0.1,0,0.1,0,0.2c0,0.2,0.1,0.4,0.1,0.5v0.1
				c1.3,6.5,4.8,11.1,8.8,11.1c5.3,0,9.5-7.6,9.5-17.3S540.1,105.8,534.8,105.8z M527.1,125.6L527.1,125.6c0-0.2,0-0.2,0-0.3
				s0-0.2,0-0.3s0-0.1,0-0.2c0-0.2,0-0.3,0-0.5v-0.1c0-0.1,0-0.3,0-0.4v-0.1c0-0.2,0-0.3,0-0.5c0-0.1,0-0.3,0-0.4
				c0-2.9,0.5-5.7,1.3-8.1c1.2,2,1.9,5.1,1.9,8.5s-0.7,6.5-1.9,8.5C527.7,129.8,527.2,127.8,527.1,125.6z M534.8,138.9
				c-2.3,0-4.5-2.2-5.9-5.5c1.7-2.1,2.8-6,2.8-10.3s-1.1-8.2-2.8-10.3c1.5-3.3,3.6-5.5,5.9-5.5c4.3,0,7.9,7.3,7.9,15.8
				S539.1,138.9,534.8,138.9z"/>
		</g>
	</g>
</g>
<g>
	<g>
		<g>
			<path d="M561.8,347.1c-1.5,0-2.8-1.2-2.8-2.8c0-0.5-0.4-0.8-0.8-0.8c-0.5,0-0.8,0.4-0.8,0.8c0,1.5-1.2,2.8-2.8,2.8
				c-0.5,0-0.8,0.4-0.8,0.8c0,0.5,0.4,0.8,0.8,0.8c1.5,0,2.8,1.2,2.8,2.8c0,0.5,0.4,0.8,0.8,0.8c0.5,0,0.8-0.4,0.8-0.8
				c0-1.5,1.2-2.8,2.8-2.8c0.5,0,0.8-0.4,0.8-0.8S562.2,347.1,561.8,347.1z M558.1,348.9c-0.3-0.4-0.6-0.7-1-1c0.4-0.3,0.7-0.6,1-1
				c0.3,0.4,0.6,0.7,1,1C558.8,348.2,558.4,348.6,558.1,348.9z"/>
		</g>
	</g>
	<g>
		<g>
			<path d="M513,347.1c-1.5,0-2.8-1.2-2.8-2.8c0-0.5-0.4-0.8-0.8-0.8s-0.8,0.4-0.8,0.8c0,1.5-1.2,2.8-2.8,2.8
				c-0.5,0-0.8,0.4-0.8,0.8c0,0.5,0.4,0.8,0.8,0.8c1.5,0,2.8,1.2,2.8,2.8c0,0.5,0.4,0.8,0.8,0.8s0.8-0.4,0.8-0.8
				c0-1.5,1.2-2.8,2.8-2.8c0.5,0,0.8-0.4,0.8-0.8C513.9,347.5,513.5,347.1,513,347.1z M509.4,348.9c-0.3-0.4-0.6-0.7-1-1
				c0.4-0.3,0.7-0.6,1-1c0.3,0.4,0.6,0.7,1,1C510.1,348.2,509.7,348.6,509.4,348.9z"/>
		</g>
	</g>
	<g>
		<g>
			<path d="M538.3,336.3c-2,0-3.7-1.6-3.7-3.7c0-0.5-0.4-0.8-0.8-0.8c-0.5,0-0.8,0.4-0.8,0.8c0,2-1.6,3.7-3.7,3.7
				c-0.5,0-0.8,0.4-0.8,0.8s0.4,0.8,0.8,0.8c2,0,3.7,1.6,3.7,3.7c0,0.5,0.4,0.8,0.8,0.8c0.5,0,0.8-0.4,0.8-0.8c0-2,1.6-3.7,3.7-3.7
				c0.5,0,0.8-0.4,0.8-0.8S538.8,336.3,538.3,336.3z M533.8,338.8c-0.4-0.7-1-1.2-1.6-1.6c0.7-0.4,1.2-1,1.6-1.6
				c0.4,0.7,1,1.2,1.6,1.6C534.8,337.5,534.2,338.1,533.8,338.8z"/>
		</g>
	</g>
	<g>
		<g>
			<path d="M551.4,360.3l-3.3-9.3c-0.2-0.7-0.9-1.2-1.6-1.2h-25.6c-0.7,0-1.4,0.5-1.6,1.2l-3.3,9.3c-0.2,0.5,0.2,1.1,0.8,1.1h33.8
				c0.3,0,0.5-0.1,0.7-0.4C551.4,360.8,551.5,360.6,551.4,360.3z M518,359.7l2.9-8.2c0,0,0,0,0.1,0h25.6c0,0,0,0,0.1,0l2.9,8.2H518z
				"/>
		</g>
	</g>
	<g>
		<g>
			<path d="M549.9,371.5c-3,0-5.4,1.6-5.4,3.6s2.4,3.6,5.4,3.6s5.4-1.6,5.4-3.6S552.9,371.5,549.9,371.5z M549.9,376.9
				c-2.1,0-3.7-1-3.7-1.9s1.6-1.9,3.7-1.9c2.1,0,3.7,1,3.7,1.9S552,376.9,549.9,376.9z"/>
		</g>
	</g>
	<g>
		<g>
			<path d="M517.4,371.5c-3,0-5.4,1.6-5.4,3.6s2.4,3.6,5.4,3.6s5.4-1.6,5.4-3.6S520.4,371.5,517.4,371.5z M517.4,376.9
				c-2.1,0-3.7-1-3.7-1.9s1.6-1.9,3.7-1.9s3.7,1,3.7,1.9S519.5,376.9,517.4,376.9z"/>
		</g>
	</g>
	<g>
		<g>
			<path d="M560.7,358.8h-4.5c-0.4,0-0.7,0.3-0.8,0.6l-0.6,2.4l-4.2-11.8c-0.6-1.8-2.3-3-4.2-3h-25.6c-1.9,0-3.6,1.2-4.2,3
				l-4.2,11.8l-0.6-2.4c-0.1-0.4-0.4-0.6-0.8-0.6h-4.5c-0.5,0-0.8,0.4-0.8,0.8v3.6c0,0.5,0.4,0.8,0.8,0.8h4.7l-2.9,4
				c-0.5,0.8-0.8,1.7-0.8,2.6v10.6c0,1.5,0.7,2.8,1.8,3.6l0,0v2.7c0,1,0.8,1.7,1.7,1.7h5.4c1,0,1.7-0.8,1.7-1.7v-1.9h30.8v1.9
				c0,1,0.8,1.7,1.7,1.7h5.4c1,0,1.7-0.8,1.7-1.7v-2.7l0,0c1.1-0.8,1.8-2.1,1.8-3.6v-10.6c0-0.9-0.3-1.8-0.8-2.6l-2.9-4h4.7
				c0.5,0,0.8-0.4,0.8-0.8v-3.6C561.6,359.2,561.2,358.8,560.7,358.8z M507.5,362.4v-1.9h3l0.5,1.9H507.5z M516.6,387.6
				C516.6,387.7,516.6,387.7,516.6,387.6l-5.5,0.1c0,0-0.1,0-0.1-0.1v-1.9h1h4.6C516.6,385.8,516.6,387.6,516.6,387.6z M556.3,387.6
				C556.3,387.7,556.3,387.7,556.3,387.6l-5.5,0.1c0,0-0.1,0-0.1-0.1v-1.9h4.6h1V387.6z M555.3,384.1H512c-1.2,0-2.3-0.8-2.6-1.9
				H558C557.6,383.3,556.6,384.1,555.3,384.1z M541,375v1.9h-14.5V375H541z M526.5,373.3c0.4-1.1,1.4-1.9,2.6-1.9h9
				c1.2,0,2.3,0.8,2.6,1.9H526.5z M541,378.6v1.9h-14.5v-1.9H541z M557.6,369.1c0.3,0.5,0.5,1,0.5,1.6v9.7h-15.4V374
				c0-2.5-2-4.5-4.5-4.5h-9c-2.5,0-4.5,2-4.5,4.5v6.4h-15.4v-9.7c0-0.6,0.2-1.1,0.5-1.6l3.6-5h31.1c0.5,0,0.8-0.4,0.8-0.8
				s-0.4-0.8-0.8-0.8h-30.4l4.2-11.8c0.4-1.1,1.4-1.8,2.6-1.8h25.6c1.2,0,2.2,0.7,2.6,1.8l4.2,11.8h-5.1c-0.5,0-0.8,0.4-0.8,0.8
				s0.4,0.8,0.8,0.8h5.9L557.6,369.1z M559.9,362.4h-3.5l0.5-1.9h3V362.4z"/>
		</g>
	</g>
	<g>
		<g>
			<path d="M520.2,368.7h-5.4c-0.5,0-0.8,0.4-0.8,0.8c0,0.5,0.4,0.8,0.8,0.8h5.4c0.5,0,0.8-0.4,0.8-0.8S520.6,368.7,520.2,368.7z"/>
		</g>
	</g>
	<g>
		<g>
			<path d="M552.6,368.7h-5.4c-0.5,0-0.8,0.4-0.8,0.8c0,0.5,0.4,0.8,0.8,0.8h5.4c0.5,0,0.8-0.4,0.8-0.8
				C553.5,369.1,553.1,368.7,552.6,368.7z"/>
		</g>
	</g>
</g>
<g>
	<path class="st8" d="M96.7,129.7H75.5c-0.4,0-0.7,0.3-0.7,0.7s0.3,0.7,0.7,0.7h21.2c0.4,0,0.7-0.3,0.7-0.7
		C97.4,130,97.1,129.7,96.7,129.7z"/>
	<path class="st8" d="M77.8,118.6c1.5,3.1,4.6,5.3,8.3,5.3s6.8-2.2,8.3-5.3v-0.1c0.5-1.2,0.8-2.4,0.8-3.8c0-1.6-0.4-3.1-1.1-4.4
		c0,0,0-0.1-0.1-0.1c-1.6-2.8-4.6-4.7-8-4.7s-6.4,1.9-8,4.7c0,0,0,0.1-0.1,0.1c-0.6,1.2-1,2.5-1.1,3.9l0,0c0,0.1,0,0.3,0,0.4
		C76.9,116,77.2,117.3,77.8,118.6C77.8,118.5,77.8,118.5,77.8,118.6z M90.1,121.9c0.4-1.1,0.7-2.1,0.9-3.1h2.2
		C92.5,120.1,91.4,121.1,90.1,121.9z M93.7,117.8h-2.5c0.2-1,0.3-2,0.3-3h2.8C94.3,115.9,94.1,116.9,93.7,117.8z M94.3,113.8h-2.8
		c0-0.9-0.2-1.9-0.4-2.8h2.3C93.9,111.9,94.2,112.8,94.3,113.8z M92.9,110h-2c-0.2-0.8-0.5-1.6-0.8-2.5
		C91.2,108.2,92.1,109,92.9,110z M86.6,106.5c0.8,0,1.6,0.2,2.3,0.5v0.1c0.4,1,0.7,2,1,2.9h-3.3V106.5L86.6,106.5z M86.6,111h3.6
		c0.2,1,0.3,1.9,0.4,2.8h-4V111L86.6,111z M86.6,114.8h4c0,1-0.1,2-0.3,3h-3.7V114.8L86.6,114.8z M86.6,118.8H90
		c-0.3,1.1-0.6,2.3-1.1,3.5v0.1c-0.7,0.3-1.5,0.4-2.3,0.5L86.6,118.8L86.6,118.8z M79,118.8h2.2c0.2,1,0.5,2,0.9,3.1
		C80.8,121.1,79.7,120.1,79,118.8z M85.6,122.9c-0.8,0-1.6-0.2-2.3-0.5v-0.1c-0.5-1.2-0.8-2.4-1.1-3.5h3.4L85.6,122.9L85.6,122.9z
		 M85.6,117.8h-3.7c-0.2-1-0.3-2-0.3-3h4V117.8L85.6,117.8z M85.6,113.8h-4c0-0.9,0.2-1.9,0.4-2.8h3.6V113.8L85.6,113.8z M85.6,110
		h-3.3c0.3-0.9,0.6-1.9,1-2.9V107c0.7-0.3,1.5-0.4,2.3-0.5V110L85.6,110z M82.1,107.5c-0.3,0.9-0.6,1.7-0.8,2.5h-2
		C80.1,109,81,108.2,82.1,107.5z M78.8,111h2.3c-0.2,1-0.3,1.9-0.4,2.8h-2.8C78,112.8,78.3,111.9,78.8,111z M80.7,114.8
		c0,1,0.1,2,0.3,3h-2.5c-0.4-0.9-0.6-2-0.6-3H80.7L80.7,114.8z"/>
	<path class="st8" d="M102,95.5C101.9,95.5,101.9,95.5,102,95.5c-2.6,0.2-5.6,0.4-8.8,0.6C86.5,96.5,79,97,73.3,97.7
		c-1.8,0.1-3.2,1.6-3.2,3.4v35.7c0,1.9,1.5,3.4,3.4,3.4h25.3c1.6,0,3-1.1,3.3-2.6c1.7-0.1,3-1.4,3-3.1V98.8
		C105.1,96.9,103.7,95.5,102,95.5z M100.7,136.7c0,1.1-0.9,2-2,2H73.4c-1.1,0-2-0.9-2-2V101c0-1.1,0.9-2,2-2h25.3c1.1,0,2,0.9,2,2
		V136.7L100.7,136.7z M104.2,134.3c0,1.1-0.9,2.1-2,2.2V101c0-1.9-1.5-3.4-3.4-3.4H84.3c3-0.2,6-0.4,8.9-0.6
		c3.2-0.2,6.2-0.4,8.8-0.6c1.2,0,2.2,1,2.2,2.2V134.3z"/>
</g>
<g>
	<path class="st8" d="M102.3,386.1c-0.2,0-0.4,0.1-0.5,0.3l-0.3,1.6c0,0.2,0.1,0.4,0.3,0.5c0,0,0,0,0.1,0c0.2,0,0.4-0.1,0.4-0.3
		l0.3-1.6C102.7,386.4,102.5,386.2,102.3,386.1z"/>
	<path class="st8" d="M101.6,390c-0.2,0-0.4,0.1-0.5,0.3l-1.4,8.3c0,0.2,0.1,0.4,0.3,0.5c0,0,0,0,0.1,0c0.2,0,0.4-0.1,0.4-0.3
		l1.4-8.3C102,390.3,101.9,390.1,101.6,390z"/>
	<path class="st8" d="M77.5,355.8c0.9,0,1.6-0.1,1.6-0.1c0.2,0,0.3-0.2,0.3-0.3c0-0.2,0.7-5.3-2.1-8.1c-2.8-2.8-9.1-3.4-9.3-3.4
		c-0.1,0-0.2,0-0.3,0.1s-0.1,0.2-0.1,0.3c0,0.3,0.6,6.6,3.4,9.3C72,354.6,73.9,355.8,77.5,355.8z M76.8,347.8c1.9,1.9,2,5.1,1.9,6.6
		l-1-1l-0.6-3.3c0-0.2-0.3-0.4-0.5-0.3c-0.2,0-0.4,0.3-0.3,0.5l0.4,2.1l-1.4-1.4l-0.6-3.3c0-0.2-0.2-0.4-0.5-0.3
		c-0.2,0-0.4,0.3-0.3,0.5l0.4,2.1l-1.4-1.4l-0.4-2.1c0-0.2-0.2-0.4-0.5-0.3c-0.2,0-0.4,0.3-0.3,0.5l0.3,1.6l-1.6-0.3
		c-0.2,0-0.4,0.1-0.5,0.3c0,0.2,0.1,0.4,0.3,0.5l2.1,0.4l1.4,1.4l-2.1-0.4c-0.2,0-0.4,0.1-0.5,0.3c0,0.2,0.1,0.4,0.3,0.5l3.3,0.6
		l1.4,1.4l-2.1-0.4c-0.2,0-0.4,0.1-0.5,0.3c0,0.2,0.1,0.4,0.3,0.5l3.3,0.6l1,1c-0.2,0-0.4,0-0.7,0c-1.5,0-4.3-0.3-6-1.9
		c-2.1-2.1-2.9-6.8-3.1-8.3C70,344.9,74.7,345.7,76.8,347.8z"/>
	<path class="st8" d="M106.7,355.4c0,0.2,0.2,0.3,0.3,0.3c0,0,0.7,0.1,1.6,0.1l0,0c3.6,0,5.5-1.2,6.5-2.2c2.8-2.8,3.4-9.1,3.4-9.3
		c0-0.1,0-0.2-0.1-0.3c-0.1-0.1-0.2-0.1-0.3-0.1c-0.3,0-6.6,0.6-9.3,3.4C106,350,106.7,355.1,106.7,355.4z M117.7,344.7
		c-0.2,1.5-1,6.2-3.1,8.3c-1.7,1.7-4.5,1.9-6,1.9c-0.2,0-0.5,0-0.7,0l1-1l3.3-0.6c0.2,0,0.4-0.3,0.3-0.5c0-0.2-0.2-0.4-0.5-0.3
		l-2.1,0.4l1.4-1.4l3.3-0.6c0.2,0,0.4-0.3,0.3-0.5c0-0.2-0.2-0.4-0.5-0.3l-2.1,0.4l1.4-1.4l2.1-0.4c0.2,0,0.4-0.3,0.3-0.5
		c0-0.2-0.3-0.4-0.5-0.3l-1.6,0.3l0.3-1.6c0-0.2-0.1-0.4-0.3-0.5c-0.2,0-0.4,0.1-0.5,0.3l-0.4,2.1l-1.4,1.4l0.4-2.1
		c0-0.2-0.1-0.4-0.3-0.5c-0.2,0-0.4,0.1-0.5,0.3l-0.6,3.3l-1.4,1.4l0.4-2.1c0-0.2-0.1-0.4-0.3-0.5c-0.2,0-0.4,0.1-0.5,0.3l-0.6,3.3
		l-1,1c-0.1-1.5,0-4.7,1.9-6.6C111.5,345.7,116.2,344.9,117.7,344.7z"/>
	<path class="st8" d="M118,360.2c-0.1,0-1.3-0.9-2.9-1.8c-2.5-1.3-4.6-1.9-6.3-1.8s-3.4,1-5,2.5c-1,0.9-1.6,1.8-1.9,2.1l-1.9,0.1
		l0.1-0.5c0.4-0.2,1.3-0.7,2.3-1.5c1.7-1.4,2.8-3,3.2-4.6c0.3-1.6,0.1-3.7-0.8-6.3c-0.7-1.9-1.4-3.3-1.4-3.4
		c-0.1-0.1-0.2-0.2-0.3-0.2s-0.2,0-0.3,0.1c-0.1,0-1.3,1-2.7,2.5c-1.9,2-3,3.8-3.3,5.4s0,3.5,1,5.5c0.6,1.1,1.2,2,1.5,2.3l-0.2,0.9
		l-5.5,5.5v-13.7c0.4-0.3,1.7-1.4,2.9-2.9c2-2.5,3.1-5,3.1-7.4s-1-5.3-3.1-8.7c-1.5-2.5-3-4.3-3-4.3c-0.1-0.1-0.2-0.1-0.3-0.1
		S93,330,92.9,330c-0.1,0.1-1.5,1.8-3,4.3c-2,3.4-3.1,6.3-3.1,8.7c0,2.4,1.1,4.9,3.1,7.4c1.2,1.5,2.5,2.6,2.9,2.9v14l-5.7-5.7
		l-0.2-0.9c0.3-0.3,0.9-1.2,1.5-2.3c1-2,1.4-3.9,1-5.5c-0.3-1.6-1.5-3.4-3.3-5.4c-1.4-1.5-2.6-2.4-2.7-2.5c-0.1-0.1-0.2-0.1-0.3-0.1
		s-0.2,0.1-0.3,0.2c0,0.1-0.8,1.5-1.4,3.4c-0.9,2.6-1.2,4.7-0.8,6.3c0.3,1.6,1.4,3.2,3.2,4.6c1,0.8,2,1.3,2.3,1.5l0.1,0.5l-1.9-0.1
		c-0.2-0.3-0.9-1.2-1.9-2.1c-1.6-1.5-3.3-2.4-5-2.5c-0.1,0-0.2,0-0.4,0c-3.9,0-8.7,3.5-8.9,3.7c-0.1,0.1-0.2,0.2-0.2,0.3
		c0,0.1,0,0.2,0.1,0.3c0,0,1.2,1.1,2.8,2.3c2.2,1.5,4.2,2.4,5.9,2.5c0.1,0,0.2,0,0.4,0c0.6,0,1.1-0.1,1.6-0.2
		c0.2,1.5,0.9,6.5,3.3,8.9c1,1,2.9,2.2,6.5,2.2c0.6,0,1.1,0,1.4-0.1l2.7,2.7v2.9H80.8c-0.1,0-0.2,0.1-0.3,0.1
		c-0.1,0.1-0.1,0.2-0.1,0.3l2.5,16.8c0.2,1.2,1.3,2.2,2.5,2.2h15.2c1.3,0,2.3-0.9,2.5-2.2l2.5-16.8c0-0.1,0-0.2-0.1-0.3
		c-0.1-0.1-0.2-0.1-0.3-0.1H93.4v-2.9l2.7-2.7c0.3,0,0.8,0.1,1.4,0.1l0,0c3.6,0,5.5-1.2,6.5-2.2c2.4-2.4,3.1-7.3,3.3-8.9
		c0.4,0.1,0.9,0.2,1.4,0.2l0,0c0.1,0,0.2,0,0.4,0c1.7-0.1,3.6-0.9,5.9-2.5c1.6-1.1,2.8-2.2,2.8-2.3c0.1-0.1,0.1-0.2,0.1-0.3
		C118.2,360.4,118.1,360.2,118,360.2z M102.5,399.2c-0.1,0.9-0.9,1.5-1.7,1.5H85.6c-0.9,0-1.6-0.6-1.7-1.5l-2-13.7h22.8l0,0
		L102.5,399.2z M104.7,384.7h-0.1H81.7l-0.3-1.8h23.5L104.7,384.7z M97.6,352.9c0.6-3,4.1-6.1,5.3-7.1c0.7,1.4,2.6,5.7,1.9,8.7
		c-0.4,1.8-1.8,3.2-2.9,4.1c-0.6,0.5-1.2,0.9-1.6,1.1l0.3-1.4l2.4-2.3c0.2-0.2,0.2-0.4,0-0.6s-0.4-0.2-0.6,0l-1.6,1.5l0.4-2l2.4-2.3
		c0.2-0.2,0.2-0.4,0-0.6s-0.4-0.2-0.6,0l-1.6,1.5l0.4-2l1.6-1.5c0.2-0.2,0.2-0.4,0-0.6s-0.4-0.2-0.6,0l-1,1c0,0-0.1-0.1-0.2-0.1
		h-0.1l-0.5-1.2c-0.1-0.2-0.3-0.3-0.5-0.2c-0.2,0.1-0.3,0.3-0.2,0.5l0.8,1.9l-0.4,2l-0.8-1.9c-0.1-0.2-0.3-0.3-0.5-0.2
		c-0.2,0.1-0.3,0.3-0.2,0.5l1.2,3l-0.4,2l-0.8-2c-0.1-0.2-0.3-0.3-0.5-0.2c-0.2,0.1-0.3,0.3-0.2,0.5l1.3,3l-0.3,1.4
		C98.6,358.3,97,355.5,97.6,352.9z M87.6,343c0-4.6,4.4-10.6,5.6-12.1c1.2,1.5,5.6,7.5,5.6,12.1c0,4.2-3.7,7.9-5.2,9.2v-2.6l2.8-4
		c0.1-0.2,0.1-0.4-0.1-0.6c-0.2-0.1-0.4-0.1-0.6,0.1l-2.1,3.1v-3.6l2.8-4c0.1-0.2,0.1-0.4-0.1-0.6c-0.2-0.1-0.4-0.1-0.6,0.1
		l-2.1,3.1v-3.6l1.8-2.6c0.1-0.2,0.1-0.4-0.1-0.6c-0.2-0.1-0.4-0.1-0.6,0.1l-1.3,1.9c-0.1,0-0.1-0.1-0.2-0.1c-0.1,0-0.1,0-0.2,0.1
		l-1.3-1.9c-0.1-0.2-0.4-0.2-0.6-0.1c-0.2,0.1-0.2,0.4-0.1,0.6l1.8,2.6v3.6l-2.1-3.1c-0.1-0.2-0.4-0.2-0.6-0.1
		c-0.2,0.1-0.2,0.4-0.1,0.6l2.8,4v3.6l-2.1-3.1c-0.1-0.2-0.4-0.2-0.6-0.1c-0.2,0.1-0.2,0.4-0.1,0.6l2.8,4v2.6
		C91.3,350.9,87.6,347.2,87.6,343z M81.3,354.5c-0.6-3,1.3-7.3,1.9-8.7c1.2,1,4.7,4.2,5.3,7.1c0.4,1.8-0.3,3.7-0.9,4.9
		c-0.4,0.7-0.7,1.3-1,1.7l-0.3-1.4l1.3-3c0.1-0.2,0-0.4-0.2-0.5s-0.4,0-0.5,0.2l-0.8,2l-0.4-2l1.2-3c0.1-0.2,0-0.4-0.2-0.5
		s-0.4,0-0.5,0.2l-0.8,1.9l-0.4-2l0.8-1.9c0.1-0.2,0-0.4-0.2-0.5s-0.4,0-0.5,0.2l-0.5,1.2h-0.1c-0.1,0-0.1,0-0.2,0.1l-1-1
		c-0.2-0.2-0.4-0.1-0.6,0c-0.2,0.2-0.1,0.4,0,0.6l1.6,1.5l0.4,2l-1.6-1.5c-0.2-0.2-0.4-0.1-0.6,0c-0.2,0.2-0.1,0.4,0,0.6l2.4,2.3
		l0.4,2l-1.6-1.5c-0.2-0.2-0.4-0.1-0.6,0c-0.2,0.2-0.1,0.4,0,0.6l2.4,2.3l0.3,1.4C84.5,358.9,81.9,357.1,81.3,354.5z M76.9,364.7
		c-3-0.2-6.7-3.2-7.8-4.2c1.2-0.8,5-3.2,8-3.2c0.1,0,0.2,0,0.3,0c1.8,0.1,3.5,1.3,4.5,2.2c0.6,0.5,1.1,1.1,1.4,1.5l-1.4-0.1
		l-2.7-2.1c-0.2-0.1-0.4-0.1-0.6,0.1c-0.1,0.2-0.1,0.4,0.1,0.6l1.7,1.3l-2.1-0.1l-2.6-2.1c-0.2-0.1-0.4-0.1-0.6,0.1
		c-0.1,0.2-0.1,0.4,0.1,0.6l1.7,1.3l-2.1-0.1l-1.7-1.3c-0.2-0.1-0.4-0.1-0.6,0.1c-0.1,0.2-0.1,0.4,0.1,0.6l1.3,1l-1.4,0.8
		c-0.2,0.1-0.3,0.4-0.1,0.6c0.1,0.1,0.2,0.2,0.3,0.2s0.1,0,0.2-0.1l1.8-1.1l2,0.1l-1.8,1.1c-0.2,0.1-0.3,0.4-0.1,0.6
		c0.1,0.1,0.2,0.2,0.3,0.2s0.1,0,0.2-0.1l2.8-1.7l2,0.1l-1.8,1.1c-0.2,0.1-0.3,0.4-0.1,0.6c0.1,0.1,0.2,0.2,0.3,0.2s0.1,0,0.2-0.1
		l2.8-1.7l1.4,0.1C81.8,362.8,79.5,364.7,76.9,364.7C77.1,364.8,77,364.8,76.9,364.7z M88.7,375.7c-1.5,0-4.3-0.3-6-1.9
		c-2.1-2.1-2.9-6.8-3.1-8.3c1.5,0.2,6.2,1,8.3,3.1c1.9,1.9,2,5.1,1.9,6.6l-1-1l-0.6-3.3c0-0.2-0.2-0.4-0.5-0.3
		c-0.2,0-0.4,0.3-0.3,0.5l0.4,2.1l-1.4-1.4l-0.6-3.3c0-0.2-0.2-0.4-0.5-0.3c-0.2,0-0.4,0.3-0.3,0.5l0.4,2.1l-1.4-1.4l-0.4-2.1
		c0-0.2-0.3-0.4-0.5-0.3c-0.2,0-0.4,0.3-0.3,0.5l0.3,1.6l-1.6-0.3c-0.2,0-0.4,0.1-0.5,0.3c0,0.2,0.1,0.4,0.3,0.5l2.1,0.4l1.4,1.4
		l-2.1-0.4c-0.2,0-0.4,0.1-0.5,0.3c0,0.2,0.1,0.4,0.3,0.5l3.3,0.6l1.4,1.4l-2.1-0.4c-0.2,0-0.4,0.1-0.5,0.3c0,0.2,0.1,0.4,0.3,0.5
		l3.3,0.6l1,1C89.1,375.6,88.9,375.7,88.7,375.7z M90.6,375.8c0.1-1,0.4-5.4-2.1-7.9c-2-2-5.9-2.9-8-3.2c1.8-0.9,3.1-2.3,3.6-2.8
		l2.4,0.2l6.3,6.3v9.6L90.6,375.8z M103.7,373.7c-1.7,1.7-4.5,1.9-6,1.9c-0.2,0-0.5,0-0.7,0l1-1l3.3-0.6c0.2,0,0.4-0.3,0.3-0.5
		c0-0.2-0.2-0.4-0.5-0.3l-2.1,0.4l1.4-1.4l3.3-0.6c0.2,0,0.4-0.3,0.3-0.5c0-0.2-0.2-0.4-0.5-0.3l-2.1,0.4l1.4-1.4l2.1-0.4
		c0.2,0,0.4-0.3,0.3-0.5c0-0.2-0.3-0.4-0.5-0.3l-1.6,0.3l0.3-1.6c0-0.2-0.1-0.4-0.3-0.5c-0.2,0-0.4,0.1-0.5,0.3l-0.4,2.1l-1.4,1.4
		l0.4-2.1c0-0.2-0.1-0.4-0.3-0.5c-0.2,0-0.4,0.1-0.5,0.3l-0.6,3.3l-1.4,1.4l0.4-2.1c0-0.2-0.1-0.4-0.3-0.5c-0.2,0-0.4,0.1-0.5,0.3
		l-0.6,3.3l-1,1c-0.1-1.5,0-4.7,1.9-6.6c2.1-2.1,6.8-2.9,8.3-3.1C106.6,366.9,105.8,371.6,103.7,373.7z M97.9,367.9
		c-2.5,2.5-2.2,6.9-2.1,7.9l-2.2,2.2v-9.8l6.1-6.1l2.4-0.2c0.5,0.5,1.8,1.9,3.7,2.8C103.6,365.1,99.8,365.9,97.9,367.9z
		 M109.3,364.7c-0.1,0-0.2,0-0.3,0l0,0c-2.5,0-4.8-1.9-5.9-2.9l1.4-0.1l2.8,1.7c0.1,0,0.1,0.1,0.2,0.1c0.1,0,0.3-0.1,0.3-0.2
		c0.1-0.2,0.1-0.4-0.1-0.6l-1.8-1.1l2-0.1l2.8,1.7c0.1,0,0.1,0.1,0.2,0.1c0.1,0,0.3-0.1,0.3-0.2c0.1-0.2,0.1-0.4-0.1-0.6l-1.8-1.1
		l2-0.1l1.8,1.1c0.1,0,0.1,0.1,0.2,0.1c0.1,0,0.3-0.1,0.3-0.2c0.1-0.2,0.1-0.4-0.1-0.6l-1.4-0.8l1.3-1c0.2-0.1,0.2-0.4,0.1-0.6
		c-0.1-0.2-0.4-0.2-0.6-0.1l-1.7,1.3l-2.1,0.1l1.7-1.3c0.2-0.1,0.2-0.4,0.1-0.6c-0.1-0.2-0.4-0.2-0.6-0.1l-2.6,2.1l-2.1,0.1l1.7-1.3
		c0.2-0.1,0.2-0.4,0.1-0.6c-0.1-0.2-0.4-0.2-0.6-0.1l-2.7,2.1l-1.4,0.1c0.9-1.2,3.2-3.6,5.9-3.7c0.1,0,0.2,0,0.3,0
		c3,0,6.7,2.4,8,3.2C116,361.6,112.3,364.6,109.3,364.7z"/>
	<path class="st8" d="M84.6,344.3c0.7,0,1.1-0.1,1.1-0.1c0.2,0,0.3-0.2,0.3-0.3c0-0.2,0.5-3.8-1.5-5.8s-6.4-2.4-6.6-2.4
		c-0.1,0-0.2,0-0.3,0.1s-0.1,0.2-0.1,0.3c0,0.2,0.4,4.6,2.4,6.6C81.2,344,83.2,344.3,84.6,344.3z M84,338.6c1.2,1.2,1.3,3.1,1.3,4.3
		l-0.5-0.5l-0.4-2.2c0-0.2-0.2-0.4-0.5-0.3c-0.2,0-0.4,0.3-0.3,0.5l0.2,1.1l-0.7-0.7l-0.4-2.2c0-0.2-0.2-0.4-0.5-0.3
		c-0.2,0-0.4,0.3-0.3,0.5l0.2,1.1l-0.7-0.7l-0.3-1.4c0-0.2-0.3-0.4-0.5-0.3c-0.2,0-0.4,0.3-0.3,0.5l0.2,1l-1-0.2
		c-0.2,0-0.4,0.1-0.5,0.3c0,0.2,0.1,0.4,0.3,0.5l1.4,0.3l0.7,0.7l-1.1-0.2c-0.2,0-0.4,0.1-0.5,0.3c0,0.2,0.1,0.4,0.3,0.5l2.2,0.4
		l0.7,0.7l-1.1-0.2c-0.2,0-0.4,0.1-0.5,0.3c0,0.2,0.1,0.4,0.3,0.5l2.2,0.4l0.5,0.5c-0.1,0-0.1,0-0.2,0c-1,0-2.9-0.2-4.1-1.3
		c-1.4-1.4-1.9-4.4-2.1-5.6C79.6,336.7,82.6,337.2,84,338.6z"/>
	<path class="st8" d="M100.6,344.2c0,0,0.5,0.1,1.1,0.1c1.4,0,3.4-0.3,4.7-1.6c2-2,2.4-6.4,2.4-6.6c0-0.1,0-0.2-0.1-0.3
		c-0.1-0.1-0.2-0.1-0.3-0.1c-0.2,0-4.6,0.4-6.6,2.4s-1.5,5.6-1.5,5.8C100.3,344,100.4,344.2,100.6,344.2z M102.3,338.6
		c1.4-1.4,4.4-1.9,5.6-2.1c-0.2,1.2-0.7,4.2-2.1,5.6c-1.2,1.2-3.1,1.3-4.1,1.3c-0.1,0-0.1,0-0.2,0l0.5-0.5l2.2-0.4
		c0.2,0,0.4-0.3,0.3-0.5c0-0.2-0.3-0.4-0.5-0.3l-1.1,0.2l0.7-0.7l2.2-0.4c0.2,0,0.4-0.3,0.3-0.5c0-0.2-0.3-0.4-0.5-0.3l-1.1,0.2
		l0.7-0.7l1.4-0.3c0.2,0,0.4-0.3,0.3-0.5c0-0.2-0.2-0.4-0.5-0.3l-1,0.2l0.2-1c0-0.2-0.1-0.4-0.3-0.5c-0.2,0-0.4,0.1-0.5,0.3
		l-0.3,1.4l-0.7,0.7l0.2-1.1c0-0.2-0.1-0.4-0.3-0.5c-0.2,0-0.4,0.1-0.5,0.3l-0.4,2.2l-0.7,0.7l0.2-1.1c0-0.2-0.1-0.4-0.3-0.5
		c-0.2,0-0.4,0.1-0.5,0.3l-0.4,2.2l-0.5,0.5C101,341.8,101.2,339.8,102.3,338.6z"/>
</g>
</svg>
