<?xml version="1.0" encoding="utf-8"?>
<!-- Generator: Adobe Illustrator 21.1.0, SVG Export Plug-In . SVG Version: 6.00 Build 0)  -->
<svg version="1.1" id="Layer_1" xmlns="http://www.w3.org/2000/svg" xmlns:xlink="http://www.w3.org/1999/xlink" x="0px" y="0px"
	 viewBox="0 0 800 600" style="enable-background:new 0 0 800 600;" xml:space="preserve">
<style type="text/css">
	.st0{fill:#5D9FC1;}
	.st1{fill:#DBDBE5;}
	.st2{fill:#FFFFFF;}
	.st3{fill:#A48364;}
	.st4{fill:#663610;}
	.st5{opacity:0.3;}
	.st6{opacity:0.1;}
	.st7{fill:#3E414A;}
	.st8{font-family:'LemonMilklight';}
	.st9{font-size:30.2551px;}
	.st10{fill:none;stroke:#DBDBE5;stroke-width:7;stroke-miterlimit:10;}
	.st11{fill:#F38E4B;}
</style>
<path class="st0" d="M173.1,248.7c-0.4,0-1,0.2-1.5,0.9c-1.1,1.5-1.3,5.2-1.2,9c-1.9-5.4-4.4-11.3-6.9-12.6c-0.8-0.5-1.5-0.4-2-0.3
	c-2.5,0.7-3.1,4.8-2,13.4c0,0.1,0,0.3,0,0.4c-2.2-5.3-5.1-10.9-7.5-12.1c-0.8-0.4-1.5-0.3-1.9-0.2c0,0-0.1,0-0.1,0
	c-2.3,0.9-2.6,5-1.1,13.2c0.1,0.6,0.2,1.2,0.4,1.8c-1.8-3.1-4-6-6-6.7c-0.9-0.3-1.7-0.3-2.5,0.1c-3.2,1.7-0.8,9.8,3.2,22.1
	c1.1,3.5,2.5,7.8,2.8,9.4c-0.8-0.3-2.2-1.1-3.3-1.8c-3.1-1.9-6.7-3.9-9-2.9c-0.9,0.4-1.5,1.3-1.8,2.6c-0.8,4.6,4.9,9.5,10,13.8
	c2.7,2.3,5.2,4.5,6.2,6.1c2.1,3.5,5.2,16.9,6.7,23.8c-1.7-2.1-3.6-4.4-5.4-6.7c-6.8-8.4-13.9-17.1-15.9-20.3
	c-3.3-5.2-3.2-8.1-3.1-11.9c0-0.8,0.1-1.6,0-2.5c0-3.4-0.4-11.8-3.8-15.1c-1-1-2.2-1.5-3.5-1.4c-4.3,0.1-5,6.6-5.4,10.9
	c0,0.3-0.1,0.7-0.1,1c-0.4-0.6-0.9-1.4-1.4-2.2c-11.7-17.9-16.6-23.3-19.3-21.5c-2.3,1.5-1.2,6.3,0.4,10.9c-3.5-4.3-7.8-9-10.4-9.3
	c-0.9-0.1-1.4,0.2-1.7,0.5c-1.1,1-1.9,3.4,2.4,12.8c0.3,0.6,0.6,1.2,0.8,1.8c-3.8-4.1-8.4-8.6-11.1-8.7c-0.9,0-1.4,0.3-1.7,0.7
	c-1.1,1.1-1.7,3.6,3.4,12.8c0.6,1.1,1.3,2.3,1.9,3.3c-3.3-2.8-6.9-5.5-8.5-5.4c-0.6,0-0.9,0.3-1.1,0.5c-1.2,1.3-1.6,4.1,5.2,14.3
	c2.3,3.5,8.5,10.3,15.6,18.2c7,7.8,14.9,16.6,21.7,24.8c12.4,15.2,17.1,27.1,17.8,29c0,0.2,0.1,0.4,0.2,0.5c0.7,1,2.1,0.6,3.5,0
	c3.2-1.3,9-4.7,15.1-8.9c3.3-2.3,6.3-4.6,8.8-6.6c0.5,3.3,1,8.2,1.1,9.5c0,0.2,0,0.3,0.1,0.5c0.3,1.1,1.6,1.6,7,0.6
	c3.7-0.6,8.4-1.8,13.4-3.3c4.4-1.3,8.6-2.8,11.9-4.1c6.7-2.7,7-3.8,6.7-4.8c0-0.1,0-0.1-0.1-0.2c-0.5-1.4-6.7-18.2-9.4-27.2
	c-1.4-4.9-2.7-15-3.9-24.8c-1.1-8.8-2.2-17.9-3.5-23.2C179.4,255,176.5,248.3,173.1,248.7z M116.5,335c-6.8-8.3-14.7-17.1-21.7-24.9
	c-7.1-7.9-13.2-14.6-15.4-18c-5.6-8.4-5.7-10.9-5.5-11.6c1.7,0.4,7.5,5.2,12.2,9.6l1.5-1.3c0,0-3-4.5-5.7-9.2
	c-4.9-8.9-3.7-10.4-3.7-10.4c0,0,0,0,0.2,0c2.7,0.1,10.9,9,15.3,14.7l1.6-1.1c0,0-2.6-4.6-4.9-9.5c-4.2-9.1-2.9-10.4-2.9-10.5
	c0,0,0.1,0,0.2,0c2.7,0.3,10.1,9.6,14.2,15.4l1.7-1c0,0-1.9-3.8-3.4-7.8c-2.5-6.9-1.5-8.2-1.2-8.4c0.3,0,1.9,0.3,7.3,7.5
	c3.4,4.5,6.9,9.9,9.3,13.5c1.5,2.3,2.2,3.4,2.6,3.8c0.5,0.6,1.1,0.5,1.3,0.4c0.9-0.3,1.1-1.4,1.3-4c0.3-3.2,0.9-9,3.5-9.1
	c0.8,0,1.5,0.3,2.1,0.9c2.3,2.3,3.2,8.5,3.2,13.6c0,0.9,0,1.7,0,2.5c-0.1,3.9-0.2,7.3,3.4,13c2.1,3.3,8.9,11.6,16,20.5
	c6,7.4,12.2,15.1,15,18.9c-0.3,0.1-0.6,0.2-0.9,0.3c-3.2,1.3-9,4.7-15.1,8.9c-4.3,3-8.2,5.9-11,8.4c-1.4,1.2-2.3,2.1-3,2.9
	C132.2,358.5,127.2,348,116.5,335z M150.4,355.2c-6,4.1-11.6,7.5-14.7,8.7c-0.1,0-0.1,0.1-0.2,0.1c1.8-2,6.5-6,13.5-10.8
	c6-4.1,11.6-7.5,14.7-8.7c0.1,0,0.1-0.1,0.2-0.1C162.1,346.3,157.4,350.3,150.4,355.2z M193.2,351.6c-3.2,1.3-7.4,2.7-11.7,4
	c-8.2,2.4-14.2,3.6-16.9,3.7c0.8-0.5,2.2-1.1,4.4-2.1c3.2-1.3,7.4-2.7,11.7-4c8.2-2.4,14.2-3.6,16.9-3.7
	C196.8,350,195.5,350.7,193.2,351.6z M177.4,257.7c1.7,4.8,3.3,11.1,4.5,16.1c1.2,5.2,2.3,14.2,3.4,23c1.2,9.9,2.4,20.1,3.9,25.1
	c2.3,7.6,7.1,20.9,8.8,25.6c-1,0-2.5,0.2-4.5,0.5c-3.7,0.6-8.4,1.8-13.4,3.3c-4.4,1.3-8.6,2.8-11.9,4.1c-2.4,1-3.9,1.7-4.9,2.3
	c-0.3-2.5-0.7-6.6-1.1-9.1c0.1-0.1,0.2-0.2,0.4-0.3c4.1-3.6,4.6-4.9,3.9-5.8c-1.2-1.9-4.1-5.7-7.9-10.4c-0.5-2.6-4.8-23.4-7.8-28.3
	c-1.2-1.9-3.8-4.2-6.6-6.6c-4.4-3.8-9.9-8.5-9.3-12c0.2-0.9,0.5-1.1,0.6-1.2c0,0,0,0,0,0c1.4-0.6,4.8,1.5,7.1,2.8
	c3,1.8,4.5,2.6,5.6,2c1.4-0.7,0.9-2.6-2.2-11.9c-1.4-4.3-3-9.2-3.9-13.1c-1.4-6-0.3-6.6-0.3-6.7c0.2-0.1,0.4-0.2,0.9,0
	c3.2,1.2,7.6,10.7,9.1,14.2l1.9-0.7c0-0.1-1.6-5.4-2.7-10.9c-2-10.2-0.2-11-0.1-11c0.1,0,0.2,0,0.4,0.1c2.9,1.5,7.9,13.9,10.4,21.5
	l1.9-0.5c0-0.1-1.3-5.6-2-11.3c-1.4-10.5,0.4-11.2,0.5-11.2c0,0,0.2,0,0.4,0.1c2.8,1.6,6.9,13.5,8.8,20.7l1.9-0.4
	c0,0-0.6-4.2-0.9-8.5c-0.5-8,0.8-8.7,0.8-8.7C173.5,250.7,174.9,250.7,177.4,257.7z"/>
<path class="st0" d="M202.3,389.5c-0.3-2.5-1.5-5.1-3.2-7c-1-1.1-2.5-1.4-4.1-0.8c-1,0.3-2,1-3,1.9c-0.1,0-0.2,0.1-0.3,0.1
	c-0.2,0.1-20.8,9.9-28.6,11.2c-3.3,0.6-5.8,1.3-7.7,2c1.1-1.5,2.7-3.1,4.8-4.1c0.6-0.3,0.9-0.9,0.7-1.5c-0.2-0.6-0.7-1-1.4-1
	c-0.4,0-8.4,0.7-12.9,7.2c-0.4-2.3-0.5-5.4,0.8-7.5c0.4-0.6,0.2-1.4-0.4-1.8c-0.6-0.4-1.4-0.2-1.8,0.3c-0.3,0.4-6.7,9.3-5.8,15.8
	c0.3,1.8-0.9,3.9-2.3,6.3c-2.6,4.5-5.7,10.2-1,17.1c0.2,0.3,0.5,0.5,0.8,0.5c-0.1,0.3-0.1,0.6-0.2,1c-2.2,11.4,3.1,36.4,10.5,43
	c1.1,1,2.2,1.8,3.3,2.5c-0.6,1.5-2.6,7.4-0.8,14.2c-0.3,0.1-0.5,0.3-0.6,0.6c-0.4,0.7-1.4,1.8-2.1,1.7c-0.3,0-1.9-0.6-3.5-7.1
	c-1.1-4.4-1.7-9.1-2.3-13.6c-1.3-10.1-2.4-18.7-8.4-20.4c-2.5-0.7-5,0-7,2c-5,5.1-6.2,16.9-2.9,28.7c3,10.7,9.6,18.5,17.1,20.3
	c2.6,0.6,5.2,0.5,7.7-0.4c2.2-0.8,4.2-2.1,6.1-4c0,0,0,0.1,0.1,0.1c6,7.3,12.6,9.5,20.6,6.7c1.9-0.7,3.8-1.6,5.8-2.8
	c6.5-3.8,11.3-4.6,14.9-5.2c0.9-0.1,1.8-0.3,2.5-0.5c2.6-0.6,5.4-4.1,4.9-7c-0.1-0.4-0.2-0.8-0.4-1.2c0.7-0.7,2.8-2.7,6.3-1.6
	c1.4,0.5,2.8,0.5,4,0c1.2-0.4,2.2-1.3,2.8-2.4c1.2-2.4,0.5-6.1-3.7-8.9c-6-4-14.2-18.9-15-20.4c0.9-0.5,1.5-0.8,1.6-0.9
	c0.3-0.2,0.5-0.5,0.6-0.8c1.1-4.5-2.5-7.6-4.5-8.7c-0.5-0.2-1.1-0.2-1.5,0.2c-0.2,0.2-0.4,0.4-0.7,0.5c-0.4-2.1,1.9-8.2,9.5-13.6
	c4.9-3.5,6.9-7.9,7.7-11c0.1,0.5,0.1,0.8,0.1,0.8c0,0.6,0.3,1.1,0.9,1.3c0.6,0.2,1.2,0,1.5-0.5c3-4.2,2.3-9.9,1.5-13.4
	c1.4,0.7,2.1,1.2,2.1,1.2c0.4,0.3,1,0.3,1.5,0.1c0.5-0.3,0.7-0.8,0.6-1.3c-1.8-10.2-13.2-17.6-13.7-17.9
	C203.2,389.4,202.7,389.4,202.3,389.5z M197.1,384.4c1.7,1.8,2.8,4.6,2.6,6.8c-0.1,1.2-0.5,2.2-1.4,2.8c-0.4,0.3-0.8,0.5-1.3,0.7
	c0,0,0,0,0,0c-2.7,1-6.4-0.2-7.8-1.9c-0.1-0.1-0.1-0.7,0.4-1.8c1.1-2.6,3.9-6,6.2-6.8C196.7,383.9,197,384.2,197.1,384.4z
	 M139.2,429.8c0.5-2.7,1.4-4.4,2.6-4.8c0.1,0,0.1,0,0.2-0.1c1.3-0.3,3.1,0.2,5,1.4c5.4,3.5,12.9,13.7,16,30.8
	c1.8,9.6,0.7,15.9-3.1,17.3l0,0c-2.8,1-7-0.6-11.1-4.2C142.6,464.8,137,441.3,139.2,429.8z M140.5,498.7
	c-6.6-1.6-12.4-8.7-15.2-18.5c-3.5-12.2-1.5-22.4,2.2-26.1c1.4-1.4,2.9-1.8,4.5-1.4c4.3,1.2,5.3,9.5,6.5,18.2
	c0.6,4.6,1.2,9.4,2.3,13.9c1.4,5.8,3.3,8.7,5.7,9.1c1.8,0.3,3.3-1.1,4.1-2.1c0.4,0.9,0.9,1.9,1.5,2.8
	C148.7,498.3,144.7,499.7,140.5,498.7z M209.8,476.2c2.9,2,3.5,4.2,2.9,5.5c-0.6,1.2-2,1.6-3.6,1.1c-4.3-1.4-7.6,0.6-9,2.3
	c-1.5-0.8-3.9-1.2-7.7-0.9c1.8-2.6,3.7-6.8,1.8-11.7c-3-7.8-14.5-8.5-15-8.5c-0.7,0-1.3,0.5-1.4,1.2c0,0.7,0.5,1.3,1.2,1.4
	c0.1,0,10.2,0.6,12.6,6.9c2.4,6.1-3.2,11.2-3.4,11.4c-0.4,0.4-0.6,1-0.3,1.6c0.3,0.5,0.8,0.8,1.4,0.7c7.3-1.2,10.1-0.1,10.4,1.4
	c0.3,1.5-1.5,3.7-2.8,4c-0.7,0.2-1.5,0.3-2.4,0.4c-3.8,0.6-8.9,1.4-15.8,5.5c-9.4,5.6-16.5,4.6-23-3.3c-6.5-7.9-3.8-16.9-3-19.2
	c2.9,1.3,5.7,1.7,8,0.9c0,0,0,0,0,0c3.2-1.1,6.6-4.8,5.5-15.6c7.4,0.3,14.5-1.4,20.2-3.4c3-1.1,5.5-2.2,7.5-3.1
	C194.7,456.2,203.2,471.7,209.8,476.2z M193.5,446.1c1,0.7,2.8,2.4,2.5,4.8c-2.7,1.5-16.1,8.6-29.8,8c-0.1,0-0.2,0-0.3,0
	c-0.1-0.7-0.2-1.3-0.3-2.1c-0.3-1.4-0.5-2.7-0.8-4C167.9,452.9,184,453.5,193.5,446.1z M211.5,404c-0.5-0.2-1-0.1-1.4,0.3
	c-0.4,0.4-0.5,0.9-0.3,1.4c0,0.1,2.2,5.9,1,10.8c-0.4-0.6-0.9-1.3-1.5-1.9c-0.4-0.4-0.9-0.5-1.4-0.3c-0.5,0.2-0.8,0.7-0.8,1.2
	c0,0.3,0,7.7-7.1,12.7c-7.7,5.5-11.5,12.8-10.5,16.5c0.1,0.3,0.2,0.5,0.4,0.7c-9.8,5.8-25.1,4.7-25.3,4.7c-0.1,0-0.2,0-0.4,0
	c-3.9-14-10.6-22.7-15.7-26c-2.5-1.6-5-2.3-7-1.8c-1.5,0.4-2.8,1.4-3.6,3.2c-3.2-5.3-0.8-9.5,1.5-13.7c1.5-2.7,3-5.3,2.6-8
	c-0.3-2.3,0.6-5.3,1.8-7.8c0.3,2.9,1.1,5.3,1.1,5.5c0.2,0.5,0.7,0.9,1.2,0.9c0.5,0,1-0.3,1.2-0.8c1.4-3.4,3.8-5.5,6.2-6.8
	c-1.9,2.4-2.7,4.6-2.8,4.8c-0.2,0.6,0,1.2,0.5,1.5c0.5,0.3,1.1,0.3,1.6-0.1c0,0,3-2.4,10.6-3.7c5.9-1,18-6.2,24.7-9.2
	c-0.6,1-1,2-1.3,2.8c-0.4,1.4-0.3,2.6,0.4,3.4c2,2.5,6.8,4.1,10.7,2.8l0,0c0.8-0.3,1.4-0.6,2-1.1c1.3-1,2.1-2.4,2.3-4.2
	c1.2,0.8,8.7,6.1,11.5,13.1C213.2,404.7,212.4,404.4,211.5,404z"/>
<g>
	<g>
		<g>
			<g>
				<path class="st0" d="M612.2,438.6L612.2,438.6c-1.6,0.9-3.3,1.4-5.2,1.7c-0.7,0.1-1.3-0.3-1.5-1l-9.5-34.8
					c-4.8,0.3-9.4-2.2-11.8-6.4c-3.4-6.1-1.2-13.8,4.9-17.1l0.3-0.2l-8.9-32.6l-59.1,28.3l-14.5,42.8c-0.1,0.3-2.5,6.2-8,9.2
					c-2.2,1.2-4.6,1.8-7.1,1.8c-0.7,0-1.3-0.6-1.3-1.3L490,388c-2.9,0.4-9.1,0.8-13.7-2.1c-0.4-0.2-0.6-0.7-0.6-1.1
					c0-5.4,3.7-10.4,5.5-12.7l-34.6-22.2c-0.6-0.4-0.8-1.2-0.4-1.8c1.3-2.1,3.1-3.8,5.3-5.1c5.5-3,11.7-2,12-1.9l44,10.5l55.4-35.1
					l-22.9-24.9l-0.3,0.2c-6.1,3.4-13.8,1.2-17.1-4.9c-2.3-4.2-2-9.5,0.8-13.4L499.1,247c-0.4-0.5-0.5-1.2,0-1.7
					c1.2-1.5,2.7-2.7,4.2-3.5c5.3-2.9,10.5-1.5,10.8-1.4c0.1,0,0.3,0.1,0.4,0.2l29.3,20.4l5.1-2.8c6.1-3.4,13.8-1.2,17.1,4.9
					c2.3,4.2,2.1,9.1-0.6,13.1l30.5,21.3l36.8-20.3l0.5-0.3c25.6-14.2,35.7,1.6,35.8,1.8c0.1,0.3,8.2,17.2-17.5,31.4l-0.6,0.3
					l-36.7,20.3l1.8,37.2c4.7-0.1,9,2.3,11.4,6.5c3.4,6.1,1.2,13.8-4.9,17.1l-5.1,2.8l1.7,35.6c0,0.1,0,0.3-0.1,0.4
					C619,430.4,617.5,435.7,612.2,438.6z M607.7,437.5c1.1-0.3,2.2-0.7,3.2-1.2c3.8-2.1,5.3-5.8,5.6-6.6l-1.8-36.2
					c0-0.5,0.2-1,0.7-1.2l5.9-3.2c4.8-2.7,6.6-8.7,3.9-13.5c-2-3.6-6-5.6-10.1-5c-0.4,0.1-0.7-0.1-1-0.3c-0.3-0.2-0.5-0.6-0.5-1
					l-1.9-39.4c0-0.5,0.2-1,0.7-1.2l37.5-20.7l0.6-0.3c23.5-13,16.5-27.7,16.4-27.8c-0.3-0.5-8.9-13.7-32.2-0.7l-0.5,0.3l-37.5,20.7
					c-0.4,0.2-1,0.2-1.4-0.1l-32.3-22.5c-0.3-0.2-0.5-0.5-0.6-0.9c0-0.4,0.1-0.7,0.3-1c2.7-3.2,3.1-7.6,1.1-11.2
					c-2.7-4.8-8.7-6.6-13.5-3.9l-5.9,3.2c-0.4,0.2-1,0.2-1.4-0.1l-29.7-20.7c-0.9-0.2-4.8-0.9-8.6,1.2c-1,0.5-1.9,1.2-2.7,2.1
					l24.3,26.5c0.5,0.5,0.5,1.3,0,1.8c-2.7,3.2-3.2,7.7-1.2,11.3c2.7,4.8,8.7,6.5,13.5,3.9l1.3-0.7c0.5-0.3,1.2-0.2,1.6,0.3L566,316
					c0.3,0.3,0.4,0.7,0.3,1.1c-0.1,0.4-0.3,0.7-0.6,0.9l-57.2,36.2c-0.3,0.2-0.7,0.3-1,0.2L463,343.7l0,0c0,0-5.5-0.9-10.2,1.7
					c-1.4,0.8-2.6,1.8-3.6,3.1l34.7,22.3c0.3,0.2,0.6,0.6,0.6,1c0,0.4-0.1,0.8-0.4,1.1c-0.1,0.1-5.4,5.6-5.8,11.3
					c5.1,2.7,12.6,1.1,12.6,1.1c0.4-0.1,0.8,0,1.1,0.3c0.3,0.2,0.5,0.6,0.5,1l0.4,41.2c1.6-0.2,3.1-0.6,4.5-1.4
					c4.7-2.6,6.8-7.8,6.8-7.8l14.6-43.3c0.1-0.3,0.3-0.6,0.7-0.8l61.1-29.2c0.4-0.2,0.8-0.2,1.1,0c0.4,0.2,0.6,0.5,0.7,0.9l9.6,35.1
					c0.2,0.6-0.1,1.2-0.6,1.5l-1.3,0.7c-4.8,2.7-6.6,8.7-3.9,13.5c2,3.6,6.1,5.6,10.2,5c0.7-0.1,1.3,0.3,1.5,1L607.7,437.5z"/>
			</g>
		</g>
		<g>
			<path class="st0" d="M576.9,343.7C576.9,343.7,576.9,343.7,576.9,343.7l-50,23.8c-0.7,0.3-1.4,0-1.8-0.6
				c-0.3-0.7-0.1-1.4,0.6-1.8l49.9-23.8c0.7-0.3,1.4,0,1.8,0.6C577.8,342.6,577.6,343.3,576.9,343.7z"/>
		</g>
		<g>
			<path class="st0" d="M500.7,373.2l-29.2,16.1c-0.6,0.4-1.4,0.1-1.8-0.5c-0.4-0.6-0.1-1.4,0.5-1.8l29.2-16.1
				c0.6-0.4,1.4-0.1,1.8,0.5C501.5,372.1,501.3,372.9,500.7,373.2z"/>
		</g>
		<g>
			<path class="st0" d="M604.8,400.3l-7.2,4c-0.6,0.4-1.4,0.1-1.8-0.5c-0.4-0.6-0.1-1.4,0.5-1.8l7.2-4c0.6-0.4,1.4-0.1,1.8,0.5
				C605.7,399.1,605.5,400,604.8,400.3z"/>
		</g>
		<g>
			<path class="st0" d="M564.6,277.3l-7.2,4c-0.6,0.4-1.4,0.1-1.8-0.5c-0.4-0.6-0.1-1.4,0.5-1.8l7.2-4c0.6-0.4,1.4-0.1,1.8,0.5
				C565.5,276.1,565.2,276.9,564.6,277.3z"/>
		</g>
	</g>
	<g>
		<path class="st0" d="M496.3,272.9l-31,17.1c-0.6,0.4-1.4,0.1-1.8-0.5c-0.4-0.6-0.1-1.4,0.5-1.8l31-17.1c0.6-0.4,1.4-0.1,1.8,0.5
			C497.2,271.7,497,272.5,496.3,272.9z"/>
	</g>
	<g>
		<path class="st0" d="M508.7,295.2l-43.2,23.9c-0.6,0.4-1.4,0.1-1.8-0.5c-0.4-0.6-0.1-1.4,0.5-1.8l43.2-23.9
			c0.6-0.4,1.4-0.1,1.8,0.5C509.6,294.1,509.3,294.9,508.7,295.2z"/>
	</g>
	<g>
		<path class="st0" d="M583.4,430.3l-31,17.1c-0.6,0.4-1.4,0.1-1.8-0.5c-0.4-0.6-0.1-1.4,0.5-1.8l31-17.1c0.6-0.4,1.4-0.1,1.8,0.5
			C584.3,429.1,584,429.9,583.4,430.3z"/>
	</g>
	<g>
		<path class="st0" d="M571,407.9l-43.2,23.9c-0.6,0.4-1.4,0.1-1.8-0.5c-0.4-0.6-0.1-1.4,0.5-1.8l43.2-23.9c0.6-0.4,1.4-0.1,1.8,0.5
			S571.7,407.6,571,407.9z"/>
	</g>
</g>
<g>
	<g>
		<path class="st0" d="M205,194.6l-8.1,4.9l-17.8-5.7l28.9-17.7L205,194.6z M196.6,197.2l6.4-3.9l2.1-12.8l-20.8,12.8L196.6,197.2z"
			/>
	</g>
	<g>
		<path class="st0" d="M207.5,179l-25.7,15.8l-24-7.7c-3.3-0.7-9.7-3.1-9.9-3.2c-8.4-3.9-15.4-10-20.3-17.9
			c-12.9-21.1-7-48.5,13.5-62.4l1.3,1.8c-3.3,2.5-4.4,4.8-3.9,5.6c0.2,0.3,0.7,0.5,1.4,0.5c1.4,0.1,3.3-0.4,5.2-1.4
			c1.3-0.6,2.6-1.4,3.8-2.3c1.7-1.3,3-2.8,3.6-4c0.3-0.6,0.3-1.1,0.2-1.4c-0.5-0.8-3.1-0.8-6.8,1l-1-1.9c21.7-12,48.8-4.8,61.7,16.3
			c4.8,7.9,7.2,16.9,6.8,26.1c0,0.4-0.8,7.1-1.7,10.5L207.5,179z M203.7,178.8l1.9-1.1l3.9-23.9c0.9-3.3,1.7-10.1,1.7-10.2
			c0.4-8.7-1.9-17.3-6.5-24.8c-10.9-17.8-32.4-25.2-51.5-18.7c0.6,0.3,1,0.6,1.3,1.1c0.3,0.5,0.5,1.2,0.4,2.2
			c5.6,1.1,28.2,6.6,41,27.5C203.6,143.6,206.3,159.7,203.7,178.8z M197.6,182.5l3.7-2.3c3-19.3,0.5-35.5-7.3-48.3
			c-12.7-20.8-35.4-25.8-40-26.6c-0.6,1.1-1.6,2.2-2.9,3.3c3.7,3.5,17.6,17,30,37.2C188.6,158,194.1,170.3,197.6,182.5z
			 M191.4,186.3l4.2-2.6c-3.4-12.2-8.9-24.5-16.3-36.7c-12.6-20.5-26.7-34.1-29.9-37c-0.8,0.6-1.7,1.1-2.6,1.6
			c1.2,4.2,6.8,22.9,19.4,43.4C173.6,167.2,182.1,177.7,191.4,186.3z M185.8,189.7l3.7-2.3c-9.3-8.6-17.8-19.1-25.2-31.2
			c-12.4-20.2-18.1-38.7-19.5-43.6c-1.5,0.6-3,1-4.2,1c-1.3,4.4-7.2,26.9,5.5,47.7C153.9,174,167.3,183.6,185.8,189.7z M181.5,192.3
			l1.9-1.1c-18.1-6.3-31.3-16-39.1-28.8c-12.8-20.9-7.5-43.6-5.9-49c-0.9-0.3-1.5-0.8-1.7-1.3c-0.3-0.5-0.4-1.1-0.4-1.7
			c-14.4,14.1-17.6,36.6-6.7,54.4c4.6,7.5,11.3,13.4,19.2,17l0,0c0,0,6.4,2.4,9.6,3.1L181.5,192.3z"/>
	</g>
	<g>
		<path class="st0" d="M142.4,105.3l-1.3-1.8c0.6-0.4,1.2-0.8,1.8-1.2l0,0l0,0l0,0l1.1,1.9l-1.1-1.8l1.1,1.8
			c-0.4,0.2-0.7,0.5-1.1,0.7L142.4,105.3z"/>
	</g>
	<g>
		<path class="st0" d="M145.8,103.2l-0.7,0.4c-0.4,0.2-0.8,0.4-1.1,0.6l-0.6-0.9l0,0.1l0,0l0.6,0.9l-0.4-0.6l0.4,0.6l-1.1-1.9
			l0.6,0.9l-0.6-0.9c0,0,0,0,0,0l0,0l0,0c0.6-0.4,1.3-0.7,1.9-1L145.8,103.2z"/>
	</g>
	<g>
		<path class="st0" d="M148.1,110.9c-4.3,2.6-9.8,4-11.5,1.2c-1.3-2.1,0.5-5.5,4.5-8.5l0.6-0.4c0.8-0.6,1.6-1.1,2.4-1.5l0.6-0.3
			c4.6-2.2,8.3-2.3,9.6-0.2C156.1,103.9,152.4,108.2,148.1,110.9z M144,104.2c-0.4,0.2-0.7,0.5-1.1,0.7l-0.6,0.4
			c-3.2,2.4-4.4,4.8-3.9,5.6c0.6,1,4.3,0.7,8.5-1.9c4.2-2.6,6.2-5.8,5.6-6.7c-0.5-0.8-3.1-0.8-6.8,1l-0.6,0.3
			C144.8,103.8,144.4,104,144,104.2z"/>
	</g>
	<g>
		<path class="st0" d="M215.1,210.6l-8.5,5.2c-2,1.2-4.6,0.6-5.8-1.4l-3.7-6.1c-1.2-2-0.6-4.6,1.4-5.8l8.5-5.2
			c2-1.2,4.6-0.6,5.8,1.4l3.7,6.1C217.7,206.8,217.1,209.4,215.1,210.6z M199.6,204.4c-0.9,0.6-1.3,1.8-0.7,2.8l3.7,6.1
			c0.6,0.9,1.8,1.2,2.8,0.7l8.5-5.2c0.9-0.6,1.2-1.8,0.7-2.8l-3.7-6.1c-0.6-0.9-1.8-1.2-2.8-0.7L199.6,204.4z"/>
	</g>
</g>
<g id="papers">
	
		<rect x="226.7" y="181.8" transform="matrix(0.9659 -0.2589 0.2589 0.9659 -76.1494 99.132)" class="st1" width="223.4" height="313.9"/>
	
		<rect x="218.5" y="183.5" transform="matrix(0.9659 -0.2588 0.2588 0.9659 -76.8736 97.0558)" class="st1" width="223.4" height="313.9"/>
	<rect x="226.9" y="184.1" class="st1" width="223.4" height="313.9"/>
	<rect x="218.7" y="184.1" class="st2" width="223.4" height="313.9"/>
</g>
<g id="patch">
	<g>
		<path class="st3" d="M432.6,256.3c-0.5,0-0.9-0.1-1.3-0.4c-2-1.4-4-2.9-5.9-4.6c-0.8-0.7-1.6-1.4-2.4-2.2c-0.9-0.9-1-2.4-0.1-3.3
			c0.9-0.9,2.4-1,3.3-0.1c0.7,0.7,1.5,1.4,2.2,2c1.8,1.5,3.6,3,5.5,4.3c1.1,0.7,1.3,2.2,0.6,3.3
			C434.1,255.9,433.3,256.3,432.6,256.3z"/>
	</g>
	<g>
		<path class="st3" d="M470.7,268.2c-9.3,0-18.6-2-27.3-5.9c-1.2-0.5-1.7-1.9-1.2-3.1c0.5-1.2,1.9-1.7,3.1-1.2
			c13.4,6.1,28.6,7.1,42.8,2.9c32.5-9.6,51.1-44,41.5-76.5c-9.6-32.5-43.9-51.1-76.5-41.5c-32.5,9.6-51.1,44-41.5,76.5
			c0.4,1.3-0.3,2.6-1.6,2.9c-1.3,0.4-2.6-0.3-2.9-1.6c-10.4-35,9.7-72,44.7-82.4c35-10.4,72,9.7,82.4,44.7c10.4,35-9.7,72-44.7,82.4
			C483.3,267.3,477,268.2,470.7,268.2z"/>
	</g>
</g>
<g id="coffee">
	<path class="st4" d="M451.2,181.2c0-36.3,29.4-65.8,65.8-65.8s65.8,29.4,65.8,65.8c0,36.3-29.4,65.8-65.8,65.8
		S451.2,217.5,451.2,181.2"/>
	<ellipse transform="matrix(0.7071 -0.7071 0.7071 0.7071 22.9319 419.3612)" class="st3" cx="517.7" cy="182" rx="66" ry="66"/>
	<g>
		<path class="st1" d="M640.7,171.1c0-5.1-4.2-9.3-9.3-9.3l-24,0c-8.7-35.5-40.7-61.9-78.9-61.9c-44.9,0-81.2,36.4-81.2,81.2
			c0,44.9,36.4,81.2,81.2,81.2c40.9,0,74.8-30.3,80.4-69.6l22.5,0c5.1,0,9.3-4.2,9.3-9.3L640.7,171.1z"/>
		<path class="st1" d="M619.9,192.8l-24.8,0c-5.1,0-9.3-4.2-9.3-9.3v-12.4c0-5.1,4.2-9.3,9.3-9.3l24.8,0c5.1,0,9.3,4.2,9.3,9.3
			l0,12.4C629.1,188.6,625,192.8,619.9,192.8"/>
		<path class="st2" d="M435.7,181.2c0-44.9,36.4-81.2,81.2-81.2c44.9,0,81.2,36.4,81.2,81.2c0,44.9-36.4,81.2-81.2,81.2
			C472.1,262.4,435.7,226,435.7,181.2"/>
	</g>
	<path class="st4" d="M451.2,181.2c0-36.3,29.4-65.8,65.8-65.8s65.8,29.4,65.8,65.8c0,36.3-29.4,65.8-65.8,65.8
		S451.2,217.5,451.2,181.2"/>
	<g class="st5">
		<path class="st2" d="M547.8,189.9c-6,0-10.8-4.8-10.8-10.8c0-6,4.8-10.8,10.8-10.8c6,0,10.8,4.8,10.8,10.8
			C558.6,185.1,553.7,189.9,547.8,189.9"/>
	</g>
	<g class="st6">
		<path class="st2" d="M520.7,222.6c-2.3,0-4.2-1.9-4.2-4.2c0-2.3,1.9-4.2,4.2-4.2c2.3,0,4.2,1.9,4.2,4.2
			C524.9,220.7,523.1,222.6,520.7,222.6"/>
	</g>
	<path class="st3" d="M559.6,217.7c20.2-20.2,20.2-52.9,0-73.1c-10.7-10.7-24.9-15.7-38.9-15c12.4,0.6,24.7,5.5,34.2,15
		c20.2,20.2,20.2,52.9,0,73.1c-9.5,9.5-21.8,14.5-34.2,15C534.7,233.4,548.9,228.4,559.6,217.7"/>
	<path class="st1" d="M475.5,228.7c-26.3-26.3-26.3-68.8,0-95.1c12.5-12.5,28.8-19.1,45.2-19.6c-18-0.6-36.1,5.9-49.9,19.6
		c-26.3,26.3-26.3,68.8,0,95.1c13.7,13.7,31.9,20.3,49.9,19.6C504.3,247.8,488.1,241.3,475.5,228.7"/>
</g>
<text transform="matrix(1 0 0 1 257.499 254.957)" class="st7 st8 st9">To-Do List</text>
<line class="st10" x1="260.5" y1="278.5" x2="389.5" y2="278.5"/>
<line class="st10" x1="260.5" y1="298.5" x2="400.5" y2="298.5"/>
<line class="st10" x1="260.5" y1="318.5" x2="380.5" y2="318.5"/>
<line class="st10" x1="260.5" y1="338.5" x2="405.5" y2="338.5"/>
<line class="st10" x1="260.5" y1="358.5" x2="395.5" y2="358.5"/>
<line class="st10" x1="260.5" y1="378.5" x2="389.5" y2="378.5"/>
<line class="st10" x1="260.5" y1="398.5" x2="395.5" y2="398.5"/>
<line class="st10" x1="260.5" y1="418.5" x2="389.5" y2="418.5"/>
<line class="st10" x1="260.5" y1="438.5" x2="395.5" y2="438.5"/>
<line class="st10" x1="260.5" y1="458.5" x2="389.5" y2="458.5"/>
<g id="pen_1_">
	<path class="st1" d="M334.1,378.1l-31.7,17.1L199.1,498.5l-0.1-0.1l-7,7l3.2,3.2l-7.8,7.8c-1.9,1.9-1.9,4.9,0,6.7l3,3
		c1.9,1.9,4.9,1.9,6.7,0l7.8-7.8l3,3l7-7l-0.2-0.2L318,410.8L334.1,378.1z"/>
	<g>
		
			<rect x="173.5" y="444.7" transform="matrix(0.7071 -0.7071 0.7071 0.7071 -249.5728 308.8722)" class="st11" width="149" height="22"/>
		<path class="st11" d="M185.8,508.5l9.7,9.7l-7.8,7.8c-1.9,1.9-4.9,1.9-6.7,0l-3-3c-1.9-1.9-1.9-4.9,0-6.7L185.8,508.5z"/>
		<polygon class="st7" points="194.4,503.1 201.1,509.8 240.6,470.4 233.7,463.5 		"/>
		<polygon class="st7" points="292.9,395.2 324.6,378.1 308.5,410.8 		"/>
		<polygon class="st2" points="182.6,505.4 198.5,521.2 205.5,514.3 189.6,498.4 		"/>
	</g>
</g>
</svg>
