<?xml version="1.0" encoding="utf-8"?>
<!-- Generator: Adobe Illustrator 21.1.0, SVG Export Plug-In . SVG Version: 6.00 Build 0)  -->
<svg version="1.1" id="Layer_1" xmlns="http://www.w3.org/2000/svg" xmlns:xlink="http://www.w3.org/1999/xlink" x="0px" y="0px"
	 viewBox="0 0 598.9 431.8" style="enable-background:new 0 0 598.9 431.8;" xml:space="preserve">
<style type="text/css">
	.st0{fill:#5D9FC1;}
	.st1{fill:#DBDBE5;}
	.st2{fill:#FFFFFF;}
	.st3{fill:#A48364;}
	.st4{fill:#663610;}
	.st5{opacity:0.3;}
	.st6{opacity:0.1;}
	.st7{fill:#3E414A;}
	.st8{font-family:'ArialMT';}
	.st9{font-size:30.2551px;}
	.st10{fill:none;stroke:#DBDBE5;stroke-width:7;stroke-miterlimit:10;}
	.st11{fill:#F38E4B;}
</style>
<path class="st0" d="M101.7,153c-0.4,0-1,0.2-1.5,0.9c-1.1,1.5-1.3,5.2-1.2,9c-1.9-5.4-4.4-11.3-6.9-12.6c-0.8-0.5-1.5-0.4-2-0.3
	c-2.5,0.7-3.1,4.8-2,13.4c0,0.1,0,0.3,0,0.4c-2.2-5.3-5.1-10.9-7.5-12.1c-0.8-0.4-1.5-0.3-1.9-0.2h-0.1c-2.3,0.9-2.6,5-1.1,13.2
	c0.1,0.6,0.2,1.2,0.4,1.8c-1.8-3.1-4-6-6-6.7c-0.9-0.3-1.7-0.3-2.5,0.1c-3.2,1.7-0.8,9.8,3.2,22.1c1.1,3.5,2.5,7.8,2.8,9.4
	c-0.8-0.3-2.2-1.1-3.3-1.8c-3.1-1.9-6.7-3.9-9-2.9c-0.9,0.4-1.5,1.3-1.8,2.6c-0.8,4.6,4.9,9.5,10,13.8c2.7,2.3,5.2,4.5,6.2,6.1
	c2.1,3.5,5.2,16.9,6.7,23.8c-1.7-2.1-3.6-4.4-5.4-6.7c-6.8-8.4-13.9-17.1-15.9-20.3c-3.3-5.2-3.2-8.1-3.1-11.9c0-0.8,0.1-1.6,0-2.5
	c0-3.4-0.4-11.8-3.8-15.1c-1-1-2.2-1.5-3.5-1.4c-4.3,0.1-5,6.6-5.4,10.9c0,0.3-0.1,0.7-0.1,1c-0.4-0.6-0.9-1.4-1.4-2.2
	c-11.7-17.9-16.6-23.3-19.3-21.5c-2.3,1.5-1.2,6.3,0.4,10.9c-3.5-4.3-7.8-9-10.4-9.3c-0.9-0.1-1.4,0.2-1.7,0.5
	c-1.1,1-1.9,3.4,2.4,12.8c0.3,0.6,0.6,1.2,0.8,1.8c-3.8-4.1-8.4-8.6-11.1-8.7c-0.9,0-1.4,0.3-1.7,0.7c-1.1,1.1-1.7,3.6,3.4,12.8
	c0.6,1.1,1.3,2.3,1.9,3.3c-3.3-2.8-6.9-5.5-8.5-5.4c-0.6,0-0.9,0.3-1.1,0.5c-1.2,1.3-1.6,4.1,5.2,14.3c2.3,3.5,8.5,10.3,15.6,18.2
	c7,7.8,14.9,16.6,21.7,24.8c12.4,15.2,17.1,27.1,17.8,29c0,0.2,0.1,0.4,0.2,0.5c0.7,1,2.1,0.6,3.5,0c3.2-1.3,9-4.7,15.1-8.9
	c3.3-2.3,6.3-4.6,8.8-6.6c0.5,3.3,1,8.2,1.1,9.5c0,0.2,0,0.3,0.1,0.5c0.3,1.1,1.6,1.6,7,0.6c3.7-0.6,8.4-1.8,13.4-3.3
	c4.4-1.3,8.6-2.8,11.9-4.1c6.7-2.7,7-3.8,6.7-4.8c0-0.1,0-0.1-0.1-0.2c-0.5-1.4-6.7-18.2-9.4-27.2c-1.4-4.9-2.7-15-3.9-24.8
	c-1.1-8.8-2.2-17.9-3.5-23.2C108,159.3,105.1,152.6,101.7,153z M45.1,239.3c-6.8-8.3-14.7-17.1-21.7-24.9
	c-7.1-7.9-13.2-14.6-15.4-18c-5.6-8.4-5.7-10.9-5.5-11.6c1.7,0.4,7.5,5.2,12.2,9.6l1.5-1.3c0,0-3-4.5-5.7-9.2
	c-4.9-8.9-3.7-10.4-3.7-10.4s0,0,0.2,0c2.7,0.1,10.9,9,15.3,14.7l1.6-1.1c0,0-2.6-4.6-4.9-9.5c-4.2-9.1-2.9-10.4-2.9-10.5
	c0,0,0.1,0,0.2,0c2.7,0.3,10.1,9.6,14.2,15.4l1.7-1c0,0-1.9-3.8-3.4-7.8c-2.5-6.9-1.5-8.2-1.2-8.4c0.3,0,1.9,0.3,7.3,7.5
	c3.4,4.5,6.9,9.9,9.3,13.5c1.5,2.3,2.2,3.4,2.6,3.8c0.5,0.6,1.1,0.5,1.3,0.4c0.9-0.3,1.1-1.4,1.3-4c0.3-3.2,0.9-9,3.5-9.1
	c0.8,0,1.5,0.3,2.1,0.9c2.3,2.3,3.2,8.5,3.2,13.6c0,0.9,0,1.7,0,2.5c-0.1,3.9-0.2,7.3,3.4,13c2.1,3.3,8.9,11.6,16,20.5
	c6,7.4,12.2,15.1,15,18.9c-0.3,0.1-0.6,0.2-0.9,0.3c-3.2,1.3-9,4.7-15.1,8.9c-4.3,3-8.2,5.9-11,8.4c-1.4,1.2-2.3,2.1-3,2.9
	C60.8,262.8,55.8,252.3,45.1,239.3z M79,259.5c-6,4.1-11.6,7.5-14.7,8.7c-0.1,0-0.1,0.1-0.2,0.1c1.8-2,6.5-6,13.5-10.8
	c6-4.1,11.6-7.5,14.7-8.7c0.1,0,0.1-0.1,0.2-0.1C90.7,250.6,86,254.6,79,259.5z M121.8,255.9c-3.2,1.3-7.4,2.7-11.7,4
	c-8.2,2.4-14.2,3.6-16.9,3.7c0.8-0.5,2.2-1.1,4.4-2.1c3.2-1.3,7.4-2.7,11.7-4c8.2-2.4,14.2-3.6,16.9-3.7
	C125.4,254.3,124.1,255,121.8,255.9z M106,162c1.7,4.8,3.3,11.1,4.5,16.1c1.2,5.2,2.3,14.2,3.4,23c1.2,9.9,2.4,20.1,3.9,25.1
	c2.3,7.6,7.1,20.9,8.8,25.6c-1,0-2.5,0.2-4.5,0.5c-3.7,0.6-8.4,1.8-13.4,3.3c-4.4,1.3-8.6,2.8-11.9,4.1c-2.4,1-3.9,1.7-4.9,2.3
	c-0.3-2.5-0.7-6.6-1.1-9.1c0.1-0.1,0.2-0.2,0.4-0.3c4.1-3.6,4.6-4.9,3.9-5.8c-1.2-1.9-4.1-5.7-7.9-10.4c-0.5-2.6-4.8-23.4-7.8-28.3
	c-1.2-1.9-3.8-4.2-6.6-6.6c-4.4-3.8-9.9-8.5-9.3-12c0.2-0.9,0.5-1.1,0.6-1.2l0,0c1.4-0.6,4.8,1.5,7.1,2.8c3,1.8,4.5,2.6,5.6,2
	c1.4-0.7,0.9-2.6-2.2-11.9c-1.4-4.3-3-9.2-3.9-13.1c-1.4-6-0.3-6.6-0.3-6.7c0.2-0.1,0.4-0.2,0.9,0c3.2,1.2,7.6,10.7,9.1,14.2
	l1.9-0.7c0-0.1-1.6-5.4-2.7-10.9c-2-10.2-0.2-11-0.1-11c0.1,0,0.2,0,0.4,0.1c2.9,1.5,7.9,13.9,10.4,21.5l1.9-0.5
	c0-0.1-1.3-5.6-2-11.3c-1.4-10.5,0.4-11.2,0.5-11.2c0,0,0.2,0,0.4,0.1c2.8,1.6,6.9,13.5,8.8,20.7l1.9-0.4c0,0-0.6-4.2-0.9-8.5
	c-0.5-8,0.8-8.7,0.8-8.7C102.1,155,103.5,155,106,162z"/>
<path class="st0" d="M130.9,293.8c-0.3-2.5-1.5-5.1-3.2-7c-1-1.1-2.5-1.4-4.1-0.8c-1,0.3-2,1-3,1.9c-0.1,0-0.2,0.1-0.3,0.1
	c-0.2,0.1-20.8,9.9-28.6,11.2c-3.3,0.6-5.8,1.3-7.7,2c1.1-1.5,2.7-3.1,4.8-4.1c0.6-0.3,0.9-0.9,0.7-1.5s-0.7-1-1.4-1
	c-0.4,0-8.4,0.7-12.9,7.2c-0.4-2.3-0.5-5.4,0.8-7.5c0.4-0.6,0.2-1.4-0.4-1.8c-0.6-0.4-1.4-0.2-1.8,0.3c-0.3,0.4-6.7,9.3-5.8,15.8
	c0.3,1.8-0.9,3.9-2.3,6.3c-2.6,4.5-5.7,10.2-1,17.1c0.2,0.3,0.5,0.5,0.8,0.5c-0.1,0.3-0.1,0.6-0.2,1c-2.2,11.4,3.1,36.4,10.5,43
	c1.1,1,2.2,1.8,3.3,2.5c-0.6,1.5-2.6,7.4-0.8,14.2c-0.3,0.1-0.5,0.3-0.6,0.6c-0.4,0.7-1.4,1.8-2.1,1.7c-0.3,0-1.9-0.6-3.5-7.1
	c-1.1-4.4-1.7-9.1-2.3-13.6c-1.3-10.1-2.4-18.7-8.4-20.4c-2.5-0.7-5,0-7,2c-5,5.1-6.2,16.9-2.9,28.7c3,10.7,9.6,18.5,17.1,20.3
	c2.6,0.6,5.2,0.5,7.7-0.4c2.2-0.8,4.2-2.1,6.1-4c0,0,0,0.1,0.1,0.1c6,7.3,12.6,9.5,20.6,6.7c1.9-0.7,3.8-1.6,5.8-2.8
	c6.5-3.8,11.3-4.6,14.9-5.2c0.9-0.1,1.8-0.3,2.5-0.5c2.6-0.6,5.4-4.1,4.9-7c-0.1-0.4-0.2-0.8-0.4-1.2c0.7-0.7,2.8-2.7,6.3-1.6
	c1.4,0.5,2.8,0.5,4,0c1.2-0.4,2.2-1.3,2.8-2.4c1.2-2.4,0.5-6.1-3.7-8.9c-6-4-14.2-18.9-15-20.4c0.9-0.5,1.5-0.8,1.6-0.9
	c0.3-0.2,0.5-0.5,0.6-0.8c1.1-4.5-2.5-7.6-4.5-8.7c-0.5-0.2-1.1-0.2-1.5,0.2c-0.2,0.2-0.4,0.4-0.7,0.5c-0.4-2.1,1.9-8.2,9.5-13.6
	c4.9-3.5,6.9-7.9,7.7-11c0.1,0.5,0.1,0.8,0.1,0.8c0,0.6,0.3,1.1,0.9,1.3c0.6,0.2,1.2,0,1.5-0.5c3-4.2,2.3-9.9,1.5-13.4
	c1.4,0.7,2.1,1.2,2.1,1.2c0.4,0.3,1,0.3,1.5,0.1c0.5-0.3,0.7-0.8,0.6-1.3c-1.8-10.2-13.2-17.6-13.7-17.9
	C131.8,293.7,131.3,293.7,130.9,293.8z M125.7,288.7c1.7,1.8,2.8,4.6,2.6,6.8c-0.1,1.2-0.5,2.2-1.4,2.8c-0.4,0.3-0.8,0.5-1.3,0.7
	l0,0c-2.7,1-6.4-0.2-7.8-1.9c-0.1-0.1-0.1-0.7,0.4-1.8c1.1-2.6,3.9-6,6.2-6.8C125.3,288.2,125.6,288.5,125.7,288.7z M67.8,334.1
	c0.5-2.7,1.4-4.4,2.6-4.8c0.1,0,0.1,0,0.2-0.1c1.3-0.3,3.1,0.2,5,1.4c5.4,3.5,12.9,13.7,16,30.8c1.8,9.6,0.7,15.9-3.1,17.3l0,0
	c-2.8,1-7-0.6-11.1-4.2C71.2,369.1,65.6,345.6,67.8,334.1z M69.1,403c-6.6-1.6-12.4-8.7-15.2-18.5c-3.5-12.2-1.5-22.4,2.2-26.1
	c1.4-1.4,2.9-1.8,4.5-1.4c4.3,1.2,5.3,9.5,6.5,18.2c0.6,4.6,1.2,9.4,2.3,13.9c1.4,5.8,3.3,8.7,5.7,9.1c1.8,0.3,3.3-1.1,4.1-2.1
	c0.4,0.9,0.9,1.9,1.5,2.8C77.3,402.6,73.3,404,69.1,403z M138.4,380.5c2.9,2,3.5,4.2,2.9,5.5c-0.6,1.2-2,1.6-3.6,1.1
	c-4.3-1.4-7.6,0.6-9,2.3c-1.5-0.8-3.9-1.2-7.7-0.9c1.8-2.6,3.7-6.8,1.8-11.7c-3-7.8-14.5-8.5-15-8.5c-0.7,0-1.3,0.5-1.4,1.2
	c0,0.7,0.5,1.3,1.2,1.4c0.1,0,10.2,0.6,12.6,6.9c2.4,6.1-3.2,11.2-3.4,11.4c-0.4,0.4-0.6,1-0.3,1.6c0.3,0.5,0.8,0.8,1.4,0.7
	c7.3-1.2,10.1-0.1,10.4,1.4c0.3,1.5-1.5,3.7-2.8,4c-0.7,0.2-1.5,0.3-2.4,0.4c-3.8,0.6-8.9,1.4-15.8,5.5c-9.4,5.6-16.5,4.6-23-3.3
	s-3.8-16.9-3-19.2c2.9,1.3,5.7,1.7,8,0.9l0,0c3.2-1.1,6.6-4.8,5.5-15.6c7.4,0.3,14.5-1.4,20.2-3.4c3-1.1,5.5-2.2,7.5-3.1
	C123.3,360.5,131.8,376,138.4,380.5z M122.1,350.4c1,0.7,2.8,2.4,2.5,4.8c-2.7,1.5-16.1,8.6-29.8,8c-0.1,0-0.2,0-0.3,0
	c-0.1-0.7-0.2-1.3-0.3-2.1c-0.3-1.4-0.5-2.7-0.8-4C96.5,357.2,112.6,357.8,122.1,350.4z M140.1,308.3c-0.5-0.2-1-0.1-1.4,0.3
	s-0.5,0.9-0.3,1.4c0,0.1,2.2,5.9,1,10.8c-0.4-0.6-0.9-1.3-1.5-1.9c-0.4-0.4-0.9-0.5-1.4-0.3s-0.8,0.7-0.8,1.2c0,0.3,0,7.7-7.1,12.7
	c-7.7,5.5-11.5,12.8-10.5,16.5c0.1,0.3,0.2,0.5,0.4,0.7c-9.8,5.8-25.1,4.7-25.3,4.7c-0.1,0-0.2,0-0.4,0c-3.9-14-10.6-22.7-15.7-26
	c-2.5-1.6-5-2.3-7-1.8c-1.5,0.4-2.8,1.4-3.6,3.2c-3.2-5.3-0.8-9.5,1.5-13.7c1.5-2.7,3-5.3,2.6-8c-0.3-2.3,0.6-5.3,1.8-7.8
	c0.3,2.9,1.1,5.3,1.1,5.5c0.2,0.5,0.7,0.9,1.2,0.9s1-0.3,1.2-0.8c1.4-3.4,3.8-5.5,6.2-6.8c-1.9,2.4-2.7,4.6-2.8,4.8
	c-0.2,0.6,0,1.2,0.5,1.5s1.1,0.3,1.6-0.1c0,0,3-2.4,10.6-3.7c5.9-1,18-6.2,24.7-9.2c-0.6,1-1,2-1.3,2.8c-0.4,1.4-0.3,2.6,0.4,3.4
	c2,2.5,6.8,4.1,10.7,2.8l0,0c0.8-0.3,1.4-0.6,2-1.1c1.3-1,2.1-2.4,2.3-4.2c1.2,0.8,8.7,6.1,11.5,13.1
	C141.8,309,141,308.7,140.1,308.3z"/>
<g>
	<g>
		<g>
			<g>
				<path class="st0" d="M540.8,342.9L540.8,342.9c-1.6,0.9-3.3,1.4-5.2,1.7c-0.7,0.1-1.3-0.3-1.5-1l-9.5-34.8
					c-4.8,0.3-9.4-2.2-11.8-6.4c-3.4-6.1-1.2-13.8,4.9-17.1l0.3-0.2l-8.9-32.6L450,280.8l-14.5,42.8c-0.1,0.3-2.5,6.2-8,9.2
					c-2.2,1.2-4.6,1.8-7.1,1.8c-0.7,0-1.3-0.6-1.3-1.3l-0.5-41c-2.9,0.4-9.1,0.8-13.7-2.1c-0.4-0.2-0.6-0.7-0.6-1.1
					c0-5.4,3.7-10.4,5.5-12.7l-34.6-22.2c-0.6-0.4-0.8-1.2-0.4-1.8c1.3-2.1,3.1-3.8,5.3-5.1c5.5-3,11.7-2,12-1.9l44,10.5l55.4-35.1
					l-22.9-24.9l-0.3,0.2c-6.1,3.4-13.8,1.2-17.1-4.9c-2.3-4.2-2-9.5,0.8-13.4l-24.3-26.5c-0.4-0.5-0.5-1.2,0-1.7
					c1.2-1.5,2.7-2.7,4.2-3.5c5.3-2.9,10.5-1.5,10.8-1.4c0.1,0,0.3,0.1,0.4,0.2l29.3,20.4l5.1-2.8c6.1-3.4,13.8-1.2,17.1,4.9
					c2.3,4.2,2.1,9.1-0.6,13.1l30.5,21.3l36.8-20.3l0.5-0.3c25.6-14.2,35.7,1.6,35.8,1.8c0.1,0.3,8.2,17.2-17.5,31.4l-0.6,0.3
					L542.8,235l1.8,37.2c4.7-0.1,9,2.3,11.4,6.5c3.4,6.1,1.2,13.8-4.9,17.1l-5.1,2.8l1.7,35.6c0,0.1,0,0.3-0.1,0.4
					C547.6,334.7,546.1,340,540.8,342.9z M536.3,341.8c1.1-0.3,2.2-0.7,3.2-1.2c3.8-2.1,5.3-5.8,5.6-6.6l-1.8-36.2
					c0-0.5,0.2-1,0.7-1.2l5.9-3.2c4.8-2.7,6.6-8.7,3.9-13.5c-2-3.6-6-5.6-10.1-5c-0.4,0.1-0.7-0.1-1-0.3c-0.3-0.2-0.5-0.6-0.5-1
					l-1.9-39.4c0-0.5,0.2-1,0.7-1.2l37.5-20.7l0.6-0.3c23.5-13,16.5-27.7,16.4-27.8c-0.3-0.5-8.9-13.7-32.2-0.7l-0.5,0.3l-37.5,20.7
					c-0.4,0.2-1,0.2-1.4-0.1l-32.3-22.5c-0.3-0.2-0.5-0.5-0.6-0.9c0-0.4,0.1-0.7,0.3-1c2.7-3.2,3.1-7.6,1.1-11.2
					c-2.7-4.8-8.7-6.6-13.5-3.9l-5.9,3.2c-0.4,0.2-1,0.2-1.4-0.1l-29.7-20.7c-0.9-0.2-4.8-0.9-8.6,1.2c-1,0.5-1.9,1.2-2.7,2.1
					l24.3,26.5c0.5,0.5,0.5,1.3,0,1.8c-2.7,3.2-3.2,7.7-1.2,11.3c2.7,4.8,8.7,6.5,13.5,3.9l1.3-0.7c0.5-0.3,1.2-0.2,1.6,0.3
					l24.5,26.6c0.3,0.3,0.4,0.7,0.3,1.1c-0.1,0.4-0.3,0.7-0.6,0.9l-57.2,36.2c-0.3,0.2-0.7,0.3-1,0.2L391.6,248l0,0
					c0,0-5.5-0.9-10.2,1.7c-1.4,0.8-2.6,1.8-3.6,3.1l34.7,22.3c0.3,0.2,0.6,0.6,0.6,1s-0.1,0.8-0.4,1.1c-0.1,0.1-5.4,5.6-5.8,11.3
					c5.1,2.7,12.6,1.1,12.6,1.1c0.4-0.1,0.8,0,1.1,0.3c0.3,0.2,0.5,0.6,0.5,1l0.4,41.2c1.6-0.2,3.1-0.6,4.5-1.4
					c4.7-2.6,6.8-7.8,6.8-7.8l14.6-43.3c0.1-0.3,0.3-0.6,0.7-0.8l61.1-29.2c0.4-0.2,0.8-0.2,1.1,0c0.4,0.2,0.6,0.5,0.7,0.9l9.6,35.1
					c0.2,0.6-0.1,1.2-0.6,1.5l-1.3,0.7c-4.8,2.7-6.6,8.7-3.9,13.5c2,3.6,6.1,5.6,10.2,5c0.7-0.1,1.3,0.3,1.5,1L536.3,341.8z"/>
			</g>
		</g>
		<g>
			<path class="st0" d="M505.5,248L505.5,248l-50,23.8c-0.7,0.3-1.4,0-1.8-0.6c-0.3-0.7-0.1-1.4,0.6-1.8l49.9-23.8
				c0.7-0.3,1.4,0,1.8,0.6C506.4,246.9,506.2,247.6,505.5,248z"/>
		</g>
		<g>
			<path class="st0" d="M429.3,277.5l-29.2,16.1c-0.6,0.4-1.4,0.1-1.8-0.5s-0.1-1.4,0.5-1.8l29.2-16.1c0.6-0.4,1.4-0.1,1.8,0.5
				C430.1,276.4,429.9,277.2,429.3,277.5z"/>
		</g>
		<g>
			<path class="st0" d="M533.4,304.6l-7.2,4c-0.6,0.4-1.4,0.1-1.8-0.5c-0.4-0.6-0.1-1.4,0.5-1.8l7.2-4c0.6-0.4,1.4-0.1,1.8,0.5
				C534.3,303.4,534.1,304.3,533.4,304.6z"/>
		</g>
		<g>
			<path class="st0" d="M493.2,181.6l-7.2,4c-0.6,0.4-1.4,0.1-1.8-0.5c-0.4-0.6-0.1-1.4,0.5-1.8l7.2-4c0.6-0.4,1.4-0.1,1.8,0.5
				C494.1,180.4,493.8,181.2,493.2,181.6z"/>
		</g>
	</g>
	<g>
		<path class="st0" d="M424.9,177.2l-31,17.1c-0.6,0.4-1.4,0.1-1.8-0.5s-0.1-1.4,0.5-1.8l31-17.1c0.6-0.4,1.4-0.1,1.8,0.5
			C425.8,176,425.6,176.8,424.9,177.2z"/>
	</g>
	<g>
		<path class="st0" d="M437.3,199.5l-43.2,23.9c-0.6,0.4-1.4,0.1-1.8-0.5s-0.1-1.4,0.5-1.8l43.2-23.9c0.6-0.4,1.4-0.1,1.8,0.5
			C438.2,198.4,437.9,199.2,437.3,199.5z"/>
	</g>
	<g>
		<path class="st0" d="M512,334.6l-31,17.1c-0.6,0.4-1.4,0.1-1.8-0.5c-0.4-0.6-0.1-1.4,0.5-1.8l31-17.1c0.6-0.4,1.4-0.1,1.8,0.5
			S512.6,334.2,512,334.6z"/>
	</g>
	<g>
		<path class="st0" d="M499.6,312.2l-43.2,23.9c-0.6,0.4-1.4,0.1-1.8-0.5c-0.4-0.6-0.1-1.4,0.5-1.8l43.2-23.9
			c0.6-0.4,1.4-0.1,1.8,0.5S500.3,311.9,499.6,312.2z"/>
	</g>
</g>
<g>
	<g>
		<path class="st0" d="M133.6,98.9l-8.1,4.9l-17.8-5.7l28.9-17.7L133.6,98.9z M125.2,101.5l6.4-3.9l2.1-12.8l-20.8,12.8L125.2,101.5
			z"/>
	</g>
	<g>
		<path class="st0" d="M136.1,83.3l-25.7,15.8l-24-7.7c-3.3-0.7-9.7-3.1-9.9-3.2c-8.4-3.9-15.4-10-20.3-17.9
			c-12.9-21.1-7-48.5,13.5-62.4L71,9.7c-3.3,2.5-4.4,4.8-3.9,5.6c0.2,0.3,0.7,0.5,1.4,0.5c1.4,0.1,3.3-0.4,5.2-1.4
			c1.3-0.6,2.6-1.4,3.8-2.3c1.7-1.3,3-2.8,3.6-4c0.3-0.6,0.3-1.1,0.2-1.4c-0.5-0.8-3.1-0.8-6.8,1l-1-1.9c21.7-12,48.8-4.8,61.7,16.3
			C140,30,142.4,39,142,48.2c0,0.4-0.8,7.1-1.7,10.5L136.1,83.3z M132.3,83.1l1.9-1.1l3.9-23.9c0.9-3.3,1.7-10.1,1.7-10.2
			c0.4-8.7-1.9-17.3-6.5-24.8C122.4,5.3,100.9-2.1,81.8,4.4c0.6,0.3,1,0.6,1.3,1.1s0.5,1.2,0.4,2.2c5.6,1.1,28.2,6.6,41,27.5
			C132.2,47.9,134.9,64,132.3,83.1z M126.2,86.8l3.7-2.3c3-19.3,0.5-35.5-7.3-48.3c-12.7-20.8-35.4-25.8-40-26.6
			c-0.6,1.1-1.6,2.2-2.9,3.3c3.7,3.5,17.6,17,30,37.2C117.2,62.3,122.7,74.6,126.2,86.8z M120,90.6l4.2-2.6
			c-3.4-12.2-8.9-24.5-16.3-36.7C95.3,30.8,81.2,17.2,78,14.3c-0.8,0.6-1.7,1.1-2.6,1.6c1.2,4.2,6.8,22.9,19.4,43.4
			C102.2,71.5,110.7,82,120,90.6z M114.4,94l3.7-2.3c-9.3-8.6-17.8-19.1-25.2-31.2C80.5,40.3,74.8,21.8,73.4,16.9
			c-1.5,0.6-3,1-4.2,1c-1.3,4.4-7.2,26.9,5.5,47.7C82.5,78.3,95.9,87.9,114.4,94z M110.1,96.6l1.9-1.1c-18.1-6.3-31.3-16-39.1-28.8
			c-12.8-20.9-7.5-43.6-5.9-49c-0.9-0.3-1.5-0.8-1.7-1.3c-0.3-0.5-0.4-1.1-0.4-1.7c-14.4,14.1-17.6,36.6-6.7,54.4
			c4.6,7.5,11.3,13.4,19.2,17l0,0c0,0,6.4,2.4,9.6,3.1L110.1,96.6z"/>
	</g>
	<g>
		<path class="st0" d="M71,9.6l-1.3-1.8c0.6-0.4,1.2-0.8,1.8-1.2l0,0l0,0l0,0l1.1,1.9l-1.1-1.8l1.1,1.8c-0.4,0.2-0.7,0.5-1.1,0.7
			L71,9.6z"/>
	</g>
	<g>
		<path class="st0" d="M74.4,7.5l-0.7,0.4c-0.4,0.2-0.8,0.4-1.1,0.6L72,7.6v0.1l0,0l0.6,0.9L72.2,8l0.4,0.6l-1.1-1.9l0.6,0.9
			l-0.6-0.9l0,0l0,0l0,0c0.6-0.4,1.3-0.7,1.9-1L74.4,7.5z"/>
	</g>
	<g>
		<path class="st0" d="M76.7,15.2c-4.3,2.6-9.8,4-11.5,1.2c-1.3-2.1,0.5-5.5,4.5-8.5l0.6-0.4c0.8-0.6,1.6-1.1,2.4-1.5l0.6-0.3
			c4.6-2.2,8.3-2.3,9.6-0.2C84.7,8.2,81,12.5,76.7,15.2z M72.6,8.5c-0.4,0.2-0.7,0.5-1.1,0.7l-0.6,0.4c-3.2,2.4-4.4,4.8-3.9,5.6
			c0.6,1,4.3,0.7,8.5-1.9s6.2-5.8,5.6-6.7c-0.5-0.8-3.1-0.8-6.8,1l-0.6,0.3C73.4,8.1,73,8.3,72.6,8.5z"/>
	</g>
	<g>
		<path class="st0" d="M143.7,114.9l-8.5,5.2c-2,1.2-4.6,0.6-5.8-1.4l-3.7-6.1c-1.2-2-0.6-4.6,1.4-5.8l8.5-5.2
			c2-1.2,4.6-0.6,5.8,1.4l3.7,6.1C146.3,111.1,145.7,113.7,143.7,114.9z M128.2,108.7c-0.9,0.6-1.3,1.8-0.7,2.8l3.7,6.1
			c0.6,0.9,1.8,1.2,2.8,0.7l8.5-5.2c0.9-0.6,1.2-1.8,0.7-2.8l-3.7-6.1c-0.6-0.9-1.8-1.2-2.8-0.7L128.2,108.7z"/>
	</g>
</g>
<g id="papers">
	
		<rect x="155.3" y="86.1" transform="matrix(0.9659 -0.2589 0.2589 0.9659 -53.8134 77.4152)" class="st1" width="223.4" height="313.9"/>
	
		<rect x="147.1" y="87.8" transform="matrix(0.9659 -0.2588 0.2588 0.9659 -54.5237 75.3107)" class="st1" width="223.4" height="313.9"/>
	<rect x="155.5" y="88.4" class="st1" width="223.4" height="313.9"/>
	<rect x="147.3" y="88.4" class="st2" width="223.4" height="313.9"/>
</g>
<g id="patch">
	<g>
		<path class="st3" d="M361.2,160.6c-0.5,0-0.9-0.1-1.3-0.4c-2-1.4-4-2.9-5.9-4.6c-0.8-0.7-1.6-1.4-2.4-2.2c-0.9-0.9-1-2.4-0.1-3.3
			c0.9-0.9,2.4-1,3.3-0.1c0.7,0.7,1.5,1.4,2.2,2c1.8,1.5,3.6,3,5.5,4.3c1.1,0.7,1.3,2.2,0.6,3.3
			C362.7,160.2,361.9,160.6,361.2,160.6z"/>
	</g>
	<g>
		<path class="st3" d="M399.3,172.5c-9.3,0-18.6-2-27.3-5.9c-1.2-0.5-1.7-1.9-1.2-3.1s1.9-1.7,3.1-1.2c13.4,6.1,28.6,7.1,42.8,2.9
			c32.5-9.6,51.1-44,41.5-76.5c-9.6-32.5-43.9-51.1-76.5-41.5c-32.5,9.6-51.1,44-41.5,76.5c0.4,1.3-0.3,2.6-1.6,2.9
			c-1.3,0.4-2.6-0.3-2.9-1.6c-10.4-35,9.7-72,44.7-82.4s72,9.7,82.4,44.7s-9.7,72-44.7,82.4C411.9,171.6,405.6,172.5,399.3,172.5z"
			/>
	</g>
</g>
<g id="coffee">
	<path class="st4" d="M379.8,85.5c0-36.3,29.4-65.8,65.8-65.8s65.8,29.4,65.8,65.8c0,36.3-29.4,65.8-65.8,65.8
		S379.8,121.8,379.8,85.5"/>
	<ellipse transform="matrix(0.7071 -0.7071 0.7071 0.7071 69.7009 340.8448)" class="st3" cx="446.3" cy="86.3" rx="66" ry="66"/>
	<g>
		<path class="st1" d="M569.3,75.4c0-5.1-4.2-9.3-9.3-9.3h-24c-8.7-35.5-40.7-61.9-78.9-61.9c-44.9,0-81.2,36.4-81.2,81.2
			c0,44.9,36.4,81.2,81.2,81.2c40.9,0,74.8-30.3,80.4-69.6H560c5.1,0,9.3-4.2,9.3-9.3V75.4z"/>
		<path class="st1" d="M548.5,97.1h-24.8c-5.1,0-9.3-4.2-9.3-9.3V75.4c0-5.1,4.2-9.3,9.3-9.3h24.8c5.1,0,9.3,4.2,9.3,9.3v12.4
			C557.7,92.9,553.6,97.1,548.5,97.1"/>
		<path class="st2" d="M364.3,85.5c0-44.9,36.4-81.2,81.2-81.2c44.9,0,81.2,36.4,81.2,81.2c0,44.9-36.4,81.2-81.2,81.2
			S364.3,130.3,364.3,85.5"/>
	</g>
	<path class="st4" d="M379.8,85.5c0-36.3,29.4-65.8,65.8-65.8s65.8,29.4,65.8,65.8c0,36.3-29.4,65.8-65.8,65.8
		S379.8,121.8,379.8,85.5"/>
	<g class="st5">
		<path class="st2" d="M476.4,94.2c-6,0-10.8-4.8-10.8-10.8s4.8-10.8,10.8-10.8s10.8,4.8,10.8,10.8
			C487.2,89.4,482.3,94.2,476.4,94.2"/>
	</g>
	<g class="st6">
		<path class="st2" d="M449.3,126.9c-2.3,0-4.2-1.9-4.2-4.2s1.9-4.2,4.2-4.2s4.2,1.9,4.2,4.2C453.5,125,451.7,126.9,449.3,126.9"/>
	</g>
	<path class="st3" d="M488.2,122c20.2-20.2,20.2-52.9,0-73.1c-10.7-10.7-24.9-15.7-38.9-15c12.4,0.6,24.7,5.5,34.2,15
		c20.2,20.2,20.2,52.9,0,73.1c-9.5,9.5-21.8,14.5-34.2,15C463.3,137.7,477.5,132.7,488.2,122"/>
	<path class="st1" d="M404.1,133c-26.3-26.3-26.3-68.8,0-95.1c12.5-12.5,28.8-19.1,45.2-19.6c-18-0.6-36.1,5.9-49.9,19.6
		c-26.3,26.3-26.3,68.8,0,95.1c13.7,13.7,31.9,20.3,49.9,19.6C432.9,152.1,416.7,145.6,404.1,133"/>
</g>
<text transform="matrix(1 0 0 1 186.0958 159.2552)" class="st7 st8 st9">To-Do List</text>
<line class="st10" x1="189.1" y1="182.8" x2="318.1" y2="182.8"/>
<line class="st10" x1="189.1" y1="202.8" x2="329.1" y2="202.8"/>
<line class="st10" x1="189.1" y1="222.8" x2="309.1" y2="222.8"/>
<line class="st10" x1="189.1" y1="242.8" x2="334.1" y2="242.8"/>
<line class="st10" x1="189.1" y1="262.8" x2="324.1" y2="262.8"/>
<line class="st10" x1="189.1" y1="282.8" x2="318.1" y2="282.8"/>
<line class="st10" x1="189.1" y1="302.8" x2="324.1" y2="302.8"/>
<line class="st10" x1="189.1" y1="322.8" x2="318.1" y2="322.8"/>
<line class="st10" x1="189.1" y1="342.8" x2="324.1" y2="342.8"/>
<line class="st10" x1="189.1" y1="362.8" x2="318.1" y2="362.8"/>
<g id="pen_1_">
	<path class="st1" d="M262.7,282.4L231,299.5L127.7,402.8l-0.1-0.1l-7,7l3.2,3.2l-7.8,7.8c-1.9,1.9-1.9,4.9,0,6.7l3,3
		c1.9,1.9,4.9,1.9,6.7,0l7.8-7.8l3,3l7-7l-0.2-0.2l103.3-103.3L262.7,282.4z"/>
	<g>
		
			<rect x="102.1" y="349" transform="matrix(0.7071 -0.7071 0.7071 0.7071 -202.8553 230.3341)" class="st11" width="149" height="22"/>
		<path class="st11" d="M114.4,412.8l9.7,9.7l-7.8,7.8c-1.9,1.9-4.9,1.9-6.7,0l-3-3c-1.9-1.9-1.9-4.9,0-6.7L114.4,412.8z"/>
		<polygon class="st7" points="123,407.4 129.7,414.1 169.2,374.7 162.3,367.8 		"/>
		<polygon class="st7" points="221.5,299.5 253.2,282.4 237.1,315.1 		"/>
		<polygon class="st2" points="111.2,409.7 127.1,425.5 134.1,418.6 118.2,402.7 		"/>
	</g>
</g>
</svg>
