<?xml version="1.0" encoding="iso-8859-1"?>
<!-- Generator: Adobe Illustrator 19.0.0, SVG Export Plug-In . SVG Version: 6.00 Build 0)  -->
<svg version="1.1" id="Layer_1" xmlns="http://www.w3.org/2000/svg" xmlns:xlink="http://www.w3.org/1999/xlink" x="0px" y="0px"
	 viewBox="0 0 512.001 512.001" style="enable-background:new 0 0 512.001 512.001;" xml:space="preserve">
<path style="fill:#66C49A;" d="M427.67,153.527c-1.054-1.149-2.541-1.803-4.103-1.803H88.432c-1.558,0-3.046,0.654-4.1,1.803
	c-1.054,1.149-1.578,2.688-1.444,4.242l30.203,349.147c0.248,2.877,2.657,5.086,5.543,5.086h274.732
	c2.889,0,5.296-2.208,5.545-5.086l30.203-349.147C429.248,156.215,428.726,154.676,427.67,153.527z"/>
<polyline style="fill:#828186;" points="365.414,198.132 425.624,198.132 429.636,151.724 82.365,151.724 86.381,198.132
	336.475,198.132 "/>
<path style="fill:#50AA7F;" d="M139.805,506.914l-30.203-349.147c-0.135-1.554,0.39-3.092,1.444-4.242
	c1.053-1.149,2.541-1.803,4.1-1.803H88.433c-1.558,0-3.046,0.654-4.1,1.803c-1.054,1.149-1.578,2.688-1.444,4.242l30.203,349.147
	c0.248,2.877,2.657,5.086,5.543,5.086h26.713C142.461,512,140.052,509.792,139.805,506.914z"/>
<polygon style="fill:#676570;" points="82.365,151.724 86.381,198.132 113.094,198.132 109.078,151.724 "/>
<path id="SVGCleanerId_0" style="fill:#828186;" d="M427.019,119.604L400.104,6.837C399.147,2.828,395.565,0,391.443,0H120.56
	c-4.122,0-7.705,2.828-8.661,6.837L84.985,119.604c-0.632,2.651-0.018,5.446,1.672,7.584c1.688,2.139,4.263,3.387,6.989,3.387
	h324.712c2.724,0,5.3-1.248,6.989-3.387C427.035,125.05,427.652,122.255,427.019,119.604z"/>
<g>
	<path id="SVGCleanerId_0_1_" style="fill:#828186;" d="M427.019,119.604L400.104,6.837C399.147,2.828,395.565,0,391.443,0H120.56
		c-4.122,0-7.705,2.828-8.661,6.837L84.985,119.604c-0.632,2.651-0.018,5.446,1.672,7.584c1.688,2.139,4.263,3.387,6.989,3.387
		h324.712c2.724,0,5.3-1.248,6.989-3.387C427.035,125.05,427.652,122.255,427.019,119.604z"/>
</g>
<path style="fill:#676570;" d="M113.37,127.189c-1.69-2.139-2.304-4.934-1.672-7.584L138.613,6.837
	C139.57,2.828,143.152,0,147.274,0H120.56c-4.122,0-7.705,2.828-8.661,6.837L84.985,119.604c-0.632,2.651-0.018,5.446,1.672,7.584
	c1.688,2.139,4.263,3.387,6.989,3.387h26.713C117.633,130.575,115.057,129.327,113.37,127.189z"/>
<path style="fill:#66C49A;" d="M361.184,130.575V67.818c0-8.279-5.978-14.993-13.357-14.993H164.174
	c-7.376,0-13.357,6.713-13.357,14.993v62.758h210.366V130.575z"/>
<path style="fill:#50AA7F;" d="M186.435,52.825h-22.261c-7.376,0-13.357,6.713-13.357,14.993v62.758h22.261V67.818
	C173.078,59.538,179.059,52.825,186.435,52.825z"/>
<path style="fill:#BDBEC0;" d="M458.575,145.587v-15.898c0-7.376-5.978-13.357-13.357-13.357H66.782
	c-7.376,0-13.357,5.98-13.357,13.357v15.898c0,7.376,5.98,13.357,13.357,13.357h378.436
	C452.597,158.943,458.575,152.963,458.575,145.587z"/>
<path style="fill:#AAADAF;" d="M75.687,145.587v-15.898c0-7.376,5.98-13.357,13.357-13.357H66.782
	c-7.376,0-13.357,5.98-13.357,13.357v15.898c0,7.376,5.98,13.357,13.357,13.357h22.261
	C81.667,158.943,75.687,152.963,75.687,145.587z"/>
<g>
	<path style="fill:#F5F5F5;" d="M340.521,362.646c-4.464-1.163-9.018,1.523-10.174,5.986c-8.772,33.834-39.344,57.467-74.346,57.467
		c-31.465,0-59.338-19.102-71.025-47.54l14.096,6.688c4.164,1.978,9.144,0.203,11.119-3.962c1.976-4.165,0.203-9.144-3.964-11.12
		l-31.889-15.131c-2-0.949-4.295-1.065-6.38-0.322c-2.087,0.743-3.791,2.285-4.74,4.285l-15.131,31.889
		c-1.977,4.165-0.201,9.144,3.964,11.12c1.154,0.548,2.373,0.808,3.572,0.808c3.124,0,6.12-1.762,7.548-4.772l6.302-13.283
		c14.191,34.712,48.169,58.037,86.526,58.037c42.609,0,79.827-28.775,90.506-69.973
		C347.665,368.357,344.983,363.802,340.521,362.646z"/>
	<path style="fill:#F5F5F5;" d="M361.127,297.738c-4.166-1.975-9.145-0.201-11.12,3.964l-6.701,14.122
		c-13.69-35.802-48.221-60.022-87.306-60.022c-42.609,0-79.827,28.776-90.505,69.975c-1.158,4.463,1.522,9.018,5.985,10.175
		c4.464,1.16,9.02-1.524,10.177-5.986c8.77-33.837,39.342-57.469,74.344-57.469c31.737,0,59.831,19.428,71.335,48.275l-13.229-6.276
		c-4.165-1.979-9.144-0.203-11.12,3.964c-1.977,4.165-0.203,9.144,3.964,11.12l31.889,15.131c1.129,0.536,2.352,0.807,3.578,0.807
		c0.946,0,1.893-0.161,2.803-0.485c2.085-0.743,3.79-2.285,4.739-4.285l15.131-31.889
		C367.066,304.694,365.292,299.715,361.127,297.738z"/>
</g>
</svg>
